%TF.GenerationSoftware,KiCad,Pcbnew,9.0.2-1.fc42app2*%
%TF.CreationDate,2025-07-13T15:05:57-07:00*%
%TF.ProjectId,rev0A,72657630-412e-46b6-9963-61645f706362,rev?*%
%TF.SameCoordinates,Original*%
%TF.FileFunction,Drillmap*%
%TF.FilePolarity,Positive*%
%FSLAX45Y45*%
G04 Gerber Fmt 4.5, Leading zero omitted, Abs format (unit mm)*
G04 Created by KiCad (PCBNEW 9.0.2-1.fc42app2) date 2025-07-13 15:05:57*
%MOMM*%
%LPD*%
G01*
G04 APERTURE LIST*
%ADD10C,0.200000*%
%ADD11C,0.100000*%
%ADD12C,0.320000*%
G04 APERTURE END LIST*
D10*
X10040000Y-6460000D02*
G75*
G02*
X10360000Y-6140000I320000J0D01*
G01*
X10360000Y-14140000D02*
G75*
G02*
X10040000Y-13820000I0J320000D01*
G01*
X19720000Y-6140000D02*
G75*
G02*
X20040000Y-6460000I0J-320000D01*
G01*
X19720000Y-14140000D02*
X10360000Y-14140000D01*
X20040000Y-6460000D02*
X20040000Y-13820000D01*
X10360000Y-6140000D02*
X19720000Y-6140000D01*
X10040000Y-13820000D02*
X10040000Y-6460000D01*
X20040000Y-13820000D02*
G75*
G02*
X19720000Y-14140000I-320000J0D01*
G01*
D11*
X19410750Y-7030000D02*
X19490750Y-7110000D01*
X19490750Y-7030000D02*
X19410750Y-7110000D01*
X19410750Y-7610000D02*
X19490750Y-7690000D01*
X19490750Y-7610000D02*
X19410750Y-7690000D01*
D12*
X10560000Y-6500000D02*
G75*
G02*
X10240000Y-6500000I-160000J0D01*
G01*
X10240000Y-6500000D02*
G75*
G02*
X10560000Y-6500000I160000J0D01*
G01*
X10560000Y-13780000D02*
G75*
G02*
X10240000Y-13780000I-160000J0D01*
G01*
X10240000Y-13780000D02*
G75*
G02*
X10560000Y-13780000I160000J0D01*
G01*
X19840000Y-6500000D02*
G75*
G02*
X19520000Y-6500000I-160000J0D01*
G01*
X19520000Y-6500000D02*
G75*
G02*
X19840000Y-6500000I160000J0D01*
G01*
X19840000Y-13780000D02*
G75*
G02*
X19520000Y-13780000I-160000J0D01*
G01*
X19520000Y-13780000D02*
G75*
G02*
X19840000Y-13780000I160000J0D01*
G01*
D10*
X10290777Y-14461484D02*
X10290777Y-14261484D01*
X10290777Y-14261484D02*
X10338396Y-14261484D01*
X10338396Y-14261484D02*
X10366967Y-14271008D01*
X10366967Y-14271008D02*
X10386015Y-14290055D01*
X10386015Y-14290055D02*
X10395539Y-14309103D01*
X10395539Y-14309103D02*
X10405063Y-14347198D01*
X10405063Y-14347198D02*
X10405063Y-14375769D01*
X10405063Y-14375769D02*
X10395539Y-14413865D01*
X10395539Y-14413865D02*
X10386015Y-14432912D01*
X10386015Y-14432912D02*
X10366967Y-14451960D01*
X10366967Y-14451960D02*
X10338396Y-14461484D01*
X10338396Y-14461484D02*
X10290777Y-14461484D01*
X10490777Y-14461484D02*
X10490777Y-14328150D01*
X10490777Y-14366246D02*
X10500301Y-14347198D01*
X10500301Y-14347198D02*
X10509824Y-14337674D01*
X10509824Y-14337674D02*
X10528872Y-14328150D01*
X10528872Y-14328150D02*
X10547920Y-14328150D01*
X10614586Y-14461484D02*
X10614586Y-14328150D01*
X10614586Y-14261484D02*
X10605063Y-14271008D01*
X10605063Y-14271008D02*
X10614586Y-14280531D01*
X10614586Y-14280531D02*
X10624110Y-14271008D01*
X10624110Y-14271008D02*
X10614586Y-14261484D01*
X10614586Y-14261484D02*
X10614586Y-14280531D01*
X10738396Y-14461484D02*
X10719348Y-14451960D01*
X10719348Y-14451960D02*
X10709824Y-14432912D01*
X10709824Y-14432912D02*
X10709824Y-14261484D01*
X10843158Y-14461484D02*
X10824110Y-14451960D01*
X10824110Y-14451960D02*
X10814586Y-14432912D01*
X10814586Y-14432912D02*
X10814586Y-14261484D01*
X11071729Y-14461484D02*
X11071729Y-14261484D01*
X11071729Y-14261484D02*
X11138396Y-14404341D01*
X11138396Y-14404341D02*
X11205062Y-14261484D01*
X11205062Y-14261484D02*
X11205062Y-14461484D01*
X11386015Y-14461484D02*
X11386015Y-14356722D01*
X11386015Y-14356722D02*
X11376491Y-14337674D01*
X11376491Y-14337674D02*
X11357443Y-14328150D01*
X11357443Y-14328150D02*
X11319348Y-14328150D01*
X11319348Y-14328150D02*
X11300301Y-14337674D01*
X11386015Y-14451960D02*
X11366967Y-14461484D01*
X11366967Y-14461484D02*
X11319348Y-14461484D01*
X11319348Y-14461484D02*
X11300301Y-14451960D01*
X11300301Y-14451960D02*
X11290777Y-14432912D01*
X11290777Y-14432912D02*
X11290777Y-14413865D01*
X11290777Y-14413865D02*
X11300301Y-14394817D01*
X11300301Y-14394817D02*
X11319348Y-14385293D01*
X11319348Y-14385293D02*
X11366967Y-14385293D01*
X11366967Y-14385293D02*
X11386015Y-14375769D01*
X11481253Y-14328150D02*
X11481253Y-14528150D01*
X11481253Y-14337674D02*
X11500301Y-14328150D01*
X11500301Y-14328150D02*
X11538396Y-14328150D01*
X11538396Y-14328150D02*
X11557443Y-14337674D01*
X11557443Y-14337674D02*
X11566967Y-14347198D01*
X11566967Y-14347198D02*
X11576491Y-14366246D01*
X11576491Y-14366246D02*
X11576491Y-14423388D01*
X11576491Y-14423388D02*
X11566967Y-14442436D01*
X11566967Y-14442436D02*
X11557443Y-14451960D01*
X11557443Y-14451960D02*
X11538396Y-14461484D01*
X11538396Y-14461484D02*
X11500301Y-14461484D01*
X11500301Y-14461484D02*
X11481253Y-14451960D01*
X11662205Y-14442436D02*
X11671729Y-14451960D01*
X11671729Y-14451960D02*
X11662205Y-14461484D01*
X11662205Y-14461484D02*
X11652682Y-14451960D01*
X11652682Y-14451960D02*
X11662205Y-14442436D01*
X11662205Y-14442436D02*
X11662205Y-14461484D01*
X11662205Y-14337674D02*
X11671729Y-14347198D01*
X11671729Y-14347198D02*
X11662205Y-14356722D01*
X11662205Y-14356722D02*
X11652682Y-14347198D01*
X11652682Y-14347198D02*
X11662205Y-14337674D01*
X11662205Y-14337674D02*
X11662205Y-14356722D01*
D11*
X9950000Y-14750000D02*
X10030000Y-14830000D01*
X10030000Y-14750000D02*
X9950000Y-14830000D01*
D10*
X10328872Y-14681484D02*
X10347920Y-14681484D01*
X10347920Y-14681484D02*
X10366967Y-14691008D01*
X10366967Y-14691008D02*
X10376491Y-14700531D01*
X10376491Y-14700531D02*
X10386015Y-14719579D01*
X10386015Y-14719579D02*
X10395539Y-14757674D01*
X10395539Y-14757674D02*
X10395539Y-14805293D01*
X10395539Y-14805293D02*
X10386015Y-14843388D01*
X10386015Y-14843388D02*
X10376491Y-14862436D01*
X10376491Y-14862436D02*
X10366967Y-14871960D01*
X10366967Y-14871960D02*
X10347920Y-14881484D01*
X10347920Y-14881484D02*
X10328872Y-14881484D01*
X10328872Y-14881484D02*
X10309824Y-14871960D01*
X10309824Y-14871960D02*
X10300301Y-14862436D01*
X10300301Y-14862436D02*
X10290777Y-14843388D01*
X10290777Y-14843388D02*
X10281253Y-14805293D01*
X10281253Y-14805293D02*
X10281253Y-14757674D01*
X10281253Y-14757674D02*
X10290777Y-14719579D01*
X10290777Y-14719579D02*
X10300301Y-14700531D01*
X10300301Y-14700531D02*
X10309824Y-14691008D01*
X10309824Y-14691008D02*
X10328872Y-14681484D01*
X10481253Y-14862436D02*
X10490777Y-14871960D01*
X10490777Y-14871960D02*
X10481253Y-14881484D01*
X10481253Y-14881484D02*
X10471729Y-14871960D01*
X10471729Y-14871960D02*
X10481253Y-14862436D01*
X10481253Y-14862436D02*
X10481253Y-14881484D01*
X10605063Y-14767198D02*
X10586015Y-14757674D01*
X10586015Y-14757674D02*
X10576491Y-14748150D01*
X10576491Y-14748150D02*
X10566967Y-14729103D01*
X10566967Y-14729103D02*
X10566967Y-14719579D01*
X10566967Y-14719579D02*
X10576491Y-14700531D01*
X10576491Y-14700531D02*
X10586015Y-14691008D01*
X10586015Y-14691008D02*
X10605063Y-14681484D01*
X10605063Y-14681484D02*
X10643158Y-14681484D01*
X10643158Y-14681484D02*
X10662205Y-14691008D01*
X10662205Y-14691008D02*
X10671729Y-14700531D01*
X10671729Y-14700531D02*
X10681253Y-14719579D01*
X10681253Y-14719579D02*
X10681253Y-14729103D01*
X10681253Y-14729103D02*
X10671729Y-14748150D01*
X10671729Y-14748150D02*
X10662205Y-14757674D01*
X10662205Y-14757674D02*
X10643158Y-14767198D01*
X10643158Y-14767198D02*
X10605063Y-14767198D01*
X10605063Y-14767198D02*
X10586015Y-14776722D01*
X10586015Y-14776722D02*
X10576491Y-14786246D01*
X10576491Y-14786246D02*
X10566967Y-14805293D01*
X10566967Y-14805293D02*
X10566967Y-14843388D01*
X10566967Y-14843388D02*
X10576491Y-14862436D01*
X10576491Y-14862436D02*
X10586015Y-14871960D01*
X10586015Y-14871960D02*
X10605063Y-14881484D01*
X10605063Y-14881484D02*
X10643158Y-14881484D01*
X10643158Y-14881484D02*
X10662205Y-14871960D01*
X10662205Y-14871960D02*
X10671729Y-14862436D01*
X10671729Y-14862436D02*
X10681253Y-14843388D01*
X10681253Y-14843388D02*
X10681253Y-14805293D01*
X10681253Y-14805293D02*
X10671729Y-14786246D01*
X10671729Y-14786246D02*
X10662205Y-14776722D01*
X10662205Y-14776722D02*
X10643158Y-14767198D01*
X10805063Y-14681484D02*
X10824110Y-14681484D01*
X10824110Y-14681484D02*
X10843158Y-14691008D01*
X10843158Y-14691008D02*
X10852682Y-14700531D01*
X10852682Y-14700531D02*
X10862205Y-14719579D01*
X10862205Y-14719579D02*
X10871729Y-14757674D01*
X10871729Y-14757674D02*
X10871729Y-14805293D01*
X10871729Y-14805293D02*
X10862205Y-14843388D01*
X10862205Y-14843388D02*
X10852682Y-14862436D01*
X10852682Y-14862436D02*
X10843158Y-14871960D01*
X10843158Y-14871960D02*
X10824110Y-14881484D01*
X10824110Y-14881484D02*
X10805063Y-14881484D01*
X10805063Y-14881484D02*
X10786015Y-14871960D01*
X10786015Y-14871960D02*
X10776491Y-14862436D01*
X10776491Y-14862436D02*
X10766967Y-14843388D01*
X10766967Y-14843388D02*
X10757444Y-14805293D01*
X10757444Y-14805293D02*
X10757444Y-14757674D01*
X10757444Y-14757674D02*
X10766967Y-14719579D01*
X10766967Y-14719579D02*
X10776491Y-14700531D01*
X10776491Y-14700531D02*
X10786015Y-14691008D01*
X10786015Y-14691008D02*
X10805063Y-14681484D01*
X10995539Y-14681484D02*
X11014586Y-14681484D01*
X11014586Y-14681484D02*
X11033634Y-14691008D01*
X11033634Y-14691008D02*
X11043158Y-14700531D01*
X11043158Y-14700531D02*
X11052682Y-14719579D01*
X11052682Y-14719579D02*
X11062205Y-14757674D01*
X11062205Y-14757674D02*
X11062205Y-14805293D01*
X11062205Y-14805293D02*
X11052682Y-14843388D01*
X11052682Y-14843388D02*
X11043158Y-14862436D01*
X11043158Y-14862436D02*
X11033634Y-14871960D01*
X11033634Y-14871960D02*
X11014586Y-14881484D01*
X11014586Y-14881484D02*
X10995539Y-14881484D01*
X10995539Y-14881484D02*
X10976491Y-14871960D01*
X10976491Y-14871960D02*
X10966967Y-14862436D01*
X10966967Y-14862436D02*
X10957444Y-14843388D01*
X10957444Y-14843388D02*
X10947920Y-14805293D01*
X10947920Y-14805293D02*
X10947920Y-14757674D01*
X10947920Y-14757674D02*
X10957444Y-14719579D01*
X10957444Y-14719579D02*
X10966967Y-14700531D01*
X10966967Y-14700531D02*
X10976491Y-14691008D01*
X10976491Y-14691008D02*
X10995539Y-14681484D01*
X11147920Y-14881484D02*
X11147920Y-14748150D01*
X11147920Y-14767198D02*
X11157444Y-14757674D01*
X11157444Y-14757674D02*
X11176491Y-14748150D01*
X11176491Y-14748150D02*
X11205063Y-14748150D01*
X11205063Y-14748150D02*
X11224110Y-14757674D01*
X11224110Y-14757674D02*
X11233634Y-14776722D01*
X11233634Y-14776722D02*
X11233634Y-14881484D01*
X11233634Y-14776722D02*
X11243158Y-14757674D01*
X11243158Y-14757674D02*
X11262205Y-14748150D01*
X11262205Y-14748150D02*
X11290777Y-14748150D01*
X11290777Y-14748150D02*
X11309824Y-14757674D01*
X11309824Y-14757674D02*
X11319348Y-14776722D01*
X11319348Y-14776722D02*
X11319348Y-14881484D01*
X11414586Y-14881484D02*
X11414586Y-14748150D01*
X11414586Y-14767198D02*
X11424110Y-14757674D01*
X11424110Y-14757674D02*
X11443158Y-14748150D01*
X11443158Y-14748150D02*
X11471729Y-14748150D01*
X11471729Y-14748150D02*
X11490777Y-14757674D01*
X11490777Y-14757674D02*
X11500301Y-14776722D01*
X11500301Y-14776722D02*
X11500301Y-14881484D01*
X11500301Y-14776722D02*
X11509824Y-14757674D01*
X11509824Y-14757674D02*
X11528872Y-14748150D01*
X11528872Y-14748150D02*
X11557443Y-14748150D01*
X11557443Y-14748150D02*
X11576491Y-14757674D01*
X11576491Y-14757674D02*
X11586015Y-14776722D01*
X11586015Y-14776722D02*
X11586015Y-14881484D01*
X11976491Y-14671960D02*
X11805063Y-14929103D01*
X12233634Y-14681484D02*
X12252682Y-14681484D01*
X12252682Y-14681484D02*
X12271729Y-14691008D01*
X12271729Y-14691008D02*
X12281253Y-14700531D01*
X12281253Y-14700531D02*
X12290777Y-14719579D01*
X12290777Y-14719579D02*
X12300301Y-14757674D01*
X12300301Y-14757674D02*
X12300301Y-14805293D01*
X12300301Y-14805293D02*
X12290777Y-14843388D01*
X12290777Y-14843388D02*
X12281253Y-14862436D01*
X12281253Y-14862436D02*
X12271729Y-14871960D01*
X12271729Y-14871960D02*
X12252682Y-14881484D01*
X12252682Y-14881484D02*
X12233634Y-14881484D01*
X12233634Y-14881484D02*
X12214586Y-14871960D01*
X12214586Y-14871960D02*
X12205063Y-14862436D01*
X12205063Y-14862436D02*
X12195539Y-14843388D01*
X12195539Y-14843388D02*
X12186015Y-14805293D01*
X12186015Y-14805293D02*
X12186015Y-14757674D01*
X12186015Y-14757674D02*
X12195539Y-14719579D01*
X12195539Y-14719579D02*
X12205063Y-14700531D01*
X12205063Y-14700531D02*
X12214586Y-14691008D01*
X12214586Y-14691008D02*
X12233634Y-14681484D01*
X12386015Y-14862436D02*
X12395539Y-14871960D01*
X12395539Y-14871960D02*
X12386015Y-14881484D01*
X12386015Y-14881484D02*
X12376491Y-14871960D01*
X12376491Y-14871960D02*
X12386015Y-14862436D01*
X12386015Y-14862436D02*
X12386015Y-14881484D01*
X12519348Y-14681484D02*
X12538396Y-14681484D01*
X12538396Y-14681484D02*
X12557444Y-14691008D01*
X12557444Y-14691008D02*
X12566967Y-14700531D01*
X12566967Y-14700531D02*
X12576491Y-14719579D01*
X12576491Y-14719579D02*
X12586015Y-14757674D01*
X12586015Y-14757674D02*
X12586015Y-14805293D01*
X12586015Y-14805293D02*
X12576491Y-14843388D01*
X12576491Y-14843388D02*
X12566967Y-14862436D01*
X12566967Y-14862436D02*
X12557444Y-14871960D01*
X12557444Y-14871960D02*
X12538396Y-14881484D01*
X12538396Y-14881484D02*
X12519348Y-14881484D01*
X12519348Y-14881484D02*
X12500301Y-14871960D01*
X12500301Y-14871960D02*
X12490777Y-14862436D01*
X12490777Y-14862436D02*
X12481253Y-14843388D01*
X12481253Y-14843388D02*
X12471729Y-14805293D01*
X12471729Y-14805293D02*
X12471729Y-14757674D01*
X12471729Y-14757674D02*
X12481253Y-14719579D01*
X12481253Y-14719579D02*
X12490777Y-14700531D01*
X12490777Y-14700531D02*
X12500301Y-14691008D01*
X12500301Y-14691008D02*
X12519348Y-14681484D01*
X12652682Y-14681484D02*
X12776491Y-14681484D01*
X12776491Y-14681484D02*
X12709825Y-14757674D01*
X12709825Y-14757674D02*
X12738396Y-14757674D01*
X12738396Y-14757674D02*
X12757444Y-14767198D01*
X12757444Y-14767198D02*
X12766967Y-14776722D01*
X12766967Y-14776722D02*
X12776491Y-14795769D01*
X12776491Y-14795769D02*
X12776491Y-14843388D01*
X12776491Y-14843388D02*
X12766967Y-14862436D01*
X12766967Y-14862436D02*
X12757444Y-14871960D01*
X12757444Y-14871960D02*
X12738396Y-14881484D01*
X12738396Y-14881484D02*
X12681253Y-14881484D01*
X12681253Y-14881484D02*
X12662206Y-14871960D01*
X12662206Y-14871960D02*
X12652682Y-14862436D01*
X12966967Y-14881484D02*
X12852682Y-14881484D01*
X12909825Y-14881484D02*
X12909825Y-14681484D01*
X12909825Y-14681484D02*
X12890777Y-14710055D01*
X12890777Y-14710055D02*
X12871729Y-14729103D01*
X12871729Y-14729103D02*
X12852682Y-14738627D01*
X13147920Y-14681484D02*
X13052682Y-14681484D01*
X13052682Y-14681484D02*
X13043158Y-14776722D01*
X13043158Y-14776722D02*
X13052682Y-14767198D01*
X13052682Y-14767198D02*
X13071729Y-14757674D01*
X13071729Y-14757674D02*
X13119348Y-14757674D01*
X13119348Y-14757674D02*
X13138396Y-14767198D01*
X13138396Y-14767198D02*
X13147920Y-14776722D01*
X13147920Y-14776722D02*
X13157444Y-14795769D01*
X13157444Y-14795769D02*
X13157444Y-14843388D01*
X13157444Y-14843388D02*
X13147920Y-14862436D01*
X13147920Y-14862436D02*
X13138396Y-14871960D01*
X13138396Y-14871960D02*
X13119348Y-14881484D01*
X13119348Y-14881484D02*
X13071729Y-14881484D01*
X13071729Y-14881484D02*
X13052682Y-14871960D01*
X13052682Y-14871960D02*
X13043158Y-14862436D01*
X13233634Y-14681484D02*
X13233634Y-14719579D01*
X13309825Y-14681484D02*
X13309825Y-14719579D01*
X13605063Y-14957674D02*
X13595539Y-14948150D01*
X13595539Y-14948150D02*
X13576491Y-14919579D01*
X13576491Y-14919579D02*
X13566968Y-14900531D01*
X13566968Y-14900531D02*
X13557444Y-14871960D01*
X13557444Y-14871960D02*
X13547920Y-14824341D01*
X13547920Y-14824341D02*
X13547920Y-14786246D01*
X13547920Y-14786246D02*
X13557444Y-14738627D01*
X13557444Y-14738627D02*
X13566968Y-14710055D01*
X13566968Y-14710055D02*
X13576491Y-14691008D01*
X13576491Y-14691008D02*
X13595539Y-14662436D01*
X13595539Y-14662436D02*
X13605063Y-14652912D01*
X13671729Y-14700531D02*
X13681253Y-14691008D01*
X13681253Y-14691008D02*
X13700301Y-14681484D01*
X13700301Y-14681484D02*
X13747920Y-14681484D01*
X13747920Y-14681484D02*
X13766968Y-14691008D01*
X13766968Y-14691008D02*
X13776491Y-14700531D01*
X13776491Y-14700531D02*
X13786015Y-14719579D01*
X13786015Y-14719579D02*
X13786015Y-14738627D01*
X13786015Y-14738627D02*
X13776491Y-14767198D01*
X13776491Y-14767198D02*
X13662206Y-14881484D01*
X13662206Y-14881484D02*
X13786015Y-14881484D01*
X14024110Y-14881484D02*
X14024110Y-14681484D01*
X14109825Y-14881484D02*
X14109825Y-14776722D01*
X14109825Y-14776722D02*
X14100301Y-14757674D01*
X14100301Y-14757674D02*
X14081253Y-14748150D01*
X14081253Y-14748150D02*
X14052682Y-14748150D01*
X14052682Y-14748150D02*
X14033634Y-14757674D01*
X14033634Y-14757674D02*
X14024110Y-14767198D01*
X14233634Y-14881484D02*
X14214587Y-14871960D01*
X14214587Y-14871960D02*
X14205063Y-14862436D01*
X14205063Y-14862436D02*
X14195539Y-14843388D01*
X14195539Y-14843388D02*
X14195539Y-14786246D01*
X14195539Y-14786246D02*
X14205063Y-14767198D01*
X14205063Y-14767198D02*
X14214587Y-14757674D01*
X14214587Y-14757674D02*
X14233634Y-14748150D01*
X14233634Y-14748150D02*
X14262206Y-14748150D01*
X14262206Y-14748150D02*
X14281253Y-14757674D01*
X14281253Y-14757674D02*
X14290777Y-14767198D01*
X14290777Y-14767198D02*
X14300301Y-14786246D01*
X14300301Y-14786246D02*
X14300301Y-14843388D01*
X14300301Y-14843388D02*
X14290777Y-14862436D01*
X14290777Y-14862436D02*
X14281253Y-14871960D01*
X14281253Y-14871960D02*
X14262206Y-14881484D01*
X14262206Y-14881484D02*
X14233634Y-14881484D01*
X14414587Y-14881484D02*
X14395539Y-14871960D01*
X14395539Y-14871960D02*
X14386015Y-14852912D01*
X14386015Y-14852912D02*
X14386015Y-14681484D01*
X14566968Y-14871960D02*
X14547920Y-14881484D01*
X14547920Y-14881484D02*
X14509825Y-14881484D01*
X14509825Y-14881484D02*
X14490777Y-14871960D01*
X14490777Y-14871960D02*
X14481253Y-14852912D01*
X14481253Y-14852912D02*
X14481253Y-14776722D01*
X14481253Y-14776722D02*
X14490777Y-14757674D01*
X14490777Y-14757674D02*
X14509825Y-14748150D01*
X14509825Y-14748150D02*
X14547920Y-14748150D01*
X14547920Y-14748150D02*
X14566968Y-14757674D01*
X14566968Y-14757674D02*
X14576491Y-14776722D01*
X14576491Y-14776722D02*
X14576491Y-14795769D01*
X14576491Y-14795769D02*
X14481253Y-14814817D01*
X14652682Y-14871960D02*
X14671730Y-14881484D01*
X14671730Y-14881484D02*
X14709825Y-14881484D01*
X14709825Y-14881484D02*
X14728872Y-14871960D01*
X14728872Y-14871960D02*
X14738396Y-14852912D01*
X14738396Y-14852912D02*
X14738396Y-14843388D01*
X14738396Y-14843388D02*
X14728872Y-14824341D01*
X14728872Y-14824341D02*
X14709825Y-14814817D01*
X14709825Y-14814817D02*
X14681253Y-14814817D01*
X14681253Y-14814817D02*
X14662206Y-14805293D01*
X14662206Y-14805293D02*
X14652682Y-14786246D01*
X14652682Y-14786246D02*
X14652682Y-14776722D01*
X14652682Y-14776722D02*
X14662206Y-14757674D01*
X14662206Y-14757674D02*
X14681253Y-14748150D01*
X14681253Y-14748150D02*
X14709825Y-14748150D01*
X14709825Y-14748150D02*
X14728872Y-14757674D01*
X14805063Y-14957674D02*
X14814587Y-14948150D01*
X14814587Y-14948150D02*
X14833634Y-14919579D01*
X14833634Y-14919579D02*
X14843158Y-14900531D01*
X14843158Y-14900531D02*
X14852682Y-14871960D01*
X14852682Y-14871960D02*
X14862206Y-14824341D01*
X14862206Y-14824341D02*
X14862206Y-14786246D01*
X14862206Y-14786246D02*
X14852682Y-14738627D01*
X14852682Y-14738627D02*
X14843158Y-14710055D01*
X14843158Y-14710055D02*
X14833634Y-14691008D01*
X14833634Y-14691008D02*
X14814587Y-14662436D01*
X14814587Y-14662436D02*
X14805063Y-14652912D01*
X15166968Y-14957674D02*
X15157444Y-14948150D01*
X15157444Y-14948150D02*
X15138396Y-14919579D01*
X15138396Y-14919579D02*
X15128872Y-14900531D01*
X15128872Y-14900531D02*
X15119349Y-14871960D01*
X15119349Y-14871960D02*
X15109825Y-14824341D01*
X15109825Y-14824341D02*
X15109825Y-14786246D01*
X15109825Y-14786246D02*
X15119349Y-14738627D01*
X15119349Y-14738627D02*
X15128872Y-14710055D01*
X15128872Y-14710055D02*
X15138396Y-14691008D01*
X15138396Y-14691008D02*
X15157444Y-14662436D01*
X15157444Y-14662436D02*
X15166968Y-14652912D01*
X15243158Y-14748150D02*
X15243158Y-14881484D01*
X15243158Y-14767198D02*
X15252682Y-14757674D01*
X15252682Y-14757674D02*
X15271730Y-14748150D01*
X15271730Y-14748150D02*
X15300301Y-14748150D01*
X15300301Y-14748150D02*
X15319349Y-14757674D01*
X15319349Y-14757674D02*
X15328872Y-14776722D01*
X15328872Y-14776722D02*
X15328872Y-14881484D01*
X15452682Y-14881484D02*
X15433634Y-14871960D01*
X15433634Y-14871960D02*
X15424111Y-14862436D01*
X15424111Y-14862436D02*
X15414587Y-14843388D01*
X15414587Y-14843388D02*
X15414587Y-14786246D01*
X15414587Y-14786246D02*
X15424111Y-14767198D01*
X15424111Y-14767198D02*
X15433634Y-14757674D01*
X15433634Y-14757674D02*
X15452682Y-14748150D01*
X15452682Y-14748150D02*
X15481253Y-14748150D01*
X15481253Y-14748150D02*
X15500301Y-14757674D01*
X15500301Y-14757674D02*
X15509825Y-14767198D01*
X15509825Y-14767198D02*
X15519349Y-14786246D01*
X15519349Y-14786246D02*
X15519349Y-14843388D01*
X15519349Y-14843388D02*
X15509825Y-14862436D01*
X15509825Y-14862436D02*
X15500301Y-14871960D01*
X15500301Y-14871960D02*
X15481253Y-14881484D01*
X15481253Y-14881484D02*
X15452682Y-14881484D01*
X15576492Y-14748150D02*
X15652682Y-14748150D01*
X15605063Y-14681484D02*
X15605063Y-14852912D01*
X15605063Y-14852912D02*
X15614587Y-14871960D01*
X15614587Y-14871960D02*
X15633634Y-14881484D01*
X15633634Y-14881484D02*
X15652682Y-14881484D01*
X15871730Y-14748150D02*
X15871730Y-14948150D01*
X15871730Y-14757674D02*
X15890777Y-14748150D01*
X15890777Y-14748150D02*
X15928873Y-14748150D01*
X15928873Y-14748150D02*
X15947920Y-14757674D01*
X15947920Y-14757674D02*
X15957444Y-14767198D01*
X15957444Y-14767198D02*
X15966968Y-14786246D01*
X15966968Y-14786246D02*
X15966968Y-14843388D01*
X15966968Y-14843388D02*
X15957444Y-14862436D01*
X15957444Y-14862436D02*
X15947920Y-14871960D01*
X15947920Y-14871960D02*
X15928873Y-14881484D01*
X15928873Y-14881484D02*
X15890777Y-14881484D01*
X15890777Y-14881484D02*
X15871730Y-14871960D01*
X16081253Y-14881484D02*
X16062206Y-14871960D01*
X16062206Y-14871960D02*
X16052682Y-14852912D01*
X16052682Y-14852912D02*
X16052682Y-14681484D01*
X16243158Y-14881484D02*
X16243158Y-14776722D01*
X16243158Y-14776722D02*
X16233634Y-14757674D01*
X16233634Y-14757674D02*
X16214587Y-14748150D01*
X16214587Y-14748150D02*
X16176492Y-14748150D01*
X16176492Y-14748150D02*
X16157444Y-14757674D01*
X16243158Y-14871960D02*
X16224111Y-14881484D01*
X16224111Y-14881484D02*
X16176492Y-14881484D01*
X16176492Y-14881484D02*
X16157444Y-14871960D01*
X16157444Y-14871960D02*
X16147920Y-14852912D01*
X16147920Y-14852912D02*
X16147920Y-14833865D01*
X16147920Y-14833865D02*
X16157444Y-14814817D01*
X16157444Y-14814817D02*
X16176492Y-14805293D01*
X16176492Y-14805293D02*
X16224111Y-14805293D01*
X16224111Y-14805293D02*
X16243158Y-14795769D01*
X16309825Y-14748150D02*
X16386015Y-14748150D01*
X16338396Y-14681484D02*
X16338396Y-14852912D01*
X16338396Y-14852912D02*
X16347920Y-14871960D01*
X16347920Y-14871960D02*
X16366968Y-14881484D01*
X16366968Y-14881484D02*
X16386015Y-14881484D01*
X16528873Y-14871960D02*
X16509825Y-14881484D01*
X16509825Y-14881484D02*
X16471730Y-14881484D01*
X16471730Y-14881484D02*
X16452682Y-14871960D01*
X16452682Y-14871960D02*
X16443158Y-14852912D01*
X16443158Y-14852912D02*
X16443158Y-14776722D01*
X16443158Y-14776722D02*
X16452682Y-14757674D01*
X16452682Y-14757674D02*
X16471730Y-14748150D01*
X16471730Y-14748150D02*
X16509825Y-14748150D01*
X16509825Y-14748150D02*
X16528873Y-14757674D01*
X16528873Y-14757674D02*
X16538396Y-14776722D01*
X16538396Y-14776722D02*
X16538396Y-14795769D01*
X16538396Y-14795769D02*
X16443158Y-14814817D01*
X16709825Y-14881484D02*
X16709825Y-14681484D01*
X16709825Y-14871960D02*
X16690777Y-14881484D01*
X16690777Y-14881484D02*
X16652682Y-14881484D01*
X16652682Y-14881484D02*
X16633634Y-14871960D01*
X16633634Y-14871960D02*
X16624111Y-14862436D01*
X16624111Y-14862436D02*
X16614587Y-14843388D01*
X16614587Y-14843388D02*
X16614587Y-14786246D01*
X16614587Y-14786246D02*
X16624111Y-14767198D01*
X16624111Y-14767198D02*
X16633634Y-14757674D01*
X16633634Y-14757674D02*
X16652682Y-14748150D01*
X16652682Y-14748150D02*
X16690777Y-14748150D01*
X16690777Y-14748150D02*
X16709825Y-14757674D01*
X16786016Y-14957674D02*
X16795539Y-14948150D01*
X16795539Y-14948150D02*
X16814587Y-14919579D01*
X16814587Y-14919579D02*
X16824111Y-14900531D01*
X16824111Y-14900531D02*
X16833635Y-14871960D01*
X16833635Y-14871960D02*
X16843158Y-14824341D01*
X16843158Y-14824341D02*
X16843158Y-14786246D01*
X16843158Y-14786246D02*
X16833635Y-14738627D01*
X16833635Y-14738627D02*
X16824111Y-14710055D01*
X16824111Y-14710055D02*
X16814587Y-14691008D01*
X16814587Y-14691008D02*
X16795539Y-14662436D01*
X16795539Y-14662436D02*
X16786016Y-14652912D01*
X10030000Y-15054000D02*
G75*
G02*
X9830000Y-15054000I-100000J0D01*
G01*
X9830000Y-15054000D02*
G75*
G02*
X10030000Y-15054000I100000J0D01*
G01*
X10271729Y-14945484D02*
X10395539Y-14945484D01*
X10395539Y-14945484D02*
X10328872Y-15021674D01*
X10328872Y-15021674D02*
X10357444Y-15021674D01*
X10357444Y-15021674D02*
X10376491Y-15031198D01*
X10376491Y-15031198D02*
X10386015Y-15040722D01*
X10386015Y-15040722D02*
X10395539Y-15059769D01*
X10395539Y-15059769D02*
X10395539Y-15107388D01*
X10395539Y-15107388D02*
X10386015Y-15126436D01*
X10386015Y-15126436D02*
X10376491Y-15135960D01*
X10376491Y-15135960D02*
X10357444Y-15145484D01*
X10357444Y-15145484D02*
X10300301Y-15145484D01*
X10300301Y-15145484D02*
X10281253Y-15135960D01*
X10281253Y-15135960D02*
X10271729Y-15126436D01*
X10481253Y-15126436D02*
X10490777Y-15135960D01*
X10490777Y-15135960D02*
X10481253Y-15145484D01*
X10481253Y-15145484D02*
X10471729Y-15135960D01*
X10471729Y-15135960D02*
X10481253Y-15126436D01*
X10481253Y-15126436D02*
X10481253Y-15145484D01*
X10566967Y-14964531D02*
X10576491Y-14955008D01*
X10576491Y-14955008D02*
X10595539Y-14945484D01*
X10595539Y-14945484D02*
X10643158Y-14945484D01*
X10643158Y-14945484D02*
X10662205Y-14955008D01*
X10662205Y-14955008D02*
X10671729Y-14964531D01*
X10671729Y-14964531D02*
X10681253Y-14983579D01*
X10681253Y-14983579D02*
X10681253Y-15002627D01*
X10681253Y-15002627D02*
X10671729Y-15031198D01*
X10671729Y-15031198D02*
X10557444Y-15145484D01*
X10557444Y-15145484D02*
X10681253Y-15145484D01*
X10805063Y-14945484D02*
X10824110Y-14945484D01*
X10824110Y-14945484D02*
X10843158Y-14955008D01*
X10843158Y-14955008D02*
X10852682Y-14964531D01*
X10852682Y-14964531D02*
X10862205Y-14983579D01*
X10862205Y-14983579D02*
X10871729Y-15021674D01*
X10871729Y-15021674D02*
X10871729Y-15069293D01*
X10871729Y-15069293D02*
X10862205Y-15107388D01*
X10862205Y-15107388D02*
X10852682Y-15126436D01*
X10852682Y-15126436D02*
X10843158Y-15135960D01*
X10843158Y-15135960D02*
X10824110Y-15145484D01*
X10824110Y-15145484D02*
X10805063Y-15145484D01*
X10805063Y-15145484D02*
X10786015Y-15135960D01*
X10786015Y-15135960D02*
X10776491Y-15126436D01*
X10776491Y-15126436D02*
X10766967Y-15107388D01*
X10766967Y-15107388D02*
X10757444Y-15069293D01*
X10757444Y-15069293D02*
X10757444Y-15021674D01*
X10757444Y-15021674D02*
X10766967Y-14983579D01*
X10766967Y-14983579D02*
X10776491Y-14964531D01*
X10776491Y-14964531D02*
X10786015Y-14955008D01*
X10786015Y-14955008D02*
X10805063Y-14945484D01*
X10995539Y-14945484D02*
X11014586Y-14945484D01*
X11014586Y-14945484D02*
X11033634Y-14955008D01*
X11033634Y-14955008D02*
X11043158Y-14964531D01*
X11043158Y-14964531D02*
X11052682Y-14983579D01*
X11052682Y-14983579D02*
X11062205Y-15021674D01*
X11062205Y-15021674D02*
X11062205Y-15069293D01*
X11062205Y-15069293D02*
X11052682Y-15107388D01*
X11052682Y-15107388D02*
X11043158Y-15126436D01*
X11043158Y-15126436D02*
X11033634Y-15135960D01*
X11033634Y-15135960D02*
X11014586Y-15145484D01*
X11014586Y-15145484D02*
X10995539Y-15145484D01*
X10995539Y-15145484D02*
X10976491Y-15135960D01*
X10976491Y-15135960D02*
X10966967Y-15126436D01*
X10966967Y-15126436D02*
X10957444Y-15107388D01*
X10957444Y-15107388D02*
X10947920Y-15069293D01*
X10947920Y-15069293D02*
X10947920Y-15021674D01*
X10947920Y-15021674D02*
X10957444Y-14983579D01*
X10957444Y-14983579D02*
X10966967Y-14964531D01*
X10966967Y-14964531D02*
X10976491Y-14955008D01*
X10976491Y-14955008D02*
X10995539Y-14945484D01*
X11147920Y-15145484D02*
X11147920Y-15012150D01*
X11147920Y-15031198D02*
X11157444Y-15021674D01*
X11157444Y-15021674D02*
X11176491Y-15012150D01*
X11176491Y-15012150D02*
X11205063Y-15012150D01*
X11205063Y-15012150D02*
X11224110Y-15021674D01*
X11224110Y-15021674D02*
X11233634Y-15040722D01*
X11233634Y-15040722D02*
X11233634Y-15145484D01*
X11233634Y-15040722D02*
X11243158Y-15021674D01*
X11243158Y-15021674D02*
X11262205Y-15012150D01*
X11262205Y-15012150D02*
X11290777Y-15012150D01*
X11290777Y-15012150D02*
X11309824Y-15021674D01*
X11309824Y-15021674D02*
X11319348Y-15040722D01*
X11319348Y-15040722D02*
X11319348Y-15145484D01*
X11414586Y-15145484D02*
X11414586Y-15012150D01*
X11414586Y-15031198D02*
X11424110Y-15021674D01*
X11424110Y-15021674D02*
X11443158Y-15012150D01*
X11443158Y-15012150D02*
X11471729Y-15012150D01*
X11471729Y-15012150D02*
X11490777Y-15021674D01*
X11490777Y-15021674D02*
X11500301Y-15040722D01*
X11500301Y-15040722D02*
X11500301Y-15145484D01*
X11500301Y-15040722D02*
X11509824Y-15021674D01*
X11509824Y-15021674D02*
X11528872Y-15012150D01*
X11528872Y-15012150D02*
X11557443Y-15012150D01*
X11557443Y-15012150D02*
X11576491Y-15021674D01*
X11576491Y-15021674D02*
X11586015Y-15040722D01*
X11586015Y-15040722D02*
X11586015Y-15145484D01*
X11976491Y-14935960D02*
X11805063Y-15193103D01*
X12233634Y-14945484D02*
X12252682Y-14945484D01*
X12252682Y-14945484D02*
X12271729Y-14955008D01*
X12271729Y-14955008D02*
X12281253Y-14964531D01*
X12281253Y-14964531D02*
X12290777Y-14983579D01*
X12290777Y-14983579D02*
X12300301Y-15021674D01*
X12300301Y-15021674D02*
X12300301Y-15069293D01*
X12300301Y-15069293D02*
X12290777Y-15107388D01*
X12290777Y-15107388D02*
X12281253Y-15126436D01*
X12281253Y-15126436D02*
X12271729Y-15135960D01*
X12271729Y-15135960D02*
X12252682Y-15145484D01*
X12252682Y-15145484D02*
X12233634Y-15145484D01*
X12233634Y-15145484D02*
X12214586Y-15135960D01*
X12214586Y-15135960D02*
X12205063Y-15126436D01*
X12205063Y-15126436D02*
X12195539Y-15107388D01*
X12195539Y-15107388D02*
X12186015Y-15069293D01*
X12186015Y-15069293D02*
X12186015Y-15021674D01*
X12186015Y-15021674D02*
X12195539Y-14983579D01*
X12195539Y-14983579D02*
X12205063Y-14964531D01*
X12205063Y-14964531D02*
X12214586Y-14955008D01*
X12214586Y-14955008D02*
X12233634Y-14945484D01*
X12386015Y-15126436D02*
X12395539Y-15135960D01*
X12395539Y-15135960D02*
X12386015Y-15145484D01*
X12386015Y-15145484D02*
X12376491Y-15135960D01*
X12376491Y-15135960D02*
X12386015Y-15126436D01*
X12386015Y-15126436D02*
X12386015Y-15145484D01*
X12586015Y-15145484D02*
X12471729Y-15145484D01*
X12528872Y-15145484D02*
X12528872Y-14945484D01*
X12528872Y-14945484D02*
X12509825Y-14974055D01*
X12509825Y-14974055D02*
X12490777Y-14993103D01*
X12490777Y-14993103D02*
X12471729Y-15002627D01*
X12662206Y-14964531D02*
X12671729Y-14955008D01*
X12671729Y-14955008D02*
X12690777Y-14945484D01*
X12690777Y-14945484D02*
X12738396Y-14945484D01*
X12738396Y-14945484D02*
X12757444Y-14955008D01*
X12757444Y-14955008D02*
X12766967Y-14964531D01*
X12766967Y-14964531D02*
X12776491Y-14983579D01*
X12776491Y-14983579D02*
X12776491Y-15002627D01*
X12776491Y-15002627D02*
X12766967Y-15031198D01*
X12766967Y-15031198D02*
X12652682Y-15145484D01*
X12652682Y-15145484D02*
X12776491Y-15145484D01*
X12947920Y-14945484D02*
X12909825Y-14945484D01*
X12909825Y-14945484D02*
X12890777Y-14955008D01*
X12890777Y-14955008D02*
X12881253Y-14964531D01*
X12881253Y-14964531D02*
X12862206Y-14993103D01*
X12862206Y-14993103D02*
X12852682Y-15031198D01*
X12852682Y-15031198D02*
X12852682Y-15107388D01*
X12852682Y-15107388D02*
X12862206Y-15126436D01*
X12862206Y-15126436D02*
X12871729Y-15135960D01*
X12871729Y-15135960D02*
X12890777Y-15145484D01*
X12890777Y-15145484D02*
X12928872Y-15145484D01*
X12928872Y-15145484D02*
X12947920Y-15135960D01*
X12947920Y-15135960D02*
X12957444Y-15126436D01*
X12957444Y-15126436D02*
X12966967Y-15107388D01*
X12966967Y-15107388D02*
X12966967Y-15059769D01*
X12966967Y-15059769D02*
X12957444Y-15040722D01*
X12957444Y-15040722D02*
X12947920Y-15031198D01*
X12947920Y-15031198D02*
X12928872Y-15021674D01*
X12928872Y-15021674D02*
X12890777Y-15021674D01*
X12890777Y-15021674D02*
X12871729Y-15031198D01*
X12871729Y-15031198D02*
X12862206Y-15040722D01*
X12862206Y-15040722D02*
X12852682Y-15059769D01*
X13090777Y-14945484D02*
X13109825Y-14945484D01*
X13109825Y-14945484D02*
X13128872Y-14955008D01*
X13128872Y-14955008D02*
X13138396Y-14964531D01*
X13138396Y-14964531D02*
X13147920Y-14983579D01*
X13147920Y-14983579D02*
X13157444Y-15021674D01*
X13157444Y-15021674D02*
X13157444Y-15069293D01*
X13157444Y-15069293D02*
X13147920Y-15107388D01*
X13147920Y-15107388D02*
X13138396Y-15126436D01*
X13138396Y-15126436D02*
X13128872Y-15135960D01*
X13128872Y-15135960D02*
X13109825Y-15145484D01*
X13109825Y-15145484D02*
X13090777Y-15145484D01*
X13090777Y-15145484D02*
X13071729Y-15135960D01*
X13071729Y-15135960D02*
X13062206Y-15126436D01*
X13062206Y-15126436D02*
X13052682Y-15107388D01*
X13052682Y-15107388D02*
X13043158Y-15069293D01*
X13043158Y-15069293D02*
X13043158Y-15021674D01*
X13043158Y-15021674D02*
X13052682Y-14983579D01*
X13052682Y-14983579D02*
X13062206Y-14964531D01*
X13062206Y-14964531D02*
X13071729Y-14955008D01*
X13071729Y-14955008D02*
X13090777Y-14945484D01*
X13233634Y-14945484D02*
X13233634Y-14983579D01*
X13309825Y-14945484D02*
X13309825Y-14983579D01*
X13605063Y-15221674D02*
X13595539Y-15212150D01*
X13595539Y-15212150D02*
X13576491Y-15183579D01*
X13576491Y-15183579D02*
X13566968Y-15164531D01*
X13566968Y-15164531D02*
X13557444Y-15135960D01*
X13557444Y-15135960D02*
X13547920Y-15088341D01*
X13547920Y-15088341D02*
X13547920Y-15050246D01*
X13547920Y-15050246D02*
X13557444Y-15002627D01*
X13557444Y-15002627D02*
X13566968Y-14974055D01*
X13566968Y-14974055D02*
X13576491Y-14955008D01*
X13576491Y-14955008D02*
X13595539Y-14926436D01*
X13595539Y-14926436D02*
X13605063Y-14916912D01*
X13766968Y-15012150D02*
X13766968Y-15145484D01*
X13719348Y-14935960D02*
X13671729Y-15078817D01*
X13671729Y-15078817D02*
X13795539Y-15078817D01*
X14024110Y-15145484D02*
X14024110Y-14945484D01*
X14109825Y-15145484D02*
X14109825Y-15040722D01*
X14109825Y-15040722D02*
X14100301Y-15021674D01*
X14100301Y-15021674D02*
X14081253Y-15012150D01*
X14081253Y-15012150D02*
X14052682Y-15012150D01*
X14052682Y-15012150D02*
X14033634Y-15021674D01*
X14033634Y-15021674D02*
X14024110Y-15031198D01*
X14233634Y-15145484D02*
X14214587Y-15135960D01*
X14214587Y-15135960D02*
X14205063Y-15126436D01*
X14205063Y-15126436D02*
X14195539Y-15107388D01*
X14195539Y-15107388D02*
X14195539Y-15050246D01*
X14195539Y-15050246D02*
X14205063Y-15031198D01*
X14205063Y-15031198D02*
X14214587Y-15021674D01*
X14214587Y-15021674D02*
X14233634Y-15012150D01*
X14233634Y-15012150D02*
X14262206Y-15012150D01*
X14262206Y-15012150D02*
X14281253Y-15021674D01*
X14281253Y-15021674D02*
X14290777Y-15031198D01*
X14290777Y-15031198D02*
X14300301Y-15050246D01*
X14300301Y-15050246D02*
X14300301Y-15107388D01*
X14300301Y-15107388D02*
X14290777Y-15126436D01*
X14290777Y-15126436D02*
X14281253Y-15135960D01*
X14281253Y-15135960D02*
X14262206Y-15145484D01*
X14262206Y-15145484D02*
X14233634Y-15145484D01*
X14414587Y-15145484D02*
X14395539Y-15135960D01*
X14395539Y-15135960D02*
X14386015Y-15116912D01*
X14386015Y-15116912D02*
X14386015Y-14945484D01*
X14566968Y-15135960D02*
X14547920Y-15145484D01*
X14547920Y-15145484D02*
X14509825Y-15145484D01*
X14509825Y-15145484D02*
X14490777Y-15135960D01*
X14490777Y-15135960D02*
X14481253Y-15116912D01*
X14481253Y-15116912D02*
X14481253Y-15040722D01*
X14481253Y-15040722D02*
X14490777Y-15021674D01*
X14490777Y-15021674D02*
X14509825Y-15012150D01*
X14509825Y-15012150D02*
X14547920Y-15012150D01*
X14547920Y-15012150D02*
X14566968Y-15021674D01*
X14566968Y-15021674D02*
X14576491Y-15040722D01*
X14576491Y-15040722D02*
X14576491Y-15059769D01*
X14576491Y-15059769D02*
X14481253Y-15078817D01*
X14652682Y-15135960D02*
X14671730Y-15145484D01*
X14671730Y-15145484D02*
X14709825Y-15145484D01*
X14709825Y-15145484D02*
X14728872Y-15135960D01*
X14728872Y-15135960D02*
X14738396Y-15116912D01*
X14738396Y-15116912D02*
X14738396Y-15107388D01*
X14738396Y-15107388D02*
X14728872Y-15088341D01*
X14728872Y-15088341D02*
X14709825Y-15078817D01*
X14709825Y-15078817D02*
X14681253Y-15078817D01*
X14681253Y-15078817D02*
X14662206Y-15069293D01*
X14662206Y-15069293D02*
X14652682Y-15050246D01*
X14652682Y-15050246D02*
X14652682Y-15040722D01*
X14652682Y-15040722D02*
X14662206Y-15021674D01*
X14662206Y-15021674D02*
X14681253Y-15012150D01*
X14681253Y-15012150D02*
X14709825Y-15012150D01*
X14709825Y-15012150D02*
X14728872Y-15021674D01*
X14805063Y-15221674D02*
X14814587Y-15212150D01*
X14814587Y-15212150D02*
X14833634Y-15183579D01*
X14833634Y-15183579D02*
X14843158Y-15164531D01*
X14843158Y-15164531D02*
X14852682Y-15135960D01*
X14852682Y-15135960D02*
X14862206Y-15088341D01*
X14862206Y-15088341D02*
X14862206Y-15050246D01*
X14862206Y-15050246D02*
X14852682Y-15002627D01*
X14852682Y-15002627D02*
X14843158Y-14974055D01*
X14843158Y-14974055D02*
X14833634Y-14955008D01*
X14833634Y-14955008D02*
X14814587Y-14926436D01*
X14814587Y-14926436D02*
X14805063Y-14916912D01*
X15166968Y-15221674D02*
X15157444Y-15212150D01*
X15157444Y-15212150D02*
X15138396Y-15183579D01*
X15138396Y-15183579D02*
X15128872Y-15164531D01*
X15128872Y-15164531D02*
X15119349Y-15135960D01*
X15119349Y-15135960D02*
X15109825Y-15088341D01*
X15109825Y-15088341D02*
X15109825Y-15050246D01*
X15109825Y-15050246D02*
X15119349Y-15002627D01*
X15119349Y-15002627D02*
X15128872Y-14974055D01*
X15128872Y-14974055D02*
X15138396Y-14955008D01*
X15138396Y-14955008D02*
X15157444Y-14926436D01*
X15157444Y-14926436D02*
X15166968Y-14916912D01*
X15243158Y-15012150D02*
X15243158Y-15145484D01*
X15243158Y-15031198D02*
X15252682Y-15021674D01*
X15252682Y-15021674D02*
X15271730Y-15012150D01*
X15271730Y-15012150D02*
X15300301Y-15012150D01*
X15300301Y-15012150D02*
X15319349Y-15021674D01*
X15319349Y-15021674D02*
X15328872Y-15040722D01*
X15328872Y-15040722D02*
X15328872Y-15145484D01*
X15452682Y-15145484D02*
X15433634Y-15135960D01*
X15433634Y-15135960D02*
X15424111Y-15126436D01*
X15424111Y-15126436D02*
X15414587Y-15107388D01*
X15414587Y-15107388D02*
X15414587Y-15050246D01*
X15414587Y-15050246D02*
X15424111Y-15031198D01*
X15424111Y-15031198D02*
X15433634Y-15021674D01*
X15433634Y-15021674D02*
X15452682Y-15012150D01*
X15452682Y-15012150D02*
X15481253Y-15012150D01*
X15481253Y-15012150D02*
X15500301Y-15021674D01*
X15500301Y-15021674D02*
X15509825Y-15031198D01*
X15509825Y-15031198D02*
X15519349Y-15050246D01*
X15519349Y-15050246D02*
X15519349Y-15107388D01*
X15519349Y-15107388D02*
X15509825Y-15126436D01*
X15509825Y-15126436D02*
X15500301Y-15135960D01*
X15500301Y-15135960D02*
X15481253Y-15145484D01*
X15481253Y-15145484D02*
X15452682Y-15145484D01*
X15576492Y-15012150D02*
X15652682Y-15012150D01*
X15605063Y-14945484D02*
X15605063Y-15116912D01*
X15605063Y-15116912D02*
X15614587Y-15135960D01*
X15614587Y-15135960D02*
X15633634Y-15145484D01*
X15633634Y-15145484D02*
X15652682Y-15145484D01*
X15871730Y-15012150D02*
X15871730Y-15212150D01*
X15871730Y-15021674D02*
X15890777Y-15012150D01*
X15890777Y-15012150D02*
X15928873Y-15012150D01*
X15928873Y-15012150D02*
X15947920Y-15021674D01*
X15947920Y-15021674D02*
X15957444Y-15031198D01*
X15957444Y-15031198D02*
X15966968Y-15050246D01*
X15966968Y-15050246D02*
X15966968Y-15107388D01*
X15966968Y-15107388D02*
X15957444Y-15126436D01*
X15957444Y-15126436D02*
X15947920Y-15135960D01*
X15947920Y-15135960D02*
X15928873Y-15145484D01*
X15928873Y-15145484D02*
X15890777Y-15145484D01*
X15890777Y-15145484D02*
X15871730Y-15135960D01*
X16081253Y-15145484D02*
X16062206Y-15135960D01*
X16062206Y-15135960D02*
X16052682Y-15116912D01*
X16052682Y-15116912D02*
X16052682Y-14945484D01*
X16243158Y-15145484D02*
X16243158Y-15040722D01*
X16243158Y-15040722D02*
X16233634Y-15021674D01*
X16233634Y-15021674D02*
X16214587Y-15012150D01*
X16214587Y-15012150D02*
X16176492Y-15012150D01*
X16176492Y-15012150D02*
X16157444Y-15021674D01*
X16243158Y-15135960D02*
X16224111Y-15145484D01*
X16224111Y-15145484D02*
X16176492Y-15145484D01*
X16176492Y-15145484D02*
X16157444Y-15135960D01*
X16157444Y-15135960D02*
X16147920Y-15116912D01*
X16147920Y-15116912D02*
X16147920Y-15097865D01*
X16147920Y-15097865D02*
X16157444Y-15078817D01*
X16157444Y-15078817D02*
X16176492Y-15069293D01*
X16176492Y-15069293D02*
X16224111Y-15069293D01*
X16224111Y-15069293D02*
X16243158Y-15059769D01*
X16309825Y-15012150D02*
X16386015Y-15012150D01*
X16338396Y-14945484D02*
X16338396Y-15116912D01*
X16338396Y-15116912D02*
X16347920Y-15135960D01*
X16347920Y-15135960D02*
X16366968Y-15145484D01*
X16366968Y-15145484D02*
X16386015Y-15145484D01*
X16528873Y-15135960D02*
X16509825Y-15145484D01*
X16509825Y-15145484D02*
X16471730Y-15145484D01*
X16471730Y-15145484D02*
X16452682Y-15135960D01*
X16452682Y-15135960D02*
X16443158Y-15116912D01*
X16443158Y-15116912D02*
X16443158Y-15040722D01*
X16443158Y-15040722D02*
X16452682Y-15021674D01*
X16452682Y-15021674D02*
X16471730Y-15012150D01*
X16471730Y-15012150D02*
X16509825Y-15012150D01*
X16509825Y-15012150D02*
X16528873Y-15021674D01*
X16528873Y-15021674D02*
X16538396Y-15040722D01*
X16538396Y-15040722D02*
X16538396Y-15059769D01*
X16538396Y-15059769D02*
X16443158Y-15078817D01*
X16709825Y-15145484D02*
X16709825Y-14945484D01*
X16709825Y-15135960D02*
X16690777Y-15145484D01*
X16690777Y-15145484D02*
X16652682Y-15145484D01*
X16652682Y-15145484D02*
X16633634Y-15135960D01*
X16633634Y-15135960D02*
X16624111Y-15126436D01*
X16624111Y-15126436D02*
X16614587Y-15107388D01*
X16614587Y-15107388D02*
X16614587Y-15050246D01*
X16614587Y-15050246D02*
X16624111Y-15031198D01*
X16624111Y-15031198D02*
X16633634Y-15021674D01*
X16633634Y-15021674D02*
X16652682Y-15012150D01*
X16652682Y-15012150D02*
X16690777Y-15012150D01*
X16690777Y-15012150D02*
X16709825Y-15021674D01*
X16786016Y-15221674D02*
X16795539Y-15212150D01*
X16795539Y-15212150D02*
X16814587Y-15183579D01*
X16814587Y-15183579D02*
X16824111Y-15164531D01*
X16824111Y-15164531D02*
X16833635Y-15135960D01*
X16833635Y-15135960D02*
X16843158Y-15088341D01*
X16843158Y-15088341D02*
X16843158Y-15050246D01*
X16843158Y-15050246D02*
X16833635Y-15002627D01*
X16833635Y-15002627D02*
X16824111Y-14974055D01*
X16824111Y-14974055D02*
X16814587Y-14955008D01*
X16814587Y-14955008D02*
X16795539Y-14926436D01*
X16795539Y-14926436D02*
X16786016Y-14916912D01*
M02*
