G04 #@! TF.GenerationSoftware,KiCad,Pcbnew,9.0.2-1.fc42app2*
G04 #@! TF.CreationDate,2025-07-13T15:05:55-07:00*
G04 #@! TF.ProjectId,rev0A,72657630-412e-46b6-9963-61645f706362,rev?*
G04 #@! TF.SameCoordinates,Original*
G04 #@! TF.FileFunction,Copper,L2,Bot*
G04 #@! TF.FilePolarity,Positive*
%FSLAX46Y46*%
G04 Gerber Fmt 4.6, Leading zero omitted, Abs format (unit mm)*
G04 Created by KiCad (PCBNEW 9.0.2-1.fc42app2) date 2025-07-13 15:05:55*
%MOMM*%
%LPD*%
G01*
G04 APERTURE LIST*
G04 #@! TA.AperFunction,ComponentPad*
%ADD10C,1.700000*%
G04 #@! TD*
G04 #@! TA.AperFunction,ComponentPad*
%ADD11R,1.800000X1.800000*%
G04 #@! TD*
G04 #@! TA.AperFunction,ComponentPad*
%ADD12C,1.800000*%
G04 #@! TD*
G04 #@! TA.AperFunction,ComponentPad*
%ADD13C,1.550000*%
G04 #@! TD*
G04 #@! TA.AperFunction,ComponentPad*
%ADD14C,1.600000*%
G04 #@! TD*
G04 #@! TA.AperFunction,HeatsinkPad*
%ADD15C,0.808000*%
G04 #@! TD*
G04 #@! TA.AperFunction,ComponentPad*
%ADD16C,2.790000*%
G04 #@! TD*
G04 #@! TA.AperFunction,ComponentPad*
%ADD17O,2.790000X2.790000*%
G04 #@! TD*
G04 #@! TA.AperFunction,ComponentPad*
%ADD18O,2.108000X1.308000*%
G04 #@! TD*
G04 #@! TA.AperFunction,ComponentPad*
%ADD19O,1.908000X1.308000*%
G04 #@! TD*
G04 #@! TA.AperFunction,ComponentPad*
%ADD20O,4.500000X1.600000*%
G04 #@! TD*
G04 #@! TA.AperFunction,ComponentPad*
%ADD21O,3.800000X1.600000*%
G04 #@! TD*
G04 #@! TA.AperFunction,ComponentPad*
%ADD22O,1.600000X4.000000*%
G04 #@! TD*
G04 #@! TA.AperFunction,ComponentPad*
%ADD23R,3.000000X3.000000*%
G04 #@! TD*
G04 #@! TA.AperFunction,ComponentPad*
%ADD24C,3.000000*%
G04 #@! TD*
G04 #@! TA.AperFunction,ViaPad*
%ADD25C,0.900000*%
G04 #@! TD*
G04 #@! TA.AperFunction,Conductor*
%ADD26C,0.200000*%
G04 #@! TD*
G04 #@! TA.AperFunction,Conductor*
%ADD27C,0.800000*%
G04 #@! TD*
G04 #@! TA.AperFunction,Conductor*
%ADD28C,0.600000*%
G04 #@! TD*
G04 APERTURE END LIST*
D10*
X105500000Y-116480000D03*
X105500000Y-119020000D03*
D11*
X135250000Y-79790000D03*
D12*
X135250000Y-77250000D03*
X135250000Y-74710000D03*
X185750000Y-98950000D03*
X179250000Y-98950000D03*
X185750000Y-94450000D03*
X179250000Y-94450000D03*
D13*
X195280000Y-122700000D03*
X195280000Y-120200000D03*
X195280000Y-117700000D03*
D14*
X182500000Y-129250000D03*
X182500000Y-118750000D03*
D15*
X176940000Y-67950000D03*
X176940000Y-69050000D03*
X177490000Y-67400000D03*
X177490000Y-68500000D03*
X177490000Y-69600000D03*
X178040000Y-67950000D03*
X178040000Y-69050000D03*
X178590000Y-67400000D03*
X178590000Y-68500000D03*
X178590000Y-69600000D03*
X179140000Y-67950000D03*
X179140000Y-69050000D03*
D11*
X135500000Y-123040000D03*
D12*
X135500000Y-120500000D03*
X135500000Y-117960000D03*
D16*
X127850000Y-88500000D03*
D17*
X127850000Y-100500000D03*
D16*
X129850000Y-94500000D03*
X115650000Y-100500000D03*
X115650000Y-88500000D03*
D11*
X135150000Y-101290000D03*
D12*
X135150000Y-98750000D03*
X135150000Y-96210000D03*
D18*
X194007500Y-77930000D03*
X194007500Y-69270000D03*
D19*
X198187500Y-77930000D03*
X198187500Y-69270000D03*
D11*
X193180000Y-108450000D03*
D14*
X193180000Y-105910000D03*
X193180000Y-103370000D03*
X193180000Y-100830000D03*
X193180000Y-98290000D03*
X193180000Y-95750000D03*
D12*
X189850000Y-109150000D03*
X183350000Y-109150000D03*
X189850000Y-104650000D03*
X183350000Y-104650000D03*
D10*
X182230000Y-135972500D03*
X184770000Y-135972500D03*
X105200000Y-72430000D03*
X105200000Y-74970000D03*
D20*
X153917500Y-71482500D03*
D21*
X153917500Y-65522500D03*
D22*
X149517500Y-68772500D03*
D16*
X128000000Y-110250000D03*
D17*
X128000000Y-122250000D03*
D16*
X130000000Y-116250000D03*
X115800000Y-122250000D03*
X115800000Y-110250000D03*
D23*
X161130000Y-127500000D03*
D24*
X176370000Y-127500000D03*
D16*
X127800000Y-66800000D03*
D17*
X127800000Y-78800000D03*
D16*
X129800000Y-72800000D03*
X115600000Y-78800000D03*
X115600000Y-66800000D03*
D10*
X105150000Y-94000000D03*
X105150000Y-96540000D03*
D25*
X142250000Y-132250000D03*
X168000000Y-76250000D03*
X173250000Y-116750000D03*
X110000000Y-104750000D03*
X171000000Y-133750000D03*
X190750000Y-79500000D03*
X170477169Y-88622831D03*
X159000000Y-94750000D03*
X171500000Y-83500000D03*
X107500000Y-109750000D03*
X188500000Y-73000000D03*
X194000000Y-85750000D03*
X139250000Y-104500000D03*
X167750000Y-97000000D03*
X110250000Y-127750000D03*
X105000000Y-104750000D03*
X177500000Y-93250000D03*
X190500000Y-68250000D03*
X141750000Y-93000000D03*
X135500000Y-138000000D03*
X195250000Y-131750000D03*
X163500000Y-94750000D03*
X142250000Y-135500000D03*
X142250000Y-129000000D03*
X190750000Y-83750000D03*
X146250000Y-79000000D03*
X145500000Y-135500000D03*
X148250000Y-115250000D03*
X145500000Y-129000000D03*
X136750000Y-109500000D03*
X172936920Y-90207624D03*
X110250000Y-138000000D03*
X173750000Y-107250000D03*
X174250000Y-87450000D03*
X190250000Y-66250000D03*
X187300000Y-80300000D03*
X139000000Y-135500000D03*
X153750000Y-122250000D03*
X145500000Y-132250000D03*
X148250000Y-122250000D03*
X152250000Y-127500000D03*
X135500000Y-128000000D03*
X139000000Y-129000000D03*
X134250000Y-104500000D03*
X182750000Y-89250000D03*
X148000000Y-91000000D03*
X104750000Y-82000000D03*
X140250000Y-86000000D03*
X149500000Y-83500000D03*
X184300000Y-82850000D03*
X177500000Y-133750000D03*
X166250000Y-136000000D03*
X178000000Y-87000000D03*
X134250000Y-82250000D03*
X109750000Y-82000000D03*
X176250000Y-102250000D03*
X107250000Y-87000000D03*
X176250000Y-84000000D03*
X147750000Y-98250000D03*
X139000000Y-132250000D03*
X155000000Y-132500000D03*
X164600000Y-65600000D03*
X191000000Y-86600000D03*
X187200000Y-86600000D03*
X173246393Y-93700000D03*
X163500000Y-91000000D03*
X176080000Y-89500000D03*
X176200000Y-91600000D03*
X170444793Y-92594793D03*
X172400000Y-94550000D03*
X189500000Y-102250000D03*
X169675495Y-93525495D03*
X171500000Y-95300000D03*
X180000000Y-113750000D03*
X180000000Y-111250000D03*
X149000000Y-105000000D03*
X143750000Y-105000000D03*
X149000000Y-103750000D03*
X143750000Y-103750000D03*
X143750000Y-106250000D03*
X149000000Y-106250000D03*
X181500000Y-113750000D03*
X181500000Y-111250000D03*
X166750000Y-72500000D03*
X164250000Y-76500000D03*
D26*
X187200000Y-86600000D02*
X191000000Y-86600000D01*
D27*
X170546393Y-91000000D02*
X163500000Y-91000000D01*
D28*
X176200000Y-91600000D02*
X176080000Y-91480000D01*
X176080000Y-91480000D02*
X176080000Y-89500000D01*
D27*
X173246393Y-93700000D02*
X170546393Y-91000000D01*
D26*
X170444793Y-92594793D02*
X170535455Y-92594793D01*
X170444793Y-92594793D02*
X172400000Y-94550000D01*
X193180000Y-105910000D02*
X189520000Y-102250000D01*
X189520000Y-102250000D02*
X189500000Y-102250000D01*
X170535455Y-92594793D02*
X170540662Y-92600000D01*
X169675495Y-93525495D02*
X169725495Y-93525495D01*
X169725495Y-93525495D02*
X171500000Y-95300000D01*
X180000000Y-113750000D02*
X180000000Y-111250000D01*
X143750000Y-105000000D02*
X149000000Y-105000000D01*
X143750000Y-103750000D02*
X149000000Y-103750000D01*
X143750000Y-106250000D02*
X149000000Y-106250000D01*
X181500000Y-113750000D02*
X181500000Y-111250000D01*
X164250000Y-75000000D02*
X164250000Y-76500000D01*
X166750000Y-72500000D02*
X164250000Y-75000000D01*
G04 #@! TA.AperFunction,Conductor*
G36*
X197203244Y-61600670D02*
G01*
X197507046Y-61616592D01*
X197519953Y-61617949D01*
X197651089Y-61638718D01*
X197817209Y-61665028D01*
X197829896Y-61667724D01*
X198120625Y-61745625D01*
X198132965Y-61749635D01*
X198413938Y-61857490D01*
X198425790Y-61862767D01*
X198693968Y-61999411D01*
X198705203Y-62005898D01*
X198957608Y-62169812D01*
X198968109Y-62177441D01*
X199202010Y-62366850D01*
X199211655Y-62375535D01*
X199424464Y-62588344D01*
X199433149Y-62597989D01*
X199622558Y-62831890D01*
X199630187Y-62842391D01*
X199794101Y-63094796D01*
X199800591Y-63106036D01*
X199937231Y-63374206D01*
X199942510Y-63386064D01*
X200050363Y-63667033D01*
X200054374Y-63679376D01*
X200132273Y-63970097D01*
X200134971Y-63982794D01*
X200182050Y-64280046D01*
X200183407Y-64292953D01*
X200199330Y-64596756D01*
X200199500Y-64603246D01*
X200199500Y-138196753D01*
X200199330Y-138203243D01*
X200183407Y-138507046D01*
X200182050Y-138519953D01*
X200134971Y-138817205D01*
X200132273Y-138829902D01*
X200054374Y-139120623D01*
X200050363Y-139132966D01*
X199942510Y-139413935D01*
X199937231Y-139425793D01*
X199800591Y-139693963D01*
X199794101Y-139705203D01*
X199630187Y-139957608D01*
X199622558Y-139968109D01*
X199433149Y-140202010D01*
X199424464Y-140211655D01*
X199211655Y-140424464D01*
X199202010Y-140433149D01*
X198968109Y-140622558D01*
X198957608Y-140630187D01*
X198705203Y-140794101D01*
X198693963Y-140800591D01*
X198425793Y-140937231D01*
X198413935Y-140942510D01*
X198132966Y-141050363D01*
X198120623Y-141054374D01*
X197829902Y-141132273D01*
X197817205Y-141134971D01*
X197519953Y-141182050D01*
X197507046Y-141183407D01*
X197203244Y-141199330D01*
X197196754Y-141199500D01*
X103603246Y-141199500D01*
X103596756Y-141199330D01*
X103292953Y-141183407D01*
X103280046Y-141182050D01*
X102982794Y-141134971D01*
X102970097Y-141132273D01*
X102679376Y-141054374D01*
X102667033Y-141050363D01*
X102386064Y-140942510D01*
X102374206Y-140937231D01*
X102106036Y-140800591D01*
X102094796Y-140794101D01*
X101842391Y-140630187D01*
X101831890Y-140622558D01*
X101597989Y-140433149D01*
X101588344Y-140424464D01*
X101375535Y-140211655D01*
X101366850Y-140202010D01*
X101177441Y-139968109D01*
X101169812Y-139957608D01*
X101005896Y-139705199D01*
X100999408Y-139693963D01*
X100862768Y-139425793D01*
X100857489Y-139413935D01*
X100758705Y-139156593D01*
X100749635Y-139132965D01*
X100745625Y-139120623D01*
X100667726Y-138829902D01*
X100665028Y-138817205D01*
X100617949Y-138519953D01*
X100616592Y-138507046D01*
X100600670Y-138203243D01*
X100600500Y-138196753D01*
X100600500Y-137681989D01*
X102199500Y-137681989D01*
X102199500Y-137918011D01*
X102230307Y-138152014D01*
X102242295Y-138196753D01*
X102291394Y-138379993D01*
X102381714Y-138598045D01*
X102381719Y-138598056D01*
X102452677Y-138720957D01*
X102499727Y-138802450D01*
X102499729Y-138802453D01*
X102499730Y-138802454D01*
X102643406Y-138989697D01*
X102643412Y-138989704D01*
X102810295Y-139156587D01*
X102810301Y-139156592D01*
X102997550Y-139300273D01*
X103128918Y-139376118D01*
X103201943Y-139418280D01*
X103201948Y-139418282D01*
X103201951Y-139418284D01*
X103420007Y-139508606D01*
X103647986Y-139569693D01*
X103881989Y-139600500D01*
X103881996Y-139600500D01*
X104118004Y-139600500D01*
X104118011Y-139600500D01*
X104352014Y-139569693D01*
X104579993Y-139508606D01*
X104798049Y-139418284D01*
X105002450Y-139300273D01*
X105189699Y-139156592D01*
X105356592Y-138989699D01*
X105500273Y-138802450D01*
X105618284Y-138598049D01*
X105708606Y-138379993D01*
X105769693Y-138152014D01*
X105800500Y-137918011D01*
X105800500Y-137681989D01*
X194999500Y-137681989D01*
X194999500Y-137918011D01*
X195030307Y-138152014D01*
X195042295Y-138196753D01*
X195091394Y-138379993D01*
X195181714Y-138598045D01*
X195181719Y-138598056D01*
X195252677Y-138720957D01*
X195299727Y-138802450D01*
X195299729Y-138802453D01*
X195299730Y-138802454D01*
X195443406Y-138989697D01*
X195443412Y-138989704D01*
X195610295Y-139156587D01*
X195610301Y-139156592D01*
X195797550Y-139300273D01*
X195928918Y-139376118D01*
X196001943Y-139418280D01*
X196001948Y-139418282D01*
X196001951Y-139418284D01*
X196220007Y-139508606D01*
X196447986Y-139569693D01*
X196681989Y-139600500D01*
X196681996Y-139600500D01*
X196918004Y-139600500D01*
X196918011Y-139600500D01*
X197152014Y-139569693D01*
X197379993Y-139508606D01*
X197598049Y-139418284D01*
X197802450Y-139300273D01*
X197989699Y-139156592D01*
X198156592Y-138989699D01*
X198300273Y-138802450D01*
X198418284Y-138598049D01*
X198508606Y-138379993D01*
X198569693Y-138152014D01*
X198600500Y-137918011D01*
X198600500Y-137681989D01*
X198569693Y-137447986D01*
X198508606Y-137220007D01*
X198418284Y-137001951D01*
X198418282Y-137001948D01*
X198418280Y-137001943D01*
X198331878Y-136852292D01*
X198300273Y-136797550D01*
X198156592Y-136610301D01*
X198156587Y-136610295D01*
X197989704Y-136443412D01*
X197989697Y-136443406D01*
X197802454Y-136299730D01*
X197802453Y-136299729D01*
X197802450Y-136299727D01*
X197720957Y-136252677D01*
X197598056Y-136181719D01*
X197598045Y-136181714D01*
X197379993Y-136091394D01*
X197152010Y-136030306D01*
X196918020Y-135999501D01*
X196918017Y-135999500D01*
X196918011Y-135999500D01*
X196681989Y-135999500D01*
X196681983Y-135999500D01*
X196681979Y-135999501D01*
X196447989Y-136030306D01*
X196220006Y-136091394D01*
X196001954Y-136181714D01*
X196001943Y-136181719D01*
X195797545Y-136299730D01*
X195610302Y-136443406D01*
X195610295Y-136443412D01*
X195443412Y-136610295D01*
X195443406Y-136610302D01*
X195299730Y-136797545D01*
X195181719Y-137001943D01*
X195181714Y-137001954D01*
X195091394Y-137220006D01*
X195030306Y-137447989D01*
X194999501Y-137681979D01*
X194999500Y-137681989D01*
X105800500Y-137681989D01*
X105769693Y-137447986D01*
X105708606Y-137220007D01*
X105618284Y-137001951D01*
X105618282Y-137001948D01*
X105618280Y-137001943D01*
X105531878Y-136852292D01*
X105500273Y-136797550D01*
X105356592Y-136610301D01*
X105356587Y-136610295D01*
X105189704Y-136443412D01*
X105189697Y-136443406D01*
X105002454Y-136299730D01*
X105002453Y-136299729D01*
X105002450Y-136299727D01*
X104920957Y-136252677D01*
X104798056Y-136181719D01*
X104798045Y-136181714D01*
X104579993Y-136091394D01*
X104352010Y-136030306D01*
X104118020Y-135999501D01*
X104118017Y-135999500D01*
X104118011Y-135999500D01*
X103881989Y-135999500D01*
X103881983Y-135999500D01*
X103881979Y-135999501D01*
X103647989Y-136030306D01*
X103420006Y-136091394D01*
X103201954Y-136181714D01*
X103201943Y-136181719D01*
X102997545Y-136299730D01*
X102810302Y-136443406D01*
X102810295Y-136443412D01*
X102643412Y-136610295D01*
X102643406Y-136610302D01*
X102499730Y-136797545D01*
X102381719Y-137001943D01*
X102381714Y-137001954D01*
X102291394Y-137220006D01*
X102230306Y-137447989D01*
X102199501Y-137681979D01*
X102199500Y-137681989D01*
X100600500Y-137681989D01*
X100600500Y-135866213D01*
X180879500Y-135866213D01*
X180879500Y-136078787D01*
X180912754Y-136288743D01*
X180963009Y-136443412D01*
X180978444Y-136490914D01*
X181074951Y-136680320D01*
X181199890Y-136852286D01*
X181350213Y-137002609D01*
X181522179Y-137127548D01*
X181522181Y-137127549D01*
X181522184Y-137127551D01*
X181711588Y-137224057D01*
X181913757Y-137289746D01*
X182123713Y-137323000D01*
X182123714Y-137323000D01*
X182336286Y-137323000D01*
X182336287Y-137323000D01*
X182546243Y-137289746D01*
X182748412Y-137224057D01*
X182937816Y-137127551D01*
X182959789Y-137111586D01*
X183109786Y-137002609D01*
X183109788Y-137002606D01*
X183109792Y-137002604D01*
X183260104Y-136852292D01*
X183260106Y-136852288D01*
X183260109Y-136852286D01*
X183385048Y-136680320D01*
X183385047Y-136680320D01*
X183385051Y-136680316D01*
X183389514Y-136671554D01*
X183437488Y-136620759D01*
X183505308Y-136603963D01*
X183571444Y-136626499D01*
X183610486Y-136671556D01*
X183614951Y-136680320D01*
X183739890Y-136852286D01*
X183890213Y-137002609D01*
X184062179Y-137127548D01*
X184062181Y-137127549D01*
X184062184Y-137127551D01*
X184251588Y-137224057D01*
X184453757Y-137289746D01*
X184663713Y-137323000D01*
X184663714Y-137323000D01*
X184876286Y-137323000D01*
X184876287Y-137323000D01*
X185086243Y-137289746D01*
X185288412Y-137224057D01*
X185477816Y-137127551D01*
X185499789Y-137111586D01*
X185649786Y-137002609D01*
X185649788Y-137002606D01*
X185649792Y-137002604D01*
X185800104Y-136852292D01*
X185800106Y-136852288D01*
X185800109Y-136852286D01*
X185925048Y-136680320D01*
X185925047Y-136680320D01*
X185925051Y-136680316D01*
X186021557Y-136490912D01*
X186087246Y-136288743D01*
X186120500Y-136078787D01*
X186120500Y-135866213D01*
X186087246Y-135656257D01*
X186021557Y-135454088D01*
X185925051Y-135264684D01*
X185925049Y-135264681D01*
X185925048Y-135264679D01*
X185800109Y-135092713D01*
X185649786Y-134942390D01*
X185477820Y-134817451D01*
X185288414Y-134720944D01*
X185288413Y-134720943D01*
X185288412Y-134720943D01*
X185086243Y-134655254D01*
X185086241Y-134655253D01*
X185086240Y-134655253D01*
X184924957Y-134629708D01*
X184876287Y-134622000D01*
X184663713Y-134622000D01*
X184615042Y-134629708D01*
X184453760Y-134655253D01*
X184251585Y-134720944D01*
X184062179Y-134817451D01*
X183890213Y-134942390D01*
X183739890Y-135092713D01*
X183614949Y-135264682D01*
X183610484Y-135273446D01*
X183562509Y-135324242D01*
X183494688Y-135341036D01*
X183428553Y-135318498D01*
X183389516Y-135273446D01*
X183385050Y-135264682D01*
X183260109Y-135092713D01*
X183109786Y-134942390D01*
X182937820Y-134817451D01*
X182748414Y-134720944D01*
X182748413Y-134720943D01*
X182748412Y-134720943D01*
X182546243Y-134655254D01*
X182546241Y-134655253D01*
X182546240Y-134655253D01*
X182384957Y-134629708D01*
X182336287Y-134622000D01*
X182123713Y-134622000D01*
X182075042Y-134629708D01*
X181913760Y-134655253D01*
X181711585Y-134720944D01*
X181522179Y-134817451D01*
X181350213Y-134942390D01*
X181199890Y-135092713D01*
X181074951Y-135264679D01*
X180978444Y-135454085D01*
X180912753Y-135656260D01*
X180879500Y-135866213D01*
X100600500Y-135866213D01*
X100600500Y-125952135D01*
X159129500Y-125952135D01*
X159129500Y-129047870D01*
X159129501Y-129047876D01*
X159135908Y-129107483D01*
X159186202Y-129242328D01*
X159186206Y-129242335D01*
X159272452Y-129357544D01*
X159272455Y-129357547D01*
X159387664Y-129443793D01*
X159387671Y-129443797D01*
X159522517Y-129494091D01*
X159522516Y-129494091D01*
X159529444Y-129494835D01*
X159582127Y-129500500D01*
X162677872Y-129500499D01*
X162737483Y-129494091D01*
X162872331Y-129443796D01*
X162987546Y-129357546D01*
X163073796Y-129242331D01*
X163109110Y-129147648D01*
X181199500Y-129147648D01*
X181199500Y-129352351D01*
X181231522Y-129554534D01*
X181294781Y-129749223D01*
X181387715Y-129931613D01*
X181508028Y-130097213D01*
X181652786Y-130241971D01*
X181807749Y-130354556D01*
X181818390Y-130362287D01*
X181934607Y-130421503D01*
X182000776Y-130455218D01*
X182000778Y-130455218D01*
X182000781Y-130455220D01*
X182105137Y-130489127D01*
X182195465Y-130518477D01*
X182296557Y-130534488D01*
X182397648Y-130550500D01*
X182397649Y-130550500D01*
X182602351Y-130550500D01*
X182602352Y-130550500D01*
X182804534Y-130518477D01*
X182999219Y-130455220D01*
X183181610Y-130362287D01*
X183274590Y-130294732D01*
X183347213Y-130241971D01*
X183347215Y-130241968D01*
X183347219Y-130241966D01*
X183491966Y-130097219D01*
X183491968Y-130097215D01*
X183491971Y-130097213D01*
X183544732Y-130024590D01*
X183612287Y-129931610D01*
X183705220Y-129749219D01*
X183768477Y-129554534D01*
X183800500Y-129352352D01*
X183800500Y-129147648D01*
X183784697Y-129047872D01*
X183768477Y-128945465D01*
X183705218Y-128750776D01*
X183671503Y-128684607D01*
X183612287Y-128568390D01*
X183604556Y-128557749D01*
X183491971Y-128402786D01*
X183347213Y-128258028D01*
X183181613Y-128137715D01*
X183181612Y-128137714D01*
X183181610Y-128137713D01*
X183124653Y-128108691D01*
X182999223Y-128044781D01*
X182804534Y-127981522D01*
X182629995Y-127953878D01*
X182602352Y-127949500D01*
X182397648Y-127949500D01*
X182373329Y-127953351D01*
X182195465Y-127981522D01*
X182000776Y-128044781D01*
X181818386Y-128137715D01*
X181652786Y-128258028D01*
X181508028Y-128402786D01*
X181387715Y-128568386D01*
X181294781Y-128750776D01*
X181231522Y-128945465D01*
X181199500Y-129147648D01*
X163109110Y-129147648D01*
X163124091Y-129107483D01*
X163130500Y-129047873D01*
X163130499Y-125952128D01*
X163124091Y-125892517D01*
X163073796Y-125757669D01*
X163073795Y-125757668D01*
X163073793Y-125757664D01*
X162987547Y-125642455D01*
X162987544Y-125642452D01*
X162872335Y-125556206D01*
X162872328Y-125556202D01*
X162737482Y-125505908D01*
X162737483Y-125505908D01*
X162677883Y-125499501D01*
X162677881Y-125499500D01*
X162677873Y-125499500D01*
X162677864Y-125499500D01*
X159582129Y-125499500D01*
X159582123Y-125499501D01*
X159522516Y-125505908D01*
X159387671Y-125556202D01*
X159387664Y-125556206D01*
X159272455Y-125642452D01*
X159272452Y-125642455D01*
X159186206Y-125757664D01*
X159186202Y-125757671D01*
X159135908Y-125892517D01*
X159129501Y-125952116D01*
X159129501Y-125952123D01*
X159129500Y-125952135D01*
X100600500Y-125952135D01*
X100600500Y-122125754D01*
X113904500Y-122125754D01*
X113904500Y-122374245D01*
X113908065Y-122401319D01*
X113936933Y-122620587D01*
X114001243Y-122860595D01*
X114001246Y-122860605D01*
X114096328Y-123090153D01*
X114096333Y-123090164D01*
X114220563Y-123305335D01*
X114220574Y-123305351D01*
X114371828Y-123502470D01*
X114371834Y-123502477D01*
X114547522Y-123678165D01*
X114547528Y-123678170D01*
X114744657Y-123829432D01*
X114744664Y-123829436D01*
X114959835Y-123953666D01*
X114959840Y-123953668D01*
X114959843Y-123953670D01*
X115189404Y-124048757D01*
X115429413Y-124113067D01*
X115675762Y-124145500D01*
X115675769Y-124145500D01*
X115924231Y-124145500D01*
X115924238Y-124145500D01*
X116170587Y-124113067D01*
X116410596Y-124048757D01*
X116640157Y-123953670D01*
X116855343Y-123829432D01*
X117052472Y-123678170D01*
X117228170Y-123502472D01*
X117379432Y-123305343D01*
X117503670Y-123090157D01*
X117598757Y-122860596D01*
X117663067Y-122620587D01*
X117695500Y-122374238D01*
X117695500Y-122125762D01*
X117695499Y-122125754D01*
X126104500Y-122125754D01*
X126104500Y-122374245D01*
X126108065Y-122401319D01*
X126136933Y-122620587D01*
X126201243Y-122860595D01*
X126201246Y-122860605D01*
X126296328Y-123090153D01*
X126296333Y-123090164D01*
X126420563Y-123305335D01*
X126420574Y-123305351D01*
X126571828Y-123502470D01*
X126571834Y-123502477D01*
X126747522Y-123678165D01*
X126747528Y-123678170D01*
X126944657Y-123829432D01*
X126944664Y-123829436D01*
X127159835Y-123953666D01*
X127159840Y-123953668D01*
X127159843Y-123953670D01*
X127389404Y-124048757D01*
X127629413Y-124113067D01*
X127875762Y-124145500D01*
X127875769Y-124145500D01*
X128124231Y-124145500D01*
X128124238Y-124145500D01*
X128370587Y-124113067D01*
X128610596Y-124048757D01*
X128840157Y-123953670D01*
X129055343Y-123829432D01*
X129252472Y-123678170D01*
X129428170Y-123502472D01*
X129579432Y-123305343D01*
X129703670Y-123090157D01*
X129798757Y-122860596D01*
X129863067Y-122620587D01*
X129895500Y-122374238D01*
X129895500Y-122125762D01*
X129863067Y-121879413D01*
X129798757Y-121639404D01*
X129703670Y-121409843D01*
X129703668Y-121409840D01*
X129703666Y-121409835D01*
X129579436Y-121194664D01*
X129579432Y-121194657D01*
X129453803Y-121030934D01*
X129428171Y-120997529D01*
X129428165Y-120997522D01*
X129252477Y-120821834D01*
X129252470Y-120821828D01*
X129055351Y-120670574D01*
X129055349Y-120670572D01*
X129055343Y-120670568D01*
X129055338Y-120670565D01*
X129055335Y-120670563D01*
X128840164Y-120546333D01*
X128840153Y-120546328D01*
X128610605Y-120451246D01*
X128610598Y-120451244D01*
X128610596Y-120451243D01*
X128370587Y-120386933D01*
X128315842Y-120379725D01*
X128124245Y-120354500D01*
X128124238Y-120354500D01*
X127875762Y-120354500D01*
X127875754Y-120354500D01*
X127656785Y-120383329D01*
X127629413Y-120386933D01*
X127389404Y-120451243D01*
X127389394Y-120451246D01*
X127159846Y-120546328D01*
X127159835Y-120546333D01*
X126944664Y-120670563D01*
X126944648Y-120670574D01*
X126747529Y-120821828D01*
X126747522Y-120821834D01*
X126571834Y-120997522D01*
X126571828Y-120997529D01*
X126420574Y-121194648D01*
X126420563Y-121194664D01*
X126296333Y-121409835D01*
X126296328Y-121409846D01*
X126201246Y-121639394D01*
X126201243Y-121639404D01*
X126139706Y-121869066D01*
X126136933Y-121879414D01*
X126104500Y-122125754D01*
X117695499Y-122125754D01*
X117663067Y-121879413D01*
X117598757Y-121639404D01*
X117503670Y-121409843D01*
X117503668Y-121409840D01*
X117503666Y-121409835D01*
X117379436Y-121194664D01*
X117379432Y-121194657D01*
X117253803Y-121030934D01*
X117228171Y-120997529D01*
X117228165Y-120997522D01*
X117052477Y-120821834D01*
X117052470Y-120821828D01*
X116855351Y-120670574D01*
X116855349Y-120670572D01*
X116855343Y-120670568D01*
X116855338Y-120670565D01*
X116855335Y-120670563D01*
X116640164Y-120546333D01*
X116640153Y-120546328D01*
X116410605Y-120451246D01*
X116410598Y-120451244D01*
X116410596Y-120451243D01*
X116170587Y-120386933D01*
X116115842Y-120379725D01*
X115924245Y-120354500D01*
X115924238Y-120354500D01*
X115675762Y-120354500D01*
X115675754Y-120354500D01*
X115456785Y-120383329D01*
X115429413Y-120386933D01*
X115189404Y-120451243D01*
X115189394Y-120451246D01*
X114959846Y-120546328D01*
X114959835Y-120546333D01*
X114744664Y-120670563D01*
X114744648Y-120670574D01*
X114547529Y-120821828D01*
X114547522Y-120821834D01*
X114371834Y-120997522D01*
X114371828Y-120997529D01*
X114220574Y-121194648D01*
X114220563Y-121194664D01*
X114096333Y-121409835D01*
X114096328Y-121409846D01*
X114001246Y-121639394D01*
X114001243Y-121639404D01*
X113939706Y-121869066D01*
X113936933Y-121879414D01*
X113904500Y-122125754D01*
X100600500Y-122125754D01*
X100600500Y-116373713D01*
X104149500Y-116373713D01*
X104149500Y-116586286D01*
X104177359Y-116762185D01*
X104182754Y-116796243D01*
X104213788Y-116891756D01*
X104248444Y-116998414D01*
X104344951Y-117187820D01*
X104469890Y-117359786D01*
X104620213Y-117510109D01*
X104792179Y-117635048D01*
X104792181Y-117635049D01*
X104792184Y-117635051D01*
X104981588Y-117731557D01*
X105183757Y-117797246D01*
X105393713Y-117830500D01*
X105393714Y-117830500D01*
X105606286Y-117830500D01*
X105606287Y-117830500D01*
X105816243Y-117797246D01*
X106018412Y-117731557D01*
X106207816Y-117635051D01*
X106229789Y-117619086D01*
X106379786Y-117510109D01*
X106379788Y-117510106D01*
X106379792Y-117510104D01*
X106530104Y-117359792D01*
X106530106Y-117359788D01*
X106530109Y-117359786D01*
X106655048Y-117187820D01*
X106655047Y-117187820D01*
X106655051Y-117187816D01*
X106751557Y-116998412D01*
X106817246Y-116796243D01*
X106850500Y-116586287D01*
X106850500Y-116373713D01*
X106817246Y-116163757D01*
X106804898Y-116125754D01*
X128104500Y-116125754D01*
X128104500Y-116374245D01*
X128128891Y-116559500D01*
X128136933Y-116620587D01*
X128183999Y-116796239D01*
X128201243Y-116860595D01*
X128201246Y-116860605D01*
X128296328Y-117090153D01*
X128296333Y-117090164D01*
X128420563Y-117305335D01*
X128420574Y-117305351D01*
X128571828Y-117502470D01*
X128571834Y-117502477D01*
X128747522Y-117678165D01*
X128747528Y-117678170D01*
X128944657Y-117829432D01*
X128944664Y-117829436D01*
X129159835Y-117953666D01*
X129159840Y-117953668D01*
X129159843Y-117953670D01*
X129389404Y-118048757D01*
X129629413Y-118113067D01*
X129875762Y-118145500D01*
X129875769Y-118145500D01*
X130124231Y-118145500D01*
X130124238Y-118145500D01*
X130370587Y-118113067D01*
X130610596Y-118048757D01*
X130840157Y-117953670D01*
X131020103Y-117849778D01*
X134099500Y-117849778D01*
X134099500Y-118070221D01*
X134133985Y-118287952D01*
X134202103Y-118497603D01*
X134202104Y-118497606D01*
X134302187Y-118694025D01*
X134431752Y-118872358D01*
X134431756Y-118872363D01*
X134587636Y-119028243D01*
X134587641Y-119028247D01*
X134727254Y-119129682D01*
X134769920Y-119185012D01*
X134775899Y-119254625D01*
X134743293Y-119316420D01*
X134727254Y-119330318D01*
X134587641Y-119431752D01*
X134587636Y-119431756D01*
X134431756Y-119587636D01*
X134431752Y-119587641D01*
X134302187Y-119765974D01*
X134202104Y-119962393D01*
X134202103Y-119962396D01*
X134133985Y-120172047D01*
X134099500Y-120389778D01*
X134099500Y-120610221D01*
X134133985Y-120827952D01*
X134202103Y-121037603D01*
X134202104Y-121037606D01*
X134302187Y-121234025D01*
X134431752Y-121412358D01*
X134431756Y-121412363D01*
X134587636Y-121568243D01*
X134587641Y-121568247D01*
X134743192Y-121681260D01*
X134765978Y-121697815D01*
X134894375Y-121763237D01*
X134962393Y-121797895D01*
X134962396Y-121797896D01*
X135067221Y-121831955D01*
X135172049Y-121866015D01*
X135389778Y-121900500D01*
X135389779Y-121900500D01*
X135610221Y-121900500D01*
X135610222Y-121900500D01*
X135827951Y-121866015D01*
X136037606Y-121797895D01*
X136234022Y-121697815D01*
X136412365Y-121568242D01*
X136568242Y-121412365D01*
X136697815Y-121234022D01*
X136797895Y-121037606D01*
X136866015Y-120827951D01*
X136900500Y-120610222D01*
X136900500Y-120389778D01*
X136866015Y-120172049D01*
X136866014Y-120172045D01*
X136853348Y-120133061D01*
X136842481Y-120099616D01*
X194004500Y-120099616D01*
X194004500Y-120300383D01*
X194035907Y-120498680D01*
X194097949Y-120689626D01*
X194189095Y-120868508D01*
X194307103Y-121030932D01*
X194449068Y-121172897D01*
X194611492Y-121290905D01*
X194675827Y-121323685D01*
X194706894Y-121339515D01*
X194757690Y-121387490D01*
X194774485Y-121455311D01*
X194751947Y-121521446D01*
X194706894Y-121560485D01*
X194611491Y-121609095D01*
X194569775Y-121639404D01*
X194449068Y-121727103D01*
X194449066Y-121727105D01*
X194449065Y-121727105D01*
X194307105Y-121869065D01*
X194307105Y-121869066D01*
X194307103Y-121869068D01*
X194256423Y-121938822D01*
X194189095Y-122031491D01*
X194097949Y-122210373D01*
X194044704Y-122374245D01*
X194035907Y-122401320D01*
X194004500Y-122599616D01*
X194004500Y-122800384D01*
X194014037Y-122860596D01*
X194035907Y-122998680D01*
X194097949Y-123189626D01*
X194156915Y-123305351D01*
X194189095Y-123368508D01*
X194307103Y-123530932D01*
X194449068Y-123672897D01*
X194611492Y-123790905D01*
X194687113Y-123829436D01*
X194790373Y-123882050D01*
X194790375Y-123882050D01*
X194790378Y-123882052D01*
X194981320Y-123944093D01*
X195179616Y-123975500D01*
X195179617Y-123975500D01*
X195380383Y-123975500D01*
X195380384Y-123975500D01*
X195578680Y-123944093D01*
X195769622Y-123882052D01*
X195948508Y-123790905D01*
X196110932Y-123672897D01*
X196252897Y-123530932D01*
X196370905Y-123368508D01*
X196462052Y-123189622D01*
X196524093Y-122998680D01*
X196555500Y-122800384D01*
X196555500Y-122599616D01*
X196524093Y-122401320D01*
X196462052Y-122210378D01*
X196462050Y-122210375D01*
X196462050Y-122210373D01*
X196370904Y-122031491D01*
X196252897Y-121869068D01*
X196110932Y-121727103D01*
X195948508Y-121609095D01*
X195853104Y-121560484D01*
X195802309Y-121512511D01*
X195785514Y-121444690D01*
X195808051Y-121378555D01*
X195853104Y-121339515D01*
X195948508Y-121290905D01*
X196110932Y-121172897D01*
X196252897Y-121030932D01*
X196370905Y-120868508D01*
X196462052Y-120689622D01*
X196524093Y-120498680D01*
X196555500Y-120300384D01*
X196555500Y-120099616D01*
X196524093Y-119901320D01*
X196462052Y-119710378D01*
X196462050Y-119710375D01*
X196462050Y-119710373D01*
X196370904Y-119531491D01*
X196252897Y-119369068D01*
X196110932Y-119227103D01*
X195948508Y-119109095D01*
X195769626Y-119017949D01*
X195578680Y-118955907D01*
X195380384Y-118924500D01*
X195179616Y-118924500D01*
X195080468Y-118940203D01*
X194981319Y-118955907D01*
X194790373Y-119017949D01*
X194611491Y-119109095D01*
X194518822Y-119176423D01*
X194449068Y-119227103D01*
X194449066Y-119227105D01*
X194449065Y-119227105D01*
X194307105Y-119369065D01*
X194307105Y-119369066D01*
X194307103Y-119369068D01*
X194261556Y-119431758D01*
X194189095Y-119531491D01*
X194097949Y-119710373D01*
X194035907Y-119901319D01*
X194004500Y-120099616D01*
X136842481Y-120099616D01*
X136797896Y-119962396D01*
X136797895Y-119962393D01*
X136763237Y-119894375D01*
X136697815Y-119765978D01*
X136681260Y-119743192D01*
X136568247Y-119587641D01*
X136568243Y-119587636D01*
X136412363Y-119431756D01*
X136412358Y-119431752D01*
X136272745Y-119330318D01*
X136230079Y-119274989D01*
X136224100Y-119205375D01*
X136256705Y-119143580D01*
X136272745Y-119129682D01*
X136412358Y-119028247D01*
X136412356Y-119028247D01*
X136412365Y-119028242D01*
X136568242Y-118872365D01*
X136697815Y-118694022D01*
X136797895Y-118497606D01*
X136866015Y-118287951D01*
X136900500Y-118070222D01*
X136900500Y-117849778D01*
X136866015Y-117632049D01*
X136797895Y-117422394D01*
X136797895Y-117422393D01*
X136738254Y-117305343D01*
X136697815Y-117225978D01*
X136599133Y-117090153D01*
X136568247Y-117047641D01*
X136568243Y-117047636D01*
X136412363Y-116891756D01*
X136412358Y-116891752D01*
X136234025Y-116762187D01*
X136234024Y-116762186D01*
X136234022Y-116762185D01*
X136171096Y-116730122D01*
X136037606Y-116662104D01*
X136037603Y-116662103D01*
X135827952Y-116593985D01*
X135719086Y-116576742D01*
X135610222Y-116559500D01*
X135389778Y-116559500D01*
X135317201Y-116570995D01*
X135172047Y-116593985D01*
X134962396Y-116662103D01*
X134962393Y-116662104D01*
X134765974Y-116762187D01*
X134587641Y-116891752D01*
X134587636Y-116891756D01*
X134431756Y-117047636D01*
X134431752Y-117047641D01*
X134302187Y-117225974D01*
X134202104Y-117422393D01*
X134202103Y-117422396D01*
X134133985Y-117632047D01*
X134099500Y-117849778D01*
X131020103Y-117849778D01*
X131055343Y-117829432D01*
X131121057Y-117779007D01*
X131163384Y-117746530D01*
X131208754Y-117711715D01*
X131252472Y-117678170D01*
X131428170Y-117502472D01*
X131579432Y-117305343D01*
X131703670Y-117090157D01*
X131798757Y-116860596D01*
X131863067Y-116620587D01*
X131895500Y-116374238D01*
X131895500Y-116125762D01*
X131863067Y-115879413D01*
X131798757Y-115639404D01*
X131703670Y-115409843D01*
X131703668Y-115409840D01*
X131703666Y-115409835D01*
X131579436Y-115194664D01*
X131579432Y-115194657D01*
X131428170Y-114997528D01*
X131428165Y-114997522D01*
X131252477Y-114821834D01*
X131252470Y-114821828D01*
X131055351Y-114670574D01*
X131055349Y-114670572D01*
X131055343Y-114670568D01*
X131055338Y-114670565D01*
X131055335Y-114670563D01*
X130840164Y-114546333D01*
X130840153Y-114546328D01*
X130610605Y-114451246D01*
X130610598Y-114451244D01*
X130610596Y-114451243D01*
X130370587Y-114386933D01*
X130315842Y-114379725D01*
X130124245Y-114354500D01*
X130124238Y-114354500D01*
X129875762Y-114354500D01*
X129875754Y-114354500D01*
X129656785Y-114383329D01*
X129629413Y-114386933D01*
X129461627Y-114431891D01*
X129389404Y-114451243D01*
X129389394Y-114451246D01*
X129159846Y-114546328D01*
X129159835Y-114546333D01*
X128944664Y-114670563D01*
X128944648Y-114670574D01*
X128747529Y-114821828D01*
X128747522Y-114821834D01*
X128571834Y-114997522D01*
X128571828Y-114997529D01*
X128420574Y-115194648D01*
X128420563Y-115194664D01*
X128296333Y-115409835D01*
X128296328Y-115409846D01*
X128201246Y-115639394D01*
X128201243Y-115639404D01*
X128136933Y-115879414D01*
X128104500Y-116125754D01*
X106804898Y-116125754D01*
X106751557Y-115961588D01*
X106655051Y-115772184D01*
X106655049Y-115772181D01*
X106655048Y-115772179D01*
X106530109Y-115600213D01*
X106379786Y-115449890D01*
X106207820Y-115324951D01*
X106018414Y-115228444D01*
X106018413Y-115228443D01*
X106018412Y-115228443D01*
X105816243Y-115162754D01*
X105816241Y-115162753D01*
X105816240Y-115162753D01*
X105654957Y-115137208D01*
X105606287Y-115129500D01*
X105393713Y-115129500D01*
X105345042Y-115137208D01*
X105183760Y-115162753D01*
X104981585Y-115228444D01*
X104792179Y-115324951D01*
X104620213Y-115449890D01*
X104469890Y-115600213D01*
X104344951Y-115772179D01*
X104248444Y-115961585D01*
X104182753Y-116163760D01*
X104149500Y-116373713D01*
X100600500Y-116373713D01*
X100600500Y-110125754D01*
X113904500Y-110125754D01*
X113904500Y-110374245D01*
X113929725Y-110565842D01*
X113936933Y-110620587D01*
X113984943Y-110799762D01*
X114001243Y-110860595D01*
X114001246Y-110860605D01*
X114096328Y-111090153D01*
X114096333Y-111090164D01*
X114220563Y-111305335D01*
X114220574Y-111305351D01*
X114371828Y-111502470D01*
X114371834Y-111502477D01*
X114547522Y-111678165D01*
X114547529Y-111678171D01*
X114576286Y-111700237D01*
X114744657Y-111829432D01*
X114744664Y-111829436D01*
X114959835Y-111953666D01*
X114959840Y-111953668D01*
X114959843Y-111953670D01*
X115052175Y-111991915D01*
X115180507Y-112045072D01*
X115189404Y-112048757D01*
X115429413Y-112113067D01*
X115675762Y-112145500D01*
X115675769Y-112145500D01*
X115924231Y-112145500D01*
X115924238Y-112145500D01*
X116170587Y-112113067D01*
X116410596Y-112048757D01*
X116640157Y-111953670D01*
X116855343Y-111829432D01*
X117052472Y-111678170D01*
X117228170Y-111502472D01*
X117379432Y-111305343D01*
X117503670Y-111090157D01*
X117598757Y-110860596D01*
X117663067Y-110620587D01*
X117695500Y-110374238D01*
X117695500Y-110125762D01*
X117695499Y-110125754D01*
X126104500Y-110125754D01*
X126104500Y-110374245D01*
X126129725Y-110565842D01*
X126136933Y-110620587D01*
X126184943Y-110799762D01*
X126201243Y-110860595D01*
X126201246Y-110860605D01*
X126296328Y-111090153D01*
X126296333Y-111090164D01*
X126420563Y-111305335D01*
X126420574Y-111305351D01*
X126571828Y-111502470D01*
X126571834Y-111502477D01*
X126747522Y-111678165D01*
X126747529Y-111678171D01*
X126776286Y-111700237D01*
X126944657Y-111829432D01*
X126944664Y-111829436D01*
X127159835Y-111953666D01*
X127159840Y-111953668D01*
X127159843Y-111953670D01*
X127252175Y-111991915D01*
X127380507Y-112045072D01*
X127389404Y-112048757D01*
X127629413Y-112113067D01*
X127875762Y-112145500D01*
X127875769Y-112145500D01*
X128124231Y-112145500D01*
X128124238Y-112145500D01*
X128370587Y-112113067D01*
X128610596Y-112048757D01*
X128840157Y-111953670D01*
X129055343Y-111829432D01*
X129252472Y-111678170D01*
X129428170Y-111502472D01*
X129579432Y-111305343D01*
X129665437Y-111156379D01*
X179049500Y-111156379D01*
X179049500Y-111343620D01*
X179086025Y-111527243D01*
X179086027Y-111527251D01*
X179157676Y-111700228D01*
X179157681Y-111700237D01*
X179261696Y-111855906D01*
X179261697Y-111855907D01*
X179261698Y-111855908D01*
X179363182Y-111957392D01*
X179396666Y-112018713D01*
X179399500Y-112045072D01*
X179399500Y-112954927D01*
X179379815Y-113021966D01*
X179363181Y-113042608D01*
X179261700Y-113144088D01*
X179261697Y-113144092D01*
X179157681Y-113299762D01*
X179157676Y-113299771D01*
X179086027Y-113472748D01*
X179086025Y-113472756D01*
X179049500Y-113656379D01*
X179049500Y-113843620D01*
X179086025Y-114027243D01*
X179086027Y-114027251D01*
X179157676Y-114200228D01*
X179157681Y-114200237D01*
X179261697Y-114355907D01*
X179261700Y-114355911D01*
X179394088Y-114488299D01*
X179394092Y-114488302D01*
X179549762Y-114592318D01*
X179549768Y-114592321D01*
X179549769Y-114592322D01*
X179722749Y-114663973D01*
X179906379Y-114700499D01*
X179906383Y-114700500D01*
X179906384Y-114700500D01*
X180093617Y-114700500D01*
X180093618Y-114700499D01*
X180277251Y-114663973D01*
X180450231Y-114592322D01*
X180605908Y-114488302D01*
X180662320Y-114431889D01*
X180723641Y-114398406D01*
X180793333Y-114403390D01*
X180837679Y-114431889D01*
X180894089Y-114488299D01*
X180894093Y-114488303D01*
X181049762Y-114592318D01*
X181049768Y-114592321D01*
X181049769Y-114592322D01*
X181222749Y-114663973D01*
X181406379Y-114700499D01*
X181406383Y-114700500D01*
X181406384Y-114700500D01*
X181593617Y-114700500D01*
X181593618Y-114700499D01*
X181777251Y-114663973D01*
X181950231Y-114592322D01*
X182105908Y-114488302D01*
X182238302Y-114355908D01*
X182342322Y-114200231D01*
X182413973Y-114027251D01*
X182450500Y-113843616D01*
X182450500Y-113656384D01*
X182413973Y-113472749D01*
X182342322Y-113299769D01*
X182342321Y-113299768D01*
X182342318Y-113299762D01*
X182238302Y-113144092D01*
X182238299Y-113144088D01*
X182136819Y-113042608D01*
X182103334Y-112981285D01*
X182100500Y-112954927D01*
X182100500Y-112045072D01*
X182120185Y-111978033D01*
X182136814Y-111957395D01*
X182238302Y-111855908D01*
X182342322Y-111700231D01*
X182413973Y-111527251D01*
X182450500Y-111343616D01*
X182450500Y-111156384D01*
X182413973Y-110972749D01*
X182342322Y-110799769D01*
X182342321Y-110799768D01*
X182342318Y-110799762D01*
X182238302Y-110644092D01*
X182238299Y-110644088D01*
X182105911Y-110511700D01*
X182105907Y-110511697D01*
X181950237Y-110407681D01*
X181950228Y-110407676D01*
X181777251Y-110336027D01*
X181777243Y-110336025D01*
X181593620Y-110299500D01*
X181593616Y-110299500D01*
X181406384Y-110299500D01*
X181406379Y-110299500D01*
X181222756Y-110336025D01*
X181222748Y-110336027D01*
X181049771Y-110407676D01*
X181049762Y-110407681D01*
X180894092Y-110511697D01*
X180894088Y-110511700D01*
X180837681Y-110568108D01*
X180776358Y-110601593D01*
X180706666Y-110596609D01*
X180662319Y-110568108D01*
X180605911Y-110511700D01*
X180605907Y-110511697D01*
X180450237Y-110407681D01*
X180450228Y-110407676D01*
X180277251Y-110336027D01*
X180277243Y-110336025D01*
X180093620Y-110299500D01*
X180093616Y-110299500D01*
X179906384Y-110299500D01*
X179906379Y-110299500D01*
X179722756Y-110336025D01*
X179722748Y-110336027D01*
X179549771Y-110407676D01*
X179549762Y-110407681D01*
X179394092Y-110511697D01*
X179394088Y-110511700D01*
X179261700Y-110644088D01*
X179261697Y-110644092D01*
X179157681Y-110799762D01*
X179157676Y-110799771D01*
X179086027Y-110972748D01*
X179086025Y-110972756D01*
X179049500Y-111156379D01*
X129665437Y-111156379D01*
X129703670Y-111090157D01*
X129798757Y-110860596D01*
X129863067Y-110620587D01*
X129895500Y-110374238D01*
X129895500Y-110125762D01*
X129863067Y-109879413D01*
X129798757Y-109639404D01*
X129779260Y-109592335D01*
X129723403Y-109457483D01*
X129703670Y-109409843D01*
X129703668Y-109409840D01*
X129703666Y-109409835D01*
X129579436Y-109194664D01*
X129579432Y-109194657D01*
X129428170Y-108997528D01*
X129428165Y-108997522D01*
X129252477Y-108821834D01*
X129252470Y-108821828D01*
X129055351Y-108670574D01*
X129055349Y-108670572D01*
X129055343Y-108670568D01*
X129055338Y-108670565D01*
X129055335Y-108670563D01*
X128840164Y-108546333D01*
X128840153Y-108546328D01*
X128610605Y-108451246D01*
X128610598Y-108451244D01*
X128610596Y-108451243D01*
X128370587Y-108386933D01*
X128315842Y-108379725D01*
X128124245Y-108354500D01*
X128124238Y-108354500D01*
X127875762Y-108354500D01*
X127875754Y-108354500D01*
X127656785Y-108383329D01*
X127629413Y-108386933D01*
X127389404Y-108451243D01*
X127389394Y-108451246D01*
X127159846Y-108546328D01*
X127159835Y-108546333D01*
X126944664Y-108670563D01*
X126944648Y-108670574D01*
X126747529Y-108821828D01*
X126747522Y-108821834D01*
X126571834Y-108997522D01*
X126571828Y-108997529D01*
X126420574Y-109194648D01*
X126420563Y-109194664D01*
X126296333Y-109409835D01*
X126296328Y-109409846D01*
X126201246Y-109639394D01*
X126201243Y-109639404D01*
X126144681Y-109850499D01*
X126136933Y-109879414D01*
X126104500Y-110125754D01*
X117695499Y-110125754D01*
X117663067Y-109879413D01*
X117598757Y-109639404D01*
X117579260Y-109592335D01*
X117523403Y-109457483D01*
X117503670Y-109409843D01*
X117503668Y-109409840D01*
X117503666Y-109409835D01*
X117379436Y-109194664D01*
X117379432Y-109194657D01*
X117228170Y-108997528D01*
X117228165Y-108997522D01*
X117052477Y-108821834D01*
X117052470Y-108821828D01*
X116855351Y-108670574D01*
X116855349Y-108670572D01*
X116855343Y-108670568D01*
X116855338Y-108670565D01*
X116855335Y-108670563D01*
X116640164Y-108546333D01*
X116640153Y-108546328D01*
X116410605Y-108451246D01*
X116410598Y-108451244D01*
X116410596Y-108451243D01*
X116170587Y-108386933D01*
X116115842Y-108379725D01*
X115924245Y-108354500D01*
X115924238Y-108354500D01*
X115675762Y-108354500D01*
X115675754Y-108354500D01*
X115456785Y-108383329D01*
X115429413Y-108386933D01*
X115189404Y-108451243D01*
X115189394Y-108451246D01*
X114959846Y-108546328D01*
X114959835Y-108546333D01*
X114744664Y-108670563D01*
X114744648Y-108670574D01*
X114547529Y-108821828D01*
X114547522Y-108821834D01*
X114371834Y-108997522D01*
X114371828Y-108997529D01*
X114220574Y-109194648D01*
X114220563Y-109194664D01*
X114096333Y-109409835D01*
X114096328Y-109409846D01*
X114001246Y-109639394D01*
X114001243Y-109639404D01*
X113944681Y-109850499D01*
X113936933Y-109879414D01*
X113904500Y-110125754D01*
X100600500Y-110125754D01*
X100600500Y-103656379D01*
X142799500Y-103656379D01*
X142799500Y-103843620D01*
X142836025Y-104027243D01*
X142836027Y-104027251D01*
X142907676Y-104200228D01*
X142907680Y-104200235D01*
X142978423Y-104306110D01*
X142999300Y-104372787D01*
X142980815Y-104440167D01*
X142978423Y-104443890D01*
X142907680Y-104549764D01*
X142907676Y-104549771D01*
X142836027Y-104722748D01*
X142836025Y-104722756D01*
X142799500Y-104906379D01*
X142799500Y-105093620D01*
X142836025Y-105277243D01*
X142836027Y-105277251D01*
X142907676Y-105450228D01*
X142907680Y-105450235D01*
X142978423Y-105556110D01*
X142999300Y-105622787D01*
X142980815Y-105690167D01*
X142978423Y-105693890D01*
X142907680Y-105799764D01*
X142907676Y-105799771D01*
X142836027Y-105972748D01*
X142836025Y-105972756D01*
X142799500Y-106156379D01*
X142799500Y-106343620D01*
X142836025Y-106527243D01*
X142836027Y-106527251D01*
X142907676Y-106700228D01*
X142907681Y-106700237D01*
X143011697Y-106855907D01*
X143011700Y-106855911D01*
X143144088Y-106988299D01*
X143144092Y-106988302D01*
X143299762Y-107092318D01*
X143299768Y-107092321D01*
X143299769Y-107092322D01*
X143472749Y-107163973D01*
X143615924Y-107192452D01*
X143656379Y-107200499D01*
X143656383Y-107200500D01*
X143656384Y-107200500D01*
X143843617Y-107200500D01*
X143843618Y-107200499D01*
X144027251Y-107163973D01*
X144200231Y-107092322D01*
X144355908Y-106988302D01*
X144457392Y-106886817D01*
X144518713Y-106853334D01*
X144545072Y-106850500D01*
X148204928Y-106850500D01*
X148271967Y-106870185D01*
X148292604Y-106886814D01*
X148374768Y-106968978D01*
X148394093Y-106988303D01*
X148549762Y-107092318D01*
X148549768Y-107092321D01*
X148549769Y-107092322D01*
X148722749Y-107163973D01*
X148865924Y-107192452D01*
X148906379Y-107200499D01*
X148906383Y-107200500D01*
X148906384Y-107200500D01*
X149093617Y-107200500D01*
X149093618Y-107200499D01*
X149277251Y-107163973D01*
X149450231Y-107092322D01*
X149605908Y-106988302D01*
X149738302Y-106855908D01*
X149842322Y-106700231D01*
X149913973Y-106527251D01*
X149950500Y-106343616D01*
X149950500Y-106156384D01*
X149913973Y-105972749D01*
X149842322Y-105799769D01*
X149842319Y-105799764D01*
X149842318Y-105799762D01*
X149771577Y-105693891D01*
X149750699Y-105627213D01*
X149769183Y-105559833D01*
X149771577Y-105556109D01*
X149842318Y-105450237D01*
X149842319Y-105450235D01*
X149842322Y-105450231D01*
X149913973Y-105277251D01*
X149950500Y-105093616D01*
X149950500Y-104906384D01*
X149913973Y-104722749D01*
X149842322Y-104549769D01*
X149835646Y-104539778D01*
X181949500Y-104539778D01*
X181949500Y-104760221D01*
X181983985Y-104977952D01*
X182052103Y-105187603D01*
X182052104Y-105187606D01*
X182152187Y-105384025D01*
X182281752Y-105562358D01*
X182281756Y-105562363D01*
X182437636Y-105718243D01*
X182437641Y-105718247D01*
X182593192Y-105831260D01*
X182615978Y-105847815D01*
X182744375Y-105913237D01*
X182812393Y-105947895D01*
X182812396Y-105947896D01*
X182888885Y-105972748D01*
X183022049Y-106016015D01*
X183239778Y-106050500D01*
X183239779Y-106050500D01*
X183460221Y-106050500D01*
X183460222Y-106050500D01*
X183677951Y-106016015D01*
X183887606Y-105947895D01*
X184084022Y-105847815D01*
X184262365Y-105718242D01*
X184418242Y-105562365D01*
X184547815Y-105384022D01*
X184647895Y-105187606D01*
X184716015Y-104977951D01*
X184750500Y-104760222D01*
X184750500Y-104539778D01*
X188449500Y-104539778D01*
X188449500Y-104760221D01*
X188483985Y-104977952D01*
X188552103Y-105187603D01*
X188552104Y-105187606D01*
X188652187Y-105384025D01*
X188781752Y-105562358D01*
X188781756Y-105562363D01*
X188937636Y-105718243D01*
X188937641Y-105718247D01*
X189093192Y-105831260D01*
X189115978Y-105847815D01*
X189244375Y-105913237D01*
X189312393Y-105947895D01*
X189312396Y-105947896D01*
X189388885Y-105972748D01*
X189522049Y-106016015D01*
X189739778Y-106050500D01*
X189739779Y-106050500D01*
X189960221Y-106050500D01*
X189960222Y-106050500D01*
X190177951Y-106016015D01*
X190387606Y-105947895D01*
X190584022Y-105847815D01*
X190762365Y-105718242D01*
X190918242Y-105562365D01*
X191047815Y-105384022D01*
X191147895Y-105187606D01*
X191198291Y-105032500D01*
X191237726Y-104974826D01*
X191302085Y-104947627D01*
X191370931Y-104959541D01*
X191403902Y-104983138D01*
X191885921Y-105465157D01*
X191919406Y-105526480D01*
X191916173Y-105591149D01*
X191911523Y-105605460D01*
X191911523Y-105605462D01*
X191879500Y-105807648D01*
X191879500Y-106012351D01*
X191911522Y-106214534D01*
X191974781Y-106409223D01*
X192067715Y-106591613D01*
X192188028Y-106757213D01*
X192272956Y-106842141D01*
X192306441Y-106903464D01*
X192301457Y-106973156D01*
X192259585Y-107029089D01*
X192198531Y-107053111D01*
X192172519Y-107055907D01*
X192037671Y-107106202D01*
X192037664Y-107106206D01*
X191922455Y-107192452D01*
X191922452Y-107192455D01*
X191836206Y-107307664D01*
X191836202Y-107307671D01*
X191785908Y-107442517D01*
X191779501Y-107502116D01*
X191779501Y-107502123D01*
X191779500Y-107502135D01*
X191779500Y-109397870D01*
X191779501Y-109397876D01*
X191785908Y-109457483D01*
X191836202Y-109592328D01*
X191836206Y-109592335D01*
X191922452Y-109707544D01*
X191922455Y-109707547D01*
X192037664Y-109793793D01*
X192037671Y-109793797D01*
X192172517Y-109844091D01*
X192172516Y-109844091D01*
X192179444Y-109844835D01*
X192232127Y-109850500D01*
X194127872Y-109850499D01*
X194187483Y-109844091D01*
X194322331Y-109793796D01*
X194437546Y-109707546D01*
X194523796Y-109592331D01*
X194574091Y-109457483D01*
X194580500Y-109397873D01*
X194580499Y-107502128D01*
X194574091Y-107442517D01*
X194523796Y-107307669D01*
X194523795Y-107307668D01*
X194523793Y-107307664D01*
X194437547Y-107192455D01*
X194437544Y-107192452D01*
X194322335Y-107106206D01*
X194322328Y-107106202D01*
X194187483Y-107055909D01*
X194161465Y-107053111D01*
X194096915Y-107026371D01*
X194057068Y-106968978D01*
X194054577Y-106899153D01*
X194087040Y-106842144D01*
X194171966Y-106757219D01*
X194292287Y-106591610D01*
X194385220Y-106409219D01*
X194448477Y-106214534D01*
X194480500Y-106012352D01*
X194480500Y-105807648D01*
X194461893Y-105690167D01*
X194448477Y-105605465D01*
X194385218Y-105410776D01*
X194351503Y-105344607D01*
X194292287Y-105228390D01*
X194262652Y-105187600D01*
X194171971Y-105062786D01*
X194027213Y-104918028D01*
X193861614Y-104797715D01*
X193855006Y-104794348D01*
X193768917Y-104750483D01*
X193718123Y-104702511D01*
X193701328Y-104634690D01*
X193723865Y-104568555D01*
X193768917Y-104529516D01*
X193861610Y-104482287D01*
X193882770Y-104466913D01*
X194027213Y-104361971D01*
X194027215Y-104361968D01*
X194027219Y-104361966D01*
X194171966Y-104217219D01*
X194171968Y-104217215D01*
X194171971Y-104217213D01*
X194224732Y-104144590D01*
X194292287Y-104051610D01*
X194385220Y-103869219D01*
X194448477Y-103674534D01*
X194480500Y-103472352D01*
X194480500Y-103267648D01*
X194458669Y-103129815D01*
X194448477Y-103065465D01*
X194419127Y-102975137D01*
X194385220Y-102870781D01*
X194385218Y-102870778D01*
X194385218Y-102870776D01*
X194348900Y-102799500D01*
X194292287Y-102688390D01*
X194284556Y-102677749D01*
X194171971Y-102522786D01*
X194027213Y-102378028D01*
X193861614Y-102257715D01*
X193855006Y-102254348D01*
X193768917Y-102210483D01*
X193718123Y-102162511D01*
X193701328Y-102094690D01*
X193723865Y-102028555D01*
X193768917Y-101989516D01*
X193861610Y-101942287D01*
X193882770Y-101926913D01*
X194027213Y-101821971D01*
X194027215Y-101821968D01*
X194027219Y-101821966D01*
X194171966Y-101677219D01*
X194171968Y-101677215D01*
X194171971Y-101677213D01*
X194224732Y-101604590D01*
X194292287Y-101511610D01*
X194385220Y-101329219D01*
X194448477Y-101134534D01*
X194480500Y-100932352D01*
X194480500Y-100727648D01*
X194448477Y-100525466D01*
X194385220Y-100330781D01*
X194385218Y-100330778D01*
X194385218Y-100330776D01*
X194351503Y-100264607D01*
X194292287Y-100148390D01*
X194278500Y-100129413D01*
X194171971Y-99982786D01*
X194027213Y-99838028D01*
X193861614Y-99717715D01*
X193855006Y-99714348D01*
X193768917Y-99670483D01*
X193718123Y-99622511D01*
X193701328Y-99554690D01*
X193723865Y-99488555D01*
X193768917Y-99449516D01*
X193861610Y-99402287D01*
X193882770Y-99386913D01*
X194027213Y-99281971D01*
X194027215Y-99281968D01*
X194027219Y-99281966D01*
X194171966Y-99137219D01*
X194171968Y-99137215D01*
X194171971Y-99137213D01*
X194224732Y-99064590D01*
X194292287Y-98971610D01*
X194385220Y-98789219D01*
X194448477Y-98594534D01*
X194480500Y-98392352D01*
X194480500Y-98187648D01*
X194448477Y-97985466D01*
X194385220Y-97790781D01*
X194385218Y-97790778D01*
X194385218Y-97790776D01*
X194329667Y-97681752D01*
X194292287Y-97608390D01*
X194271892Y-97580318D01*
X194171971Y-97442786D01*
X194027213Y-97298028D01*
X193861613Y-97177715D01*
X193861612Y-97177714D01*
X193861610Y-97177713D01*
X193752984Y-97122365D01*
X193679223Y-97084781D01*
X193484534Y-97021522D01*
X193309995Y-96993878D01*
X193282352Y-96989500D01*
X193077648Y-96989500D01*
X193053329Y-96993351D01*
X192875465Y-97021522D01*
X192680776Y-97084781D01*
X192498386Y-97177715D01*
X192332786Y-97298028D01*
X192188028Y-97442786D01*
X192067715Y-97608386D01*
X191974781Y-97790776D01*
X191911522Y-97985465D01*
X191879500Y-98187648D01*
X191879500Y-98392351D01*
X191911522Y-98594534D01*
X191974781Y-98789223D01*
X192067715Y-98971613D01*
X192188028Y-99137213D01*
X192332786Y-99281971D01*
X192487749Y-99394556D01*
X192498390Y-99402287D01*
X192589840Y-99448883D01*
X192591080Y-99449515D01*
X192641876Y-99497490D01*
X192658671Y-99565311D01*
X192636134Y-99631446D01*
X192591080Y-99670485D01*
X192498386Y-99717715D01*
X192332786Y-99838028D01*
X192188028Y-99982786D01*
X192067715Y-100148386D01*
X191974781Y-100330776D01*
X191911522Y-100525465D01*
X191879500Y-100727648D01*
X191879500Y-100932351D01*
X191911522Y-101134534D01*
X191974781Y-101329223D01*
X192067715Y-101511613D01*
X192188028Y-101677213D01*
X192332786Y-101821971D01*
X192478959Y-101928170D01*
X192498390Y-101942287D01*
X192558189Y-101972756D01*
X192591080Y-101989515D01*
X192641876Y-102037490D01*
X192658671Y-102105311D01*
X192636134Y-102171446D01*
X192591080Y-102210485D01*
X192498386Y-102257715D01*
X192332786Y-102378028D01*
X192188028Y-102522786D01*
X192067715Y-102688386D01*
X191974781Y-102870776D01*
X191911522Y-103065465D01*
X191879500Y-103267648D01*
X191879500Y-103460902D01*
X191859815Y-103527941D01*
X191807011Y-103573696D01*
X191737853Y-103583640D01*
X191674297Y-103554615D01*
X191667819Y-103548583D01*
X190486819Y-102367583D01*
X190453334Y-102306260D01*
X190450500Y-102279902D01*
X190450500Y-102156383D01*
X190450499Y-102156379D01*
X190440341Y-102105311D01*
X190413973Y-101972749D01*
X190342322Y-101799769D01*
X190342321Y-101799768D01*
X190342318Y-101799762D01*
X190238302Y-101644092D01*
X190238299Y-101644088D01*
X190105911Y-101511700D01*
X190105907Y-101511697D01*
X189950237Y-101407681D01*
X189950228Y-101407676D01*
X189777251Y-101336027D01*
X189777243Y-101336025D01*
X189593620Y-101299500D01*
X189593616Y-101299500D01*
X189406384Y-101299500D01*
X189406379Y-101299500D01*
X189222756Y-101336025D01*
X189222748Y-101336027D01*
X189049771Y-101407676D01*
X189049762Y-101407681D01*
X188894092Y-101511697D01*
X188894088Y-101511700D01*
X188761700Y-101644088D01*
X188761697Y-101644092D01*
X188657681Y-101799762D01*
X188657676Y-101799771D01*
X188586027Y-101972748D01*
X188586025Y-101972756D01*
X188549500Y-102156379D01*
X188549500Y-102343620D01*
X188586025Y-102527243D01*
X188586027Y-102527251D01*
X188657676Y-102700228D01*
X188657681Y-102700237D01*
X188761697Y-102855907D01*
X188761700Y-102855911D01*
X188894088Y-102988299D01*
X188894092Y-102988302D01*
X189049762Y-103092318D01*
X189049768Y-103092321D01*
X189049769Y-103092322D01*
X189180966Y-103146666D01*
X189227358Y-103165882D01*
X189281761Y-103209723D01*
X189303826Y-103276017D01*
X189286547Y-103343717D01*
X189236201Y-103390927D01*
X189115976Y-103452185D01*
X188937641Y-103581752D01*
X188937636Y-103581756D01*
X188781756Y-103737636D01*
X188781752Y-103737641D01*
X188652187Y-103915974D01*
X188552104Y-104112393D01*
X188552103Y-104112396D01*
X188483985Y-104322047D01*
X188449500Y-104539778D01*
X184750500Y-104539778D01*
X184716015Y-104322049D01*
X184681952Y-104217213D01*
X184647896Y-104112396D01*
X184647895Y-104112393D01*
X184604508Y-104027243D01*
X184547815Y-103915978D01*
X184495241Y-103843616D01*
X184418247Y-103737641D01*
X184418243Y-103737636D01*
X184262363Y-103581756D01*
X184262358Y-103581752D01*
X184084025Y-103452187D01*
X184084024Y-103452186D01*
X184084022Y-103452185D01*
X184021096Y-103420122D01*
X183887606Y-103352104D01*
X183887603Y-103352103D01*
X183677952Y-103283985D01*
X183569086Y-103266742D01*
X183460222Y-103249500D01*
X183239778Y-103249500D01*
X183179772Y-103259004D01*
X183022047Y-103283985D01*
X182812396Y-103352103D01*
X182812393Y-103352104D01*
X182615974Y-103452187D01*
X182437641Y-103581752D01*
X182437636Y-103581756D01*
X182281756Y-103737636D01*
X182281752Y-103737641D01*
X182152187Y-103915974D01*
X182052104Y-104112393D01*
X182052103Y-104112396D01*
X181983985Y-104322047D01*
X181949500Y-104539778D01*
X149835646Y-104539778D01*
X149769861Y-104441324D01*
X149768279Y-104438680D01*
X149760250Y-104407718D01*
X149750699Y-104377213D01*
X149751543Y-104374136D01*
X149750742Y-104371047D01*
X149760722Y-104340675D01*
X149769183Y-104309833D01*
X149771577Y-104306109D01*
X149842318Y-104200237D01*
X149842319Y-104200235D01*
X149842322Y-104200231D01*
X149913973Y-104027251D01*
X149950500Y-103843616D01*
X149950500Y-103656384D01*
X149913973Y-103472749D01*
X149842322Y-103299769D01*
X149842321Y-103299768D01*
X149842318Y-103299762D01*
X149738302Y-103144092D01*
X149738299Y-103144088D01*
X149605911Y-103011700D01*
X149605907Y-103011697D01*
X149450237Y-102907681D01*
X149450228Y-102907676D01*
X149277251Y-102836027D01*
X149277243Y-102836025D01*
X149093620Y-102799500D01*
X149093616Y-102799500D01*
X148906384Y-102799500D01*
X148906379Y-102799500D01*
X148722756Y-102836025D01*
X148722748Y-102836027D01*
X148549771Y-102907676D01*
X148549762Y-102907681D01*
X148394093Y-103011696D01*
X148343351Y-103062438D01*
X148292607Y-103113182D01*
X148231287Y-103146666D01*
X148204928Y-103149500D01*
X144545072Y-103149500D01*
X144478033Y-103129815D01*
X144457395Y-103113185D01*
X144355908Y-103011698D01*
X144355907Y-103011697D01*
X144355906Y-103011696D01*
X144200237Y-102907681D01*
X144200228Y-102907676D01*
X144027251Y-102836027D01*
X144027243Y-102836025D01*
X143843620Y-102799500D01*
X143843616Y-102799500D01*
X143656384Y-102799500D01*
X143656379Y-102799500D01*
X143472756Y-102836025D01*
X143472748Y-102836027D01*
X143299771Y-102907676D01*
X143299762Y-102907681D01*
X143144092Y-103011697D01*
X143144088Y-103011700D01*
X143011700Y-103144088D01*
X143011697Y-103144092D01*
X142907681Y-103299762D01*
X142907676Y-103299771D01*
X142836027Y-103472748D01*
X142836025Y-103472756D01*
X142799500Y-103656379D01*
X100600500Y-103656379D01*
X100600500Y-100375754D01*
X113754500Y-100375754D01*
X113754500Y-100624245D01*
X113768114Y-100727648D01*
X113786933Y-100870587D01*
X113803483Y-100932351D01*
X113851243Y-101110595D01*
X113851246Y-101110605D01*
X113946328Y-101340153D01*
X113946333Y-101340164D01*
X114070563Y-101555335D01*
X114070574Y-101555351D01*
X114221828Y-101752470D01*
X114221834Y-101752477D01*
X114397522Y-101928165D01*
X114397529Y-101928171D01*
X114528353Y-102028555D01*
X114594657Y-102079432D01*
X114594664Y-102079436D01*
X114809835Y-102203666D01*
X114809840Y-102203668D01*
X114809843Y-102203670D01*
X115039404Y-102298757D01*
X115279413Y-102363067D01*
X115525762Y-102395500D01*
X115525769Y-102395500D01*
X115774231Y-102395500D01*
X115774238Y-102395500D01*
X116020587Y-102363067D01*
X116260596Y-102298757D01*
X116490157Y-102203670D01*
X116705343Y-102079432D01*
X116902472Y-101928170D01*
X117078170Y-101752472D01*
X117229432Y-101555343D01*
X117353670Y-101340157D01*
X117448757Y-101110596D01*
X117513067Y-100870587D01*
X117545500Y-100624238D01*
X117545500Y-100375762D01*
X117545499Y-100375754D01*
X125954500Y-100375754D01*
X125954500Y-100624245D01*
X125968114Y-100727648D01*
X125986933Y-100870587D01*
X126003483Y-100932351D01*
X126051243Y-101110595D01*
X126051246Y-101110605D01*
X126146328Y-101340153D01*
X126146333Y-101340164D01*
X126270563Y-101555335D01*
X126270574Y-101555351D01*
X126421828Y-101752470D01*
X126421834Y-101752477D01*
X126597522Y-101928165D01*
X126597529Y-101928171D01*
X126728353Y-102028555D01*
X126794657Y-102079432D01*
X126794664Y-102079436D01*
X127009835Y-102203666D01*
X127009840Y-102203668D01*
X127009843Y-102203670D01*
X127239404Y-102298757D01*
X127479413Y-102363067D01*
X127725762Y-102395500D01*
X127725769Y-102395500D01*
X127974231Y-102395500D01*
X127974238Y-102395500D01*
X128220587Y-102363067D01*
X128460596Y-102298757D01*
X128690157Y-102203670D01*
X128905343Y-102079432D01*
X129102472Y-101928170D01*
X129278170Y-101752472D01*
X129429432Y-101555343D01*
X129553670Y-101340157D01*
X129648757Y-101110596D01*
X129713067Y-100870587D01*
X129745500Y-100624238D01*
X129745500Y-100375762D01*
X129713067Y-100129413D01*
X129648757Y-99889404D01*
X129553670Y-99659843D01*
X129553668Y-99659840D01*
X129553666Y-99659835D01*
X129429436Y-99444664D01*
X129429432Y-99444657D01*
X129278170Y-99247528D01*
X129278165Y-99247522D01*
X129102477Y-99071834D01*
X129102470Y-99071828D01*
X128905351Y-98920574D01*
X128905349Y-98920572D01*
X128905343Y-98920568D01*
X128905338Y-98920565D01*
X128905335Y-98920563D01*
X128690164Y-98796333D01*
X128690153Y-98796328D01*
X128460605Y-98701246D01*
X128460598Y-98701244D01*
X128460596Y-98701243D01*
X128220587Y-98636933D01*
X128165842Y-98629725D01*
X127974245Y-98604500D01*
X127974238Y-98604500D01*
X127725762Y-98604500D01*
X127725754Y-98604500D01*
X127506785Y-98633329D01*
X127479413Y-98636933D01*
X127239404Y-98701243D01*
X127239394Y-98701246D01*
X127009846Y-98796328D01*
X127009835Y-98796333D01*
X126794664Y-98920563D01*
X126794648Y-98920574D01*
X126597529Y-99071828D01*
X126597522Y-99071834D01*
X126421834Y-99247522D01*
X126421828Y-99247529D01*
X126270574Y-99444648D01*
X126270563Y-99444664D01*
X126146333Y-99659835D01*
X126146328Y-99659846D01*
X126051246Y-99889394D01*
X126051243Y-99889404D01*
X126008776Y-100047896D01*
X125986933Y-100129414D01*
X125954500Y-100375754D01*
X117545499Y-100375754D01*
X117513067Y-100129413D01*
X117448757Y-99889404D01*
X117353670Y-99659843D01*
X117353668Y-99659840D01*
X117353666Y-99659835D01*
X117229436Y-99444664D01*
X117229432Y-99444657D01*
X117078170Y-99247528D01*
X117078165Y-99247522D01*
X116902477Y-99071834D01*
X116902470Y-99071828D01*
X116705351Y-98920574D01*
X116705349Y-98920572D01*
X116705343Y-98920568D01*
X116705338Y-98920565D01*
X116705335Y-98920563D01*
X116490164Y-98796333D01*
X116490153Y-98796328D01*
X116260605Y-98701246D01*
X116260598Y-98701244D01*
X116260596Y-98701243D01*
X116020587Y-98636933D01*
X115965842Y-98629725D01*
X115774245Y-98604500D01*
X115774238Y-98604500D01*
X115525762Y-98604500D01*
X115525754Y-98604500D01*
X115306785Y-98633329D01*
X115279413Y-98636933D01*
X115039404Y-98701243D01*
X115039394Y-98701246D01*
X114809846Y-98796328D01*
X114809835Y-98796333D01*
X114594664Y-98920563D01*
X114594648Y-98920574D01*
X114397529Y-99071828D01*
X114397522Y-99071834D01*
X114221834Y-99247522D01*
X114221828Y-99247529D01*
X114070574Y-99444648D01*
X114070563Y-99444664D01*
X113946333Y-99659835D01*
X113946328Y-99659846D01*
X113851246Y-99889394D01*
X113851243Y-99889404D01*
X113808776Y-100047896D01*
X113786933Y-100129414D01*
X113754500Y-100375754D01*
X100600500Y-100375754D01*
X100600500Y-93893713D01*
X103799500Y-93893713D01*
X103799500Y-94106287D01*
X103806460Y-94150228D01*
X103832753Y-94316239D01*
X103832753Y-94316241D01*
X103832754Y-94316243D01*
X103885610Y-94478917D01*
X103898444Y-94518414D01*
X103994951Y-94707820D01*
X104119890Y-94879786D01*
X104270213Y-95030109D01*
X104442179Y-95155048D01*
X104442181Y-95155049D01*
X104442184Y-95155051D01*
X104631588Y-95251557D01*
X104833757Y-95317246D01*
X105043713Y-95350500D01*
X105043714Y-95350500D01*
X105256286Y-95350500D01*
X105256287Y-95350500D01*
X105466243Y-95317246D01*
X105668412Y-95251557D01*
X105857816Y-95155051D01*
X105918991Y-95110605D01*
X106029786Y-95030109D01*
X106029788Y-95030106D01*
X106029792Y-95030104D01*
X106180104Y-94879792D01*
X106180106Y-94879788D01*
X106180109Y-94879786D01*
X106305048Y-94707820D01*
X106305047Y-94707820D01*
X106305051Y-94707816D01*
X106401557Y-94518412D01*
X106447910Y-94375754D01*
X127954500Y-94375754D01*
X127954500Y-94624245D01*
X127968407Y-94729874D01*
X127986933Y-94870587D01*
X128029677Y-95030109D01*
X128051243Y-95110595D01*
X128051246Y-95110605D01*
X128146328Y-95340153D01*
X128146333Y-95340164D01*
X128270563Y-95555335D01*
X128270574Y-95555351D01*
X128421828Y-95752470D01*
X128421834Y-95752477D01*
X128597522Y-95928165D01*
X128597528Y-95928170D01*
X128794657Y-96079432D01*
X128794664Y-96079436D01*
X129009835Y-96203666D01*
X129009840Y-96203668D01*
X129009843Y-96203670D01*
X129239404Y-96298757D01*
X129479413Y-96363067D01*
X129725762Y-96395500D01*
X129725769Y-96395500D01*
X129974231Y-96395500D01*
X129974238Y-96395500D01*
X130220587Y-96363067D01*
X130460596Y-96298757D01*
X130690157Y-96203670D01*
X130870103Y-96099778D01*
X133749500Y-96099778D01*
X133749500Y-96320221D01*
X133783985Y-96537952D01*
X133852103Y-96747603D01*
X133852104Y-96747606D01*
X133952187Y-96944025D01*
X134081752Y-97122358D01*
X134081756Y-97122363D01*
X134237636Y-97278243D01*
X134237641Y-97278247D01*
X134377254Y-97379682D01*
X134419920Y-97435012D01*
X134425899Y-97504625D01*
X134393293Y-97566420D01*
X134377254Y-97580318D01*
X134237641Y-97681752D01*
X134237636Y-97681756D01*
X134081756Y-97837636D01*
X134081752Y-97837641D01*
X133952187Y-98015974D01*
X133852104Y-98212393D01*
X133852103Y-98212396D01*
X133783985Y-98422047D01*
X133749500Y-98639778D01*
X133749500Y-98860221D01*
X133783985Y-99077952D01*
X133852103Y-99287603D01*
X133852104Y-99287606D01*
X133952187Y-99484025D01*
X134081752Y-99662358D01*
X134081756Y-99662363D01*
X134237636Y-99818243D01*
X134237641Y-99818247D01*
X134393192Y-99931260D01*
X134415978Y-99947815D01*
X134544375Y-100013237D01*
X134612393Y-100047895D01*
X134612396Y-100047896D01*
X134717221Y-100081955D01*
X134822049Y-100116015D01*
X135039778Y-100150500D01*
X135039779Y-100150500D01*
X135260221Y-100150500D01*
X135260222Y-100150500D01*
X135477951Y-100116015D01*
X135687606Y-100047895D01*
X135884022Y-99947815D01*
X136062365Y-99818242D01*
X136218242Y-99662365D01*
X136347815Y-99484022D01*
X136447895Y-99287606D01*
X136516015Y-99077951D01*
X136550500Y-98860222D01*
X136550500Y-98639778D01*
X136516015Y-98422049D01*
X136447895Y-98212394D01*
X136447895Y-98212393D01*
X136413237Y-98144375D01*
X136347815Y-98015978D01*
X136325646Y-97985465D01*
X136218247Y-97837641D01*
X136218243Y-97837636D01*
X136062363Y-97681756D01*
X136062358Y-97681752D01*
X135922745Y-97580318D01*
X135880079Y-97524989D01*
X135874100Y-97455375D01*
X135906705Y-97393580D01*
X135922745Y-97379682D01*
X136062358Y-97278247D01*
X136062356Y-97278247D01*
X136062365Y-97278242D01*
X136218242Y-97122365D01*
X136347815Y-96944022D01*
X136447895Y-96747606D01*
X136516015Y-96537951D01*
X136550500Y-96320222D01*
X136550500Y-96099778D01*
X136516015Y-95882049D01*
X136473185Y-95750231D01*
X136447896Y-95672396D01*
X136447895Y-95672393D01*
X136399417Y-95577251D01*
X136347815Y-95475978D01*
X136287976Y-95393616D01*
X136218247Y-95297641D01*
X136218243Y-95297636D01*
X136062363Y-95141756D01*
X136062358Y-95141752D01*
X135884025Y-95012187D01*
X135884024Y-95012186D01*
X135884022Y-95012185D01*
X135821096Y-94980122D01*
X135687606Y-94912104D01*
X135687603Y-94912103D01*
X135477952Y-94843985D01*
X135369086Y-94826742D01*
X135260222Y-94809500D01*
X135039778Y-94809500D01*
X134967201Y-94820995D01*
X134822047Y-94843985D01*
X134612396Y-94912103D01*
X134612393Y-94912104D01*
X134415974Y-95012187D01*
X134237641Y-95141752D01*
X134237636Y-95141756D01*
X134081756Y-95297636D01*
X134081752Y-95297641D01*
X133952187Y-95475974D01*
X133852104Y-95672393D01*
X133852103Y-95672396D01*
X133783985Y-95882047D01*
X133749500Y-96099778D01*
X130870103Y-96099778D01*
X130905343Y-96079432D01*
X130971057Y-96029007D01*
X131013384Y-95996530D01*
X131058754Y-95961715D01*
X131102472Y-95928170D01*
X131278170Y-95752472D01*
X131429432Y-95555343D01*
X131553670Y-95340157D01*
X131648757Y-95110596D01*
X131713067Y-94870587D01*
X131745500Y-94624238D01*
X131745500Y-94375762D01*
X131713067Y-94129413D01*
X131648757Y-93889404D01*
X131553670Y-93659843D01*
X131553668Y-93659840D01*
X131553666Y-93659835D01*
X131429436Y-93444664D01*
X131429432Y-93444657D01*
X131381168Y-93381758D01*
X131278171Y-93247529D01*
X131278165Y-93247522D01*
X131102477Y-93071834D01*
X131102470Y-93071828D01*
X130905351Y-92920574D01*
X130905349Y-92920572D01*
X130905343Y-92920568D01*
X130905338Y-92920565D01*
X130905335Y-92920563D01*
X130690164Y-92796333D01*
X130690153Y-92796328D01*
X130460605Y-92701246D01*
X130460598Y-92701244D01*
X130460596Y-92701243D01*
X130220587Y-92636933D01*
X130165842Y-92629725D01*
X129974245Y-92604500D01*
X129974238Y-92604500D01*
X129725762Y-92604500D01*
X129725754Y-92604500D01*
X129506785Y-92633329D01*
X129479413Y-92636933D01*
X129306831Y-92683176D01*
X129239404Y-92701243D01*
X129239394Y-92701246D01*
X129009846Y-92796328D01*
X129009835Y-92796333D01*
X128794664Y-92920563D01*
X128794648Y-92920574D01*
X128597529Y-93071828D01*
X128597522Y-93071834D01*
X128421834Y-93247522D01*
X128421828Y-93247529D01*
X128270574Y-93444648D01*
X128270563Y-93444664D01*
X128146333Y-93659835D01*
X128146328Y-93659846D01*
X128051246Y-93889394D01*
X128051243Y-93889404D01*
X127986933Y-94129414D01*
X127954500Y-94375754D01*
X106447910Y-94375754D01*
X106467246Y-94316243D01*
X106500500Y-94106287D01*
X106500500Y-93893713D01*
X106467246Y-93683757D01*
X106401557Y-93481588D01*
X106305051Y-93292184D01*
X106305049Y-93292181D01*
X106305048Y-93292179D01*
X106180109Y-93120213D01*
X106029786Y-92969890D01*
X105857820Y-92844951D01*
X105668414Y-92748444D01*
X105668413Y-92748443D01*
X105668412Y-92748443D01*
X105466243Y-92682754D01*
X105466241Y-92682753D01*
X105466240Y-92682753D01*
X105304957Y-92657208D01*
X105256287Y-92649500D01*
X105043713Y-92649500D01*
X104995042Y-92657208D01*
X104833760Y-92682753D01*
X104631585Y-92748444D01*
X104442179Y-92844951D01*
X104270213Y-92969890D01*
X104119890Y-93120213D01*
X103994951Y-93292179D01*
X103898444Y-93481585D01*
X103832753Y-93683760D01*
X103815354Y-93793616D01*
X103799500Y-93893713D01*
X100600500Y-93893713D01*
X100600500Y-90906379D01*
X162549500Y-90906379D01*
X162549500Y-91093620D01*
X162586025Y-91277243D01*
X162586027Y-91277251D01*
X162657676Y-91450228D01*
X162657681Y-91450237D01*
X162761697Y-91605907D01*
X162761700Y-91605911D01*
X162894088Y-91738299D01*
X162894092Y-91738302D01*
X163049762Y-91842318D01*
X163049768Y-91842321D01*
X163049769Y-91842322D01*
X163222749Y-91913973D01*
X163406379Y-91950499D01*
X163406383Y-91950500D01*
X163406384Y-91950500D01*
X163593617Y-91950500D01*
X163593618Y-91950499D01*
X163654827Y-91938324D01*
X163777243Y-91913975D01*
X163777244Y-91913974D01*
X163777251Y-91913973D01*
X163786993Y-91909937D01*
X163834442Y-91900500D01*
X169533560Y-91900500D01*
X169600599Y-91920185D01*
X169646354Y-91972989D01*
X169656298Y-92042147D01*
X169636662Y-92093391D01*
X169602474Y-92144555D01*
X169602469Y-92144564D01*
X169530820Y-92317541D01*
X169530818Y-92317549D01*
X169494291Y-92501180D01*
X169494140Y-92502721D01*
X169493835Y-92503475D01*
X169493104Y-92507152D01*
X169492406Y-92507013D01*
X169467977Y-92567508D01*
X169410942Y-92607865D01*
X169404067Y-92609718D01*
X169404078Y-92609752D01*
X169398245Y-92611521D01*
X169225266Y-92683171D01*
X169225257Y-92683176D01*
X169069587Y-92787192D01*
X169069583Y-92787195D01*
X168937195Y-92919583D01*
X168937192Y-92919587D01*
X168833176Y-93075257D01*
X168833171Y-93075266D01*
X168761522Y-93248243D01*
X168761520Y-93248251D01*
X168724995Y-93431874D01*
X168724995Y-93619115D01*
X168761520Y-93802738D01*
X168761522Y-93802746D01*
X168833171Y-93975723D01*
X168833176Y-93975732D01*
X168937192Y-94131402D01*
X168937195Y-94131406D01*
X169069583Y-94263794D01*
X169069587Y-94263797D01*
X169225257Y-94367813D01*
X169225266Y-94367818D01*
X169244445Y-94375762D01*
X169398244Y-94439468D01*
X169581874Y-94475994D01*
X169581878Y-94475995D01*
X169775203Y-94475995D01*
X169775203Y-94478917D01*
X169831522Y-94489414D01*
X169863061Y-94512296D01*
X170513181Y-95162416D01*
X170546666Y-95223739D01*
X170549500Y-95250097D01*
X170549500Y-95393620D01*
X170586025Y-95577243D01*
X170586027Y-95577251D01*
X170657676Y-95750228D01*
X170657681Y-95750237D01*
X170761697Y-95905907D01*
X170761700Y-95905911D01*
X170894088Y-96038299D01*
X170894092Y-96038302D01*
X171049762Y-96142318D01*
X171049768Y-96142321D01*
X171049769Y-96142322D01*
X171222749Y-96213973D01*
X171406379Y-96250499D01*
X171406383Y-96250500D01*
X171406384Y-96250500D01*
X171593617Y-96250500D01*
X171593618Y-96250499D01*
X171777251Y-96213973D01*
X171950231Y-96142322D01*
X172105908Y-96038302D01*
X172238302Y-95905908D01*
X172342322Y-95750231D01*
X172413973Y-95577251D01*
X172413973Y-95577249D01*
X172416103Y-95572108D01*
X172459944Y-95517704D01*
X172506473Y-95497943D01*
X172575095Y-95484292D01*
X172677251Y-95463973D01*
X172850231Y-95392322D01*
X173005908Y-95288302D01*
X173138302Y-95155908D01*
X173242322Y-95000231D01*
X173313973Y-94827251D01*
X173333342Y-94729870D01*
X173365726Y-94667963D01*
X173426441Y-94633388D01*
X173430768Y-94632447D01*
X173472072Y-94624231D01*
X173523644Y-94613973D01*
X173696624Y-94542322D01*
X173852301Y-94438302D01*
X173950825Y-94339778D01*
X177849500Y-94339778D01*
X177849500Y-94560221D01*
X177883985Y-94777952D01*
X177952103Y-94987603D01*
X177952104Y-94987606D01*
X178014772Y-95110595D01*
X178037423Y-95155051D01*
X178052187Y-95184025D01*
X178181752Y-95362358D01*
X178181756Y-95362363D01*
X178337636Y-95518243D01*
X178337641Y-95518247D01*
X178418843Y-95577243D01*
X178515978Y-95647815D01*
X178644375Y-95713237D01*
X178712393Y-95747895D01*
X178712396Y-95747896D01*
X178817221Y-95781955D01*
X178922049Y-95816015D01*
X179139778Y-95850500D01*
X179139779Y-95850500D01*
X179360221Y-95850500D01*
X179360222Y-95850500D01*
X179577951Y-95816015D01*
X179787606Y-95747895D01*
X179984022Y-95647815D01*
X180162365Y-95518242D01*
X180318242Y-95362365D01*
X180447815Y-95184022D01*
X180547895Y-94987606D01*
X180616015Y-94777951D01*
X180650500Y-94560222D01*
X180650500Y-94339778D01*
X184349500Y-94339778D01*
X184349500Y-94560221D01*
X184383985Y-94777952D01*
X184452103Y-94987603D01*
X184452104Y-94987606D01*
X184514772Y-95110595D01*
X184537423Y-95155051D01*
X184552187Y-95184025D01*
X184681752Y-95362358D01*
X184681756Y-95362363D01*
X184837636Y-95518243D01*
X184837641Y-95518247D01*
X184918843Y-95577243D01*
X185015978Y-95647815D01*
X185144375Y-95713237D01*
X185212393Y-95747895D01*
X185212396Y-95747896D01*
X185317221Y-95781955D01*
X185422049Y-95816015D01*
X185639778Y-95850500D01*
X185639779Y-95850500D01*
X185860221Y-95850500D01*
X185860222Y-95850500D01*
X186077951Y-95816015D01*
X186287606Y-95747895D01*
X186484022Y-95647815D01*
X186662365Y-95518242D01*
X186818242Y-95362365D01*
X186947815Y-95184022D01*
X187047895Y-94987606D01*
X187116015Y-94777951D01*
X187150500Y-94560222D01*
X187150500Y-94339778D01*
X187116015Y-94122049D01*
X187068968Y-93977251D01*
X187047896Y-93912396D01*
X187047895Y-93912393D01*
X186987374Y-93793616D01*
X186947815Y-93715978D01*
X186907025Y-93659835D01*
X186818247Y-93537641D01*
X186818243Y-93537636D01*
X186662363Y-93381756D01*
X186662358Y-93381752D01*
X186484025Y-93252187D01*
X186484024Y-93252186D01*
X186484022Y-93252185D01*
X186421096Y-93220122D01*
X186287606Y-93152104D01*
X186287603Y-93152103D01*
X186077952Y-93083985D01*
X185969086Y-93066742D01*
X185860222Y-93049500D01*
X185639778Y-93049500D01*
X185567201Y-93060995D01*
X185422047Y-93083985D01*
X185212396Y-93152103D01*
X185212393Y-93152104D01*
X185015974Y-93252187D01*
X184837641Y-93381752D01*
X184837636Y-93381756D01*
X184681756Y-93537636D01*
X184681752Y-93537641D01*
X184552187Y-93715974D01*
X184452104Y-93912393D01*
X184452103Y-93912396D01*
X184383985Y-94122047D01*
X184349500Y-94339778D01*
X180650500Y-94339778D01*
X180616015Y-94122049D01*
X180568968Y-93977251D01*
X180547896Y-93912396D01*
X180547895Y-93912393D01*
X180487374Y-93793616D01*
X180447815Y-93715978D01*
X180407025Y-93659835D01*
X180318247Y-93537641D01*
X180318243Y-93537636D01*
X180162363Y-93381756D01*
X180162358Y-93381752D01*
X179984025Y-93252187D01*
X179984024Y-93252186D01*
X179984022Y-93252185D01*
X179921096Y-93220122D01*
X179787606Y-93152104D01*
X179787603Y-93152103D01*
X179577952Y-93083985D01*
X179469086Y-93066742D01*
X179360222Y-93049500D01*
X179139778Y-93049500D01*
X179067201Y-93060995D01*
X178922047Y-93083985D01*
X178712396Y-93152103D01*
X178712393Y-93152104D01*
X178515974Y-93252187D01*
X178337641Y-93381752D01*
X178337636Y-93381756D01*
X178181756Y-93537636D01*
X178181752Y-93537641D01*
X178052187Y-93715974D01*
X177952104Y-93912393D01*
X177952103Y-93912396D01*
X177883985Y-94122047D01*
X177849500Y-94339778D01*
X173950825Y-94339778D01*
X173984695Y-94305908D01*
X174088715Y-94150231D01*
X174160366Y-93977251D01*
X174196893Y-93793616D01*
X174196893Y-93606384D01*
X174160366Y-93422749D01*
X174088715Y-93249769D01*
X174088714Y-93249768D01*
X174088711Y-93249762D01*
X173984695Y-93094092D01*
X173984692Y-93094088D01*
X173852304Y-92961700D01*
X173852296Y-92961694D01*
X173696626Y-92857679D01*
X173696627Y-92857679D01*
X173691676Y-92855628D01*
X173686879Y-92853641D01*
X173646655Y-92826763D01*
X171120428Y-90300535D01*
X171120423Y-90300531D01*
X171066015Y-90264178D01*
X171066009Y-90264175D01*
X171061352Y-90261063D01*
X170972940Y-90201987D01*
X170890999Y-90168046D01*
X170809059Y-90134105D01*
X170809051Y-90134103D01*
X170635089Y-90099500D01*
X170635085Y-90099500D01*
X170635084Y-90099500D01*
X163834442Y-90099500D01*
X163786993Y-90090062D01*
X163777251Y-90086027D01*
X163777247Y-90086026D01*
X163777243Y-90086024D01*
X163593620Y-90049500D01*
X163593616Y-90049500D01*
X163406384Y-90049500D01*
X163406379Y-90049500D01*
X163222756Y-90086025D01*
X163222748Y-90086027D01*
X163049771Y-90157676D01*
X163049762Y-90157681D01*
X162894092Y-90261697D01*
X162894088Y-90261700D01*
X162761700Y-90394088D01*
X162761697Y-90394092D01*
X162657681Y-90549762D01*
X162657676Y-90549771D01*
X162586027Y-90722748D01*
X162586025Y-90722756D01*
X162549500Y-90906379D01*
X100600500Y-90906379D01*
X100600500Y-88375754D01*
X113754500Y-88375754D01*
X113754500Y-88624245D01*
X113779725Y-88815842D01*
X113786933Y-88870587D01*
X113834943Y-89049762D01*
X113851243Y-89110595D01*
X113851246Y-89110605D01*
X113946328Y-89340153D01*
X113946333Y-89340164D01*
X114070563Y-89555335D01*
X114070574Y-89555351D01*
X114221828Y-89752470D01*
X114221834Y-89752477D01*
X114397522Y-89928165D01*
X114397529Y-89928171D01*
X114426289Y-89950239D01*
X114594657Y-90079432D01*
X114594664Y-90079436D01*
X114809835Y-90203666D01*
X114809840Y-90203668D01*
X114809843Y-90203670D01*
X115039404Y-90298757D01*
X115279413Y-90363067D01*
X115525762Y-90395500D01*
X115525769Y-90395500D01*
X115774231Y-90395500D01*
X115774238Y-90395500D01*
X116020587Y-90363067D01*
X116260596Y-90298757D01*
X116490157Y-90203670D01*
X116705343Y-90079432D01*
X116902472Y-89928170D01*
X117078170Y-89752472D01*
X117229432Y-89555343D01*
X117353670Y-89340157D01*
X117448757Y-89110596D01*
X117513067Y-88870587D01*
X117545500Y-88624238D01*
X117545500Y-88375762D01*
X117545499Y-88375754D01*
X125954500Y-88375754D01*
X125954500Y-88624245D01*
X125979725Y-88815842D01*
X125986933Y-88870587D01*
X126034943Y-89049762D01*
X126051243Y-89110595D01*
X126051246Y-89110605D01*
X126146328Y-89340153D01*
X126146333Y-89340164D01*
X126270563Y-89555335D01*
X126270574Y-89555351D01*
X126421828Y-89752470D01*
X126421834Y-89752477D01*
X126597522Y-89928165D01*
X126597529Y-89928171D01*
X126626289Y-89950239D01*
X126794657Y-90079432D01*
X126794664Y-90079436D01*
X127009835Y-90203666D01*
X127009840Y-90203668D01*
X127009843Y-90203670D01*
X127239404Y-90298757D01*
X127479413Y-90363067D01*
X127725762Y-90395500D01*
X127725769Y-90395500D01*
X127974231Y-90395500D01*
X127974238Y-90395500D01*
X128220587Y-90363067D01*
X128460596Y-90298757D01*
X128690157Y-90203670D01*
X128905343Y-90079432D01*
X129102472Y-89928170D01*
X129278170Y-89752472D01*
X129429432Y-89555343D01*
X129515437Y-89406379D01*
X175129500Y-89406379D01*
X175129500Y-89593620D01*
X175166025Y-89777243D01*
X175166027Y-89777251D01*
X175237676Y-89950228D01*
X175237682Y-89950239D01*
X175258601Y-89981545D01*
X175279480Y-90048222D01*
X175279500Y-90050437D01*
X175279500Y-91343351D01*
X175277117Y-91367542D01*
X175249500Y-91506380D01*
X175249500Y-91693620D01*
X175286025Y-91877243D01*
X175286027Y-91877251D01*
X175357676Y-92050228D01*
X175357681Y-92050237D01*
X175461697Y-92205907D01*
X175461700Y-92205911D01*
X175594088Y-92338299D01*
X175594092Y-92338302D01*
X175749762Y-92442318D01*
X175749768Y-92442321D01*
X175749769Y-92442322D01*
X175922749Y-92513973D01*
X176106379Y-92550499D01*
X176106383Y-92550500D01*
X176106384Y-92550500D01*
X176293617Y-92550500D01*
X176293618Y-92550499D01*
X176477251Y-92513973D01*
X176650231Y-92442322D01*
X176805908Y-92338302D01*
X176938302Y-92205908D01*
X177042322Y-92050231D01*
X177113973Y-91877251D01*
X177150500Y-91693616D01*
X177150500Y-91506384D01*
X177113973Y-91322749D01*
X177042322Y-91149769D01*
X177042321Y-91149768D01*
X177042318Y-91149762D01*
X176938302Y-90994092D01*
X176938299Y-90994088D01*
X176916819Y-90972608D01*
X176883334Y-90911285D01*
X176880500Y-90884927D01*
X176880500Y-90050437D01*
X176900185Y-89983398D01*
X176901399Y-89981545D01*
X176922317Y-89950239D01*
X176922318Y-89950236D01*
X176922322Y-89950231D01*
X176993973Y-89777251D01*
X177030500Y-89593616D01*
X177030500Y-89406384D01*
X176993973Y-89222749D01*
X176922322Y-89049769D01*
X176922321Y-89049768D01*
X176922318Y-89049762D01*
X176818302Y-88894092D01*
X176818299Y-88894088D01*
X176685911Y-88761700D01*
X176685907Y-88761697D01*
X176530237Y-88657681D01*
X176530228Y-88657676D01*
X176357251Y-88586027D01*
X176357243Y-88586025D01*
X176173620Y-88549500D01*
X176173616Y-88549500D01*
X175986384Y-88549500D01*
X175986379Y-88549500D01*
X175802756Y-88586025D01*
X175802748Y-88586027D01*
X175629771Y-88657676D01*
X175629762Y-88657681D01*
X175474092Y-88761697D01*
X175474088Y-88761700D01*
X175341700Y-88894088D01*
X175341697Y-88894092D01*
X175237681Y-89049762D01*
X175237676Y-89049771D01*
X175166027Y-89222748D01*
X175166025Y-89222756D01*
X175129500Y-89406379D01*
X129515437Y-89406379D01*
X129553670Y-89340157D01*
X129648757Y-89110596D01*
X129713067Y-88870587D01*
X129745500Y-88624238D01*
X129745500Y-88375762D01*
X129713067Y-88129413D01*
X129648757Y-87889404D01*
X129553670Y-87659843D01*
X129553668Y-87659840D01*
X129553666Y-87659835D01*
X129429436Y-87444664D01*
X129429432Y-87444657D01*
X129278170Y-87247528D01*
X129278165Y-87247522D01*
X129102477Y-87071834D01*
X129102470Y-87071828D01*
X128905351Y-86920574D01*
X128905349Y-86920572D01*
X128905343Y-86920568D01*
X128905338Y-86920565D01*
X128905335Y-86920563D01*
X128690164Y-86796333D01*
X128690153Y-86796328D01*
X128460605Y-86701246D01*
X128460598Y-86701244D01*
X128460596Y-86701243D01*
X128220587Y-86636933D01*
X128103470Y-86621514D01*
X127974245Y-86604500D01*
X127974238Y-86604500D01*
X127725762Y-86604500D01*
X127725754Y-86604500D01*
X127506785Y-86633329D01*
X127479413Y-86636933D01*
X127267865Y-86693617D01*
X127239404Y-86701243D01*
X127239394Y-86701246D01*
X127009846Y-86796328D01*
X127009835Y-86796333D01*
X126794664Y-86920563D01*
X126794648Y-86920574D01*
X126597529Y-87071828D01*
X126597522Y-87071834D01*
X126421834Y-87247522D01*
X126421828Y-87247529D01*
X126270574Y-87444648D01*
X126270563Y-87444664D01*
X126146333Y-87659835D01*
X126146328Y-87659846D01*
X126051246Y-87889394D01*
X126051243Y-87889404D01*
X125986933Y-88129414D01*
X125954500Y-88375754D01*
X117545499Y-88375754D01*
X117513067Y-88129413D01*
X117448757Y-87889404D01*
X117353670Y-87659843D01*
X117353668Y-87659840D01*
X117353666Y-87659835D01*
X117229436Y-87444664D01*
X117229432Y-87444657D01*
X117078170Y-87247528D01*
X117078165Y-87247522D01*
X116902477Y-87071834D01*
X116902470Y-87071828D01*
X116705351Y-86920574D01*
X116705349Y-86920572D01*
X116705343Y-86920568D01*
X116705338Y-86920565D01*
X116705335Y-86920563D01*
X116490164Y-86796333D01*
X116490153Y-86796328D01*
X116260605Y-86701246D01*
X116260598Y-86701244D01*
X116260596Y-86701243D01*
X116020587Y-86636933D01*
X115965842Y-86629725D01*
X115774245Y-86604500D01*
X115774238Y-86604500D01*
X115525762Y-86604500D01*
X115525754Y-86604500D01*
X115306785Y-86633329D01*
X115279413Y-86636933D01*
X115067865Y-86693617D01*
X115039404Y-86701243D01*
X115039394Y-86701246D01*
X114809846Y-86796328D01*
X114809835Y-86796333D01*
X114594664Y-86920563D01*
X114594648Y-86920574D01*
X114397529Y-87071828D01*
X114397522Y-87071834D01*
X114221834Y-87247522D01*
X114221828Y-87247529D01*
X114070574Y-87444648D01*
X114070563Y-87444664D01*
X113946333Y-87659835D01*
X113946328Y-87659846D01*
X113851246Y-87889394D01*
X113851243Y-87889404D01*
X113786933Y-88129414D01*
X113754500Y-88375754D01*
X100600500Y-88375754D01*
X100600500Y-86506379D01*
X186249500Y-86506379D01*
X186249500Y-86693620D01*
X186286025Y-86877243D01*
X186286027Y-86877251D01*
X186357676Y-87050228D01*
X186357681Y-87050237D01*
X186461697Y-87205907D01*
X186461700Y-87205911D01*
X186594088Y-87338299D01*
X186594092Y-87338302D01*
X186749762Y-87442318D01*
X186749768Y-87442321D01*
X186749769Y-87442322D01*
X186922749Y-87513973D01*
X187106379Y-87550499D01*
X187106383Y-87550500D01*
X187106384Y-87550500D01*
X187293617Y-87550500D01*
X187293618Y-87550499D01*
X187477251Y-87513973D01*
X187650231Y-87442322D01*
X187805908Y-87338302D01*
X187907392Y-87236817D01*
X187968713Y-87203334D01*
X187995072Y-87200500D01*
X190204928Y-87200500D01*
X190271967Y-87220185D01*
X190292604Y-87236814D01*
X190394089Y-87338299D01*
X190394093Y-87338303D01*
X190549762Y-87442318D01*
X190549768Y-87442321D01*
X190549769Y-87442322D01*
X190722749Y-87513973D01*
X190906379Y-87550499D01*
X190906383Y-87550500D01*
X190906384Y-87550500D01*
X191093617Y-87550500D01*
X191093618Y-87550499D01*
X191277251Y-87513973D01*
X191450231Y-87442322D01*
X191605908Y-87338302D01*
X191738302Y-87205908D01*
X191842322Y-87050231D01*
X191913973Y-86877251D01*
X191950500Y-86693616D01*
X191950500Y-86506384D01*
X191913973Y-86322749D01*
X191842322Y-86149769D01*
X191842321Y-86149768D01*
X191842318Y-86149762D01*
X191738302Y-85994092D01*
X191738299Y-85994088D01*
X191605911Y-85861700D01*
X191605907Y-85861697D01*
X191450237Y-85757681D01*
X191450228Y-85757676D01*
X191277251Y-85686027D01*
X191277243Y-85686025D01*
X191093620Y-85649500D01*
X191093616Y-85649500D01*
X190906384Y-85649500D01*
X190906379Y-85649500D01*
X190722756Y-85686025D01*
X190722748Y-85686027D01*
X190549771Y-85757676D01*
X190549762Y-85757681D01*
X190394093Y-85861696D01*
X190343351Y-85912438D01*
X190292607Y-85963182D01*
X190231287Y-85996666D01*
X190204928Y-85999500D01*
X187995072Y-85999500D01*
X187928033Y-85979815D01*
X187907395Y-85963185D01*
X187805908Y-85861698D01*
X187805907Y-85861697D01*
X187805906Y-85861696D01*
X187650237Y-85757681D01*
X187650228Y-85757676D01*
X187477251Y-85686027D01*
X187477243Y-85686025D01*
X187293620Y-85649500D01*
X187293616Y-85649500D01*
X187106384Y-85649500D01*
X187106379Y-85649500D01*
X186922756Y-85686025D01*
X186922748Y-85686027D01*
X186749771Y-85757676D01*
X186749762Y-85757681D01*
X186594092Y-85861697D01*
X186594088Y-85861700D01*
X186461700Y-85994088D01*
X186461697Y-85994092D01*
X186357681Y-86149762D01*
X186357676Y-86149771D01*
X186286027Y-86322748D01*
X186286025Y-86322756D01*
X186249500Y-86506379D01*
X100600500Y-86506379D01*
X100600500Y-78675754D01*
X113704500Y-78675754D01*
X113704500Y-78924245D01*
X113729725Y-79115842D01*
X113736933Y-79170587D01*
X113801243Y-79410595D01*
X113801246Y-79410605D01*
X113896328Y-79640153D01*
X113896333Y-79640164D01*
X114020563Y-79855335D01*
X114020574Y-79855351D01*
X114171828Y-80052470D01*
X114171834Y-80052477D01*
X114347522Y-80228165D01*
X114347528Y-80228170D01*
X114544657Y-80379432D01*
X114544664Y-80379436D01*
X114759835Y-80503666D01*
X114759840Y-80503668D01*
X114759843Y-80503670D01*
X114989404Y-80598757D01*
X115229413Y-80663067D01*
X115475762Y-80695500D01*
X115475769Y-80695500D01*
X115724231Y-80695500D01*
X115724238Y-80695500D01*
X115970587Y-80663067D01*
X116210596Y-80598757D01*
X116440157Y-80503670D01*
X116655343Y-80379432D01*
X116852472Y-80228170D01*
X117028170Y-80052472D01*
X117179432Y-79855343D01*
X117303670Y-79640157D01*
X117398757Y-79410596D01*
X117463067Y-79170587D01*
X117495500Y-78924238D01*
X117495500Y-78675762D01*
X117495499Y-78675754D01*
X125904500Y-78675754D01*
X125904500Y-78924245D01*
X125929725Y-79115842D01*
X125936933Y-79170587D01*
X126001243Y-79410595D01*
X126001246Y-79410605D01*
X126096328Y-79640153D01*
X126096333Y-79640164D01*
X126220563Y-79855335D01*
X126220574Y-79855351D01*
X126371828Y-80052470D01*
X126371834Y-80052477D01*
X126547522Y-80228165D01*
X126547528Y-80228170D01*
X126744657Y-80379432D01*
X126744664Y-80379436D01*
X126959835Y-80503666D01*
X126959840Y-80503668D01*
X126959843Y-80503670D01*
X127189404Y-80598757D01*
X127429413Y-80663067D01*
X127675762Y-80695500D01*
X127675769Y-80695500D01*
X127924231Y-80695500D01*
X127924238Y-80695500D01*
X128170587Y-80663067D01*
X128410596Y-80598757D01*
X128640157Y-80503670D01*
X128855343Y-80379432D01*
X129052472Y-80228170D01*
X129228170Y-80052472D01*
X129379432Y-79855343D01*
X129503670Y-79640157D01*
X129598757Y-79410596D01*
X129663067Y-79170587D01*
X129695500Y-78924238D01*
X129695500Y-78675762D01*
X129663067Y-78429413D01*
X129598757Y-78189404D01*
X129503670Y-77959843D01*
X129503668Y-77959840D01*
X129503666Y-77959835D01*
X129379436Y-77744664D01*
X129379432Y-77744657D01*
X129251515Y-77577952D01*
X129228171Y-77547529D01*
X129228165Y-77547522D01*
X129052477Y-77371834D01*
X129052470Y-77371828D01*
X128855351Y-77220574D01*
X128855349Y-77220572D01*
X128855343Y-77220568D01*
X128855338Y-77220565D01*
X128855335Y-77220563D01*
X128640164Y-77096333D01*
X128640153Y-77096328D01*
X128410605Y-77001246D01*
X128410598Y-77001244D01*
X128410596Y-77001243D01*
X128170587Y-76936933D01*
X128115842Y-76929725D01*
X127924245Y-76904500D01*
X127924238Y-76904500D01*
X127675762Y-76904500D01*
X127675754Y-76904500D01*
X127456785Y-76933329D01*
X127429413Y-76936933D01*
X127379762Y-76950237D01*
X127189404Y-77001243D01*
X127189394Y-77001246D01*
X126959846Y-77096328D01*
X126959835Y-77096333D01*
X126744664Y-77220563D01*
X126744648Y-77220574D01*
X126547529Y-77371828D01*
X126547522Y-77371834D01*
X126371834Y-77547522D01*
X126371828Y-77547529D01*
X126220574Y-77744648D01*
X126220563Y-77744664D01*
X126096333Y-77959835D01*
X126096328Y-77959846D01*
X126001246Y-78189394D01*
X126001243Y-78189404D01*
X125936933Y-78429414D01*
X125904500Y-78675754D01*
X117495499Y-78675754D01*
X117463067Y-78429413D01*
X117398757Y-78189404D01*
X117303670Y-77959843D01*
X117303668Y-77959840D01*
X117303666Y-77959835D01*
X117179436Y-77744664D01*
X117179432Y-77744657D01*
X117051515Y-77577952D01*
X117028171Y-77547529D01*
X117028165Y-77547522D01*
X116852477Y-77371834D01*
X116852470Y-77371828D01*
X116655351Y-77220574D01*
X116655349Y-77220572D01*
X116655343Y-77220568D01*
X116655338Y-77220565D01*
X116655335Y-77220563D01*
X116440164Y-77096333D01*
X116440153Y-77096328D01*
X116210605Y-77001246D01*
X116210598Y-77001244D01*
X116210596Y-77001243D01*
X115970587Y-76936933D01*
X115915842Y-76929725D01*
X115724245Y-76904500D01*
X115724238Y-76904500D01*
X115475762Y-76904500D01*
X115475754Y-76904500D01*
X115256785Y-76933329D01*
X115229413Y-76936933D01*
X115179762Y-76950237D01*
X114989404Y-77001243D01*
X114989394Y-77001246D01*
X114759846Y-77096328D01*
X114759835Y-77096333D01*
X114544664Y-77220563D01*
X114544648Y-77220574D01*
X114347529Y-77371828D01*
X114347522Y-77371834D01*
X114171834Y-77547522D01*
X114171828Y-77547529D01*
X114020574Y-77744648D01*
X114020563Y-77744664D01*
X113896333Y-77959835D01*
X113896328Y-77959846D01*
X113801246Y-78189394D01*
X113801243Y-78189404D01*
X113736933Y-78429414D01*
X113704500Y-78675754D01*
X100600500Y-78675754D01*
X100600500Y-72323713D01*
X103849500Y-72323713D01*
X103849500Y-72536287D01*
X103858580Y-72593616D01*
X103871589Y-72675754D01*
X103882754Y-72746243D01*
X103940588Y-72924238D01*
X103948444Y-72948414D01*
X104044951Y-73137820D01*
X104169890Y-73309786D01*
X104320213Y-73460109D01*
X104492179Y-73585048D01*
X104492181Y-73585049D01*
X104492184Y-73585051D01*
X104681588Y-73681557D01*
X104883757Y-73747246D01*
X105093713Y-73780500D01*
X105093714Y-73780500D01*
X105306286Y-73780500D01*
X105306287Y-73780500D01*
X105516243Y-73747246D01*
X105718412Y-73681557D01*
X105907816Y-73585051D01*
X105929789Y-73569086D01*
X106079786Y-73460109D01*
X106079788Y-73460106D01*
X106079792Y-73460104D01*
X106230104Y-73309792D01*
X106230106Y-73309788D01*
X106230109Y-73309786D01*
X106355048Y-73137820D01*
X106355047Y-73137820D01*
X106355051Y-73137816D01*
X106451557Y-72948412D01*
X106517246Y-72746243D01*
X106528410Y-72675754D01*
X127904500Y-72675754D01*
X127904500Y-72924245D01*
X127928418Y-73105907D01*
X127936933Y-73170587D01*
X127983395Y-73343985D01*
X128001243Y-73410595D01*
X128001246Y-73410605D01*
X128096328Y-73640153D01*
X128096333Y-73640164D01*
X128220563Y-73855335D01*
X128220574Y-73855351D01*
X128371828Y-74052470D01*
X128371834Y-74052477D01*
X128547522Y-74228165D01*
X128547528Y-74228170D01*
X128744657Y-74379432D01*
X128744664Y-74379436D01*
X128959835Y-74503666D01*
X128959840Y-74503668D01*
X128959843Y-74503670D01*
X129189404Y-74598757D01*
X129429413Y-74663067D01*
X129675762Y-74695500D01*
X129675769Y-74695500D01*
X129924231Y-74695500D01*
X129924238Y-74695500D01*
X130170587Y-74663067D01*
X130406786Y-74599778D01*
X133849500Y-74599778D01*
X133849500Y-74820221D01*
X133883985Y-75037952D01*
X133952103Y-75247603D01*
X133952104Y-75247606D01*
X134052187Y-75444025D01*
X134181752Y-75622358D01*
X134181756Y-75622363D01*
X134337636Y-75778243D01*
X134337641Y-75778247D01*
X134477254Y-75879682D01*
X134519920Y-75935012D01*
X134525899Y-76004625D01*
X134493293Y-76066420D01*
X134477254Y-76080318D01*
X134337641Y-76181752D01*
X134337636Y-76181756D01*
X134181756Y-76337636D01*
X134181752Y-76337641D01*
X134052187Y-76515974D01*
X133952104Y-76712393D01*
X133952103Y-76712396D01*
X133883985Y-76922047D01*
X133849500Y-77139778D01*
X133849500Y-77360221D01*
X133883985Y-77577952D01*
X133952103Y-77787603D01*
X133952104Y-77787606D01*
X134052187Y-77984025D01*
X134181752Y-78162358D01*
X134181756Y-78162363D01*
X134337636Y-78318243D01*
X134337641Y-78318247D01*
X134490650Y-78429413D01*
X134515978Y-78447815D01*
X134644375Y-78513237D01*
X134712393Y-78547895D01*
X134712396Y-78547896D01*
X134817221Y-78581955D01*
X134922049Y-78616015D01*
X135139778Y-78650500D01*
X135139779Y-78650500D01*
X135360221Y-78650500D01*
X135360222Y-78650500D01*
X135577951Y-78616015D01*
X135787606Y-78547895D01*
X135984022Y-78447815D01*
X136162365Y-78318242D01*
X136318242Y-78162365D01*
X136447815Y-77984022D01*
X136547895Y-77787606D01*
X136616015Y-77577951D01*
X136650500Y-77360222D01*
X136650500Y-77139778D01*
X136616015Y-76922049D01*
X136568968Y-76777251D01*
X136547896Y-76712396D01*
X136547895Y-76712393D01*
X136487374Y-76593616D01*
X136447815Y-76515978D01*
X136443355Y-76509840D01*
X136416719Y-76473177D01*
X136368188Y-76406379D01*
X163299500Y-76406379D01*
X163299500Y-76593620D01*
X163336025Y-76777243D01*
X163336027Y-76777251D01*
X163407676Y-76950228D01*
X163407681Y-76950237D01*
X163511697Y-77105907D01*
X163511700Y-77105911D01*
X163644088Y-77238299D01*
X163644092Y-77238302D01*
X163799762Y-77342318D01*
X163799768Y-77342321D01*
X163799769Y-77342322D01*
X163972749Y-77413973D01*
X164156379Y-77450499D01*
X164156383Y-77450500D01*
X164156384Y-77450500D01*
X164343617Y-77450500D01*
X164343618Y-77450499D01*
X164527251Y-77413973D01*
X164700231Y-77342322D01*
X164855908Y-77238302D01*
X164988302Y-77105908D01*
X165092322Y-76950231D01*
X165163973Y-76777251D01*
X165200500Y-76593616D01*
X165200500Y-76420943D01*
X193907000Y-76420943D01*
X193907000Y-76579057D01*
X193942728Y-76712394D01*
X193947923Y-76731783D01*
X193947926Y-76731790D01*
X194026975Y-76868709D01*
X194026979Y-76868714D01*
X194026980Y-76868716D01*
X194138784Y-76980520D01*
X194138786Y-76980521D01*
X194138790Y-76980524D01*
X194275709Y-77059573D01*
X194275716Y-77059577D01*
X194428443Y-77100500D01*
X194428445Y-77100500D01*
X194586555Y-77100500D01*
X194586557Y-77100500D01*
X194739284Y-77059577D01*
X194876216Y-76980520D01*
X194988020Y-76868716D01*
X195067077Y-76731784D01*
X195108000Y-76579057D01*
X195108000Y-76420943D01*
X195067077Y-76268216D01*
X195017160Y-76181756D01*
X194988024Y-76131290D01*
X194988018Y-76131282D01*
X194876217Y-76019481D01*
X194876209Y-76019475D01*
X194739290Y-75940426D01*
X194739286Y-75940424D01*
X194739284Y-75940423D01*
X194586557Y-75899500D01*
X194428443Y-75899500D01*
X194275716Y-75940423D01*
X194275709Y-75940426D01*
X194138790Y-76019475D01*
X194138782Y-76019481D01*
X194026981Y-76131282D01*
X194026975Y-76131290D01*
X193947926Y-76268209D01*
X193947923Y-76268216D01*
X193907000Y-76420943D01*
X165200500Y-76420943D01*
X165200500Y-76406384D01*
X165163973Y-76222749D01*
X165092322Y-76049769D01*
X165092321Y-76049768D01*
X165092318Y-76049762D01*
X164988302Y-75894092D01*
X164988299Y-75894088D01*
X164886819Y-75792608D01*
X164853334Y-75731285D01*
X164850500Y-75704927D01*
X164850500Y-75300096D01*
X164870185Y-75233057D01*
X164886814Y-75212420D01*
X166612415Y-73486818D01*
X166673738Y-73453334D01*
X166700096Y-73450500D01*
X166843617Y-73450500D01*
X166843618Y-73450499D01*
X167027251Y-73413973D01*
X167200231Y-73342322D01*
X167355908Y-73238302D01*
X167488302Y-73105908D01*
X167592322Y-72950231D01*
X167663973Y-72777251D01*
X167700500Y-72593616D01*
X167700500Y-72406384D01*
X167663973Y-72222749D01*
X167592322Y-72049769D01*
X167592321Y-72049768D01*
X167592318Y-72049762D01*
X167488302Y-71894092D01*
X167488299Y-71894088D01*
X167355911Y-71761700D01*
X167355907Y-71761697D01*
X167200237Y-71657681D01*
X167200228Y-71657676D01*
X167027251Y-71586027D01*
X167027243Y-71586025D01*
X166843620Y-71549500D01*
X166843616Y-71549500D01*
X166656384Y-71549500D01*
X166656379Y-71549500D01*
X166472756Y-71586025D01*
X166472748Y-71586027D01*
X166299771Y-71657676D01*
X166299762Y-71657681D01*
X166144092Y-71761697D01*
X166144088Y-71761700D01*
X166011700Y-71894088D01*
X166011697Y-71894092D01*
X165907681Y-72049762D01*
X165907676Y-72049771D01*
X165836027Y-72222748D01*
X165836025Y-72222756D01*
X165799500Y-72406379D01*
X165799500Y-72549902D01*
X165779815Y-72616941D01*
X165763181Y-72637583D01*
X163769481Y-74631282D01*
X163769475Y-74631290D01*
X163732405Y-74695499D01*
X163732405Y-74695500D01*
X163690423Y-74768215D01*
X163649499Y-74920943D01*
X163649499Y-74920945D01*
X163649499Y-75089046D01*
X163649500Y-75089059D01*
X163649500Y-75704927D01*
X163629815Y-75771966D01*
X163613181Y-75792608D01*
X163511700Y-75894088D01*
X163511697Y-75894092D01*
X163407681Y-76049762D01*
X163407676Y-76049771D01*
X163336027Y-76222748D01*
X163336025Y-76222756D01*
X163299500Y-76406379D01*
X136368188Y-76406379D01*
X136318247Y-76337640D01*
X136162363Y-76181756D01*
X136162358Y-76181752D01*
X136022745Y-76080318D01*
X135980079Y-76024989D01*
X135974100Y-75955375D01*
X136006705Y-75893580D01*
X136022745Y-75879682D01*
X136162358Y-75778247D01*
X136162356Y-75778247D01*
X136162365Y-75778242D01*
X136318242Y-75622365D01*
X136447815Y-75444022D01*
X136547895Y-75247606D01*
X136616015Y-75037951D01*
X136650500Y-74820222D01*
X136650500Y-74599778D01*
X136616015Y-74382049D01*
X136566018Y-74228171D01*
X136547896Y-74172396D01*
X136547895Y-74172393D01*
X136513237Y-74104375D01*
X136447815Y-73975978D01*
X136360169Y-73855343D01*
X136318247Y-73797641D01*
X136318243Y-73797636D01*
X136162363Y-73641756D01*
X136162358Y-73641752D01*
X135984025Y-73512187D01*
X135984024Y-73512186D01*
X135984022Y-73512185D01*
X135921096Y-73480122D01*
X135787606Y-73412104D01*
X135787603Y-73412103D01*
X135577952Y-73343985D01*
X135469086Y-73326742D01*
X135360222Y-73309500D01*
X135139778Y-73309500D01*
X135067201Y-73320995D01*
X134922047Y-73343985D01*
X134712396Y-73412103D01*
X134712393Y-73412104D01*
X134515974Y-73512187D01*
X134337641Y-73641752D01*
X134337636Y-73641756D01*
X134181756Y-73797636D01*
X134181752Y-73797641D01*
X134052187Y-73975974D01*
X133952104Y-74172393D01*
X133952103Y-74172396D01*
X133883985Y-74382047D01*
X133849500Y-74599778D01*
X130406786Y-74599778D01*
X130410596Y-74598757D01*
X130640157Y-74503670D01*
X130855343Y-74379432D01*
X131052472Y-74228170D01*
X131228170Y-74052472D01*
X131379432Y-73855343D01*
X131503670Y-73640157D01*
X131598757Y-73410596D01*
X131663067Y-73170587D01*
X131695500Y-72924238D01*
X131695500Y-72675762D01*
X131663067Y-72429413D01*
X131598757Y-72189404D01*
X131503670Y-71959843D01*
X131503668Y-71959840D01*
X131503666Y-71959835D01*
X131379436Y-71744664D01*
X131379432Y-71744657D01*
X131230230Y-71550213D01*
X131228171Y-71547529D01*
X131228165Y-71547522D01*
X131060791Y-71380148D01*
X151167000Y-71380148D01*
X151167000Y-71584851D01*
X151199022Y-71787034D01*
X151262281Y-71981723D01*
X151355215Y-72164113D01*
X151475528Y-72329713D01*
X151620286Y-72474471D01*
X151775249Y-72587056D01*
X151785890Y-72594787D01*
X151869882Y-72637583D01*
X151968276Y-72687718D01*
X151968278Y-72687718D01*
X151968281Y-72687720D01*
X152072637Y-72721627D01*
X152162965Y-72750977D01*
X152264057Y-72766988D01*
X152365148Y-72783000D01*
X152365149Y-72783000D01*
X155469851Y-72783000D01*
X155469852Y-72783000D01*
X155672034Y-72750977D01*
X155866719Y-72687720D01*
X156049110Y-72594787D01*
X156142090Y-72527232D01*
X156214713Y-72474471D01*
X156214715Y-72474468D01*
X156214719Y-72474466D01*
X156359466Y-72329719D01*
X156359468Y-72329715D01*
X156359471Y-72329713D01*
X156412232Y-72257090D01*
X156479787Y-72164110D01*
X156572720Y-71981719D01*
X156635977Y-71787034D01*
X156668000Y-71584852D01*
X156668000Y-71380148D01*
X156648903Y-71259576D01*
X156635977Y-71177965D01*
X156600480Y-71068717D01*
X156572720Y-70983281D01*
X156572718Y-70983278D01*
X156572718Y-70983276D01*
X156479787Y-70800890D01*
X156396098Y-70685701D01*
X156396097Y-70685698D01*
X156359471Y-70635287D01*
X156359467Y-70635282D01*
X156345128Y-70620943D01*
X193907000Y-70620943D01*
X193907000Y-70779057D01*
X193940613Y-70904500D01*
X193947923Y-70931783D01*
X193947926Y-70931790D01*
X194026975Y-71068709D01*
X194026979Y-71068714D01*
X194026980Y-71068716D01*
X194138784Y-71180520D01*
X194138786Y-71180521D01*
X194138790Y-71180524D01*
X194208160Y-71220574D01*
X194275716Y-71259577D01*
X194428443Y-71300500D01*
X194428445Y-71300500D01*
X194586555Y-71300500D01*
X194586557Y-71300500D01*
X194739284Y-71259577D01*
X194876216Y-71180520D01*
X194988020Y-71068716D01*
X195067077Y-70931784D01*
X195108000Y-70779057D01*
X195108000Y-70620943D01*
X195067077Y-70468216D01*
X195010497Y-70370215D01*
X194988024Y-70331290D01*
X194988018Y-70331282D01*
X194876217Y-70219481D01*
X194876209Y-70219475D01*
X194739290Y-70140426D01*
X194739286Y-70140424D01*
X194739284Y-70140423D01*
X194586557Y-70099500D01*
X194428443Y-70099500D01*
X194275716Y-70140423D01*
X194275709Y-70140426D01*
X194138790Y-70219475D01*
X194138782Y-70219481D01*
X194026981Y-70331282D01*
X194026975Y-70331290D01*
X193947926Y-70468209D01*
X193947923Y-70468216D01*
X193907000Y-70620943D01*
X156345128Y-70620943D01*
X156214713Y-70490528D01*
X156049113Y-70370215D01*
X156049112Y-70370214D01*
X156049110Y-70370213D01*
X155992153Y-70341191D01*
X155866723Y-70277281D01*
X155672034Y-70214022D01*
X155497495Y-70186378D01*
X155469852Y-70182000D01*
X152365148Y-70182000D01*
X152340829Y-70185851D01*
X152162965Y-70214022D01*
X151968276Y-70277281D01*
X151785886Y-70370215D01*
X151620286Y-70490528D01*
X151475528Y-70635286D01*
X151355215Y-70800886D01*
X151262281Y-70983276D01*
X151199022Y-71177965D01*
X151167000Y-71380148D01*
X131060791Y-71380148D01*
X131052477Y-71371834D01*
X131052470Y-71371828D01*
X130855351Y-71220574D01*
X130855349Y-71220572D01*
X130855343Y-71220568D01*
X130855338Y-71220565D01*
X130855335Y-71220563D01*
X130640164Y-71096333D01*
X130640153Y-71096328D01*
X130410605Y-71001246D01*
X130410598Y-71001244D01*
X130410596Y-71001243D01*
X130170587Y-70936933D01*
X130115842Y-70929725D01*
X129924245Y-70904500D01*
X129924238Y-70904500D01*
X129675762Y-70904500D01*
X129675754Y-70904500D01*
X129468477Y-70931790D01*
X129429413Y-70936933D01*
X129189404Y-71001243D01*
X129189394Y-71001246D01*
X128959846Y-71096328D01*
X128959835Y-71096333D01*
X128744664Y-71220563D01*
X128744648Y-71220574D01*
X128547529Y-71371828D01*
X128547522Y-71371834D01*
X128371834Y-71547522D01*
X128371828Y-71547529D01*
X128220574Y-71744648D01*
X128220563Y-71744664D01*
X128096333Y-71959835D01*
X128096328Y-71959846D01*
X128001246Y-72189394D01*
X128001243Y-72189404D01*
X127963648Y-72329713D01*
X127936933Y-72429414D01*
X127904500Y-72675754D01*
X106528410Y-72675754D01*
X106550500Y-72536287D01*
X106550500Y-72323713D01*
X106517246Y-72113757D01*
X106451557Y-71911588D01*
X106355051Y-71722184D01*
X106355049Y-71722181D01*
X106355048Y-71722179D01*
X106230109Y-71550213D01*
X106079786Y-71399890D01*
X105907820Y-71274951D01*
X105718414Y-71178444D01*
X105718413Y-71178443D01*
X105718412Y-71178443D01*
X105516243Y-71112754D01*
X105516241Y-71112753D01*
X105516240Y-71112753D01*
X105354957Y-71087208D01*
X105306287Y-71079500D01*
X105093713Y-71079500D01*
X105045042Y-71087208D01*
X104883760Y-71112753D01*
X104681585Y-71178444D01*
X104492179Y-71274951D01*
X104320213Y-71399890D01*
X104169890Y-71550213D01*
X104044951Y-71722179D01*
X103948444Y-71911585D01*
X103882753Y-72113760D01*
X103865491Y-72222748D01*
X103849500Y-72323713D01*
X100600500Y-72323713D01*
X100600500Y-64881995D01*
X102199500Y-64881995D01*
X102199500Y-65118004D01*
X102199501Y-65118020D01*
X102230306Y-65352010D01*
X102291394Y-65579993D01*
X102381714Y-65798045D01*
X102381719Y-65798056D01*
X102452677Y-65920957D01*
X102499727Y-66002450D01*
X102499729Y-66002453D01*
X102499730Y-66002454D01*
X102643406Y-66189697D01*
X102643412Y-66189704D01*
X102810295Y-66356587D01*
X102810301Y-66356592D01*
X102997550Y-66500273D01*
X103108474Y-66564315D01*
X103201943Y-66618280D01*
X103201948Y-66618282D01*
X103201951Y-66618284D01*
X103420007Y-66708606D01*
X103647986Y-66769693D01*
X103881989Y-66800500D01*
X103881996Y-66800500D01*
X104118004Y-66800500D01*
X104118011Y-66800500D01*
X104352014Y-66769693D01*
X104579993Y-66708606D01*
X104659305Y-66675754D01*
X113704500Y-66675754D01*
X113704500Y-66924245D01*
X113729725Y-67115842D01*
X113736933Y-67170587D01*
X113801243Y-67410595D01*
X113801246Y-67410605D01*
X113896328Y-67640153D01*
X113896333Y-67640164D01*
X114020563Y-67855335D01*
X114020574Y-67855351D01*
X114171828Y-68052470D01*
X114171834Y-68052477D01*
X114347522Y-68228165D01*
X114347528Y-68228170D01*
X114544657Y-68379432D01*
X114544664Y-68379436D01*
X114759835Y-68503666D01*
X114759840Y-68503668D01*
X114759843Y-68503670D01*
X114989404Y-68598757D01*
X115229413Y-68663067D01*
X115475762Y-68695500D01*
X115475769Y-68695500D01*
X115724231Y-68695500D01*
X115724238Y-68695500D01*
X115970587Y-68663067D01*
X116210596Y-68598757D01*
X116440157Y-68503670D01*
X116655343Y-68379432D01*
X116852472Y-68228170D01*
X117028170Y-68052472D01*
X117179432Y-67855343D01*
X117303670Y-67640157D01*
X117398757Y-67410596D01*
X117463067Y-67170587D01*
X117495500Y-66924238D01*
X117495500Y-66675762D01*
X117495499Y-66675754D01*
X125904500Y-66675754D01*
X125904500Y-66924245D01*
X125929725Y-67115842D01*
X125936933Y-67170587D01*
X126001243Y-67410595D01*
X126001246Y-67410605D01*
X126096328Y-67640153D01*
X126096333Y-67640164D01*
X126220563Y-67855335D01*
X126220574Y-67855351D01*
X126371828Y-68052470D01*
X126371834Y-68052477D01*
X126547522Y-68228165D01*
X126547528Y-68228170D01*
X126744657Y-68379432D01*
X126744664Y-68379436D01*
X126959835Y-68503666D01*
X126959840Y-68503668D01*
X126959843Y-68503670D01*
X127189404Y-68598757D01*
X127429413Y-68663067D01*
X127675762Y-68695500D01*
X127675769Y-68695500D01*
X127924231Y-68695500D01*
X127924238Y-68695500D01*
X128170587Y-68663067D01*
X128410596Y-68598757D01*
X128640157Y-68503670D01*
X128855343Y-68379432D01*
X129052472Y-68228170D01*
X129228170Y-68052472D01*
X129379432Y-67855343D01*
X129503670Y-67640157D01*
X129598757Y-67410596D01*
X129663067Y-67170587D01*
X129695500Y-66924238D01*
X129695500Y-66675762D01*
X129663067Y-66429413D01*
X129598757Y-66189404D01*
X129503670Y-65959843D01*
X129503668Y-65959840D01*
X129503666Y-65959835D01*
X129379436Y-65744664D01*
X129379432Y-65744657D01*
X129228170Y-65547528D01*
X129228165Y-65547522D01*
X129052477Y-65371834D01*
X129052470Y-65371828D01*
X128855351Y-65220574D01*
X128855349Y-65220572D01*
X128855343Y-65220568D01*
X128855338Y-65220565D01*
X128855335Y-65220563D01*
X128640164Y-65096333D01*
X128640153Y-65096328D01*
X128410605Y-65001246D01*
X128410598Y-65001244D01*
X128410599Y-65001244D01*
X128410596Y-65001243D01*
X128397389Y-64997704D01*
X128334193Y-64980771D01*
X128170587Y-64936933D01*
X128115842Y-64929725D01*
X127924245Y-64904500D01*
X127924238Y-64904500D01*
X127675762Y-64904500D01*
X127675754Y-64904500D01*
X127456785Y-64933329D01*
X127429413Y-64936933D01*
X127202612Y-64997704D01*
X127189404Y-65001243D01*
X127189394Y-65001246D01*
X126959846Y-65096328D01*
X126959835Y-65096333D01*
X126744664Y-65220563D01*
X126744648Y-65220574D01*
X126547529Y-65371828D01*
X126547522Y-65371834D01*
X126371834Y-65547522D01*
X126371828Y-65547529D01*
X126220574Y-65744648D01*
X126220563Y-65744664D01*
X126096333Y-65959835D01*
X126096328Y-65959846D01*
X126001246Y-66189394D01*
X126001243Y-66189404D01*
X125936933Y-66429414D01*
X125904500Y-66675754D01*
X117495499Y-66675754D01*
X117463067Y-66429413D01*
X117398757Y-66189404D01*
X117303670Y-65959843D01*
X117303668Y-65959840D01*
X117303666Y-65959835D01*
X117179436Y-65744664D01*
X117179432Y-65744657D01*
X117028170Y-65547528D01*
X117028165Y-65547522D01*
X116852477Y-65371834D01*
X116852470Y-65371828D01*
X116655351Y-65220574D01*
X116655349Y-65220572D01*
X116655343Y-65220568D01*
X116655338Y-65220565D01*
X116655335Y-65220563D01*
X116440164Y-65096333D01*
X116440153Y-65096328D01*
X116210605Y-65001246D01*
X116210598Y-65001244D01*
X116210596Y-65001243D01*
X115970587Y-64936933D01*
X115915842Y-64929725D01*
X115724245Y-64904500D01*
X115724238Y-64904500D01*
X115475762Y-64904500D01*
X115475754Y-64904500D01*
X115256785Y-64933329D01*
X115229413Y-64936933D01*
X115002612Y-64997704D01*
X114989404Y-65001243D01*
X114989394Y-65001246D01*
X114759846Y-65096328D01*
X114759835Y-65096333D01*
X114544664Y-65220563D01*
X114544648Y-65220574D01*
X114347529Y-65371828D01*
X114347522Y-65371834D01*
X114171834Y-65547522D01*
X114171828Y-65547529D01*
X114020574Y-65744648D01*
X114020563Y-65744664D01*
X113896333Y-65959835D01*
X113896328Y-65959846D01*
X113801246Y-66189394D01*
X113801243Y-66189404D01*
X113736933Y-66429414D01*
X113704500Y-66675754D01*
X104659305Y-66675754D01*
X104798049Y-66618284D01*
X105002450Y-66500273D01*
X105189699Y-66356592D01*
X105356592Y-66189699D01*
X105500273Y-66002450D01*
X105618284Y-65798049D01*
X105708606Y-65579993D01*
X105769693Y-65352014D01*
X105800500Y-65118011D01*
X105800500Y-64881995D01*
X194999500Y-64881995D01*
X194999500Y-65118004D01*
X194999501Y-65118020D01*
X195030306Y-65352010D01*
X195091394Y-65579993D01*
X195181714Y-65798045D01*
X195181719Y-65798056D01*
X195252677Y-65920957D01*
X195299727Y-66002450D01*
X195299729Y-66002453D01*
X195299730Y-66002454D01*
X195443406Y-66189697D01*
X195443412Y-66189704D01*
X195610295Y-66356587D01*
X195610301Y-66356592D01*
X195797550Y-66500273D01*
X195908474Y-66564315D01*
X196001943Y-66618280D01*
X196001948Y-66618282D01*
X196001951Y-66618284D01*
X196220007Y-66708606D01*
X196447986Y-66769693D01*
X196681989Y-66800500D01*
X196681996Y-66800500D01*
X196918004Y-66800500D01*
X196918011Y-66800500D01*
X197152014Y-66769693D01*
X197379993Y-66708606D01*
X197598049Y-66618284D01*
X197802450Y-66500273D01*
X197989699Y-66356592D01*
X198156592Y-66189699D01*
X198300273Y-66002450D01*
X198418284Y-65798049D01*
X198508606Y-65579993D01*
X198569693Y-65352014D01*
X198600500Y-65118011D01*
X198600500Y-64881989D01*
X198569693Y-64647986D01*
X198508606Y-64420007D01*
X198418284Y-64201951D01*
X198418282Y-64201948D01*
X198418280Y-64201943D01*
X198376118Y-64128918D01*
X198300273Y-63997550D01*
X198156592Y-63810301D01*
X198156587Y-63810295D01*
X197989704Y-63643412D01*
X197989697Y-63643406D01*
X197802454Y-63499730D01*
X197802453Y-63499729D01*
X197802450Y-63499727D01*
X197720957Y-63452677D01*
X197598056Y-63381719D01*
X197598045Y-63381714D01*
X197379993Y-63291394D01*
X197152010Y-63230306D01*
X196918020Y-63199501D01*
X196918017Y-63199500D01*
X196918011Y-63199500D01*
X196681989Y-63199500D01*
X196681983Y-63199500D01*
X196681979Y-63199501D01*
X196447989Y-63230306D01*
X196220006Y-63291394D01*
X196001954Y-63381714D01*
X196001943Y-63381719D01*
X195797545Y-63499730D01*
X195610302Y-63643406D01*
X195610295Y-63643412D01*
X195443412Y-63810295D01*
X195443406Y-63810302D01*
X195299730Y-63997545D01*
X195181719Y-64201943D01*
X195181714Y-64201954D01*
X195091394Y-64420006D01*
X195030306Y-64647989D01*
X194999501Y-64881979D01*
X194999500Y-64881995D01*
X105800500Y-64881995D01*
X105800500Y-64881989D01*
X105769693Y-64647986D01*
X105708606Y-64420007D01*
X105618284Y-64201951D01*
X105618282Y-64201948D01*
X105618280Y-64201943D01*
X105576118Y-64128918D01*
X105500273Y-63997550D01*
X105356592Y-63810301D01*
X105356587Y-63810295D01*
X105189704Y-63643412D01*
X105189697Y-63643406D01*
X105002454Y-63499730D01*
X105002453Y-63499729D01*
X105002450Y-63499727D01*
X104920957Y-63452677D01*
X104798056Y-63381719D01*
X104798045Y-63381714D01*
X104579993Y-63291394D01*
X104352010Y-63230306D01*
X104118020Y-63199501D01*
X104118017Y-63199500D01*
X104118011Y-63199500D01*
X103881989Y-63199500D01*
X103881983Y-63199500D01*
X103881979Y-63199501D01*
X103647989Y-63230306D01*
X103420006Y-63291394D01*
X103201954Y-63381714D01*
X103201943Y-63381719D01*
X102997545Y-63499730D01*
X102810302Y-63643406D01*
X102810295Y-63643412D01*
X102643412Y-63810295D01*
X102643406Y-63810302D01*
X102499730Y-63997545D01*
X102381719Y-64201943D01*
X102381714Y-64201954D01*
X102291394Y-64420006D01*
X102230306Y-64647989D01*
X102199501Y-64881979D01*
X102199500Y-64881995D01*
X100600500Y-64881995D01*
X100600500Y-64603246D01*
X100600670Y-64596756D01*
X100616592Y-64292953D01*
X100617949Y-64280046D01*
X100630319Y-64201943D01*
X100665029Y-63982786D01*
X100667723Y-63970107D01*
X100745627Y-63679368D01*
X100749636Y-63667033D01*
X100857493Y-63386054D01*
X100862763Y-63374215D01*
X100999415Y-63106023D01*
X101005891Y-63094808D01*
X101169819Y-62842380D01*
X101177434Y-62831899D01*
X101366858Y-62597979D01*
X101375525Y-62588354D01*
X101588354Y-62375525D01*
X101597979Y-62366858D01*
X101831899Y-62177434D01*
X101842380Y-62169819D01*
X102094808Y-62005891D01*
X102106023Y-61999415D01*
X102374215Y-61862763D01*
X102386054Y-61857493D01*
X102667040Y-61749633D01*
X102679368Y-61745627D01*
X102970107Y-61667723D01*
X102982786Y-61665029D01*
X103280046Y-61617949D01*
X103292951Y-61616592D01*
X103596756Y-61600669D01*
X103603246Y-61600500D01*
X103639882Y-61600500D01*
X197160118Y-61600500D01*
X197196754Y-61600500D01*
X197203244Y-61600670D01*
G37*
G04 #@! TD.AperFunction*
M02*
