M48
; DRILL file {KiCad 9.0.2-1.fc42app2} date 2025-07-13T15:05:57-0700
; FORMAT={-:-/ absolute / metric / decimal}
; #@! TF.CreationDate,2025-07-13T15:05:57-07:00
; #@! TF.GenerationSoftware,Kicad,Pcbnew,9.0.2-1.fc42app2
; #@! TF.FileFunction,Plated,1,2,PTH
FMAT,2
METRIC
; #@! TA.AperFunction,Plated,PTH,ComponentDrill
T1C0.200
; #@! TA.AperFunction,Plated,PTH,ViaDrill
T2C0.300
; #@! TA.AperFunction,Plated,PTH,ComponentDrill
T3C0.300
; #@! TA.AperFunction,Plated,PTH,ComponentDrill
T4C0.800
; #@! TA.AperFunction,Plated,PTH,ComponentDrill
T5C0.800
; #@! TA.AperFunction,Plated,PTH,ComponentDrill
T6C0.900
; #@! TA.AperFunction,Plated,PTH,ComponentDrill
T7C0.914
; #@! TA.AperFunction,Plated,PTH,ComponentDrill
T8C1.000
; #@! TA.AperFunction,Plated,PTH,ComponentDrill
T9C1.020
; #@! TA.AperFunction,Plated,PTH,ComponentDrill
T10C1.200
; #@! TA.AperFunction,Plated,PTH,ComponentDrill
T11C1.524
; #@! TA.AperFunction,Plated,PTH,ComponentDrill
T12C1.700
%
G90
G05
T1
X177.49Y-69.6
T2
X104.75Y-82.0
X105.0Y-104.75
X107.25Y-87.0
X107.5Y-109.75
X109.75Y-82.0
X110.0Y-104.75
X110.25Y-127.75
X110.25Y-138.0
X134.25Y-82.25
X134.25Y-104.5
X135.5Y-128.0
X135.5Y-138.0
X136.75Y-109.5
X139.0Y-129.0
X139.0Y-132.25
X139.0Y-135.5
X139.25Y-104.5
X140.25Y-86.0
X141.75Y-93.0
X142.25Y-129.0
X142.25Y-132.25
X142.25Y-135.5
X143.75Y-103.75
X143.75Y-105.0
X143.75Y-106.25
X145.5Y-129.0
X145.5Y-132.25
X145.5Y-135.5
X146.25Y-79.0
X147.75Y-98.25
X148.0Y-91.0
X148.25Y-115.25
X148.25Y-122.25
X149.0Y-103.75
X149.0Y-105.0
X149.0Y-106.25
X149.5Y-83.5
X152.25Y-127.5
X153.75Y-122.25
X155.0Y-132.5
X159.0Y-94.75
X163.5Y-91.0
X163.5Y-94.75
X164.25Y-76.5
X164.6Y-65.6
X166.25Y-136.0
X166.75Y-72.5
X167.75Y-97.0
X168.0Y-76.25
X169.675Y-93.525
X170.445Y-92.595
X170.477Y-88.623
X171.0Y-133.75
X171.5Y-83.5
X171.5Y-95.3
X172.4Y-94.55
X172.937Y-90.208
X173.246Y-93.7
X173.25Y-116.75
X173.75Y-107.25
X174.25Y-87.45
X176.08Y-89.5
X176.2Y-91.6
X176.25Y-84.0
X176.25Y-102.25
X177.5Y-93.25
X177.5Y-133.75
X178.0Y-87.0
X180.0Y-111.25
X180.0Y-113.75
X181.5Y-111.25
X181.5Y-113.75
X182.75Y-89.25
X184.3Y-82.85
X187.2Y-86.6
X187.3Y-80.3
X188.5Y-73.0
X189.5Y-102.25
X190.25Y-66.25
X190.5Y-68.25
X190.75Y-79.5
X190.75Y-83.75
X191.0Y-86.6
X194.0Y-85.75
X195.25Y-131.75
T3
X176.94Y-67.95
X176.94Y-69.05
X177.49Y-67.4
X177.49Y-68.5
X178.04Y-67.95
X178.04Y-69.05
X178.59Y-67.4
X178.59Y-68.5
X178.59Y-69.6
X179.14Y-67.95
X179.14Y-69.05
T6
X195.28Y-117.7
X195.28Y-120.2
X195.28Y-122.7
T7
X182.5Y-118.75
X182.5Y-129.25
T8
X105.15Y-94.0
X105.15Y-96.54
X105.2Y-72.43
X105.2Y-74.97
X105.5Y-116.48
X105.5Y-119.02
X135.15Y-96.21
X135.15Y-98.75
X135.15Y-101.29
X135.25Y-74.71
X135.25Y-77.25
X135.25Y-79.79
X135.5Y-117.96
X135.5Y-120.5
X135.5Y-123.04
X182.23Y-135.972
X184.77Y-135.972
T9
X193.18Y-95.75
X193.18Y-98.29
X193.18Y-100.83
X193.18Y-103.37
X193.18Y-105.91
X193.18Y-108.45
T10
X179.25Y-94.45
X179.25Y-98.95
X183.35Y-104.65
X183.35Y-109.15
X185.75Y-94.45
X185.75Y-98.95
X189.85Y-104.65
X189.85Y-109.15
T11
X115.6Y-66.8
X115.6Y-78.8
X115.65Y-88.5
X115.65Y-100.5
X115.8Y-110.25
X115.8Y-122.25
X127.8Y-66.8
X127.8Y-78.8
X127.85Y-88.5
X127.85Y-100.5
X128.0Y-110.25
X128.0Y-122.25
X129.8Y-72.8
X129.85Y-94.5
X130.0Y-116.25
T12
X161.13Y-127.5
X176.37Y-127.5
T4
X149.517Y-67.648G85X149.517Y-69.897
G05
X155.017Y-65.522G85X152.818Y-65.522
G05
X155.267Y-71.483G85X152.568Y-71.483
G05
T5
X193.607Y-69.27G85X194.407Y-69.27
G05
X193.607Y-77.93G85X194.407Y-77.93
G05
X197.888Y-69.27G85X198.487Y-69.27
G05
X197.887Y-77.93G85X198.487Y-77.93
G05
M30
