%TF.GenerationSoftware,KiCad,Pcbnew,9.0.1*%
%TF.CreationDate,2025-04-28T19:38:50-07:00*%
%TF.ProjectId,rev0A,72657630-412e-46b6-9963-61645f706362,rev?*%
%TF.SameCoordinates,Original*%
%TF.FileFunction,Paste,Top*%
%TF.FilePolarity,Positive*%
%FSLAX46Y46*%
G04 Gerber Fmt 4.6, Leading zero omitted, Abs format (unit mm)*
G04 Created by KiCad (PCBNEW 9.0.1) date 2025-04-28 19:38:50*
%MOMM*%
%LPD*%
G01*
G04 APERTURE LIST*
G04 Aperture macros list*
%AMRoundRect*
0 Rectangle with rounded corners*
0 $1 Rounding radius*
0 $2 $3 $4 $5 $6 $7 $8 $9 X,Y pos of 4 corners*
0 Add a 4 corners polygon primitive as box body*
4,1,4,$2,$3,$4,$5,$6,$7,$8,$9,$2,$3,0*
0 Add four circle primitives for the rounded corners*
1,1,$1+$1,$2,$3*
1,1,$1+$1,$4,$5*
1,1,$1+$1,$6,$7*
1,1,$1+$1,$8,$9*
0 Add four rect primitives between the rounded corners*
20,1,$1+$1,$2,$3,$4,$5,0*
20,1,$1+$1,$4,$5,$6,$7,0*
20,1,$1+$1,$6,$7,$8,$9,0*
20,1,$1+$1,$8,$9,$2,$3,0*%
%AMFreePoly0*
4,1,21,4.105355,5.815355,4.120000,5.780000,4.120000,-5.140000,4.105355,-5.175355,4.070000,-5.190000,2.540000,-5.190000,2.504645,-5.175355,2.490000,-5.140000,2.490000,-4.050000,-4.060000,-4.050000,-4.095355,-4.035355,-4.110000,-4.000000,-4.110000,4.000000,-4.095355,4.035355,-4.060000,4.050000,2.490000,4.050000,2.490000,5.780000,2.504645,5.815355,2.540000,5.830000,4.070000,5.830000,
4.105355,5.815355,4.105355,5.815355,$1*%
G04 Aperture macros list end*
%ADD10R,1.210000X1.700000*%
%ADD11R,0.540000X0.790000*%
%ADD12R,0.860000X0.810000*%
%ADD13R,0.910000X1.220000*%
%ADD14R,2.900000X5.400000*%
%ADD15R,1.350000X1.410000*%
%ADD16R,0.250000X0.580000*%
%ADD17R,0.630000X0.300000*%
%ADD18R,0.900000X0.800000*%
%ADD19R,1.700000X1.210000*%
%ADD20R,0.700000X0.700000*%
%ADD21R,1.500000X0.900000*%
%ADD22RoundRect,0.087500X0.537500X0.087500X-0.537500X0.087500X-0.537500X-0.087500X0.537500X-0.087500X0*%
%ADD23R,0.400000X0.600000*%
%ADD24R,0.790000X0.540000*%
%ADD25R,1.150000X3.200000*%
%ADD26FreePoly0,90.000000*%
%ADD27R,1.300000X0.300000*%
%ADD28R,0.600000X0.400000*%
%ADD29R,1.150000X0.950000*%
%ADD30R,1.410000X1.350000*%
%ADD31R,0.810000X0.860000*%
%ADD32R,4.500000X1.650000*%
%ADD33R,0.700000X0.900000*%
%ADD34R,4.200000X1.400000*%
%ADD35RoundRect,0.375000X-0.625000X-0.375000X0.625000X-0.375000X0.625000X0.375000X-0.625000X0.375000X0*%
%ADD36RoundRect,0.500000X-0.500000X-1.400000X0.500000X-1.400000X0.500000X1.400000X-0.500000X1.400000X0*%
%ADD37R,0.950000X1.150000*%
G04 APERTURE END LIST*
D10*
%TO.C,R6*%
X178165000Y-84000000D03*
X181125000Y-84000000D03*
%TD*%
D11*
%TO.C,C21*%
X187980000Y-81450000D03*
X187980000Y-82550000D03*
%TD*%
D12*
%TO.C,R3*%
X190380000Y-76600000D03*
X190380000Y-78100000D03*
%TD*%
D13*
%TO.C,D2*%
X193240000Y-83200000D03*
X196520000Y-83200000D03*
%TD*%
D11*
%TO.C,C12*%
X181630000Y-108180000D03*
X181630000Y-109280000D03*
%TD*%
D14*
%TO.C,L1*%
X133450000Y-87250000D03*
X144350000Y-87250000D03*
%TD*%
D15*
%TO.C,C7*%
X163180000Y-66100000D03*
X163180000Y-64100000D03*
%TD*%
D11*
%TO.C,C20*%
X174980000Y-89200000D03*
X174980000Y-88100000D03*
%TD*%
D16*
%TO.C,U1*%
X171830000Y-89250000D03*
X172330000Y-89250000D03*
X172830000Y-89250000D03*
X173330000Y-89250000D03*
D17*
X173480000Y-88600000D03*
D16*
X173330000Y-87950000D03*
X172830000Y-87950000D03*
X172330000Y-87950000D03*
X171830000Y-87950000D03*
D17*
X171680000Y-88600000D03*
%TD*%
D18*
%TO.C,C10*%
X188680000Y-67800000D03*
X188680000Y-66400000D03*
%TD*%
D19*
%TO.C,R14*%
X176680000Y-78200000D03*
X176680000Y-81160000D03*
%TD*%
D20*
%TO.C,IC1*%
X176940000Y-67400000D03*
X176940000Y-68500000D03*
X176940000Y-69600000D03*
X178040000Y-67400000D03*
X178040000Y-68500000D03*
X178040000Y-69600000D03*
X179140000Y-67400000D03*
X179140000Y-68500000D03*
X179140000Y-69600000D03*
D21*
X168330000Y-62300000D03*
X168330000Y-63800000D03*
X168330000Y-65300000D03*
X168330000Y-66800000D03*
X168330000Y-68300000D03*
X168330000Y-69800000D03*
X168330000Y-71300000D03*
X168330000Y-72800000D03*
X168330000Y-74300000D03*
X185830000Y-74300000D03*
X185830000Y-72800000D03*
X185830000Y-71300000D03*
X185830000Y-69800000D03*
X185830000Y-68300000D03*
X185830000Y-66800000D03*
X185830000Y-65300000D03*
X185830000Y-63800000D03*
X185830000Y-62300000D03*
%TD*%
D22*
%TO.C,IC2*%
X186480000Y-85450000D03*
X186480000Y-84950000D03*
X186480000Y-84450000D03*
X186480000Y-83950000D03*
X183680000Y-83950000D03*
X183680000Y-84450000D03*
X183680000Y-84950000D03*
X183680000Y-85450000D03*
%TD*%
D23*
%TO.C,D5*%
X190980000Y-71600000D03*
X190980000Y-73100000D03*
%TD*%
D19*
%TO.C,R2*%
X189380000Y-95240000D03*
X189380000Y-98200000D03*
%TD*%
D11*
%TO.C,C18*%
X172280000Y-86300000D03*
X172280000Y-85200000D03*
%TD*%
D24*
%TO.C,C6*%
X159630000Y-80700000D03*
X160730000Y-80700000D03*
%TD*%
D19*
%TO.C,R10*%
X142880000Y-129880000D03*
X142880000Y-126920000D03*
%TD*%
D25*
%TO.C,VREG1*%
X115180000Y-81770000D03*
X116880000Y-81770000D03*
X118580000Y-81770000D03*
X120280000Y-81770000D03*
X121980000Y-81770000D03*
D26*
X118900000Y-71750000D03*
%TD*%
D27*
%TO.C,USBC1*%
X192457500Y-77950000D03*
X192457500Y-77150000D03*
X192457500Y-75850000D03*
X192457500Y-74850000D03*
X192457500Y-74350000D03*
X192457500Y-73350000D03*
X192457500Y-72050000D03*
X192457500Y-71250000D03*
X192457500Y-71550000D03*
X192457500Y-72350000D03*
X192457500Y-72850000D03*
X192457500Y-73850000D03*
X192457500Y-75350000D03*
X192457500Y-76350000D03*
X192457500Y-76850000D03*
X192457500Y-77650000D03*
%TD*%
D23*
%TO.C,D4*%
X188980000Y-75550000D03*
X188980000Y-74050000D03*
%TD*%
D28*
%TO.C,D3*%
X194080000Y-81000000D03*
X195580000Y-81000000D03*
%TD*%
D29*
%TO.C,D7*%
X139380000Y-119610000D03*
X139380000Y-122990000D03*
%TD*%
D30*
%TO.C,C5*%
X160030000Y-82700000D03*
X162030000Y-82700000D03*
%TD*%
D31*
%TO.C,R7*%
X146380000Y-111880000D03*
X144880000Y-111880000D03*
%TD*%
D32*
%TO.C,C2*%
X141900000Y-73250000D03*
X132900000Y-73250000D03*
%TD*%
D12*
%TO.C,R4*%
X190680000Y-67900000D03*
X190680000Y-66400000D03*
%TD*%
D31*
%TO.C,R9*%
X146380000Y-131380000D03*
X144880000Y-131380000D03*
%TD*%
D33*
%TO.C,LED1*%
X161730000Y-75320000D03*
X162830000Y-75320000D03*
X162830000Y-73480000D03*
X161730000Y-73480000D03*
%TD*%
D11*
%TO.C,C8*%
X165680000Y-64900000D03*
X165680000Y-63800000D03*
%TD*%
D24*
%TO.C,C22*%
X181365000Y-85900000D03*
X180265000Y-85900000D03*
%TD*%
D30*
%TO.C,C3*%
X150530000Y-87600000D03*
X152530000Y-87600000D03*
%TD*%
D19*
%TO.C,R8*%
X142880000Y-110380000D03*
X142880000Y-107420000D03*
%TD*%
D30*
%TO.C,C14*%
X193880000Y-85900000D03*
X195880000Y-85900000D03*
%TD*%
D19*
%TO.C,R15*%
X173680000Y-78140000D03*
X173680000Y-81100000D03*
%TD*%
D34*
%TO.C,C1*%
X116210000Y-90800000D03*
X122750000Y-90800000D03*
%TD*%
D10*
%TO.C,R12*%
X163560000Y-98900000D03*
X160600000Y-98900000D03*
%TD*%
D18*
%TO.C,C9*%
X163680000Y-69900000D03*
X163680000Y-68500000D03*
%TD*%
D29*
%TO.C,D6*%
X139380000Y-99690000D03*
X139380000Y-103070000D03*
%TD*%
D19*
%TO.C,R16*%
X170680000Y-78140000D03*
X170680000Y-81100000D03*
%TD*%
D35*
%TO.C,VREG2*%
X150880000Y-79300000D03*
X150880000Y-81600000D03*
D36*
X157180000Y-81600000D03*
D35*
X150880000Y-83900000D03*
%TD*%
D19*
%TO.C,R1*%
X186280000Y-95200000D03*
X186280000Y-98160000D03*
%TD*%
D24*
%TO.C,C4*%
X150430000Y-89600000D03*
X151530000Y-89600000D03*
%TD*%
D15*
%TO.C,C17*%
X174080000Y-86000000D03*
X174080000Y-84000000D03*
%TD*%
D11*
%TO.C,C13*%
X174630000Y-96870000D03*
X174630000Y-97970000D03*
%TD*%
D37*
%TO.C,D8*%
X152690000Y-102400000D03*
X156070000Y-102400000D03*
%TD*%
D12*
%TO.C,R11*%
X165060000Y-95400000D03*
X165060000Y-96900000D03*
%TD*%
D19*
%TO.C,R13*%
X185580000Y-124040000D03*
X185580000Y-127000000D03*
%TD*%
D18*
%TO.C,C11*%
X188680000Y-70300000D03*
X188680000Y-71700000D03*
%TD*%
M02*
