%TF.GenerationSoftware,KiCad,Pcbnew,9.0.1*%
%TF.CreationDate,2025-04-28T19:38:50-07:00*%
%TF.ProjectId,rev0A,72657630-412e-46b6-9963-61645f706362,rev?*%
%TF.SameCoordinates,Original*%
%TF.FileFunction,Soldermask,Top*%
%TF.FilePolarity,Negative*%
%FSLAX46Y46*%
G04 Gerber Fmt 4.6, Leading zero omitted, Abs format (unit mm)*
G04 Created by KiCad (PCBNEW 9.0.1) date 2025-04-28 19:38:50*
%MOMM*%
%LPD*%
G01*
G04 APERTURE LIST*
G04 Aperture macros list*
%AMRoundRect*
0 Rectangle with rounded corners*
0 $1 Rounding radius*
0 $2 $3 $4 $5 $6 $7 $8 $9 X,Y pos of 4 corners*
0 Add a 4 corners polygon primitive as box body*
4,1,4,$2,$3,$4,$5,$6,$7,$8,$9,$2,$3,0*
0 Add four circle primitives for the rounded corners*
1,1,$1+$1,$2,$3*
1,1,$1+$1,$4,$5*
1,1,$1+$1,$6,$7*
1,1,$1+$1,$8,$9*
0 Add four rect primitives between the rounded corners*
20,1,$1+$1,$2,$3,$4,$5,0*
20,1,$1+$1,$4,$5,$6,$7,0*
20,1,$1+$1,$6,$7,$8,$9,0*
20,1,$1+$1,$8,$9,$2,$3,0*%
%AMFreePoly0*
4,1,39,4.084542,5.865107,4.119897,5.850462,4.140462,5.829897,4.155107,5.794542,4.158000,5.780000,4.158000,-5.140000,4.155107,-5.154542,4.140462,-5.189897,4.119897,-5.210462,4.084542,-5.225107,4.070000,-5.228000,2.540000,-5.228000,2.525458,-5.225107,2.490103,-5.210462,2.469538,-5.189897,2.454893,-5.154542,2.452000,-5.140000,2.452000,-4.088000,-4.060000,-4.088000,-4.074542,-4.085107,
-4.109897,-4.070462,-4.130462,-4.049897,-4.145107,-4.014542,-4.148000,-4.000000,-4.148000,4.000000,-4.145107,4.014542,-4.130462,4.049897,-4.109897,4.070462,-4.074542,4.085107,-4.060000,4.088000,2.452000,4.088000,2.452000,5.780000,2.454893,5.794542,2.469538,5.829897,2.490103,5.850462,2.525458,5.865107,2.540000,5.868000,4.070000,5.868000,4.084542,5.865107,4.084542,5.865107,
$1*%
G04 Aperture macros list end*
%ADD10RoundRect,0.038000X-1.000000X-1.000000X1.000000X-1.000000X1.000000X1.000000X-1.000000X1.000000X0*%
%ADD11RoundRect,0.038000X-0.605000X-0.850000X0.605000X-0.850000X0.605000X0.850000X-0.605000X0.850000X0*%
%ADD12C,1.776000*%
%ADD13RoundRect,0.038000X-0.270000X0.395000X-0.270000X-0.395000X0.270000X-0.395000X0.270000X0.395000X0*%
%ADD14RoundRect,0.038000X-0.900000X-0.900000X0.900000X-0.900000X0.900000X0.900000X-0.900000X0.900000X0*%
%ADD15C,1.876000*%
%ADD16RoundRect,0.038000X-0.430000X0.405000X-0.430000X-0.405000X0.430000X-0.405000X0.430000X0.405000X0*%
%ADD17C,2.076000*%
%ADD18RoundRect,0.038000X-0.455000X-0.610000X0.455000X-0.610000X0.455000X0.610000X-0.455000X0.610000X0*%
%ADD19C,1.626000*%
%ADD20RoundRect,0.038000X-1.450000X-2.700000X1.450000X-2.700000X1.450000X2.700000X-1.450000X2.700000X0*%
%ADD21RoundRect,0.038000X0.675000X-0.705000X0.675000X0.705000X-0.675000X0.705000X-0.675000X-0.705000X0*%
%ADD22RoundRect,0.038000X0.270000X-0.395000X0.270000X0.395000X-0.270000X0.395000X-0.270000X-0.395000X0*%
%ADD23RoundRect,0.038000X-0.125000X-0.290000X0.125000X-0.290000X0.125000X0.290000X-0.125000X0.290000X0*%
%ADD24RoundRect,0.038000X0.315000X-0.150000X0.315000X0.150000X-0.315000X0.150000X-0.315000X-0.150000X0*%
%ADD25RoundRect,0.038000X0.450000X-0.400000X0.450000X0.400000X-0.450000X0.400000X-0.450000X-0.400000X0*%
%ADD26RoundRect,0.038000X-0.850000X0.605000X-0.850000X-0.605000X0.850000X-0.605000X0.850000X0.605000X0*%
%ADD27C,1.676000*%
%ADD28RoundRect,0.038000X-0.750000X-0.450000X0.750000X-0.450000X0.750000X0.450000X-0.750000X0.450000X0*%
%ADD29C,0.676000*%
%ADD30RoundRect,0.038000X-1.450000X-1.450000X1.450000X-1.450000X1.450000X1.450000X-1.450000X1.450000X0*%
%ADD31RoundRect,0.106500X0.556500X0.106500X-0.556500X0.106500X-0.556500X-0.106500X0.556500X-0.106500X0*%
%ADD32C,3.276000*%
%ADD33RoundRect,0.038000X-1.000000X1.000000X-1.000000X-1.000000X1.000000X-1.000000X1.000000X1.000000X0*%
%ADD34RoundRect,0.038000X-0.200000X0.300000X-0.200000X-0.300000X0.200000X-0.300000X0.200000X0.300000X0*%
%ADD35RoundRect,0.038000X0.200000X-0.300000X0.200000X0.300000X-0.200000X0.300000X-0.200000X-0.300000X0*%
%ADD36RoundRect,0.038000X0.900000X-0.900000X0.900000X0.900000X-0.900000X0.900000X-0.900000X-0.900000X0*%
%ADD37C,2.866000*%
%ADD38O,2.866000X2.866000*%
%ADD39RoundRect,0.038000X-0.395000X-0.270000X0.395000X-0.270000X0.395000X0.270000X-0.395000X0.270000X0*%
%ADD40RoundRect,0.038000X0.850000X-0.605000X0.850000X0.605000X-0.850000X0.605000X-0.850000X-0.605000X0*%
%ADD41RoundRect,0.038000X0.575000X-1.600000X0.575000X1.600000X-0.575000X1.600000X-0.575000X-1.600000X0*%
%ADD42FreePoly0,90.000000*%
%ADD43C,0.826000*%
%ADD44RoundRect,0.038000X0.650000X-0.150000X0.650000X0.150000X-0.650000X0.150000X-0.650000X-0.150000X0*%
%ADD45O,2.076000X1.276000*%
%ADD46O,1.876000X1.276000*%
%ADD47RoundRect,0.038000X-0.300000X-0.200000X0.300000X-0.200000X0.300000X0.200000X-0.300000X0.200000X0*%
%ADD48RoundRect,0.038000X0.300000X0.200000X-0.300000X0.200000X-0.300000X-0.200000X0.300000X-0.200000X0*%
%ADD49RoundRect,0.038000X-0.575000X0.475000X-0.575000X-0.475000X0.575000X-0.475000X0.575000X0.475000X0*%
%ADD50RoundRect,0.038000X-0.705000X-0.675000X0.705000X-0.675000X0.705000X0.675000X-0.705000X0.675000X0*%
%ADD51RoundRect,0.038000X0.405000X0.430000X-0.405000X0.430000X-0.405000X-0.430000X0.405000X-0.430000X0*%
%ADD52RoundRect,0.038000X2.250000X0.825000X-2.250000X0.825000X-2.250000X-0.825000X2.250000X-0.825000X0*%
%ADD53RoundRect,0.038000X0.430000X-0.405000X0.430000X0.405000X-0.430000X0.405000X-0.430000X-0.405000X0*%
%ADD54RoundRect,0.038000X0.350000X-0.450000X0.350000X0.450000X-0.350000X0.450000X-0.350000X-0.450000X0*%
%ADD55RoundRect,0.038000X0.395000X0.270000X-0.395000X0.270000X-0.395000X-0.270000X0.395000X-0.270000X0*%
%ADD56RoundRect,0.038000X-2.100000X-0.700000X2.100000X-0.700000X2.100000X0.700000X-2.100000X0.700000X0*%
%ADD57RoundRect,0.038000X0.605000X0.850000X-0.605000X0.850000X-0.605000X-0.850000X0.605000X-0.850000X0*%
%ADD58O,4.576000X1.676000*%
%ADD59O,3.876000X1.676000*%
%ADD60O,1.676000X4.076000*%
%ADD61RoundRect,0.394000X-0.644000X-0.394000X0.644000X-0.394000X0.644000X0.394000X-0.644000X0.394000X0*%
%ADD62RoundRect,0.519000X-0.519000X-1.419000X0.519000X-1.419000X0.519000X1.419000X-0.519000X1.419000X0*%
%ADD63RoundRect,0.038000X1.000000X-1.000000X1.000000X1.000000X-1.000000X1.000000X-1.000000X-1.000000X0*%
%ADD64RoundRect,0.038000X-0.475000X-0.575000X0.475000X-0.575000X0.475000X0.575000X-0.475000X0.575000X0*%
%ADD65RoundRect,0.038000X-1.500000X1.500000X-1.500000X-1.500000X1.500000X-1.500000X1.500000X1.500000X0*%
%ADD66C,3.076000*%
%ADD67RoundRect,0.038000X-0.450000X0.400000X-0.450000X-0.400000X0.450000X-0.400000X0.450000X0.400000X0*%
G04 APERTURE END LIST*
D10*
%TO.C,GPIO21*%
X193080000Y-89100000D03*
%TD*%
D11*
%TO.C,R6*%
X178165000Y-84000000D03*
X181125000Y-84000000D03*
%TD*%
D12*
%TO.C,J3*%
X153140000Y-131472500D03*
X155680000Y-131472500D03*
%TD*%
D10*
%TO.C,TP4*%
X159080000Y-74400000D03*
%TD*%
D13*
%TO.C,C21*%
X187980000Y-81450000D03*
X187980000Y-82550000D03*
%TD*%
D14*
%TO.C,Q1*%
X139380000Y-109340000D03*
D15*
X139380000Y-111880000D03*
X139380000Y-114420000D03*
%TD*%
D16*
%TO.C,R3*%
X190380000Y-76600000D03*
X190380000Y-78100000D03*
%TD*%
D17*
%TO.C,SW2*%
X182830000Y-99670000D03*
X176330000Y-99670000D03*
X182830000Y-95180000D03*
X176330000Y-95180000D03*
X179580000Y-93320000D03*
%TD*%
D18*
%TO.C,D2*%
X193240000Y-83200000D03*
X196520000Y-83200000D03*
%TD*%
D19*
%TO.C,J4*%
X195280000Y-122700000D03*
X195280000Y-120200000D03*
X195280000Y-117700000D03*
%TD*%
D13*
%TO.C,C12*%
X181630000Y-108180000D03*
X181630000Y-109280000D03*
%TD*%
D10*
%TO.C,GPIO8*%
X162380000Y-78100000D03*
%TD*%
D20*
%TO.C,L1*%
X133450000Y-87250000D03*
X144350000Y-87250000D03*
%TD*%
D21*
%TO.C,C7*%
X163180000Y-66100000D03*
X163180000Y-64100000D03*
%TD*%
D22*
%TO.C,C20*%
X174980000Y-89200000D03*
X174980000Y-88100000D03*
%TD*%
D23*
%TO.C,U1*%
X171830000Y-89250000D03*
X172330000Y-89250000D03*
X172830000Y-89250000D03*
X173330000Y-89250000D03*
D24*
X173480000Y-88600000D03*
D23*
X173330000Y-87950000D03*
X172830000Y-87950000D03*
X172330000Y-87950000D03*
X171830000Y-87950000D03*
D24*
X171680000Y-88600000D03*
%TD*%
D25*
%TO.C,C10*%
X188680000Y-67800000D03*
X188680000Y-66400000D03*
%TD*%
D26*
%TO.C,R14*%
X176680000Y-78200000D03*
X176680000Y-81160000D03*
%TD*%
D27*
%TO.C,R5*%
X175780000Y-122450000D03*
X175780000Y-111950000D03*
%TD*%
D28*
%TO.C,IC1*%
X168330000Y-62300000D03*
X168330000Y-63800000D03*
X168330000Y-65300000D03*
X168330000Y-66800000D03*
X168330000Y-68300000D03*
X168330000Y-69800000D03*
X168330000Y-71300000D03*
X168330000Y-72800000D03*
X168330000Y-74300000D03*
X185830000Y-74300000D03*
X185830000Y-72800000D03*
X185830000Y-71300000D03*
X185830000Y-69800000D03*
X185830000Y-68300000D03*
X185830000Y-66800000D03*
X185830000Y-65300000D03*
X185830000Y-63800000D03*
X185830000Y-62300000D03*
D29*
X176940000Y-67950000D03*
X176940000Y-69050000D03*
X177490000Y-67400000D03*
X177490000Y-68500000D03*
X177490000Y-69600000D03*
X178040000Y-67950000D03*
D30*
X178040000Y-68500000D03*
D29*
X178040000Y-69050000D03*
X178590000Y-67400000D03*
X178590000Y-68500000D03*
X178590000Y-69600000D03*
X179140000Y-67950000D03*
X179140000Y-69050000D03*
%TD*%
D31*
%TO.C,IC2*%
X186480000Y-85450000D03*
X186480000Y-84950000D03*
X186480000Y-84450000D03*
X186480000Y-83950000D03*
X183680000Y-83950000D03*
X183680000Y-84450000D03*
X183680000Y-84950000D03*
X183680000Y-85450000D03*
%TD*%
D32*
%TO.C,REF\u002A\u002A*%
X108800000Y-133000000D03*
%TD*%
D33*
%TO.C,TP13*%
X186465000Y-89100000D03*
%TD*%
D34*
%TO.C,D5*%
X190980000Y-71600000D03*
D35*
X190980000Y-73100000D03*
%TD*%
D36*
%TO.C,Q3*%
X162980000Y-102400000D03*
D15*
X165520000Y-102400000D03*
X168060000Y-102400000D03*
%TD*%
D32*
%TO.C,REF\u002A\u002A*%
X108800000Y-65000000D03*
%TD*%
D37*
%TO.C,K2*%
X131380000Y-118800000D03*
D38*
X131380000Y-130800000D03*
D37*
X133380000Y-124800000D03*
X119180000Y-130800000D03*
X119180000Y-118800000D03*
%TD*%
D10*
%TO.C,TP9*%
X182380000Y-118000000D03*
%TD*%
D14*
%TO.C,Q2*%
X139380000Y-128840000D03*
D15*
X139380000Y-131380000D03*
X139380000Y-133920000D03*
%TD*%
D10*
%TO.C,TP2*%
X109280000Y-72600000D03*
%TD*%
D26*
%TO.C,R2*%
X189380000Y-95240000D03*
X189380000Y-98200000D03*
%TD*%
D22*
%TO.C,C18*%
X172280000Y-86300000D03*
X172280000Y-85200000D03*
%TD*%
D39*
%TO.C,C6*%
X159630000Y-80700000D03*
X160730000Y-80700000D03*
%TD*%
D40*
%TO.C,R10*%
X142880000Y-129880000D03*
X142880000Y-126920000D03*
%TD*%
D41*
%TO.C,VREG1*%
X115180000Y-81770000D03*
X116880000Y-81770000D03*
X118580000Y-81770000D03*
X120280000Y-81770000D03*
X121980000Y-81770000D03*
D42*
X118900000Y-71750000D03*
%TD*%
D32*
%TO.C,REF\u002A\u002A*%
X195300000Y-65000000D03*
%TD*%
D10*
%TO.C,TP1*%
X153080000Y-74300000D03*
%TD*%
D43*
%TO.C,USBC1*%
X193717500Y-77500000D03*
X193717500Y-71700000D03*
D44*
X192457500Y-77950000D03*
X192457500Y-77150000D03*
X192457500Y-75850000D03*
X192457500Y-74850000D03*
X192457500Y-74350000D03*
X192457500Y-73350000D03*
X192457500Y-72050000D03*
X192457500Y-71250000D03*
X192457500Y-71550000D03*
X192457500Y-72350000D03*
X192457500Y-72850000D03*
X192457500Y-73850000D03*
X192457500Y-75350000D03*
X192457500Y-76350000D03*
X192457500Y-76850000D03*
X192457500Y-77650000D03*
D45*
X193217500Y-78930000D03*
X193217500Y-70270000D03*
D46*
X197397500Y-78930000D03*
X197397500Y-70270000D03*
%TD*%
D35*
%TO.C,D4*%
X188980000Y-75550000D03*
D34*
X188980000Y-74050000D03*
%TD*%
D47*
%TO.C,D3*%
X194080000Y-81000000D03*
D48*
X195580000Y-81000000D03*
%TD*%
D49*
%TO.C,D7*%
X139380000Y-119610000D03*
X139380000Y-122990000D03*
%TD*%
D50*
%TO.C,C5*%
X160030000Y-82700000D03*
X162030000Y-82700000D03*
%TD*%
D51*
%TO.C,R7*%
X146380000Y-111880000D03*
X144880000Y-111880000D03*
%TD*%
D36*
%TO.C,J7*%
X193180000Y-108450000D03*
D27*
X193180000Y-105910000D03*
X193180000Y-103370000D03*
X193180000Y-100830000D03*
X193180000Y-98290000D03*
X193180000Y-95750000D03*
%TD*%
D52*
%TO.C,C2*%
X141900000Y-73250000D03*
X132900000Y-73250000D03*
%TD*%
D53*
%TO.C,R4*%
X190680000Y-67900000D03*
X190680000Y-66400000D03*
%TD*%
D17*
%TO.C,SW1*%
X189930000Y-110970000D03*
X183430000Y-110970000D03*
X189930000Y-106480000D03*
X183430000Y-106480000D03*
X186680000Y-104620000D03*
%TD*%
D51*
%TO.C,R9*%
X146380000Y-131380000D03*
X144880000Y-131380000D03*
%TD*%
D10*
%TO.C,GPIO0*%
X189980000Y-63200000D03*
%TD*%
D54*
%TO.C,LED1*%
X161730000Y-75320000D03*
X162830000Y-75320000D03*
X162830000Y-73480000D03*
X161730000Y-73480000D03*
%TD*%
D22*
%TO.C,C8*%
X165680000Y-64900000D03*
X165680000Y-63800000D03*
%TD*%
D55*
%TO.C,C22*%
X181365000Y-85900000D03*
X180265000Y-85900000D03*
%TD*%
D10*
%TO.C,TP3*%
X146580000Y-74200000D03*
%TD*%
D50*
%TO.C,C3*%
X150530000Y-87600000D03*
X152530000Y-87600000D03*
%TD*%
D32*
%TO.C,REF\u002A\u002A*%
X195300000Y-132900000D03*
%TD*%
D40*
%TO.C,R8*%
X142880000Y-110380000D03*
X142880000Y-107420000D03*
%TD*%
D33*
%TO.C,TP11*%
X181765000Y-80700000D03*
%TD*%
D50*
%TO.C,C14*%
X193880000Y-85900000D03*
X195880000Y-85900000D03*
%TD*%
D26*
%TO.C,R15*%
X173680000Y-78140000D03*
X173680000Y-81100000D03*
%TD*%
D56*
%TO.C,C1*%
X116210000Y-90800000D03*
X122750000Y-90800000D03*
%TD*%
D33*
%TO.C,TP12*%
X185080000Y-80700000D03*
%TD*%
D57*
%TO.C,R12*%
X163560000Y-98900000D03*
X160600000Y-98900000D03*
%TD*%
D58*
%TO.C,DC1*%
X153917500Y-71482500D03*
D59*
X153917500Y-65522500D03*
D60*
X149517500Y-68772500D03*
%TD*%
D25*
%TO.C,C9*%
X163680000Y-69900000D03*
X163680000Y-68500000D03*
%TD*%
D49*
%TO.C,D6*%
X139380000Y-99690000D03*
X139380000Y-103070000D03*
%TD*%
D26*
%TO.C,R16*%
X170680000Y-78140000D03*
X170680000Y-81100000D03*
%TD*%
D61*
%TO.C,VREG2*%
X150880000Y-79300000D03*
X150880000Y-81600000D03*
D62*
X157180000Y-81600000D03*
D61*
X150880000Y-83900000D03*
%TD*%
D12*
%TO.C,J5*%
X180440000Y-132900000D03*
X182980000Y-132900000D03*
%TD*%
D26*
%TO.C,R1*%
X186280000Y-95200000D03*
X186280000Y-98160000D03*
%TD*%
D39*
%TO.C,C4*%
X150430000Y-89600000D03*
X151530000Y-89600000D03*
%TD*%
D21*
%TO.C,C17*%
X174080000Y-86000000D03*
X174080000Y-84000000D03*
%TD*%
D13*
%TO.C,C13*%
X174630000Y-96870000D03*
X174630000Y-97970000D03*
%TD*%
D63*
%TO.C,TP8*%
X196380000Y-89100000D03*
%TD*%
D64*
%TO.C,D8*%
X152690000Y-102400000D03*
X156070000Y-102400000D03*
%TD*%
D16*
%TO.C,R11*%
X165060000Y-95400000D03*
X165060000Y-96900000D03*
%TD*%
D12*
%TO.C,J1*%
X109680000Y-99830000D03*
X109680000Y-102370000D03*
%TD*%
D37*
%TO.C,K3*%
X152480000Y-110400000D03*
D38*
X164480000Y-110400000D03*
D37*
X158480000Y-108400000D03*
X164480000Y-122600000D03*
X152480000Y-122600000D03*
%TD*%
D26*
%TO.C,R13*%
X185580000Y-124040000D03*
X185580000Y-127000000D03*
%TD*%
D65*
%TO.C,D1*%
X127400000Y-85370000D03*
D66*
X127400000Y-70130000D03*
%TD*%
D37*
%TO.C,K1*%
X131380000Y-99300000D03*
D38*
X131380000Y-111300000D03*
D37*
X133380000Y-105300000D03*
X119180000Y-111300000D03*
X119180000Y-99300000D03*
%TD*%
D12*
%TO.C,J2*%
X109680000Y-119100000D03*
X109680000Y-121640000D03*
%TD*%
D67*
%TO.C,C11*%
X188680000Y-70300000D03*
X188680000Y-71700000D03*
%TD*%
M02*
