%TF.GenerationSoftware,KiCad,Pcbnew,9.0.2*%
%TF.CreationDate,2025-06-26T22:55:18-07:00*%
%TF.ProjectId,rev0A,72657630-412e-46b6-9963-61645f706362,rev?*%
%TF.SameCoordinates,Original*%
%TF.FileFunction,Soldermask,Bot*%
%TF.FilePolarity,Negative*%
%FSLAX46Y46*%
G04 Gerber Fmt 4.6, Leading zero omitted, Abs format (unit mm)*
G04 Created by KiCad (PCBNEW 9.0.2) date 2025-06-26 22:55:18*
%MOMM*%
%LPD*%
G01*
G04 APERTURE LIST*
G04 Aperture macros list*
%AMRoundRect*
0 Rectangle with rounded corners*
0 $1 Rounding radius*
0 $2 $3 $4 $5 $6 $7 $8 $9 X,Y pos of 4 corners*
0 Add a 4 corners polygon primitive as box body*
4,1,4,$2,$3,$4,$5,$6,$7,$8,$9,$2,$3,0*
0 Add four circle primitives for the rounded corners*
1,1,$1+$1,$2,$3*
1,1,$1+$1,$4,$5*
1,1,$1+$1,$6,$7*
1,1,$1+$1,$8,$9*
0 Add four rect primitives between the rounded corners*
20,1,$1+$1,$2,$3,$4,$5,0*
20,1,$1+$1,$4,$5,$6,$7,0*
20,1,$1+$1,$6,$7,$8,$9,0*
20,1,$1+$1,$8,$9,$2,$3,0*%
G04 Aperture macros list end*
%ADD10O,2.184000X1.384000*%
%ADD11C,0.826000*%
%ADD12C,1.776000*%
%ADD13RoundRect,0.038000X-0.900000X-0.900000X0.900000X-0.900000X0.900000X0.900000X-0.900000X0.900000X0*%
%ADD14C,1.876000*%
%ADD15C,2.076000*%
%ADD16C,1.626000*%
%ADD17C,1.676000*%
%ADD18C,3.276000*%
%ADD19RoundRect,0.038000X0.900000X-0.900000X0.900000X0.900000X-0.900000X0.900000X-0.900000X-0.900000X0*%
%ADD20C,2.866000*%
%ADD21O,2.866000X2.866000*%
%ADD22O,4.576000X1.676000*%
%ADD23O,3.876000X1.676000*%
%ADD24O,1.676000X4.076000*%
%ADD25RoundRect,0.038000X-1.500000X1.500000X-1.500000X-1.500000X1.500000X-1.500000X1.500000X1.500000X0*%
%ADD26C,3.076000*%
G04 APERTURE END LIST*
D10*
%TO.C,USBC1*%
X198187500Y-69270000D03*
X198187500Y-77930000D03*
X194007500Y-69270000D03*
X194007500Y-77930000D03*
D11*
X194507500Y-70700000D03*
X194507500Y-76500000D03*
%TD*%
D12*
%TO.C,J3*%
X153140000Y-131472500D03*
X155680000Y-131472500D03*
%TD*%
D13*
%TO.C,Q1*%
X139380000Y-109340000D03*
D14*
X139380000Y-111880000D03*
X139380000Y-114420000D03*
%TD*%
D15*
%TO.C,SW2*%
X182830000Y-99670000D03*
X176330000Y-99670000D03*
X182830000Y-95180000D03*
X176330000Y-95180000D03*
X179580000Y-93320000D03*
%TD*%
D16*
%TO.C,J4*%
X195280000Y-122700000D03*
X195280000Y-120200000D03*
X195280000Y-117700000D03*
%TD*%
D17*
%TO.C,R5*%
X175780000Y-122450000D03*
X175780000Y-111950000D03*
%TD*%
D18*
%TO.C,REF\u002A\u002A*%
X108800000Y-133000000D03*
%TD*%
D19*
%TO.C,Q3*%
X162980000Y-102400000D03*
D14*
X165520000Y-102400000D03*
X168060000Y-102400000D03*
%TD*%
D18*
%TO.C,REF\u002A\u002A*%
X108800000Y-65000000D03*
%TD*%
D20*
%TO.C,K2*%
X131380000Y-118800000D03*
D21*
X131380000Y-130800000D03*
D20*
X133380000Y-124800000D03*
X119180000Y-130800000D03*
X119180000Y-118800000D03*
%TD*%
D13*
%TO.C,Q2*%
X139380000Y-128840000D03*
D14*
X139380000Y-131380000D03*
X139380000Y-133920000D03*
%TD*%
D18*
%TO.C,REF\u002A\u002A*%
X196800000Y-64950000D03*
%TD*%
D19*
%TO.C,J7*%
X193180000Y-108450000D03*
D17*
X193180000Y-105910000D03*
X193180000Y-103370000D03*
X193180000Y-100830000D03*
X193180000Y-98290000D03*
X193180000Y-95750000D03*
%TD*%
D15*
%TO.C,SW1*%
X189930000Y-110970000D03*
X183430000Y-110970000D03*
X189930000Y-106480000D03*
X183430000Y-106480000D03*
X186680000Y-104620000D03*
%TD*%
D18*
%TO.C,REF\u002A\u002A*%
X196800000Y-133000000D03*
%TD*%
D22*
%TO.C,DC1*%
X153917500Y-71482500D03*
D23*
X153917500Y-65522500D03*
D24*
X149517500Y-68772500D03*
%TD*%
D12*
%TO.C,J5*%
X180460000Y-131550000D03*
X183000000Y-131550000D03*
%TD*%
%TO.C,J1*%
X109680000Y-99830000D03*
X109680000Y-102370000D03*
%TD*%
D20*
%TO.C,K3*%
X152480000Y-110400000D03*
D21*
X164480000Y-110400000D03*
D20*
X158480000Y-108400000D03*
X164480000Y-122600000D03*
X152480000Y-122600000D03*
%TD*%
D25*
%TO.C,D1*%
X127400000Y-85370000D03*
D26*
X127400000Y-70130000D03*
%TD*%
D20*
%TO.C,K1*%
X131380000Y-99300000D03*
D21*
X131380000Y-111300000D03*
D20*
X133380000Y-105300000D03*
X119180000Y-111300000D03*
X119180000Y-99300000D03*
%TD*%
D12*
%TO.C,J2*%
X109680000Y-119100000D03*
X109680000Y-121640000D03*
%TD*%
M02*
