%TF.GenerationSoftware,KiCad,Pcbnew,9.0.2*%
%TF.CreationDate,2025-06-26T22:55:18-07:00*%
%TF.ProjectId,rev0A,72657630-412e-46b6-9963-61645f706362,rev?*%
%TF.SameCoordinates,Original*%
%TF.FileFunction,Copper,L2,Bot*%
%TF.FilePolarity,Positive*%
%FSLAX46Y46*%
G04 Gerber Fmt 4.6, Leading zero omitted, Abs format (unit mm)*
G04 Created by KiCad (PCBNEW 9.0.2) date 2025-06-26 22:55:18*
%MOMM*%
%LPD*%
G01*
G04 APERTURE LIST*
%TA.AperFunction,ComponentPad*%
%ADD10O,2.108000X1.308000*%
%TD*%
%TA.AperFunction,ComponentPad*%
%ADD11C,0.750000*%
%TD*%
%TA.AperFunction,HeatsinkPad*%
%ADD12C,0.800000*%
%TD*%
%TA.AperFunction,ComponentPad*%
%ADD13C,1.700000*%
%TD*%
%TA.AperFunction,ComponentPad*%
%ADD14R,1.800000X1.800000*%
%TD*%
%TA.AperFunction,ComponentPad*%
%ADD15C,1.800000*%
%TD*%
%TA.AperFunction,ComponentPad*%
%ADD16C,2.000000*%
%TD*%
%TA.AperFunction,ComponentPad*%
%ADD17C,1.550000*%
%TD*%
%TA.AperFunction,ComponentPad*%
%ADD18C,1.600000*%
%TD*%
%TA.AperFunction,ComponentPad*%
%ADD19C,2.790000*%
%TD*%
%TA.AperFunction,ComponentPad*%
%ADD20O,2.790000X2.790000*%
%TD*%
%TA.AperFunction,ComponentPad*%
%ADD21O,4.500000X1.600000*%
%TD*%
%TA.AperFunction,ComponentPad*%
%ADD22O,3.800000X1.600000*%
%TD*%
%TA.AperFunction,ComponentPad*%
%ADD23O,1.600000X4.000000*%
%TD*%
%TA.AperFunction,ComponentPad*%
%ADD24R,3.000000X3.000000*%
%TD*%
%TA.AperFunction,ComponentPad*%
%ADD25C,3.000000*%
%TD*%
%TA.AperFunction,ViaPad*%
%ADD26C,0.900000*%
%TD*%
%TA.AperFunction,Conductor*%
%ADD27C,0.200000*%
%TD*%
%TA.AperFunction,Conductor*%
%ADD28C,0.600000*%
%TD*%
G04 APERTURE END LIST*
D10*
%TO.P,USBC1,S4,SHIELD*%
%TO.N,GND*%
X198187500Y-69270000D03*
%TO.P,USBC1,S3,SHIELD*%
X198187500Y-77930000D03*
%TO.P,USBC1,S2,SHIELD*%
X194007500Y-69270000D03*
%TO.P,USBC1,S1,SHIELD*%
X194007500Y-77930000D03*
D11*
%TO.P,USBC1,*%
%TO.N,*%
X194507500Y-70700000D03*
X194507500Y-76500000D03*
%TD*%
D12*
%TO.P,IC1,19,GND*%
%TO.N,GND*%
X176940000Y-67950000D03*
X176940000Y-69050000D03*
X177490000Y-67400000D03*
X177490000Y-68500000D03*
X177490000Y-69600000D03*
X178040000Y-67950000D03*
X178040000Y-69050000D03*
X178590000Y-67400000D03*
X178590000Y-68500000D03*
X178590000Y-69600000D03*
X179140000Y-67950000D03*
X179140000Y-69050000D03*
%TD*%
D13*
%TO.P,J3,1,Pin_1*%
%TO.N,Net-(J3-Pin_1)*%
X153140000Y-131472500D03*
%TO.P,J3,2,Pin_2*%
%TO.N,GND*%
X155680000Y-131472500D03*
%TD*%
D14*
%TO.P,Q1,1,C*%
%TO.N,Net-(D6-A)*%
X139380000Y-109340000D03*
D15*
%TO.P,Q1,2,B*%
%TO.N,Net-(Q1-B)*%
X139380000Y-111880000D03*
%TO.P,Q1,3,E*%
%TO.N,GND*%
X139380000Y-114420000D03*
%TD*%
D16*
%TO.P,SW2,1,1*%
%TO.N,GND*%
X182830000Y-99670000D03*
%TO.P,SW2,2,2*%
X176330000Y-99670000D03*
%TO.P,SW2,3,3*%
%TO.N,CHIP_PU*%
X182830000Y-95180000D03*
%TO.P,SW2,4,4*%
X176330000Y-95180000D03*
%TO.P,SW2,5*%
%TO.N,N/C*%
X179580000Y-93320000D03*
%TD*%
D17*
%TO.P,J4,1,Pin_1*%
%TO.N,+5V*%
X195280000Y-122700000D03*
%TO.P,J4,2,Pin_2*%
%TO.N,Net-(IC2-B1)*%
X195280000Y-120200000D03*
%TO.P,J4,3,Pin_3*%
%TO.N,GND*%
X195280000Y-117700000D03*
%TD*%
D18*
%TO.P,R5,1*%
%TO.N,Net-(J5-Pin_2)*%
X175780000Y-122450000D03*
%TO.P,R5,2*%
%TO.N,GND*%
X175780000Y-111950000D03*
%TD*%
D14*
%TO.P,Q3,1,C*%
%TO.N,Net-(D8-A)*%
X162980000Y-102400000D03*
D15*
%TO.P,Q3,2,B*%
%TO.N,Net-(Q3-B)*%
X165520000Y-102400000D03*
%TO.P,Q3,3,E*%
%TO.N,GND*%
X168060000Y-102400000D03*
%TD*%
D19*
%TO.P,K2,C1*%
%TO.N,+12V*%
X131380000Y-118800000D03*
D20*
%TO.P,K2,C2*%
%TO.N,Net-(D7-A)*%
X131380000Y-130800000D03*
D19*
%TO.P,K2,COM*%
%TO.N,+12V*%
X133380000Y-124800000D03*
%TO.P,K2,NC*%
%TO.N,unconnected-(K2-PadNC)*%
X119180000Y-130800000D03*
%TO.P,K2,NO*%
%TO.N,Net-(J2-Pin_1)*%
X119180000Y-118800000D03*
%TD*%
D14*
%TO.P,Q2,1,C*%
%TO.N,Net-(D7-A)*%
X139380000Y-128840000D03*
D15*
%TO.P,Q2,2,B*%
%TO.N,Net-(Q2-B)*%
X139380000Y-131380000D03*
%TO.P,Q2,3,E*%
%TO.N,GND*%
X139380000Y-133920000D03*
%TD*%
D14*
%TO.P,J7,1,Pin_1*%
%TO.N,GPIO9*%
X193180000Y-108450000D03*
D18*
%TO.P,J7,2,Pin_2*%
%TO.N,CHIP_PU*%
X193180000Y-105910000D03*
%TO.P,J7,3,Pin_3*%
%TO.N,+3.3V*%
X193180000Y-103370000D03*
%TO.P,J7,4,Pin_4*%
%TO.N,IO21*%
X193180000Y-100830000D03*
%TO.P,J7,5,Pin_5*%
%TO.N,Flow Sensor Enable*%
X193180000Y-98290000D03*
%TO.P,J7,6,Pin_6*%
%TO.N,GND*%
X193180000Y-95750000D03*
%TD*%
D16*
%TO.P,SW1,1,1*%
%TO.N,GND*%
X189930000Y-110970000D03*
%TO.P,SW1,2,2*%
X183430000Y-110970000D03*
%TO.P,SW1,3,3*%
%TO.N,GPIO9*%
X189930000Y-106480000D03*
%TO.P,SW1,4,4*%
X183430000Y-106480000D03*
%TO.P,SW1,5*%
%TO.N,N/C*%
X186680000Y-104620000D03*
%TD*%
D21*
%TO.P,DC1,1,1*%
%TO.N,+12V*%
X153917500Y-71482500D03*
D22*
%TO.P,DC1,2,2*%
%TO.N,GND*%
X153917500Y-65522500D03*
D23*
%TO.P,DC1,3,3*%
%TO.N,unconnected-(DC1-Pad3)*%
X149517500Y-68772500D03*
%TD*%
D13*
%TO.P,J5,1,Pin_1*%
%TO.N,+12V*%
X180460000Y-131550000D03*
%TO.P,J5,2,Pin_2*%
%TO.N,Net-(J5-Pin_2)*%
X183000000Y-131550000D03*
%TD*%
%TO.P,J1,1,Pin_1*%
%TO.N,Net-(J1-Pin_1)*%
X109680000Y-99830000D03*
%TO.P,J1,2,Pin_2*%
%TO.N,GND*%
X109680000Y-102370000D03*
%TD*%
D19*
%TO.P,K3,C1*%
%TO.N,+12V*%
X152480000Y-110400000D03*
D20*
%TO.P,K3,C2*%
%TO.N,Net-(D8-A)*%
X164480000Y-110400000D03*
D19*
%TO.P,K3,COM*%
%TO.N,+12V*%
X158480000Y-108400000D03*
%TO.P,K3,NC*%
%TO.N,unconnected-(K3-PadNC)*%
X164480000Y-122600000D03*
%TO.P,K3,NO*%
%TO.N,Net-(J3-Pin_1)*%
X152480000Y-122600000D03*
%TD*%
D24*
%TO.P,D1,1,K*%
%TO.N,Net-(D1-K)*%
X127400000Y-85370000D03*
D25*
%TO.P,D1,2,A*%
%TO.N,GND*%
X127400000Y-70130000D03*
%TD*%
D19*
%TO.P,K1,C1*%
%TO.N,+12V*%
X131380000Y-99300000D03*
D20*
%TO.P,K1,C2*%
%TO.N,Net-(D6-A)*%
X131380000Y-111300000D03*
D19*
%TO.P,K1,COM*%
%TO.N,+12V*%
X133380000Y-105300000D03*
%TO.P,K1,NC*%
%TO.N,unconnected-(K1-PadNC)*%
X119180000Y-111300000D03*
%TO.P,K1,NO*%
%TO.N,Net-(J1-Pin_1)*%
X119180000Y-99300000D03*
%TD*%
D13*
%TO.P,J2,1,Pin_1*%
%TO.N,Net-(J2-Pin_1)*%
X109680000Y-119100000D03*
%TO.P,J2,2,Pin_2*%
%TO.N,GND*%
X109680000Y-121640000D03*
%TD*%
D26*
%TO.N,GND*%
X184300000Y-82850000D03*
X118600000Y-79500000D03*
X163900000Y-75300000D03*
%TO.N,+3.3V*%
X167580000Y-85400000D03*
X176200000Y-91600000D03*
%TO.N,GND*%
X189200000Y-65800000D03*
X168000000Y-75900000D03*
X162000000Y-81300000D03*
X122000000Y-83800000D03*
X170477169Y-88622831D03*
X172700000Y-84000000D03*
X142900000Y-125500000D03*
X125600000Y-90800000D03*
X179165000Y-85400000D03*
X172000000Y-90750000D03*
X174250000Y-87450000D03*
X187300000Y-80300000D03*
X197100000Y-84700000D03*
X114000000Y-70100000D03*
X162750000Y-71550000D03*
X159500000Y-98900000D03*
X152430000Y-88900000D03*
X114000000Y-72900000D03*
X193100000Y-81000000D03*
X151700000Y-77000000D03*
X142900000Y-106100000D03*
X189600000Y-77850000D03*
X164600000Y-65600000D03*
%TO.N,+5V*%
X190280000Y-86600000D03*
X178080000Y-110000000D03*
X164100000Y-91500000D03*
X187200000Y-86600000D03*
X166930000Y-92700000D03*
X180780000Y-111400000D03*
%TO.N,+3.3V*%
X173246393Y-93700000D03*
X171230000Y-91683607D03*
X176080000Y-89500000D03*
X164050000Y-85400000D03*
%TO.N,CHIP_PU*%
X170444793Y-92594793D03*
X172400000Y-94550000D03*
%TO.N,GPIO9*%
X169550000Y-93400000D03*
X171500000Y-95300000D03*
%TO.N,Net-(IC1-IO8)*%
X164300000Y-72600000D03*
X166750000Y-72600000D03*
%TD*%
D27*
%TO.N,+5V*%
X187200000Y-86600000D02*
X190280000Y-86600000D01*
%TO.N,CHIP_PU*%
X170444793Y-92594793D02*
X172400000Y-94550000D01*
X170444793Y-92594793D02*
X170535455Y-92594793D01*
X170535455Y-92594793D02*
X170540662Y-92600000D01*
%TO.N,GPIO9*%
X169550000Y-93400000D02*
X169675495Y-93525495D01*
X169675495Y-93525495D02*
X169725495Y-93525495D01*
X169725495Y-93525495D02*
X171500000Y-95300000D01*
D28*
%TO.N,+3.3V*%
X173246393Y-93700000D02*
X171230000Y-91683607D01*
X164050000Y-85400000D02*
X167580000Y-85400000D01*
%TO.N,+5V*%
X164100000Y-91500000D02*
X165730000Y-91500000D01*
X165730000Y-91500000D02*
X166930000Y-92700000D01*
D27*
%TO.N,Net-(IC1-IO8)*%
X166750000Y-72600000D02*
X164300000Y-72600000D01*
D28*
%TO.N,+3.3V*%
X176200000Y-91600000D02*
X176080000Y-91480000D01*
X176080000Y-91480000D02*
X176080000Y-89500000D01*
%TO.N,+5V*%
X179380000Y-110000000D02*
X180780000Y-111400000D01*
X178080000Y-110000000D02*
X179380000Y-110000000D01*
%TD*%
%TA.AperFunction,Conductor*%
%TO.N,GND*%
G36*
X200022539Y-61720185D02*
G01*
X200068294Y-61772989D01*
X200079500Y-61824500D01*
X200079500Y-136175500D01*
X200059815Y-136242539D01*
X200007011Y-136288294D01*
X199955500Y-136299500D01*
X105604500Y-136299500D01*
X105537461Y-136279815D01*
X105491706Y-136227011D01*
X105480500Y-136175500D01*
X105480500Y-132881995D01*
X106999500Y-132881995D01*
X106999500Y-133118004D01*
X106999501Y-133118020D01*
X107030306Y-133352010D01*
X107091394Y-133579993D01*
X107181714Y-133798045D01*
X107181719Y-133798056D01*
X107252677Y-133920957D01*
X107299727Y-134002450D01*
X107299729Y-134002453D01*
X107299730Y-134002454D01*
X107443406Y-134189697D01*
X107443412Y-134189704D01*
X107610295Y-134356587D01*
X107610301Y-134356592D01*
X107797550Y-134500273D01*
X107928918Y-134576118D01*
X108001943Y-134618280D01*
X108001948Y-134618282D01*
X108001951Y-134618284D01*
X108220007Y-134708606D01*
X108447986Y-134769693D01*
X108681989Y-134800500D01*
X108681996Y-134800500D01*
X108918004Y-134800500D01*
X108918011Y-134800500D01*
X109152014Y-134769693D01*
X109379993Y-134708606D01*
X109598049Y-134618284D01*
X109802450Y-134500273D01*
X109989699Y-134356592D01*
X110156592Y-134189699D01*
X110300273Y-134002450D01*
X110418284Y-133798049D01*
X110508606Y-133579993D01*
X110569693Y-133352014D01*
X110600500Y-133118011D01*
X110600500Y-132881989D01*
X110569693Y-132647986D01*
X110508606Y-132420007D01*
X110418284Y-132201951D01*
X110418282Y-132201948D01*
X110418280Y-132201943D01*
X110341185Y-132068412D01*
X110300273Y-131997550D01*
X110156592Y-131810301D01*
X110156587Y-131810295D01*
X109989704Y-131643412D01*
X109989697Y-131643406D01*
X109802454Y-131499730D01*
X109802453Y-131499729D01*
X109802450Y-131499727D01*
X109705431Y-131443713D01*
X109598056Y-131381719D01*
X109598045Y-131381714D01*
X109379993Y-131291394D01*
X109299321Y-131269778D01*
X109152014Y-131230307D01*
X109152013Y-131230306D01*
X109152010Y-131230306D01*
X108918020Y-131199501D01*
X108918017Y-131199500D01*
X108918011Y-131199500D01*
X108681989Y-131199500D01*
X108681983Y-131199500D01*
X108681979Y-131199501D01*
X108447989Y-131230306D01*
X108220006Y-131291394D01*
X108001954Y-131381714D01*
X108001943Y-131381719D01*
X107797545Y-131499730D01*
X107610302Y-131643406D01*
X107610295Y-131643412D01*
X107443412Y-131810295D01*
X107443406Y-131810302D01*
X107299730Y-131997545D01*
X107181719Y-132201943D01*
X107181714Y-132201954D01*
X107091394Y-132420006D01*
X107030306Y-132647989D01*
X106999501Y-132881979D01*
X106999500Y-132881995D01*
X105480500Y-132881995D01*
X105480500Y-130675754D01*
X117284500Y-130675754D01*
X117284500Y-130924245D01*
X117301327Y-131052049D01*
X117316933Y-131170587D01*
X117381243Y-131410595D01*
X117381246Y-131410605D01*
X117476328Y-131640153D01*
X117476333Y-131640164D01*
X117600563Y-131855335D01*
X117600574Y-131855351D01*
X117751828Y-132052470D01*
X117751834Y-132052477D01*
X117927522Y-132228165D01*
X117927529Y-132228171D01*
X117966169Y-132257820D01*
X118124657Y-132379432D01*
X118124664Y-132379436D01*
X118339835Y-132503666D01*
X118339840Y-132503668D01*
X118339843Y-132503670D01*
X118484603Y-132563631D01*
X118524383Y-132580109D01*
X118569404Y-132598757D01*
X118809413Y-132663067D01*
X119055762Y-132695500D01*
X119055769Y-132695500D01*
X119304231Y-132695500D01*
X119304238Y-132695500D01*
X119550587Y-132663067D01*
X119790596Y-132598757D01*
X120020157Y-132503670D01*
X120235343Y-132379432D01*
X120432472Y-132228170D01*
X120608170Y-132052472D01*
X120759432Y-131855343D01*
X120883670Y-131640157D01*
X120978757Y-131410596D01*
X121043067Y-131170587D01*
X121075500Y-130924238D01*
X121075500Y-130675762D01*
X121075499Y-130675754D01*
X129484500Y-130675754D01*
X129484500Y-130924245D01*
X129501327Y-131052049D01*
X129516933Y-131170587D01*
X129581243Y-131410595D01*
X129581246Y-131410605D01*
X129676328Y-131640153D01*
X129676333Y-131640164D01*
X129800563Y-131855335D01*
X129800574Y-131855351D01*
X129951828Y-132052470D01*
X129951834Y-132052477D01*
X130127522Y-132228165D01*
X130127529Y-132228171D01*
X130166169Y-132257820D01*
X130324657Y-132379432D01*
X130324664Y-132379436D01*
X130539835Y-132503666D01*
X130539840Y-132503668D01*
X130539843Y-132503670D01*
X130684603Y-132563631D01*
X130724383Y-132580109D01*
X130769404Y-132598757D01*
X131009413Y-132663067D01*
X131255762Y-132695500D01*
X131255769Y-132695500D01*
X131504231Y-132695500D01*
X131504238Y-132695500D01*
X131750587Y-132663067D01*
X131990596Y-132598757D01*
X132220157Y-132503670D01*
X132435343Y-132379432D01*
X132632472Y-132228170D01*
X132808170Y-132052472D01*
X132959432Y-131855343D01*
X133083670Y-131640157D01*
X133178757Y-131410596D01*
X133243067Y-131170587D01*
X133275500Y-130924238D01*
X133275500Y-130675762D01*
X133243067Y-130429413D01*
X133178757Y-130189404D01*
X133083670Y-129959843D01*
X133083668Y-129959840D01*
X133083666Y-129959835D01*
X132959436Y-129744664D01*
X132959432Y-129744657D01*
X132808170Y-129547528D01*
X132808165Y-129547522D01*
X132632477Y-129371834D01*
X132632470Y-129371828D01*
X132435351Y-129220574D01*
X132435349Y-129220572D01*
X132435343Y-129220568D01*
X132435338Y-129220565D01*
X132435335Y-129220563D01*
X132220164Y-129096333D01*
X132220153Y-129096328D01*
X131990605Y-129001246D01*
X131990598Y-129001244D01*
X131990596Y-129001243D01*
X131750587Y-128936933D01*
X131695842Y-128929725D01*
X131504245Y-128904500D01*
X131504238Y-128904500D01*
X131255762Y-128904500D01*
X131255754Y-128904500D01*
X131036785Y-128933329D01*
X131009413Y-128936933D01*
X130769404Y-129001243D01*
X130769394Y-129001246D01*
X130539846Y-129096328D01*
X130539835Y-129096333D01*
X130324664Y-129220563D01*
X130324648Y-129220574D01*
X130127529Y-129371828D01*
X130127522Y-129371834D01*
X129951834Y-129547522D01*
X129951828Y-129547529D01*
X129800574Y-129744648D01*
X129800563Y-129744664D01*
X129676333Y-129959835D01*
X129676328Y-129959846D01*
X129581246Y-130189394D01*
X129581243Y-130189404D01*
X129548459Y-130311758D01*
X129516933Y-130429414D01*
X129484500Y-130675754D01*
X121075499Y-130675754D01*
X121043067Y-130429413D01*
X120978757Y-130189404D01*
X120883670Y-129959843D01*
X120883668Y-129959840D01*
X120883666Y-129959835D01*
X120759436Y-129744664D01*
X120759432Y-129744657D01*
X120608170Y-129547528D01*
X120608165Y-129547522D01*
X120432477Y-129371834D01*
X120432470Y-129371828D01*
X120235351Y-129220574D01*
X120235349Y-129220572D01*
X120235343Y-129220568D01*
X120235338Y-129220565D01*
X120235335Y-129220563D01*
X120020164Y-129096333D01*
X120020153Y-129096328D01*
X119790605Y-129001246D01*
X119790598Y-129001244D01*
X119790596Y-129001243D01*
X119550587Y-128936933D01*
X119495842Y-128929725D01*
X119304245Y-128904500D01*
X119304238Y-128904500D01*
X119055762Y-128904500D01*
X119055754Y-128904500D01*
X118836785Y-128933329D01*
X118809413Y-128936933D01*
X118569404Y-129001243D01*
X118569394Y-129001246D01*
X118339846Y-129096328D01*
X118339835Y-129096333D01*
X118124664Y-129220563D01*
X118124648Y-129220574D01*
X117927529Y-129371828D01*
X117927522Y-129371834D01*
X117751834Y-129547522D01*
X117751828Y-129547529D01*
X117600574Y-129744648D01*
X117600563Y-129744664D01*
X117476333Y-129959835D01*
X117476328Y-129959846D01*
X117381246Y-130189394D01*
X117381243Y-130189404D01*
X117348459Y-130311758D01*
X117316933Y-130429414D01*
X117284500Y-130675754D01*
X105480500Y-130675754D01*
X105480500Y-127892135D01*
X137979500Y-127892135D01*
X137979500Y-129787870D01*
X137979501Y-129787876D01*
X137985908Y-129847483D01*
X138036202Y-129982328D01*
X138036206Y-129982335D01*
X138122452Y-130097544D01*
X138122455Y-130097547D01*
X138237664Y-130183793D01*
X138237671Y-130183797D01*
X138317580Y-130213601D01*
X138373514Y-130255472D01*
X138397931Y-130320936D01*
X138383080Y-130389209D01*
X138361929Y-130417463D01*
X138311756Y-130467636D01*
X138311752Y-130467641D01*
X138182187Y-130645974D01*
X138082104Y-130842393D01*
X138082103Y-130842396D01*
X138013985Y-131052047D01*
X137995211Y-131170585D01*
X137979500Y-131269778D01*
X137979500Y-131490222D01*
X137981006Y-131499730D01*
X138013985Y-131707952D01*
X138082103Y-131917603D01*
X138082104Y-131917606D01*
X138182187Y-132114025D01*
X138311752Y-132292358D01*
X138311756Y-132292363D01*
X138467636Y-132448243D01*
X138467641Y-132448247D01*
X138623192Y-132561260D01*
X138645978Y-132577815D01*
X138774375Y-132643237D01*
X138842393Y-132677895D01*
X138842396Y-132677896D01*
X138925973Y-132705051D01*
X139052049Y-132746015D01*
X139269778Y-132780500D01*
X139269779Y-132780500D01*
X139490221Y-132780500D01*
X139490222Y-132780500D01*
X139707951Y-132746015D01*
X139917606Y-132677895D01*
X140114022Y-132577815D01*
X140292365Y-132448242D01*
X140448242Y-132292365D01*
X140577815Y-132114022D01*
X140677895Y-131917606D01*
X140746015Y-131707951D01*
X140780500Y-131490222D01*
X140780500Y-131366213D01*
X151789500Y-131366213D01*
X151789500Y-131578787D01*
X151822754Y-131788743D01*
X151864624Y-131917606D01*
X151888444Y-131990914D01*
X151984951Y-132180320D01*
X152109890Y-132352286D01*
X152260213Y-132502609D01*
X152432179Y-132627548D01*
X152432181Y-132627549D01*
X152432184Y-132627551D01*
X152621588Y-132724057D01*
X152823757Y-132789746D01*
X153033713Y-132823000D01*
X153033714Y-132823000D01*
X153246286Y-132823000D01*
X153246287Y-132823000D01*
X153456243Y-132789746D01*
X153658412Y-132724057D01*
X153847816Y-132627551D01*
X153916272Y-132577815D01*
X154019786Y-132502609D01*
X154019788Y-132502606D01*
X154019792Y-132502604D01*
X154170104Y-132352292D01*
X154170106Y-132352288D01*
X154170109Y-132352286D01*
X154295048Y-132180320D01*
X154295047Y-132180320D01*
X154295051Y-132180316D01*
X154391557Y-131990912D01*
X154457246Y-131788743D01*
X154490500Y-131578787D01*
X154490500Y-131443713D01*
X179109500Y-131443713D01*
X179109500Y-131656286D01*
X179141027Y-131855343D01*
X179142754Y-131866243D01*
X179203265Y-132052477D01*
X179208444Y-132068414D01*
X179304951Y-132257820D01*
X179429890Y-132429786D01*
X179580213Y-132580109D01*
X179752179Y-132705048D01*
X179752181Y-132705049D01*
X179752184Y-132705051D01*
X179941588Y-132801557D01*
X180143757Y-132867246D01*
X180353713Y-132900500D01*
X180353714Y-132900500D01*
X180566286Y-132900500D01*
X180566287Y-132900500D01*
X180776243Y-132867246D01*
X180978412Y-132801557D01*
X181167816Y-132705051D01*
X181205193Y-132677895D01*
X181339786Y-132580109D01*
X181339788Y-132580106D01*
X181339792Y-132580104D01*
X181490104Y-132429792D01*
X181490106Y-132429788D01*
X181490109Y-132429786D01*
X181615048Y-132257820D01*
X181615047Y-132257820D01*
X181615051Y-132257816D01*
X181619514Y-132249054D01*
X181667488Y-132198259D01*
X181735308Y-132181463D01*
X181801444Y-132203999D01*
X181840486Y-132249056D01*
X181844951Y-132257820D01*
X181969890Y-132429786D01*
X182120213Y-132580109D01*
X182292179Y-132705048D01*
X182292181Y-132705049D01*
X182292184Y-132705051D01*
X182481588Y-132801557D01*
X182683757Y-132867246D01*
X182893713Y-132900500D01*
X182893714Y-132900500D01*
X183106286Y-132900500D01*
X183106287Y-132900500D01*
X183223122Y-132881995D01*
X194999500Y-132881995D01*
X194999500Y-133118004D01*
X194999501Y-133118020D01*
X195030306Y-133352010D01*
X195091394Y-133579993D01*
X195181714Y-133798045D01*
X195181719Y-133798056D01*
X195252677Y-133920957D01*
X195299727Y-134002450D01*
X195299729Y-134002453D01*
X195299730Y-134002454D01*
X195443406Y-134189697D01*
X195443412Y-134189704D01*
X195610295Y-134356587D01*
X195610301Y-134356592D01*
X195797550Y-134500273D01*
X195928918Y-134576118D01*
X196001943Y-134618280D01*
X196001948Y-134618282D01*
X196001951Y-134618284D01*
X196220007Y-134708606D01*
X196447986Y-134769693D01*
X196681989Y-134800500D01*
X196681996Y-134800500D01*
X196918004Y-134800500D01*
X196918011Y-134800500D01*
X197152014Y-134769693D01*
X197379993Y-134708606D01*
X197598049Y-134618284D01*
X197802450Y-134500273D01*
X197989699Y-134356592D01*
X198156592Y-134189699D01*
X198300273Y-134002450D01*
X198418284Y-133798049D01*
X198508606Y-133579993D01*
X198569693Y-133352014D01*
X198600500Y-133118011D01*
X198600500Y-132881989D01*
X198569693Y-132647986D01*
X198508606Y-132420007D01*
X198418284Y-132201951D01*
X198418282Y-132201948D01*
X198418280Y-132201943D01*
X198341185Y-132068412D01*
X198300273Y-131997550D01*
X198156592Y-131810301D01*
X198156587Y-131810295D01*
X197989704Y-131643412D01*
X197989697Y-131643406D01*
X197802454Y-131499730D01*
X197802453Y-131499729D01*
X197802450Y-131499727D01*
X197705431Y-131443713D01*
X197598056Y-131381719D01*
X197598045Y-131381714D01*
X197379993Y-131291394D01*
X197299321Y-131269778D01*
X197152014Y-131230307D01*
X197152013Y-131230306D01*
X197152010Y-131230306D01*
X196918020Y-131199501D01*
X196918017Y-131199500D01*
X196918011Y-131199500D01*
X196681989Y-131199500D01*
X196681983Y-131199500D01*
X196681979Y-131199501D01*
X196447989Y-131230306D01*
X196220006Y-131291394D01*
X196001954Y-131381714D01*
X196001943Y-131381719D01*
X195797545Y-131499730D01*
X195610302Y-131643406D01*
X195610295Y-131643412D01*
X195443412Y-131810295D01*
X195443406Y-131810302D01*
X195299730Y-131997545D01*
X195181719Y-132201943D01*
X195181714Y-132201954D01*
X195091394Y-132420006D01*
X195030306Y-132647989D01*
X194999501Y-132881979D01*
X194999500Y-132881995D01*
X183223122Y-132881995D01*
X183316243Y-132867246D01*
X183518412Y-132801557D01*
X183707816Y-132705051D01*
X183814486Y-132627551D01*
X183879786Y-132580109D01*
X183879788Y-132580106D01*
X183879792Y-132580104D01*
X184030104Y-132429792D01*
X184030106Y-132429788D01*
X184030109Y-132429786D01*
X184155048Y-132257820D01*
X184155047Y-132257820D01*
X184155051Y-132257816D01*
X184251557Y-132068412D01*
X184317246Y-131866243D01*
X184350500Y-131656287D01*
X184350500Y-131443713D01*
X184317246Y-131233757D01*
X184251557Y-131031588D01*
X184155051Y-130842184D01*
X184155049Y-130842181D01*
X184155048Y-130842179D01*
X184030109Y-130670213D01*
X183879786Y-130519890D01*
X183707820Y-130394951D01*
X183518414Y-130298444D01*
X183518413Y-130298443D01*
X183518412Y-130298443D01*
X183316243Y-130232754D01*
X183316241Y-130232753D01*
X183316240Y-130232753D01*
X183154957Y-130207208D01*
X183106287Y-130199500D01*
X182893713Y-130199500D01*
X182845042Y-130207208D01*
X182683760Y-130232753D01*
X182481585Y-130298444D01*
X182292179Y-130394951D01*
X182120213Y-130519890D01*
X181969890Y-130670213D01*
X181844949Y-130842182D01*
X181840484Y-130850946D01*
X181792509Y-130901742D01*
X181724688Y-130918536D01*
X181658553Y-130895998D01*
X181619516Y-130850946D01*
X181615050Y-130842182D01*
X181490109Y-130670213D01*
X181339786Y-130519890D01*
X181167820Y-130394951D01*
X180978414Y-130298444D01*
X180978413Y-130298443D01*
X180978412Y-130298443D01*
X180776243Y-130232754D01*
X180776241Y-130232753D01*
X180776240Y-130232753D01*
X180614957Y-130207208D01*
X180566287Y-130199500D01*
X180353713Y-130199500D01*
X180305042Y-130207208D01*
X180143760Y-130232753D01*
X179941585Y-130298444D01*
X179752179Y-130394951D01*
X179580213Y-130519890D01*
X179429890Y-130670213D01*
X179304951Y-130842179D01*
X179208444Y-131031585D01*
X179142753Y-131233760D01*
X179109500Y-131443713D01*
X154490500Y-131443713D01*
X154490500Y-131366213D01*
X154457246Y-131156257D01*
X154391557Y-130954088D01*
X154295051Y-130764684D01*
X154295049Y-130764681D01*
X154295048Y-130764679D01*
X154170109Y-130592713D01*
X154019786Y-130442390D01*
X153847820Y-130317451D01*
X153658414Y-130220944D01*
X153658413Y-130220943D01*
X153658412Y-130220943D01*
X153456243Y-130155254D01*
X153456241Y-130155253D01*
X153456240Y-130155253D01*
X153294957Y-130129708D01*
X153246287Y-130122000D01*
X153033713Y-130122000D01*
X152985042Y-130129708D01*
X152823760Y-130155253D01*
X152621585Y-130220944D01*
X152432179Y-130317451D01*
X152260213Y-130442390D01*
X152109890Y-130592713D01*
X151984951Y-130764679D01*
X151888444Y-130954085D01*
X151822753Y-131156260D01*
X151804774Y-131269778D01*
X151789500Y-131366213D01*
X140780500Y-131366213D01*
X140780500Y-131269778D01*
X140746015Y-131052049D01*
X140677895Y-130842394D01*
X140677895Y-130842393D01*
X140638297Y-130764679D01*
X140577815Y-130645978D01*
X140486212Y-130519896D01*
X140448247Y-130467641D01*
X140448243Y-130467636D01*
X140398071Y-130417464D01*
X140364586Y-130356141D01*
X140369570Y-130286449D01*
X140411442Y-130230516D01*
X140442420Y-130213601D01*
X140522326Y-130183798D01*
X140522326Y-130183797D01*
X140522331Y-130183796D01*
X140637546Y-130097546D01*
X140723796Y-129982331D01*
X140774091Y-129847483D01*
X140780500Y-129787873D01*
X140780499Y-127892128D01*
X140774091Y-127832517D01*
X140723796Y-127697669D01*
X140723795Y-127697668D01*
X140723793Y-127697664D01*
X140637547Y-127582455D01*
X140637544Y-127582452D01*
X140522335Y-127496206D01*
X140522328Y-127496202D01*
X140387482Y-127445908D01*
X140387483Y-127445908D01*
X140327883Y-127439501D01*
X140327881Y-127439500D01*
X140327873Y-127439500D01*
X140327864Y-127439500D01*
X138432129Y-127439500D01*
X138432123Y-127439501D01*
X138372516Y-127445908D01*
X138237671Y-127496202D01*
X138237664Y-127496206D01*
X138122455Y-127582452D01*
X138122452Y-127582455D01*
X138036206Y-127697664D01*
X138036202Y-127697671D01*
X137985908Y-127832517D01*
X137979501Y-127892116D01*
X137979501Y-127892123D01*
X137979500Y-127892135D01*
X105480500Y-127892135D01*
X105480500Y-124675754D01*
X131484500Y-124675754D01*
X131484500Y-124924245D01*
X131509725Y-125115842D01*
X131516933Y-125170587D01*
X131581243Y-125410595D01*
X131581246Y-125410605D01*
X131676328Y-125640153D01*
X131676333Y-125640164D01*
X131800563Y-125855335D01*
X131800574Y-125855351D01*
X131951828Y-126052470D01*
X131951834Y-126052477D01*
X132127522Y-126228165D01*
X132127528Y-126228170D01*
X132324657Y-126379432D01*
X132324664Y-126379436D01*
X132539835Y-126503666D01*
X132539840Y-126503668D01*
X132539843Y-126503670D01*
X132769404Y-126598757D01*
X133009413Y-126663067D01*
X133255762Y-126695500D01*
X133255769Y-126695500D01*
X133504231Y-126695500D01*
X133504238Y-126695500D01*
X133750587Y-126663067D01*
X133990596Y-126598757D01*
X134220157Y-126503670D01*
X134435343Y-126379432D01*
X134632472Y-126228170D01*
X134808170Y-126052472D01*
X134959432Y-125855343D01*
X135083670Y-125640157D01*
X135178757Y-125410596D01*
X135243067Y-125170587D01*
X135275500Y-124924238D01*
X135275500Y-124675762D01*
X135243067Y-124429413D01*
X135178757Y-124189404D01*
X135174626Y-124179432D01*
X135083671Y-123959846D01*
X135083666Y-123959835D01*
X134959436Y-123744664D01*
X134959432Y-123744657D01*
X134808170Y-123547528D01*
X134808165Y-123547522D01*
X134632477Y-123371834D01*
X134632470Y-123371828D01*
X134435351Y-123220574D01*
X134435349Y-123220572D01*
X134435343Y-123220568D01*
X134435338Y-123220565D01*
X134435335Y-123220563D01*
X134220164Y-123096333D01*
X134220153Y-123096328D01*
X133990605Y-123001246D01*
X133990598Y-123001244D01*
X133990596Y-123001243D01*
X133750587Y-122936933D01*
X133695842Y-122929725D01*
X133504245Y-122904500D01*
X133504238Y-122904500D01*
X133255762Y-122904500D01*
X133255754Y-122904500D01*
X133036785Y-122933329D01*
X133009413Y-122936933D01*
X132778969Y-122998680D01*
X132769404Y-123001243D01*
X132769394Y-123001246D01*
X132539846Y-123096328D01*
X132539835Y-123096333D01*
X132324664Y-123220563D01*
X132324648Y-123220574D01*
X132127529Y-123371828D01*
X132127522Y-123371834D01*
X131951834Y-123547522D01*
X131951828Y-123547529D01*
X131800574Y-123744648D01*
X131800563Y-123744664D01*
X131676333Y-123959835D01*
X131676328Y-123959846D01*
X131581246Y-124189394D01*
X131581243Y-124189404D01*
X131525148Y-124398756D01*
X131516933Y-124429414D01*
X131484500Y-124675754D01*
X105480500Y-124675754D01*
X105480500Y-122475754D01*
X150584500Y-122475754D01*
X150584500Y-122724245D01*
X150608232Y-122904500D01*
X150616933Y-122970587D01*
X150660079Y-123131610D01*
X150681243Y-123210595D01*
X150681246Y-123210605D01*
X150776328Y-123440153D01*
X150776333Y-123440164D01*
X150900563Y-123655335D01*
X150900574Y-123655351D01*
X151051828Y-123852470D01*
X151051834Y-123852477D01*
X151227522Y-124028165D01*
X151227528Y-124028170D01*
X151424657Y-124179432D01*
X151424664Y-124179436D01*
X151639835Y-124303666D01*
X151639840Y-124303668D01*
X151639843Y-124303670D01*
X151869404Y-124398757D01*
X152109413Y-124463067D01*
X152355762Y-124495500D01*
X152355769Y-124495500D01*
X152604231Y-124495500D01*
X152604238Y-124495500D01*
X152850587Y-124463067D01*
X153090596Y-124398757D01*
X153320157Y-124303670D01*
X153535343Y-124179432D01*
X153732472Y-124028170D01*
X153908170Y-123852472D01*
X154059432Y-123655343D01*
X154183670Y-123440157D01*
X154278757Y-123210596D01*
X154343067Y-122970587D01*
X154375500Y-122724238D01*
X154375500Y-122475762D01*
X154375499Y-122475754D01*
X162584500Y-122475754D01*
X162584500Y-122724245D01*
X162608232Y-122904500D01*
X162616933Y-122970587D01*
X162660079Y-123131610D01*
X162681243Y-123210595D01*
X162681246Y-123210605D01*
X162776328Y-123440153D01*
X162776333Y-123440164D01*
X162900563Y-123655335D01*
X162900574Y-123655351D01*
X163051828Y-123852470D01*
X163051834Y-123852477D01*
X163227522Y-124028165D01*
X163227528Y-124028170D01*
X163424657Y-124179432D01*
X163424664Y-124179436D01*
X163639835Y-124303666D01*
X163639840Y-124303668D01*
X163639843Y-124303670D01*
X163869404Y-124398757D01*
X164109413Y-124463067D01*
X164355762Y-124495500D01*
X164355769Y-124495500D01*
X164604231Y-124495500D01*
X164604238Y-124495500D01*
X164850587Y-124463067D01*
X165090596Y-124398757D01*
X165320157Y-124303670D01*
X165535343Y-124179432D01*
X165732472Y-124028170D01*
X165908170Y-123852472D01*
X166059432Y-123655343D01*
X166183670Y-123440157D01*
X166278757Y-123210596D01*
X166343067Y-122970587D01*
X166375500Y-122724238D01*
X166375500Y-122475762D01*
X166358633Y-122347648D01*
X174479500Y-122347648D01*
X174479500Y-122552351D01*
X174511522Y-122754534D01*
X174574781Y-122949223D01*
X174601289Y-123001246D01*
X174649738Y-123096333D01*
X174667715Y-123131613D01*
X174788028Y-123297213D01*
X174932786Y-123441971D01*
X175078076Y-123547528D01*
X175098390Y-123562287D01*
X175214607Y-123621503D01*
X175280776Y-123655218D01*
X175280778Y-123655218D01*
X175280781Y-123655220D01*
X175385137Y-123689127D01*
X175475465Y-123718477D01*
X175576557Y-123734488D01*
X175677648Y-123750500D01*
X175677649Y-123750500D01*
X175882351Y-123750500D01*
X175882352Y-123750500D01*
X176084534Y-123718477D01*
X176279219Y-123655220D01*
X176461610Y-123562287D01*
X176554590Y-123494732D01*
X176627213Y-123441971D01*
X176627215Y-123441968D01*
X176627219Y-123441966D01*
X176771966Y-123297219D01*
X176771968Y-123297215D01*
X176771971Y-123297213D01*
X176834901Y-123210596D01*
X176892287Y-123131610D01*
X176985220Y-122949219D01*
X177048477Y-122754534D01*
X177080500Y-122552352D01*
X177080500Y-122347648D01*
X177058758Y-122210378D01*
X177048477Y-122145465D01*
X176985218Y-121950776D01*
X176943584Y-121869066D01*
X176892287Y-121768390D01*
X176862292Y-121727105D01*
X176771971Y-121602786D01*
X176627213Y-121458028D01*
X176461613Y-121337715D01*
X176461612Y-121337714D01*
X176461610Y-121337713D01*
X176404653Y-121308691D01*
X176279223Y-121244781D01*
X176084534Y-121181522D01*
X175909995Y-121153878D01*
X175882352Y-121149500D01*
X175677648Y-121149500D01*
X175653329Y-121153351D01*
X175475465Y-121181522D01*
X175280776Y-121244781D01*
X175098386Y-121337715D01*
X174932786Y-121458028D01*
X174788028Y-121602786D01*
X174667715Y-121768386D01*
X174574781Y-121950776D01*
X174511522Y-122145465D01*
X174479500Y-122347648D01*
X166358633Y-122347648D01*
X166343067Y-122229413D01*
X166278757Y-121989404D01*
X166183670Y-121759843D01*
X166183668Y-121759840D01*
X166183666Y-121759835D01*
X166059436Y-121544664D01*
X166059432Y-121544657D01*
X165908170Y-121347528D01*
X165908165Y-121347522D01*
X165732477Y-121171834D01*
X165732470Y-121171828D01*
X165535351Y-121020574D01*
X165535349Y-121020572D01*
X165535343Y-121020568D01*
X165535338Y-121020565D01*
X165535335Y-121020563D01*
X165320164Y-120896333D01*
X165320153Y-120896328D01*
X165090605Y-120801246D01*
X165090598Y-120801244D01*
X165090596Y-120801243D01*
X164850587Y-120736933D01*
X164795842Y-120729725D01*
X164604245Y-120704500D01*
X164604238Y-120704500D01*
X164355762Y-120704500D01*
X164355754Y-120704500D01*
X164136785Y-120733329D01*
X164109413Y-120736933D01*
X163869404Y-120801243D01*
X163869394Y-120801246D01*
X163639846Y-120896328D01*
X163639835Y-120896333D01*
X163424664Y-121020563D01*
X163424648Y-121020574D01*
X163227529Y-121171828D01*
X163227522Y-121171834D01*
X163051834Y-121347522D01*
X163051828Y-121347529D01*
X162900574Y-121544648D01*
X162900563Y-121544664D01*
X162776333Y-121759835D01*
X162776328Y-121759846D01*
X162681246Y-121989394D01*
X162681243Y-121989404D01*
X162622034Y-122210378D01*
X162616933Y-122229414D01*
X162584500Y-122475754D01*
X154375499Y-122475754D01*
X154343067Y-122229413D01*
X154278757Y-121989404D01*
X154183670Y-121759843D01*
X154183668Y-121759840D01*
X154183666Y-121759835D01*
X154059436Y-121544664D01*
X154059432Y-121544657D01*
X153908170Y-121347528D01*
X153908165Y-121347522D01*
X153732477Y-121171834D01*
X153732470Y-121171828D01*
X153535351Y-121020574D01*
X153535349Y-121020572D01*
X153535343Y-121020568D01*
X153535338Y-121020565D01*
X153535335Y-121020563D01*
X153320164Y-120896333D01*
X153320153Y-120896328D01*
X153090605Y-120801246D01*
X153090598Y-120801244D01*
X153090596Y-120801243D01*
X152850587Y-120736933D01*
X152795842Y-120729725D01*
X152604245Y-120704500D01*
X152604238Y-120704500D01*
X152355762Y-120704500D01*
X152355754Y-120704500D01*
X152136785Y-120733329D01*
X152109413Y-120736933D01*
X151869404Y-120801243D01*
X151869394Y-120801246D01*
X151639846Y-120896328D01*
X151639835Y-120896333D01*
X151424664Y-121020563D01*
X151424648Y-121020574D01*
X151227529Y-121171828D01*
X151227522Y-121171834D01*
X151051834Y-121347522D01*
X151051828Y-121347529D01*
X150900574Y-121544648D01*
X150900563Y-121544664D01*
X150776333Y-121759835D01*
X150776328Y-121759846D01*
X150681246Y-121989394D01*
X150681243Y-121989404D01*
X150622034Y-122210378D01*
X150616933Y-122229414D01*
X150584500Y-122475754D01*
X105480500Y-122475754D01*
X105480500Y-118993713D01*
X108329500Y-118993713D01*
X108329500Y-119206286D01*
X108362753Y-119416239D01*
X108428444Y-119618414D01*
X108524951Y-119807820D01*
X108649890Y-119979786D01*
X108800213Y-120130109D01*
X108972179Y-120255048D01*
X108972181Y-120255049D01*
X108972184Y-120255051D01*
X109161588Y-120351557D01*
X109363757Y-120417246D01*
X109573713Y-120450500D01*
X109573714Y-120450500D01*
X109786286Y-120450500D01*
X109786287Y-120450500D01*
X109996243Y-120417246D01*
X110198412Y-120351557D01*
X110387816Y-120255051D01*
X110424822Y-120228165D01*
X110559786Y-120130109D01*
X110559788Y-120130106D01*
X110559792Y-120130104D01*
X110710104Y-119979792D01*
X110710106Y-119979788D01*
X110710109Y-119979786D01*
X110835048Y-119807820D01*
X110835047Y-119807820D01*
X110835051Y-119807816D01*
X110931557Y-119618412D01*
X110997246Y-119416243D01*
X111030500Y-119206287D01*
X111030500Y-118993713D01*
X110997246Y-118783757D01*
X110962154Y-118675754D01*
X117284500Y-118675754D01*
X117284500Y-118924245D01*
X117296837Y-119017948D01*
X117316933Y-119170587D01*
X117332077Y-119227105D01*
X117381243Y-119410595D01*
X117381246Y-119410605D01*
X117476328Y-119640153D01*
X117476333Y-119640164D01*
X117600563Y-119855335D01*
X117600574Y-119855351D01*
X117751828Y-120052470D01*
X117751834Y-120052477D01*
X117927522Y-120228165D01*
X117927528Y-120228170D01*
X118124657Y-120379432D01*
X118124664Y-120379436D01*
X118339835Y-120503666D01*
X118339840Y-120503668D01*
X118339843Y-120503670D01*
X118569404Y-120598757D01*
X118809413Y-120663067D01*
X119055762Y-120695500D01*
X119055769Y-120695500D01*
X119304231Y-120695500D01*
X119304238Y-120695500D01*
X119550587Y-120663067D01*
X119790596Y-120598757D01*
X120020157Y-120503670D01*
X120235343Y-120379432D01*
X120432472Y-120228170D01*
X120608170Y-120052472D01*
X120759432Y-119855343D01*
X120883670Y-119640157D01*
X120978757Y-119410596D01*
X121043067Y-119170587D01*
X121075500Y-118924238D01*
X121075500Y-118675762D01*
X121075499Y-118675754D01*
X129484500Y-118675754D01*
X129484500Y-118924245D01*
X129496837Y-119017948D01*
X129516933Y-119170587D01*
X129532077Y-119227105D01*
X129581243Y-119410595D01*
X129581246Y-119410605D01*
X129676328Y-119640153D01*
X129676333Y-119640164D01*
X129800563Y-119855335D01*
X129800574Y-119855351D01*
X129951828Y-120052470D01*
X129951834Y-120052477D01*
X130127522Y-120228165D01*
X130127528Y-120228170D01*
X130324657Y-120379432D01*
X130324664Y-120379436D01*
X130539835Y-120503666D01*
X130539840Y-120503668D01*
X130539843Y-120503670D01*
X130769404Y-120598757D01*
X131009413Y-120663067D01*
X131255762Y-120695500D01*
X131255769Y-120695500D01*
X131504231Y-120695500D01*
X131504238Y-120695500D01*
X131750587Y-120663067D01*
X131990596Y-120598757D01*
X132220157Y-120503670D01*
X132435343Y-120379432D01*
X132632472Y-120228170D01*
X132761026Y-120099616D01*
X194004500Y-120099616D01*
X194004500Y-120300383D01*
X194035907Y-120498680D01*
X194097949Y-120689626D01*
X194154823Y-120801246D01*
X194189095Y-120868508D01*
X194307103Y-121030932D01*
X194449068Y-121172897D01*
X194611492Y-121290905D01*
X194675827Y-121323685D01*
X194706894Y-121339515D01*
X194757690Y-121387490D01*
X194774485Y-121455311D01*
X194751947Y-121521446D01*
X194706894Y-121560485D01*
X194611491Y-121609095D01*
X194518822Y-121676423D01*
X194449068Y-121727103D01*
X194449066Y-121727105D01*
X194449065Y-121727105D01*
X194307105Y-121869065D01*
X194307105Y-121869066D01*
X194307103Y-121869068D01*
X194256423Y-121938822D01*
X194189095Y-122031491D01*
X194097949Y-122210373D01*
X194035907Y-122401319D01*
X194004500Y-122599616D01*
X194004500Y-122800383D01*
X194035907Y-122998680D01*
X194097949Y-123189626D01*
X194152768Y-123297213D01*
X194189095Y-123368508D01*
X194307103Y-123530932D01*
X194449068Y-123672897D01*
X194611492Y-123790905D01*
X194696007Y-123833967D01*
X194790373Y-123882050D01*
X194790375Y-123882050D01*
X194790378Y-123882052D01*
X194981320Y-123944093D01*
X195179616Y-123975500D01*
X195179617Y-123975500D01*
X195380383Y-123975500D01*
X195380384Y-123975500D01*
X195578680Y-123944093D01*
X195769622Y-123882052D01*
X195948508Y-123790905D01*
X196110932Y-123672897D01*
X196252897Y-123530932D01*
X196370905Y-123368508D01*
X196462052Y-123189622D01*
X196524093Y-122998680D01*
X196555500Y-122800384D01*
X196555500Y-122599616D01*
X196524093Y-122401320D01*
X196462052Y-122210378D01*
X196462050Y-122210375D01*
X196462050Y-122210373D01*
X196370904Y-122031491D01*
X196340326Y-121989404D01*
X196252897Y-121869068D01*
X196110932Y-121727103D01*
X195948508Y-121609095D01*
X195853104Y-121560484D01*
X195802309Y-121512511D01*
X195785514Y-121444690D01*
X195808051Y-121378555D01*
X195853104Y-121339515D01*
X195948508Y-121290905D01*
X196110932Y-121172897D01*
X196252897Y-121030932D01*
X196370905Y-120868508D01*
X196462052Y-120689622D01*
X196524093Y-120498680D01*
X196555500Y-120300384D01*
X196555500Y-120099616D01*
X196524093Y-119901320D01*
X196462052Y-119710378D01*
X196462050Y-119710375D01*
X196462050Y-119710373D01*
X196370904Y-119531491D01*
X196252897Y-119369068D01*
X196110932Y-119227103D01*
X195948508Y-119109095D01*
X195769626Y-119017949D01*
X195578680Y-118955907D01*
X195380384Y-118924500D01*
X195179616Y-118924500D01*
X195080468Y-118940203D01*
X194981319Y-118955907D01*
X194790373Y-119017949D01*
X194611491Y-119109095D01*
X194518822Y-119176423D01*
X194449068Y-119227103D01*
X194449066Y-119227105D01*
X194449065Y-119227105D01*
X194307105Y-119369065D01*
X194307105Y-119369066D01*
X194307103Y-119369068D01*
X194256423Y-119438822D01*
X194189095Y-119531491D01*
X194097949Y-119710373D01*
X194035907Y-119901319D01*
X194004500Y-120099616D01*
X132761026Y-120099616D01*
X132808170Y-120052472D01*
X132959432Y-119855343D01*
X133083670Y-119640157D01*
X133178757Y-119410596D01*
X133243067Y-119170587D01*
X133275500Y-118924238D01*
X133275500Y-118675762D01*
X133243067Y-118429413D01*
X133178757Y-118189404D01*
X133083670Y-117959843D01*
X133083668Y-117959840D01*
X133083666Y-117959835D01*
X132959436Y-117744664D01*
X132959432Y-117744657D01*
X132808170Y-117547528D01*
X132808165Y-117547522D01*
X132632477Y-117371834D01*
X132632470Y-117371828D01*
X132435351Y-117220574D01*
X132435349Y-117220572D01*
X132435343Y-117220568D01*
X132435338Y-117220565D01*
X132435335Y-117220563D01*
X132220164Y-117096333D01*
X132220153Y-117096328D01*
X131990605Y-117001246D01*
X131990598Y-117001244D01*
X131990596Y-117001243D01*
X131750587Y-116936933D01*
X131695842Y-116929725D01*
X131504245Y-116904500D01*
X131504238Y-116904500D01*
X131255762Y-116904500D01*
X131255754Y-116904500D01*
X131036785Y-116933329D01*
X131009413Y-116936933D01*
X130769404Y-117001243D01*
X130769394Y-117001246D01*
X130539846Y-117096328D01*
X130539835Y-117096333D01*
X130324664Y-117220563D01*
X130324648Y-117220574D01*
X130127529Y-117371828D01*
X130127522Y-117371834D01*
X129951834Y-117547522D01*
X129951828Y-117547529D01*
X129800574Y-117744648D01*
X129800563Y-117744664D01*
X129676333Y-117959835D01*
X129676328Y-117959846D01*
X129581246Y-118189394D01*
X129581243Y-118189404D01*
X129526909Y-118392184D01*
X129516933Y-118429414D01*
X129484500Y-118675754D01*
X121075499Y-118675754D01*
X121043067Y-118429413D01*
X120978757Y-118189404D01*
X120883670Y-117959843D01*
X120883668Y-117959840D01*
X120883666Y-117959835D01*
X120759436Y-117744664D01*
X120759432Y-117744657D01*
X120608170Y-117547528D01*
X120608165Y-117547522D01*
X120432477Y-117371834D01*
X120432470Y-117371828D01*
X120235351Y-117220574D01*
X120235349Y-117220572D01*
X120235343Y-117220568D01*
X120235338Y-117220565D01*
X120235335Y-117220563D01*
X120020164Y-117096333D01*
X120020153Y-117096328D01*
X119790605Y-117001246D01*
X119790598Y-117001244D01*
X119790596Y-117001243D01*
X119550587Y-116936933D01*
X119495842Y-116929725D01*
X119304245Y-116904500D01*
X119304238Y-116904500D01*
X119055762Y-116904500D01*
X119055754Y-116904500D01*
X118836785Y-116933329D01*
X118809413Y-116936933D01*
X118569404Y-117001243D01*
X118569394Y-117001246D01*
X118339846Y-117096328D01*
X118339835Y-117096333D01*
X118124664Y-117220563D01*
X118124648Y-117220574D01*
X117927529Y-117371828D01*
X117927522Y-117371834D01*
X117751834Y-117547522D01*
X117751828Y-117547529D01*
X117600574Y-117744648D01*
X117600563Y-117744664D01*
X117476333Y-117959835D01*
X117476328Y-117959846D01*
X117381246Y-118189394D01*
X117381243Y-118189404D01*
X117326909Y-118392184D01*
X117316933Y-118429414D01*
X117284500Y-118675754D01*
X110962154Y-118675754D01*
X110931557Y-118581588D01*
X110835051Y-118392184D01*
X110835049Y-118392181D01*
X110835048Y-118392179D01*
X110710109Y-118220213D01*
X110559786Y-118069890D01*
X110387820Y-117944951D01*
X110198414Y-117848444D01*
X110198413Y-117848443D01*
X110198412Y-117848443D01*
X109996243Y-117782754D01*
X109996241Y-117782753D01*
X109996240Y-117782753D01*
X109834957Y-117757208D01*
X109786287Y-117749500D01*
X109573713Y-117749500D01*
X109525042Y-117757208D01*
X109363760Y-117782753D01*
X109161585Y-117848444D01*
X108972179Y-117944951D01*
X108800213Y-118069890D01*
X108649890Y-118220213D01*
X108524951Y-118392179D01*
X108428444Y-118581585D01*
X108362753Y-118783760D01*
X108329500Y-118993713D01*
X105480500Y-118993713D01*
X105480500Y-111175754D01*
X117284500Y-111175754D01*
X117284500Y-111424245D01*
X117301327Y-111552049D01*
X117316933Y-111670587D01*
X117365070Y-111850237D01*
X117381243Y-111910595D01*
X117381246Y-111910605D01*
X117476328Y-112140153D01*
X117476333Y-112140164D01*
X117600563Y-112355335D01*
X117600574Y-112355351D01*
X117751828Y-112552470D01*
X117751834Y-112552477D01*
X117927522Y-112728165D01*
X117927528Y-112728170D01*
X118124657Y-112879432D01*
X118124664Y-112879436D01*
X118339835Y-113003666D01*
X118339840Y-113003668D01*
X118339843Y-113003670D01*
X118569404Y-113098757D01*
X118809413Y-113163067D01*
X119055762Y-113195500D01*
X119055769Y-113195500D01*
X119304231Y-113195500D01*
X119304238Y-113195500D01*
X119550587Y-113163067D01*
X119790596Y-113098757D01*
X120020157Y-113003670D01*
X120235343Y-112879432D01*
X120432472Y-112728170D01*
X120608170Y-112552472D01*
X120759432Y-112355343D01*
X120883670Y-112140157D01*
X120978757Y-111910596D01*
X121043067Y-111670587D01*
X121075500Y-111424238D01*
X121075500Y-111175762D01*
X121075499Y-111175754D01*
X129484500Y-111175754D01*
X129484500Y-111424245D01*
X129501327Y-111552049D01*
X129516933Y-111670587D01*
X129565070Y-111850237D01*
X129581243Y-111910595D01*
X129581246Y-111910605D01*
X129676328Y-112140153D01*
X129676333Y-112140164D01*
X129800563Y-112355335D01*
X129800574Y-112355351D01*
X129951828Y-112552470D01*
X129951834Y-112552477D01*
X130127522Y-112728165D01*
X130127528Y-112728170D01*
X130324657Y-112879432D01*
X130324664Y-112879436D01*
X130539835Y-113003666D01*
X130539840Y-113003668D01*
X130539843Y-113003670D01*
X130769404Y-113098757D01*
X131009413Y-113163067D01*
X131255762Y-113195500D01*
X131255769Y-113195500D01*
X131504231Y-113195500D01*
X131504238Y-113195500D01*
X131750587Y-113163067D01*
X131990596Y-113098757D01*
X132220157Y-113003670D01*
X132435343Y-112879432D01*
X132632472Y-112728170D01*
X132808170Y-112552472D01*
X132959432Y-112355343D01*
X133083670Y-112140157D01*
X133178757Y-111910596D01*
X133243067Y-111670587D01*
X133275500Y-111424238D01*
X133275500Y-111175762D01*
X133243067Y-110929413D01*
X133178757Y-110689404D01*
X133167280Y-110661697D01*
X133092985Y-110482331D01*
X133083670Y-110459843D01*
X133083668Y-110459840D01*
X133083666Y-110459835D01*
X132959436Y-110244664D01*
X132959432Y-110244657D01*
X132843538Y-110093620D01*
X132808171Y-110047529D01*
X132808165Y-110047522D01*
X132632477Y-109871834D01*
X132632470Y-109871828D01*
X132435351Y-109720574D01*
X132435349Y-109720572D01*
X132435343Y-109720568D01*
X132435338Y-109720565D01*
X132435335Y-109720563D01*
X132220164Y-109596333D01*
X132220153Y-109596328D01*
X131990605Y-109501246D01*
X131990598Y-109501244D01*
X131990596Y-109501243D01*
X131750587Y-109436933D01*
X131695842Y-109429725D01*
X131504245Y-109404500D01*
X131504238Y-109404500D01*
X131255762Y-109404500D01*
X131255754Y-109404500D01*
X131036785Y-109433329D01*
X131009413Y-109436933D01*
X130769404Y-109501243D01*
X130769394Y-109501246D01*
X130539846Y-109596328D01*
X130539835Y-109596333D01*
X130324664Y-109720563D01*
X130324648Y-109720574D01*
X130127529Y-109871828D01*
X130127522Y-109871834D01*
X129951834Y-110047522D01*
X129951828Y-110047529D01*
X129800574Y-110244648D01*
X129800563Y-110244664D01*
X129676333Y-110459835D01*
X129676328Y-110459846D01*
X129581246Y-110689394D01*
X129581243Y-110689404D01*
X129521071Y-110913972D01*
X129516933Y-110929414D01*
X129484500Y-111175754D01*
X121075499Y-111175754D01*
X121043067Y-110929413D01*
X120978757Y-110689404D01*
X120967280Y-110661697D01*
X120892985Y-110482331D01*
X120883670Y-110459843D01*
X120883668Y-110459840D01*
X120883666Y-110459835D01*
X120759436Y-110244664D01*
X120759432Y-110244657D01*
X120643538Y-110093620D01*
X120608171Y-110047529D01*
X120608165Y-110047522D01*
X120432477Y-109871834D01*
X120432470Y-109871828D01*
X120235351Y-109720574D01*
X120235349Y-109720572D01*
X120235343Y-109720568D01*
X120235338Y-109720565D01*
X120235335Y-109720563D01*
X120020164Y-109596333D01*
X120020153Y-109596328D01*
X119790605Y-109501246D01*
X119790598Y-109501244D01*
X119790596Y-109501243D01*
X119550587Y-109436933D01*
X119495842Y-109429725D01*
X119304245Y-109404500D01*
X119304238Y-109404500D01*
X119055762Y-109404500D01*
X119055754Y-109404500D01*
X118836785Y-109433329D01*
X118809413Y-109436933D01*
X118569404Y-109501243D01*
X118569394Y-109501246D01*
X118339846Y-109596328D01*
X118339835Y-109596333D01*
X118124664Y-109720563D01*
X118124648Y-109720574D01*
X117927529Y-109871828D01*
X117927522Y-109871834D01*
X117751834Y-110047522D01*
X117751828Y-110047529D01*
X117600574Y-110244648D01*
X117600563Y-110244664D01*
X117476333Y-110459835D01*
X117476328Y-110459846D01*
X117381246Y-110689394D01*
X117381243Y-110689404D01*
X117321071Y-110913972D01*
X117316933Y-110929414D01*
X117284500Y-111175754D01*
X105480500Y-111175754D01*
X105480500Y-108392135D01*
X137979500Y-108392135D01*
X137979500Y-110287870D01*
X137979501Y-110287876D01*
X137985908Y-110347483D01*
X138036202Y-110482328D01*
X138036206Y-110482335D01*
X138122452Y-110597544D01*
X138122455Y-110597547D01*
X138237664Y-110683793D01*
X138237671Y-110683797D01*
X138317580Y-110713601D01*
X138373514Y-110755472D01*
X138397931Y-110820936D01*
X138383080Y-110889209D01*
X138361929Y-110917463D01*
X138311756Y-110967636D01*
X138311752Y-110967641D01*
X138182187Y-111145974D01*
X138082104Y-111342393D01*
X138082103Y-111342396D01*
X138013985Y-111552047D01*
X137998079Y-111652477D01*
X137979500Y-111769778D01*
X137979500Y-111990222D01*
X137981985Y-112005911D01*
X138013985Y-112207952D01*
X138082103Y-112417603D01*
X138082104Y-112417606D01*
X138182187Y-112614025D01*
X138311752Y-112792358D01*
X138311756Y-112792363D01*
X138467636Y-112948243D01*
X138467641Y-112948247D01*
X138623192Y-113061260D01*
X138645978Y-113077815D01*
X138774375Y-113143237D01*
X138842393Y-113177895D01*
X138842396Y-113177896D01*
X138896574Y-113195499D01*
X139052049Y-113246015D01*
X139269778Y-113280500D01*
X139269779Y-113280500D01*
X139490221Y-113280500D01*
X139490222Y-113280500D01*
X139707951Y-113246015D01*
X139917606Y-113177895D01*
X140114022Y-113077815D01*
X140292365Y-112948242D01*
X140448242Y-112792365D01*
X140577815Y-112614022D01*
X140677895Y-112417606D01*
X140746015Y-112207951D01*
X140780500Y-111990222D01*
X140780500Y-111769778D01*
X140746015Y-111552049D01*
X140677895Y-111342394D01*
X140677895Y-111342393D01*
X140643237Y-111274375D01*
X140577815Y-111145978D01*
X140560938Y-111122748D01*
X140448247Y-110967641D01*
X140448243Y-110967636D01*
X140398071Y-110917464D01*
X140364586Y-110856141D01*
X140369570Y-110786449D01*
X140411442Y-110730516D01*
X140442420Y-110713601D01*
X140522326Y-110683798D01*
X140522326Y-110683797D01*
X140522331Y-110683796D01*
X140637546Y-110597546D01*
X140723796Y-110482331D01*
X140774091Y-110347483D01*
X140780500Y-110287873D01*
X140780500Y-110275754D01*
X150584500Y-110275754D01*
X150584500Y-110524245D01*
X150606245Y-110689404D01*
X150616933Y-110770587D01*
X150681243Y-111010595D01*
X150681246Y-111010605D01*
X150776328Y-111240153D01*
X150776333Y-111240164D01*
X150900563Y-111455335D01*
X150900574Y-111455351D01*
X151051828Y-111652470D01*
X151051834Y-111652477D01*
X151227522Y-111828165D01*
X151227529Y-111828171D01*
X151256286Y-111850237D01*
X151424657Y-111979432D01*
X151424664Y-111979436D01*
X151639835Y-112103666D01*
X151639840Y-112103668D01*
X151639843Y-112103670D01*
X151869404Y-112198757D01*
X152109413Y-112263067D01*
X152355762Y-112295500D01*
X152355769Y-112295500D01*
X152604231Y-112295500D01*
X152604238Y-112295500D01*
X152850587Y-112263067D01*
X153090596Y-112198757D01*
X153320157Y-112103670D01*
X153535343Y-111979432D01*
X153732472Y-111828170D01*
X153908170Y-111652472D01*
X154059432Y-111455343D01*
X154183670Y-111240157D01*
X154278757Y-111010596D01*
X154343067Y-110770587D01*
X154375500Y-110524238D01*
X154375500Y-110275762D01*
X154343067Y-110029413D01*
X154278757Y-109789404D01*
X154183670Y-109559843D01*
X154183668Y-109559840D01*
X154183666Y-109559835D01*
X154059436Y-109344664D01*
X154059432Y-109344657D01*
X153995777Y-109261700D01*
X153908171Y-109147529D01*
X153908165Y-109147522D01*
X153732477Y-108971834D01*
X153732470Y-108971828D01*
X153535351Y-108820574D01*
X153535349Y-108820572D01*
X153535343Y-108820568D01*
X153535338Y-108820565D01*
X153535335Y-108820563D01*
X153320164Y-108696333D01*
X153320153Y-108696328D01*
X153090605Y-108601246D01*
X153090598Y-108601244D01*
X153090596Y-108601243D01*
X152850587Y-108536933D01*
X152795842Y-108529725D01*
X152604245Y-108504500D01*
X152604238Y-108504500D01*
X152355762Y-108504500D01*
X152355754Y-108504500D01*
X152136785Y-108533329D01*
X152109413Y-108536933D01*
X151869404Y-108601243D01*
X151869394Y-108601246D01*
X151639846Y-108696328D01*
X151639835Y-108696333D01*
X151424664Y-108820563D01*
X151424648Y-108820574D01*
X151227529Y-108971828D01*
X151227522Y-108971834D01*
X151051834Y-109147522D01*
X151051828Y-109147529D01*
X150900574Y-109344648D01*
X150900563Y-109344664D01*
X150776333Y-109559835D01*
X150776328Y-109559846D01*
X150681246Y-109789394D01*
X150681243Y-109789404D01*
X150630326Y-109979432D01*
X150616933Y-110029414D01*
X150584500Y-110275754D01*
X140780500Y-110275754D01*
X140780499Y-108392128D01*
X140774091Y-108332517D01*
X140752920Y-108275754D01*
X156584500Y-108275754D01*
X156584500Y-108524245D01*
X156594638Y-108601243D01*
X156616933Y-108770587D01*
X156630327Y-108820574D01*
X156681243Y-109010595D01*
X156681246Y-109010605D01*
X156776328Y-109240153D01*
X156776333Y-109240164D01*
X156900563Y-109455335D01*
X156900574Y-109455351D01*
X157051828Y-109652470D01*
X157051834Y-109652477D01*
X157227522Y-109828165D01*
X157227529Y-109828171D01*
X157256626Y-109850498D01*
X157424657Y-109979432D01*
X157424664Y-109979436D01*
X157639835Y-110103666D01*
X157639840Y-110103668D01*
X157639843Y-110103670D01*
X157869404Y-110198757D01*
X158109413Y-110263067D01*
X158355762Y-110295500D01*
X158355769Y-110295500D01*
X158604231Y-110295500D01*
X158604238Y-110295500D01*
X158754221Y-110275754D01*
X162584500Y-110275754D01*
X162584500Y-110524245D01*
X162606245Y-110689404D01*
X162616933Y-110770587D01*
X162681243Y-111010595D01*
X162681246Y-111010605D01*
X162776328Y-111240153D01*
X162776333Y-111240164D01*
X162900563Y-111455335D01*
X162900574Y-111455351D01*
X163051828Y-111652470D01*
X163051834Y-111652477D01*
X163227522Y-111828165D01*
X163227529Y-111828171D01*
X163256286Y-111850237D01*
X163424657Y-111979432D01*
X163424664Y-111979436D01*
X163639835Y-112103666D01*
X163639840Y-112103668D01*
X163639843Y-112103670D01*
X163869404Y-112198757D01*
X164109413Y-112263067D01*
X164355762Y-112295500D01*
X164355769Y-112295500D01*
X164604231Y-112295500D01*
X164604238Y-112295500D01*
X164850587Y-112263067D01*
X165090596Y-112198757D01*
X165320157Y-112103670D01*
X165535343Y-111979432D01*
X165732472Y-111828170D01*
X165908170Y-111652472D01*
X166059432Y-111455343D01*
X166183670Y-111240157D01*
X166278757Y-111010596D01*
X166343067Y-110770587D01*
X166375500Y-110524238D01*
X166375500Y-110275762D01*
X166343067Y-110029413D01*
X166310100Y-109906379D01*
X177129500Y-109906379D01*
X177129500Y-110093620D01*
X177166025Y-110277243D01*
X177166027Y-110277251D01*
X177237676Y-110450228D01*
X177237681Y-110450237D01*
X177341697Y-110605907D01*
X177341700Y-110605911D01*
X177474088Y-110738299D01*
X177474092Y-110738302D01*
X177629762Y-110842318D01*
X177629768Y-110842321D01*
X177629769Y-110842322D01*
X177802749Y-110913973D01*
X177982674Y-110949762D01*
X177986379Y-110950499D01*
X177986383Y-110950500D01*
X177986384Y-110950500D01*
X178173617Y-110950500D01*
X178173618Y-110950499D01*
X178357251Y-110913973D01*
X178530231Y-110842322D01*
X178530236Y-110842318D01*
X178530239Y-110842317D01*
X178561545Y-110821399D01*
X178628222Y-110800520D01*
X178630437Y-110800500D01*
X178997060Y-110800500D01*
X179064099Y-110820185D01*
X179084741Y-110836819D01*
X179824742Y-111576820D01*
X179858227Y-111638143D01*
X179858678Y-111640309D01*
X179866025Y-111677244D01*
X179866027Y-111677251D01*
X179937676Y-111850228D01*
X179937681Y-111850237D01*
X180041697Y-112005907D01*
X180041700Y-112005911D01*
X180174088Y-112138299D01*
X180174092Y-112138302D01*
X180329762Y-112242318D01*
X180329768Y-112242321D01*
X180329769Y-112242322D01*
X180502749Y-112313973D01*
X180686379Y-112350499D01*
X180686383Y-112350500D01*
X180686384Y-112350500D01*
X180873617Y-112350500D01*
X180873618Y-112350499D01*
X181057251Y-112313973D01*
X181230231Y-112242322D01*
X181385908Y-112138302D01*
X181518302Y-112005908D01*
X181622322Y-111850231D01*
X181693973Y-111677251D01*
X181730500Y-111493616D01*
X181730500Y-111306384D01*
X181693973Y-111122749D01*
X181622625Y-110950500D01*
X181622323Y-110949771D01*
X181622318Y-110949762D01*
X181518302Y-110794092D01*
X181518299Y-110794088D01*
X181385911Y-110661700D01*
X181385907Y-110661697D01*
X181230237Y-110557681D01*
X181230228Y-110557676D01*
X181057251Y-110486027D01*
X181020310Y-110478679D01*
X180958400Y-110446295D01*
X180956821Y-110444743D01*
X179890292Y-109378213D01*
X179890288Y-109378210D01*
X179759185Y-109290609D01*
X179759172Y-109290602D01*
X179613501Y-109230264D01*
X179613489Y-109230261D01*
X179458845Y-109199500D01*
X179458842Y-109199500D01*
X178630437Y-109199500D01*
X178563398Y-109179815D01*
X178561545Y-109178601D01*
X178530239Y-109157682D01*
X178530228Y-109157676D01*
X178357251Y-109086027D01*
X178357243Y-109086025D01*
X178173620Y-109049500D01*
X178173616Y-109049500D01*
X177986384Y-109049500D01*
X177986379Y-109049500D01*
X177802756Y-109086025D01*
X177802748Y-109086027D01*
X177629771Y-109157676D01*
X177629762Y-109157681D01*
X177474092Y-109261697D01*
X177474088Y-109261700D01*
X177341700Y-109394088D01*
X177341697Y-109394092D01*
X177237681Y-109549762D01*
X177237676Y-109549771D01*
X177166027Y-109722748D01*
X177166025Y-109722756D01*
X177129500Y-109906379D01*
X166310100Y-109906379D01*
X166278757Y-109789404D01*
X166183670Y-109559843D01*
X166183668Y-109559840D01*
X166183666Y-109559835D01*
X166059436Y-109344664D01*
X166059432Y-109344657D01*
X165995777Y-109261700D01*
X165908171Y-109147529D01*
X165908165Y-109147522D01*
X165732477Y-108971834D01*
X165732470Y-108971828D01*
X165535351Y-108820574D01*
X165535349Y-108820572D01*
X165535343Y-108820568D01*
X165535338Y-108820565D01*
X165535335Y-108820563D01*
X165320164Y-108696333D01*
X165320153Y-108696328D01*
X165090605Y-108601246D01*
X165090598Y-108601244D01*
X165090596Y-108601243D01*
X164850587Y-108536933D01*
X164795842Y-108529725D01*
X164604245Y-108504500D01*
X164604238Y-108504500D01*
X164355762Y-108504500D01*
X164355754Y-108504500D01*
X164136785Y-108533329D01*
X164109413Y-108536933D01*
X163869404Y-108601243D01*
X163869394Y-108601246D01*
X163639846Y-108696328D01*
X163639835Y-108696333D01*
X163424664Y-108820563D01*
X163424648Y-108820574D01*
X163227529Y-108971828D01*
X163227522Y-108971834D01*
X163051834Y-109147522D01*
X163051828Y-109147529D01*
X162900574Y-109344648D01*
X162900563Y-109344664D01*
X162776333Y-109559835D01*
X162776328Y-109559846D01*
X162681246Y-109789394D01*
X162681243Y-109789404D01*
X162630326Y-109979432D01*
X162616933Y-110029414D01*
X162584500Y-110275754D01*
X158754221Y-110275754D01*
X158850587Y-110263067D01*
X159090596Y-110198757D01*
X159320157Y-110103670D01*
X159535343Y-109979432D01*
X159732472Y-109828170D01*
X159908170Y-109652472D01*
X160059432Y-109455343D01*
X160183670Y-109240157D01*
X160278757Y-109010596D01*
X160343067Y-108770587D01*
X160375500Y-108524238D01*
X160375500Y-108275762D01*
X160343067Y-108029413D01*
X160278757Y-107789404D01*
X160183670Y-107559843D01*
X160183668Y-107559840D01*
X160183666Y-107559835D01*
X160059436Y-107344664D01*
X160059432Y-107344657D01*
X159942641Y-107192452D01*
X159908171Y-107147529D01*
X159908165Y-107147522D01*
X159732477Y-106971834D01*
X159732470Y-106971828D01*
X159535351Y-106820574D01*
X159535349Y-106820572D01*
X159535343Y-106820568D01*
X159535338Y-106820565D01*
X159535335Y-106820563D01*
X159320164Y-106696333D01*
X159320153Y-106696328D01*
X159090605Y-106601246D01*
X159090598Y-106601244D01*
X159090596Y-106601243D01*
X158850587Y-106536933D01*
X158795842Y-106529725D01*
X158604245Y-106504500D01*
X158604238Y-106504500D01*
X158355762Y-106504500D01*
X158355754Y-106504500D01*
X158136785Y-106533329D01*
X158109413Y-106536933D01*
X157905355Y-106591610D01*
X157869404Y-106601243D01*
X157869394Y-106601246D01*
X157639846Y-106696328D01*
X157639835Y-106696333D01*
X157424664Y-106820563D01*
X157424648Y-106820574D01*
X157227529Y-106971828D01*
X157227522Y-106971834D01*
X157051834Y-107147522D01*
X157051828Y-107147529D01*
X156900574Y-107344648D01*
X156900563Y-107344664D01*
X156776333Y-107559835D01*
X156776328Y-107559846D01*
X156681246Y-107789394D01*
X156681243Y-107789404D01*
X156625832Y-107996204D01*
X156616933Y-108029414D01*
X156584500Y-108275754D01*
X140752920Y-108275754D01*
X140723796Y-108197669D01*
X140723795Y-108197668D01*
X140723793Y-108197664D01*
X140637547Y-108082455D01*
X140637544Y-108082452D01*
X140522335Y-107996206D01*
X140522328Y-107996202D01*
X140387482Y-107945908D01*
X140387483Y-107945908D01*
X140327883Y-107939501D01*
X140327881Y-107939500D01*
X140327873Y-107939500D01*
X140327864Y-107939500D01*
X138432129Y-107939500D01*
X138432123Y-107939501D01*
X138372516Y-107945908D01*
X138237671Y-107996202D01*
X138237664Y-107996206D01*
X138122455Y-108082452D01*
X138122452Y-108082455D01*
X138036206Y-108197664D01*
X138036202Y-108197671D01*
X137985908Y-108332517D01*
X137979501Y-108392116D01*
X137979501Y-108392123D01*
X137979500Y-108392135D01*
X105480500Y-108392135D01*
X105480500Y-105175754D01*
X131484500Y-105175754D01*
X131484500Y-105424245D01*
X131509725Y-105615842D01*
X131516933Y-105670587D01*
X131579478Y-105904008D01*
X131581243Y-105910595D01*
X131581246Y-105910605D01*
X131676328Y-106140153D01*
X131676333Y-106140164D01*
X131800563Y-106355335D01*
X131800574Y-106355351D01*
X131951828Y-106552470D01*
X131951834Y-106552477D01*
X132127522Y-106728165D01*
X132127529Y-106728171D01*
X132165385Y-106757219D01*
X132324657Y-106879432D01*
X132324664Y-106879436D01*
X132539835Y-107003666D01*
X132539840Y-107003668D01*
X132539843Y-107003670D01*
X132769404Y-107098757D01*
X133009413Y-107163067D01*
X133255762Y-107195500D01*
X133255769Y-107195500D01*
X133504231Y-107195500D01*
X133504238Y-107195500D01*
X133750587Y-107163067D01*
X133990596Y-107098757D01*
X134220157Y-107003670D01*
X134435343Y-106879432D01*
X134632472Y-106728170D01*
X134808170Y-106552472D01*
X134954399Y-106361902D01*
X181929500Y-106361902D01*
X181929500Y-106598097D01*
X181966446Y-106831368D01*
X182039433Y-107055996D01*
X182146657Y-107266433D01*
X182285483Y-107457510D01*
X182452490Y-107624517D01*
X182643567Y-107763343D01*
X182694695Y-107789394D01*
X182854003Y-107870566D01*
X182854005Y-107870566D01*
X182854008Y-107870568D01*
X182974412Y-107909689D01*
X183078631Y-107943553D01*
X183311903Y-107980500D01*
X183311908Y-107980500D01*
X183548097Y-107980500D01*
X183781368Y-107943553D01*
X183793842Y-107939500D01*
X184005992Y-107870568D01*
X184216433Y-107763343D01*
X184407510Y-107624517D01*
X184574517Y-107457510D01*
X184713343Y-107266433D01*
X184820568Y-107055992D01*
X184893553Y-106831368D01*
X184909899Y-106728165D01*
X184930500Y-106598097D01*
X184930500Y-106361902D01*
X188429500Y-106361902D01*
X188429500Y-106598097D01*
X188466446Y-106831368D01*
X188539433Y-107055996D01*
X188646657Y-107266433D01*
X188785483Y-107457510D01*
X188952490Y-107624517D01*
X189143567Y-107763343D01*
X189194695Y-107789394D01*
X189354003Y-107870566D01*
X189354005Y-107870566D01*
X189354008Y-107870568D01*
X189474412Y-107909689D01*
X189578631Y-107943553D01*
X189811903Y-107980500D01*
X189811908Y-107980500D01*
X190048097Y-107980500D01*
X190281368Y-107943553D01*
X190293842Y-107939500D01*
X190505992Y-107870568D01*
X190716433Y-107763343D01*
X190907510Y-107624517D01*
X191029892Y-107502135D01*
X191779500Y-107502135D01*
X191779500Y-109397870D01*
X191779501Y-109397876D01*
X191785908Y-109457483D01*
X191836202Y-109592328D01*
X191836206Y-109592335D01*
X191922452Y-109707544D01*
X191922455Y-109707547D01*
X192037664Y-109793793D01*
X192037671Y-109793797D01*
X192172517Y-109844091D01*
X192172516Y-109844091D01*
X192179444Y-109844835D01*
X192232127Y-109850500D01*
X194127872Y-109850499D01*
X194187483Y-109844091D01*
X194322331Y-109793796D01*
X194437546Y-109707546D01*
X194523796Y-109592331D01*
X194574091Y-109457483D01*
X194580500Y-109397873D01*
X194580499Y-107502128D01*
X194574091Y-107442517D01*
X194537594Y-107344664D01*
X194523797Y-107307671D01*
X194523793Y-107307664D01*
X194437547Y-107192455D01*
X194437544Y-107192452D01*
X194322335Y-107106206D01*
X194322328Y-107106202D01*
X194187483Y-107055909D01*
X194161465Y-107053111D01*
X194096915Y-107026371D01*
X194057068Y-106968978D01*
X194054577Y-106899153D01*
X194087040Y-106842144D01*
X194171966Y-106757219D01*
X194292287Y-106591610D01*
X194385220Y-106409219D01*
X194448477Y-106214534D01*
X194480500Y-106012352D01*
X194480500Y-105807648D01*
X194448477Y-105605466D01*
X194445892Y-105597511D01*
X194415017Y-105502487D01*
X194385220Y-105410781D01*
X194385217Y-105410777D01*
X194385217Y-105410774D01*
X194346854Y-105335483D01*
X194292287Y-105228390D01*
X194268749Y-105195992D01*
X194171971Y-105062786D01*
X194027213Y-104918028D01*
X193861614Y-104797715D01*
X193855006Y-104794348D01*
X193768917Y-104750483D01*
X193718123Y-104702511D01*
X193701328Y-104634690D01*
X193723865Y-104568555D01*
X193768917Y-104529516D01*
X193861610Y-104482287D01*
X193892513Y-104459835D01*
X194027213Y-104361971D01*
X194027215Y-104361968D01*
X194027219Y-104361966D01*
X194171966Y-104217219D01*
X194171968Y-104217215D01*
X194171971Y-104217213D01*
X194224732Y-104144590D01*
X194292287Y-104051610D01*
X194385220Y-103869219D01*
X194448477Y-103674534D01*
X194480500Y-103472352D01*
X194480500Y-103267648D01*
X194448477Y-103065466D01*
X194385220Y-102870781D01*
X194385218Y-102870778D01*
X194385218Y-102870776D01*
X194351503Y-102804607D01*
X194292287Y-102688390D01*
X194284556Y-102677749D01*
X194171971Y-102522786D01*
X194027213Y-102378028D01*
X193861614Y-102257715D01*
X193855006Y-102254348D01*
X193768917Y-102210483D01*
X193718123Y-102162511D01*
X193701328Y-102094690D01*
X193723865Y-102028555D01*
X193768917Y-101989516D01*
X193861610Y-101942287D01*
X193882770Y-101926913D01*
X194027213Y-101821971D01*
X194027215Y-101821968D01*
X194027219Y-101821966D01*
X194171966Y-101677219D01*
X194171968Y-101677215D01*
X194171971Y-101677213D01*
X194238447Y-101585715D01*
X194292287Y-101511610D01*
X194385220Y-101329219D01*
X194448477Y-101134534D01*
X194480500Y-100932352D01*
X194480500Y-100727648D01*
X194452755Y-100552477D01*
X194448477Y-100525465D01*
X194393203Y-100355351D01*
X194385220Y-100330781D01*
X194385218Y-100330778D01*
X194385218Y-100330776D01*
X194351503Y-100264607D01*
X194292287Y-100148390D01*
X194284556Y-100137749D01*
X194171971Y-99982786D01*
X194027213Y-99838028D01*
X193861614Y-99717715D01*
X193855006Y-99714348D01*
X193768917Y-99670483D01*
X193718123Y-99622511D01*
X193701328Y-99554690D01*
X193723865Y-99488555D01*
X193768917Y-99449516D01*
X193861610Y-99402287D01*
X193882770Y-99386913D01*
X194027213Y-99281971D01*
X194027215Y-99281968D01*
X194027219Y-99281966D01*
X194171966Y-99137219D01*
X194171968Y-99137215D01*
X194171971Y-99137213D01*
X194224732Y-99064590D01*
X194292287Y-98971610D01*
X194385220Y-98789219D01*
X194448477Y-98594534D01*
X194480500Y-98392352D01*
X194480500Y-98187648D01*
X194448477Y-97985466D01*
X194385220Y-97790781D01*
X194385218Y-97790778D01*
X194385218Y-97790776D01*
X194349442Y-97720563D01*
X194292287Y-97608390D01*
X194283524Y-97596328D01*
X194171971Y-97442786D01*
X194027213Y-97298028D01*
X193861613Y-97177715D01*
X193861612Y-97177714D01*
X193861610Y-97177713D01*
X193804653Y-97148691D01*
X193679223Y-97084781D01*
X193484534Y-97021522D01*
X193309995Y-96993878D01*
X193282352Y-96989500D01*
X193077648Y-96989500D01*
X193053329Y-96993351D01*
X192875465Y-97021522D01*
X192680776Y-97084781D01*
X192498386Y-97177715D01*
X192332786Y-97298028D01*
X192188028Y-97442786D01*
X192067715Y-97608386D01*
X191974781Y-97790776D01*
X191911522Y-97985465D01*
X191879500Y-98187648D01*
X191879500Y-98392351D01*
X191911522Y-98594534D01*
X191974781Y-98789223D01*
X192067715Y-98971613D01*
X192188028Y-99137213D01*
X192332786Y-99281971D01*
X192487749Y-99394556D01*
X192498390Y-99402287D01*
X192589840Y-99448883D01*
X192591080Y-99449515D01*
X192641876Y-99497490D01*
X192658671Y-99565311D01*
X192636134Y-99631446D01*
X192591080Y-99670485D01*
X192498386Y-99717715D01*
X192332786Y-99838028D01*
X192188028Y-99982786D01*
X192067715Y-100148386D01*
X191974781Y-100330776D01*
X191911522Y-100525465D01*
X191879500Y-100727648D01*
X191879500Y-100932351D01*
X191911522Y-101134534D01*
X191974781Y-101329223D01*
X192067715Y-101511613D01*
X192188028Y-101677213D01*
X192332786Y-101821971D01*
X192487749Y-101934556D01*
X192498390Y-101942287D01*
X192589840Y-101988883D01*
X192591080Y-101989515D01*
X192641876Y-102037490D01*
X192658671Y-102105311D01*
X192636134Y-102171446D01*
X192591080Y-102210485D01*
X192498386Y-102257715D01*
X192332786Y-102378028D01*
X192188028Y-102522786D01*
X192067715Y-102688386D01*
X191974781Y-102870776D01*
X191911522Y-103065465D01*
X191879500Y-103267648D01*
X191879500Y-103472351D01*
X191911522Y-103674534D01*
X191974781Y-103869223D01*
X192038691Y-103994653D01*
X192065633Y-104047528D01*
X192067715Y-104051613D01*
X192188028Y-104217213D01*
X192332786Y-104361971D01*
X192467487Y-104459835D01*
X192498390Y-104482287D01*
X192589840Y-104528883D01*
X192591080Y-104529515D01*
X192641876Y-104577490D01*
X192658671Y-104645311D01*
X192636134Y-104711446D01*
X192591080Y-104750485D01*
X192498386Y-104797715D01*
X192332786Y-104918028D01*
X192188028Y-105062786D01*
X192067715Y-105228386D01*
X191974783Y-105410774D01*
X191974782Y-105410777D01*
X191974780Y-105410781D01*
X191952398Y-105479665D01*
X191911522Y-105605465D01*
X191879500Y-105807648D01*
X191879500Y-106012351D01*
X191911522Y-106214534D01*
X191974781Y-106409223D01*
X192067715Y-106591613D01*
X192188028Y-106757213D01*
X192272956Y-106842141D01*
X192306441Y-106903464D01*
X192301457Y-106973156D01*
X192259585Y-107029089D01*
X192198531Y-107053111D01*
X192172519Y-107055907D01*
X192037671Y-107106202D01*
X192037664Y-107106206D01*
X191922455Y-107192452D01*
X191922452Y-107192455D01*
X191836206Y-107307664D01*
X191836202Y-107307671D01*
X191785908Y-107442517D01*
X191779501Y-107502116D01*
X191779501Y-107502123D01*
X191779500Y-107502135D01*
X191029892Y-107502135D01*
X191074517Y-107457510D01*
X191213343Y-107266433D01*
X191320568Y-107055992D01*
X191393553Y-106831368D01*
X191409899Y-106728165D01*
X191430500Y-106598097D01*
X191430500Y-106361902D01*
X191393553Y-106128631D01*
X191355191Y-106010566D01*
X191320568Y-105904008D01*
X191320566Y-105904005D01*
X191320566Y-105904003D01*
X191213342Y-105693566D01*
X191196647Y-105670587D01*
X191074517Y-105502490D01*
X190907510Y-105335483D01*
X190716433Y-105196657D01*
X190675436Y-105175768D01*
X190505996Y-105089433D01*
X190281368Y-105016446D01*
X190048097Y-104979500D01*
X190048092Y-104979500D01*
X189811908Y-104979500D01*
X189811903Y-104979500D01*
X189578631Y-105016446D01*
X189354003Y-105089433D01*
X189143566Y-105196657D01*
X189099890Y-105228390D01*
X188952490Y-105335483D01*
X188952488Y-105335485D01*
X188952487Y-105335485D01*
X188785485Y-105502487D01*
X188785485Y-105502488D01*
X188785483Y-105502490D01*
X188725862Y-105584550D01*
X188646657Y-105693566D01*
X188539433Y-105904003D01*
X188466446Y-106128631D01*
X188429500Y-106361902D01*
X184930500Y-106361902D01*
X184893553Y-106128631D01*
X184855191Y-106010566D01*
X184820568Y-105904008D01*
X184820566Y-105904005D01*
X184820566Y-105904003D01*
X184713342Y-105693566D01*
X184696647Y-105670587D01*
X184574517Y-105502490D01*
X184407510Y-105335483D01*
X184216433Y-105196657D01*
X184175436Y-105175768D01*
X184005996Y-105089433D01*
X183781368Y-105016446D01*
X183548097Y-104979500D01*
X183548092Y-104979500D01*
X183311908Y-104979500D01*
X183311903Y-104979500D01*
X183078631Y-105016446D01*
X182854003Y-105089433D01*
X182643566Y-105196657D01*
X182599890Y-105228390D01*
X182452490Y-105335483D01*
X182452488Y-105335485D01*
X182452487Y-105335485D01*
X182285485Y-105502487D01*
X182285485Y-105502488D01*
X182285483Y-105502490D01*
X182225862Y-105584550D01*
X182146657Y-105693566D01*
X182039433Y-105904003D01*
X181966446Y-106128631D01*
X181929500Y-106361902D01*
X134954399Y-106361902D01*
X134959432Y-106355343D01*
X135083670Y-106140157D01*
X135178757Y-105910596D01*
X135243067Y-105670587D01*
X135275500Y-105424238D01*
X135275500Y-105175762D01*
X135243067Y-104929413D01*
X135178757Y-104689404D01*
X135178752Y-104689394D01*
X135178751Y-104689388D01*
X135118732Y-104544488D01*
X135101092Y-104501902D01*
X185179500Y-104501902D01*
X185179500Y-104738097D01*
X185216446Y-104971368D01*
X185289433Y-105195996D01*
X185360506Y-105335483D01*
X185396657Y-105406433D01*
X185535483Y-105597510D01*
X185702490Y-105764517D01*
X185893567Y-105903343D01*
X185992991Y-105954002D01*
X186104003Y-106010566D01*
X186104005Y-106010566D01*
X186104008Y-106010568D01*
X186224412Y-106049689D01*
X186328631Y-106083553D01*
X186561903Y-106120500D01*
X186561908Y-106120500D01*
X186798097Y-106120500D01*
X187031368Y-106083553D01*
X187255992Y-106010568D01*
X187466433Y-105903343D01*
X187657510Y-105764517D01*
X187824517Y-105597510D01*
X187963343Y-105406433D01*
X188070568Y-105195992D01*
X188143553Y-104971368D01*
X188171057Y-104797715D01*
X188180500Y-104738097D01*
X188180500Y-104501902D01*
X188143553Y-104268631D01*
X188071712Y-104047529D01*
X188070568Y-104044008D01*
X188070566Y-104044005D01*
X188070566Y-104044003D01*
X187982838Y-103871828D01*
X187963343Y-103833567D01*
X187824517Y-103642490D01*
X187657510Y-103475483D01*
X187466433Y-103336657D01*
X187255996Y-103229433D01*
X187031368Y-103156446D01*
X186798097Y-103119500D01*
X186798092Y-103119500D01*
X186561908Y-103119500D01*
X186561903Y-103119500D01*
X186328631Y-103156446D01*
X186104003Y-103229433D01*
X185893566Y-103336657D01*
X185800189Y-103404500D01*
X185702490Y-103475483D01*
X185702488Y-103475485D01*
X185702487Y-103475485D01*
X185535485Y-103642487D01*
X185535485Y-103642488D01*
X185535483Y-103642490D01*
X185475862Y-103724550D01*
X185396657Y-103833566D01*
X185289433Y-104044003D01*
X185216446Y-104268631D01*
X185179500Y-104501902D01*
X135101092Y-104501902D01*
X135083671Y-104459846D01*
X135083666Y-104459835D01*
X134959436Y-104244664D01*
X134959432Y-104244657D01*
X134808170Y-104047528D01*
X134808165Y-104047522D01*
X134632477Y-103871834D01*
X134632470Y-103871828D01*
X134435351Y-103720574D01*
X134435349Y-103720572D01*
X134435343Y-103720568D01*
X134435338Y-103720565D01*
X134435335Y-103720563D01*
X134220164Y-103596333D01*
X134220153Y-103596328D01*
X133990605Y-103501246D01*
X133990598Y-103501244D01*
X133990596Y-103501243D01*
X133750587Y-103436933D01*
X133695842Y-103429725D01*
X133504245Y-103404500D01*
X133504238Y-103404500D01*
X133255762Y-103404500D01*
X133255754Y-103404500D01*
X133036785Y-103433329D01*
X133009413Y-103436933D01*
X132769404Y-103501243D01*
X132769394Y-103501246D01*
X132539846Y-103596328D01*
X132539835Y-103596333D01*
X132324664Y-103720563D01*
X132324648Y-103720574D01*
X132127529Y-103871828D01*
X132127522Y-103871834D01*
X131951834Y-104047522D01*
X131951828Y-104047529D01*
X131800574Y-104244648D01*
X131800563Y-104244664D01*
X131676333Y-104459835D01*
X131676328Y-104459846D01*
X131581246Y-104689394D01*
X131581243Y-104689404D01*
X131564877Y-104750485D01*
X131516933Y-104929414D01*
X131484500Y-105175754D01*
X105480500Y-105175754D01*
X105480500Y-101452135D01*
X161579500Y-101452135D01*
X161579500Y-103347870D01*
X161579501Y-103347876D01*
X161585908Y-103407483D01*
X161636202Y-103542328D01*
X161636206Y-103542335D01*
X161722452Y-103657544D01*
X161722455Y-103657547D01*
X161837664Y-103743793D01*
X161837671Y-103743797D01*
X161972517Y-103794091D01*
X161972516Y-103794091D01*
X161979444Y-103794835D01*
X162032127Y-103800500D01*
X163927872Y-103800499D01*
X163987483Y-103794091D01*
X164122331Y-103743796D01*
X164237546Y-103657546D01*
X164323796Y-103542331D01*
X164348729Y-103475483D01*
X164353601Y-103462420D01*
X164395471Y-103406486D01*
X164460936Y-103382068D01*
X164529209Y-103396919D01*
X164557464Y-103418071D01*
X164607636Y-103468243D01*
X164607641Y-103468247D01*
X164653057Y-103501243D01*
X164785978Y-103597815D01*
X164914375Y-103663237D01*
X164982393Y-103697895D01*
X164982396Y-103697896D01*
X165087221Y-103731955D01*
X165192049Y-103766015D01*
X165409778Y-103800500D01*
X165409779Y-103800500D01*
X165630221Y-103800500D01*
X165630222Y-103800500D01*
X165847951Y-103766015D01*
X166057606Y-103697895D01*
X166254022Y-103597815D01*
X166432365Y-103468242D01*
X166588242Y-103312365D01*
X166717815Y-103134022D01*
X166817895Y-102937606D01*
X166886015Y-102727951D01*
X166920500Y-102510222D01*
X166920500Y-102289778D01*
X166886015Y-102072049D01*
X166843853Y-101942287D01*
X166817896Y-101862396D01*
X166817895Y-101862393D01*
X166783237Y-101794375D01*
X166717815Y-101665978D01*
X166605661Y-101511610D01*
X166588247Y-101487641D01*
X166588243Y-101487636D01*
X166432363Y-101331756D01*
X166432358Y-101331752D01*
X166254025Y-101202187D01*
X166254024Y-101202186D01*
X166254022Y-101202185D01*
X166191096Y-101170122D01*
X166057606Y-101102104D01*
X166057603Y-101102103D01*
X165847952Y-101033985D01*
X165739086Y-101016742D01*
X165630222Y-100999500D01*
X165409778Y-100999500D01*
X165337201Y-101010995D01*
X165192047Y-101033985D01*
X164982396Y-101102103D01*
X164982393Y-101102104D01*
X164785974Y-101202187D01*
X164607641Y-101331752D01*
X164607636Y-101331756D01*
X164557463Y-101381929D01*
X164496140Y-101415413D01*
X164426448Y-101410428D01*
X164370515Y-101368557D01*
X164353601Y-101337580D01*
X164323797Y-101257671D01*
X164323793Y-101257664D01*
X164237547Y-101142455D01*
X164237544Y-101142452D01*
X164122335Y-101056206D01*
X164122328Y-101056202D01*
X163987482Y-101005908D01*
X163987483Y-101005908D01*
X163927883Y-100999501D01*
X163927881Y-100999500D01*
X163927873Y-100999500D01*
X163927864Y-100999500D01*
X162032129Y-100999500D01*
X162032123Y-100999501D01*
X161972516Y-101005908D01*
X161837671Y-101056202D01*
X161837664Y-101056206D01*
X161722455Y-101142452D01*
X161722452Y-101142455D01*
X161636206Y-101257664D01*
X161636202Y-101257671D01*
X161585908Y-101392517D01*
X161579501Y-101452116D01*
X161579500Y-101452135D01*
X105480500Y-101452135D01*
X105480500Y-99723713D01*
X108329500Y-99723713D01*
X108329500Y-99936287D01*
X108362754Y-100146243D01*
X108422714Y-100330781D01*
X108428444Y-100348414D01*
X108524951Y-100537820D01*
X108649890Y-100709786D01*
X108800213Y-100860109D01*
X108972179Y-100985048D01*
X108972181Y-100985049D01*
X108972184Y-100985051D01*
X109161588Y-101081557D01*
X109363757Y-101147246D01*
X109573713Y-101180500D01*
X109573714Y-101180500D01*
X109786286Y-101180500D01*
X109786287Y-101180500D01*
X109996243Y-101147246D01*
X110198412Y-101081557D01*
X110387816Y-100985051D01*
X110409789Y-100969086D01*
X110559786Y-100860109D01*
X110559788Y-100860106D01*
X110559792Y-100860104D01*
X110710104Y-100709792D01*
X110710106Y-100709788D01*
X110710109Y-100709786D01*
X110835048Y-100537820D01*
X110835047Y-100537820D01*
X110835051Y-100537816D01*
X110931557Y-100348412D01*
X110997246Y-100146243D01*
X111030500Y-99936287D01*
X111030500Y-99723713D01*
X110997246Y-99513757D01*
X110931557Y-99311588D01*
X110862346Y-99175754D01*
X117284500Y-99175754D01*
X117284500Y-99424245D01*
X117302574Y-99561523D01*
X117316933Y-99670587D01*
X117329561Y-99717715D01*
X117381243Y-99910595D01*
X117381246Y-99910605D01*
X117476328Y-100140153D01*
X117476333Y-100140164D01*
X117600563Y-100355335D01*
X117600574Y-100355351D01*
X117751828Y-100552470D01*
X117751834Y-100552477D01*
X117927522Y-100728165D01*
X117927528Y-100728170D01*
X118124657Y-100879432D01*
X118124664Y-100879436D01*
X118339835Y-101003666D01*
X118339840Y-101003668D01*
X118339843Y-101003670D01*
X118484603Y-101063631D01*
X118527874Y-101081555D01*
X118569404Y-101098757D01*
X118809413Y-101163067D01*
X119055762Y-101195500D01*
X119055769Y-101195500D01*
X119304231Y-101195500D01*
X119304238Y-101195500D01*
X119550587Y-101163067D01*
X119790596Y-101098757D01*
X120020157Y-101003670D01*
X120235343Y-100879432D01*
X120432472Y-100728170D01*
X120608170Y-100552472D01*
X120759432Y-100355343D01*
X120883670Y-100140157D01*
X120978757Y-99910596D01*
X121043067Y-99670587D01*
X121075500Y-99424238D01*
X121075500Y-99175762D01*
X121075499Y-99175754D01*
X129484500Y-99175754D01*
X129484500Y-99424245D01*
X129502574Y-99561523D01*
X129516933Y-99670587D01*
X129529561Y-99717715D01*
X129581243Y-99910595D01*
X129581246Y-99910605D01*
X129676328Y-100140153D01*
X129676333Y-100140164D01*
X129800563Y-100355335D01*
X129800574Y-100355351D01*
X129951828Y-100552470D01*
X129951834Y-100552477D01*
X130127522Y-100728165D01*
X130127528Y-100728170D01*
X130324657Y-100879432D01*
X130324664Y-100879436D01*
X130539835Y-101003666D01*
X130539840Y-101003668D01*
X130539843Y-101003670D01*
X130684603Y-101063631D01*
X130727874Y-101081555D01*
X130769404Y-101098757D01*
X131009413Y-101163067D01*
X131255762Y-101195500D01*
X131255769Y-101195500D01*
X131504231Y-101195500D01*
X131504238Y-101195500D01*
X131750587Y-101163067D01*
X131990596Y-101098757D01*
X132220157Y-101003670D01*
X132435343Y-100879432D01*
X132632472Y-100728170D01*
X132808170Y-100552472D01*
X132959432Y-100355343D01*
X133083670Y-100140157D01*
X133178757Y-99910596D01*
X133243067Y-99670587D01*
X133275500Y-99424238D01*
X133275500Y-99175762D01*
X133243067Y-98929413D01*
X133178757Y-98689404D01*
X133172770Y-98674951D01*
X133083671Y-98459846D01*
X133083666Y-98459835D01*
X132959436Y-98244664D01*
X132959432Y-98244657D01*
X132808170Y-98047528D01*
X132808165Y-98047522D01*
X132632477Y-97871834D01*
X132632470Y-97871828D01*
X132435351Y-97720574D01*
X132435349Y-97720572D01*
X132435343Y-97720568D01*
X132435338Y-97720565D01*
X132435335Y-97720563D01*
X132220164Y-97596333D01*
X132220153Y-97596328D01*
X131990605Y-97501246D01*
X131990598Y-97501244D01*
X131990596Y-97501243D01*
X131750587Y-97436933D01*
X131695842Y-97429725D01*
X131504245Y-97404500D01*
X131504238Y-97404500D01*
X131255762Y-97404500D01*
X131255754Y-97404500D01*
X131036785Y-97433329D01*
X131009413Y-97436933D01*
X130769404Y-97501243D01*
X130769394Y-97501246D01*
X130539846Y-97596328D01*
X130539835Y-97596333D01*
X130324664Y-97720563D01*
X130324648Y-97720574D01*
X130127529Y-97871828D01*
X130127522Y-97871834D01*
X129951834Y-98047522D01*
X129951828Y-98047529D01*
X129800574Y-98244648D01*
X129800563Y-98244664D01*
X129676333Y-98459835D01*
X129676328Y-98459846D01*
X129581246Y-98689394D01*
X129581243Y-98689404D01*
X129551639Y-98799890D01*
X129516933Y-98929414D01*
X129484500Y-99175754D01*
X121075499Y-99175754D01*
X121043067Y-98929413D01*
X120978757Y-98689404D01*
X120972770Y-98674951D01*
X120883671Y-98459846D01*
X120883666Y-98459835D01*
X120759436Y-98244664D01*
X120759432Y-98244657D01*
X120608170Y-98047528D01*
X120608165Y-98047522D01*
X120432477Y-97871834D01*
X120432470Y-97871828D01*
X120235351Y-97720574D01*
X120235349Y-97720572D01*
X120235343Y-97720568D01*
X120235338Y-97720565D01*
X120235335Y-97720563D01*
X120020164Y-97596333D01*
X120020153Y-97596328D01*
X119790605Y-97501246D01*
X119790598Y-97501244D01*
X119790596Y-97501243D01*
X119550587Y-97436933D01*
X119495842Y-97429725D01*
X119304245Y-97404500D01*
X119304238Y-97404500D01*
X119055762Y-97404500D01*
X119055754Y-97404500D01*
X118836785Y-97433329D01*
X118809413Y-97436933D01*
X118569404Y-97501243D01*
X118569394Y-97501246D01*
X118339846Y-97596328D01*
X118339835Y-97596333D01*
X118124664Y-97720563D01*
X118124648Y-97720574D01*
X117927529Y-97871828D01*
X117927522Y-97871834D01*
X117751834Y-98047522D01*
X117751828Y-98047529D01*
X117600574Y-98244648D01*
X117600563Y-98244664D01*
X117476333Y-98459835D01*
X117476328Y-98459846D01*
X117381246Y-98689394D01*
X117381243Y-98689404D01*
X117351639Y-98799890D01*
X117316933Y-98929414D01*
X117284500Y-99175754D01*
X110862346Y-99175754D01*
X110835051Y-99122184D01*
X110827023Y-99111134D01*
X110710109Y-98950213D01*
X110559786Y-98799890D01*
X110387820Y-98674951D01*
X110198414Y-98578444D01*
X110198413Y-98578443D01*
X110198412Y-98578443D01*
X109996243Y-98512754D01*
X109996241Y-98512753D01*
X109996240Y-98512753D01*
X109834957Y-98487208D01*
X109786287Y-98479500D01*
X109573713Y-98479500D01*
X109525042Y-98487208D01*
X109363760Y-98512753D01*
X109161585Y-98578444D01*
X108972179Y-98674951D01*
X108800213Y-98799890D01*
X108649890Y-98950213D01*
X108524951Y-99122179D01*
X108428444Y-99311585D01*
X108362753Y-99513760D01*
X108337915Y-99670585D01*
X108329500Y-99723713D01*
X105480500Y-99723713D01*
X105480500Y-91406379D01*
X163149500Y-91406379D01*
X163149500Y-91593620D01*
X163186025Y-91777243D01*
X163186027Y-91777251D01*
X163257676Y-91950228D01*
X163257681Y-91950237D01*
X163361697Y-92105907D01*
X163361700Y-92105911D01*
X163494088Y-92238299D01*
X163494092Y-92238302D01*
X163649762Y-92342318D01*
X163649771Y-92342323D01*
X163688244Y-92358259D01*
X163822749Y-92413973D01*
X164001357Y-92449500D01*
X164006379Y-92450499D01*
X164006383Y-92450500D01*
X164006384Y-92450500D01*
X164193617Y-92450500D01*
X164193618Y-92450499D01*
X164377251Y-92413973D01*
X164550231Y-92342322D01*
X164550236Y-92342318D01*
X164550239Y-92342317D01*
X164581545Y-92321399D01*
X164648222Y-92300520D01*
X164650437Y-92300500D01*
X165347060Y-92300500D01*
X165414099Y-92320185D01*
X165434741Y-92336819D01*
X165974742Y-92876820D01*
X166008227Y-92938143D01*
X166008678Y-92940309D01*
X166016025Y-92977245D01*
X166016026Y-92977249D01*
X166087676Y-93150228D01*
X166087681Y-93150237D01*
X166191697Y-93305907D01*
X166191700Y-93305911D01*
X166324088Y-93438299D01*
X166324092Y-93438302D01*
X166479762Y-93542318D01*
X166479768Y-93542321D01*
X166479769Y-93542322D01*
X166652749Y-93613973D01*
X166836379Y-93650499D01*
X166836383Y-93650500D01*
X166836384Y-93650500D01*
X167023617Y-93650500D01*
X167023618Y-93650499D01*
X167207251Y-93613973D01*
X167380231Y-93542322D01*
X167535908Y-93438302D01*
X167667831Y-93306379D01*
X168599500Y-93306379D01*
X168599500Y-93493620D01*
X168636025Y-93677243D01*
X168636027Y-93677251D01*
X168707676Y-93850228D01*
X168707681Y-93850237D01*
X168811697Y-94005907D01*
X168811700Y-94005911D01*
X168944088Y-94138299D01*
X168944092Y-94138302D01*
X169099762Y-94242318D01*
X169099768Y-94242321D01*
X169099769Y-94242322D01*
X169272749Y-94313973D01*
X169456379Y-94350499D01*
X169456383Y-94350500D01*
X169649708Y-94350500D01*
X169649708Y-94353422D01*
X169706027Y-94363919D01*
X169737566Y-94386801D01*
X170513181Y-95162416D01*
X170546666Y-95223739D01*
X170549500Y-95250097D01*
X170549500Y-95393620D01*
X170586025Y-95577243D01*
X170586027Y-95577251D01*
X170657676Y-95750228D01*
X170657681Y-95750237D01*
X170761697Y-95905907D01*
X170761700Y-95905911D01*
X170894088Y-96038299D01*
X170894092Y-96038302D01*
X171049762Y-96142318D01*
X171049768Y-96142321D01*
X171049769Y-96142322D01*
X171222749Y-96213973D01*
X171406379Y-96250499D01*
X171406383Y-96250500D01*
X171406384Y-96250500D01*
X171593617Y-96250500D01*
X171593618Y-96250499D01*
X171777251Y-96213973D01*
X171950231Y-96142322D01*
X172105908Y-96038302D01*
X172238302Y-95905908D01*
X172342322Y-95750231D01*
X172413973Y-95577251D01*
X172413973Y-95577249D01*
X172416103Y-95572108D01*
X172459944Y-95517704D01*
X172506473Y-95497943D01*
X172575095Y-95484292D01*
X172677251Y-95463973D01*
X172850231Y-95392322D01*
X173005908Y-95288302D01*
X173138302Y-95155908D01*
X173201115Y-95061902D01*
X174829500Y-95061902D01*
X174829500Y-95298097D01*
X174866446Y-95531368D01*
X174939433Y-95755996D01*
X175046657Y-95966433D01*
X175185483Y-96157510D01*
X175352490Y-96324517D01*
X175543567Y-96463343D01*
X175642991Y-96514002D01*
X175754003Y-96570566D01*
X175754005Y-96570566D01*
X175754008Y-96570568D01*
X175874412Y-96609689D01*
X175978631Y-96643553D01*
X176211903Y-96680500D01*
X176211908Y-96680500D01*
X176448097Y-96680500D01*
X176681368Y-96643553D01*
X176905992Y-96570568D01*
X177116433Y-96463343D01*
X177307510Y-96324517D01*
X177474517Y-96157510D01*
X177613343Y-95966433D01*
X177720568Y-95755992D01*
X177793553Y-95531368D01*
X177804227Y-95463973D01*
X177830500Y-95298097D01*
X177830500Y-95061902D01*
X181329500Y-95061902D01*
X181329500Y-95298097D01*
X181366446Y-95531368D01*
X181439433Y-95755996D01*
X181546657Y-95966433D01*
X181685483Y-96157510D01*
X181852490Y-96324517D01*
X182043567Y-96463343D01*
X182142991Y-96514002D01*
X182254003Y-96570566D01*
X182254005Y-96570566D01*
X182254008Y-96570568D01*
X182374412Y-96609689D01*
X182478631Y-96643553D01*
X182711903Y-96680500D01*
X182711908Y-96680500D01*
X182948097Y-96680500D01*
X183181368Y-96643553D01*
X183405992Y-96570568D01*
X183616433Y-96463343D01*
X183807510Y-96324517D01*
X183974517Y-96157510D01*
X184113343Y-95966433D01*
X184220568Y-95755992D01*
X184293553Y-95531368D01*
X184304227Y-95463973D01*
X184330500Y-95298097D01*
X184330500Y-95061902D01*
X184293553Y-94828631D01*
X184223806Y-94613974D01*
X184220568Y-94604008D01*
X184220566Y-94604005D01*
X184220566Y-94604003D01*
X184149492Y-94464514D01*
X184113343Y-94393567D01*
X183974517Y-94202490D01*
X183807510Y-94035483D01*
X183616433Y-93896657D01*
X183525329Y-93850237D01*
X183405996Y-93789433D01*
X183181368Y-93716446D01*
X182948097Y-93679500D01*
X182948092Y-93679500D01*
X182711908Y-93679500D01*
X182711903Y-93679500D01*
X182478631Y-93716446D01*
X182254003Y-93789433D01*
X182043566Y-93896657D01*
X181934550Y-93975862D01*
X181852490Y-94035483D01*
X181852488Y-94035485D01*
X181852487Y-94035485D01*
X181685485Y-94202487D01*
X181685485Y-94202488D01*
X181685483Y-94202490D01*
X181656543Y-94242323D01*
X181546657Y-94393566D01*
X181439433Y-94604003D01*
X181366446Y-94828631D01*
X181329500Y-95061902D01*
X177830500Y-95061902D01*
X177793553Y-94828631D01*
X177723806Y-94613974D01*
X177720568Y-94604008D01*
X177720566Y-94604005D01*
X177720566Y-94604003D01*
X177649492Y-94464514D01*
X177613343Y-94393567D01*
X177474517Y-94202490D01*
X177307510Y-94035483D01*
X177116433Y-93896657D01*
X177025329Y-93850237D01*
X176905996Y-93789433D01*
X176681368Y-93716446D01*
X176448097Y-93679500D01*
X176448092Y-93679500D01*
X176211908Y-93679500D01*
X176211903Y-93679500D01*
X175978631Y-93716446D01*
X175754003Y-93789433D01*
X175543566Y-93896657D01*
X175434550Y-93975862D01*
X175352490Y-94035483D01*
X175352488Y-94035485D01*
X175352487Y-94035485D01*
X175185485Y-94202487D01*
X175185485Y-94202488D01*
X175185483Y-94202490D01*
X175156543Y-94242323D01*
X175046657Y-94393566D01*
X174939433Y-94604003D01*
X174866446Y-94828631D01*
X174829500Y-95061902D01*
X173201115Y-95061902D01*
X173242322Y-95000231D01*
X173313973Y-94827251D01*
X173333342Y-94729870D01*
X173365726Y-94667963D01*
X173426441Y-94633388D01*
X173430768Y-94632447D01*
X173471203Y-94624403D01*
X173523644Y-94613973D01*
X173696624Y-94542322D01*
X173852301Y-94438302D01*
X173984695Y-94305908D01*
X174088715Y-94150231D01*
X174160366Y-93977251D01*
X174196893Y-93793616D01*
X174196893Y-93606384D01*
X174160366Y-93422749D01*
X174088715Y-93249769D01*
X174088713Y-93249766D01*
X174088711Y-93249762D01*
X174056732Y-93201902D01*
X178079500Y-93201902D01*
X178079500Y-93438097D01*
X178116446Y-93671368D01*
X178189433Y-93895996D01*
X178260506Y-94035483D01*
X178296657Y-94106433D01*
X178435483Y-94297510D01*
X178602490Y-94464517D01*
X178793567Y-94603343D01*
X178814426Y-94613971D01*
X179004003Y-94710566D01*
X179004005Y-94710566D01*
X179004008Y-94710568D01*
X179063426Y-94729874D01*
X179228631Y-94783553D01*
X179461903Y-94820500D01*
X179461908Y-94820500D01*
X179698097Y-94820500D01*
X179931368Y-94783553D01*
X180155992Y-94710568D01*
X180366433Y-94603343D01*
X180557510Y-94464517D01*
X180724517Y-94297510D01*
X180863343Y-94106433D01*
X180970568Y-93895992D01*
X181043553Y-93671368D01*
X181052643Y-93613974D01*
X181080500Y-93438097D01*
X181080500Y-93201902D01*
X181043553Y-92968631D01*
X180986687Y-92793617D01*
X180970568Y-92744008D01*
X180970566Y-92744005D01*
X180970566Y-92744003D01*
X180900445Y-92606384D01*
X180863343Y-92533567D01*
X180724517Y-92342490D01*
X180557510Y-92175483D01*
X180366433Y-92036657D01*
X180155996Y-91929433D01*
X179931368Y-91856446D01*
X179698097Y-91819500D01*
X179698092Y-91819500D01*
X179461908Y-91819500D01*
X179461903Y-91819500D01*
X179228631Y-91856446D01*
X179004003Y-91929433D01*
X178793566Y-92036657D01*
X178698253Y-92105907D01*
X178602490Y-92175483D01*
X178602488Y-92175485D01*
X178602487Y-92175485D01*
X178435485Y-92342487D01*
X178435485Y-92342488D01*
X178435483Y-92342490D01*
X178383548Y-92413972D01*
X178296657Y-92533566D01*
X178189433Y-92744003D01*
X178116446Y-92968631D01*
X178079500Y-93201902D01*
X174056732Y-93201902D01*
X173984695Y-93094092D01*
X173984692Y-93094088D01*
X173852304Y-92961700D01*
X173852300Y-92961697D01*
X173696630Y-92857681D01*
X173696621Y-92857676D01*
X173523642Y-92786026D01*
X173523638Y-92786025D01*
X173486702Y-92778678D01*
X173424791Y-92746293D01*
X173423213Y-92744742D01*
X172185257Y-91506786D01*
X172151772Y-91445463D01*
X172151332Y-91443355D01*
X172143973Y-91406356D01*
X172072322Y-91233376D01*
X172072321Y-91233375D01*
X172072318Y-91233369D01*
X171968302Y-91077699D01*
X171968299Y-91077695D01*
X171835911Y-90945307D01*
X171835907Y-90945304D01*
X171680237Y-90841288D01*
X171680228Y-90841283D01*
X171507251Y-90769634D01*
X171507243Y-90769632D01*
X171323620Y-90733107D01*
X171323616Y-90733107D01*
X171136384Y-90733107D01*
X171136379Y-90733107D01*
X170952756Y-90769632D01*
X170952748Y-90769634D01*
X170779771Y-90841283D01*
X170779762Y-90841288D01*
X170624092Y-90945304D01*
X170624088Y-90945307D01*
X170491700Y-91077695D01*
X170491697Y-91077699D01*
X170387681Y-91233369D01*
X170387676Y-91233378D01*
X170316027Y-91406355D01*
X170316025Y-91406363D01*
X170281464Y-91580112D01*
X170249079Y-91642023D01*
X170188363Y-91676597D01*
X170184039Y-91677538D01*
X170167547Y-91680818D01*
X170167541Y-91680820D01*
X169994564Y-91752469D01*
X169994555Y-91752474D01*
X169838885Y-91856490D01*
X169838881Y-91856493D01*
X169706493Y-91988881D01*
X169706490Y-91988885D01*
X169602474Y-92144555D01*
X169602469Y-92144564D01*
X169530820Y-92317541D01*
X169530818Y-92317546D01*
X169522720Y-92358259D01*
X169490334Y-92420170D01*
X169429618Y-92454743D01*
X169425295Y-92455683D01*
X169272754Y-92486025D01*
X169272748Y-92486027D01*
X169099771Y-92557676D01*
X169099762Y-92557681D01*
X168944092Y-92661697D01*
X168944088Y-92661700D01*
X168811700Y-92794088D01*
X168811697Y-92794092D01*
X168707681Y-92949762D01*
X168707676Y-92949771D01*
X168636027Y-93122748D01*
X168636025Y-93122756D01*
X168599500Y-93306379D01*
X167667831Y-93306379D01*
X167668302Y-93305908D01*
X167684540Y-93281605D01*
X167718086Y-93231402D01*
X167718086Y-93231401D01*
X167772318Y-93150237D01*
X167772318Y-93150236D01*
X167772322Y-93150231D01*
X167843973Y-92977251D01*
X167880500Y-92793616D01*
X167880500Y-92606384D01*
X167843973Y-92422749D01*
X167772322Y-92249769D01*
X167772321Y-92249768D01*
X167772318Y-92249762D01*
X167668302Y-92094092D01*
X167668299Y-92094088D01*
X167535911Y-91961700D01*
X167535907Y-91961697D01*
X167380237Y-91857681D01*
X167380228Y-91857676D01*
X167207249Y-91786026D01*
X167207245Y-91786025D01*
X167170309Y-91778678D01*
X167108398Y-91746293D01*
X167106820Y-91744742D01*
X166240292Y-90878213D01*
X166240288Y-90878210D01*
X166109185Y-90790609D01*
X166109172Y-90790602D01*
X165963501Y-90730264D01*
X165963489Y-90730261D01*
X165808845Y-90699500D01*
X165808842Y-90699500D01*
X164650437Y-90699500D01*
X164583398Y-90679815D01*
X164581545Y-90678601D01*
X164550239Y-90657682D01*
X164550228Y-90657676D01*
X164377251Y-90586027D01*
X164377243Y-90586025D01*
X164193620Y-90549500D01*
X164193616Y-90549500D01*
X164006384Y-90549500D01*
X164006379Y-90549500D01*
X163822756Y-90586025D01*
X163822748Y-90586027D01*
X163649771Y-90657676D01*
X163649762Y-90657681D01*
X163494092Y-90761697D01*
X163494088Y-90761700D01*
X163361700Y-90894088D01*
X163361697Y-90894092D01*
X163257681Y-91049762D01*
X163257676Y-91049771D01*
X163186027Y-91222748D01*
X163186025Y-91222756D01*
X163149500Y-91406379D01*
X105480500Y-91406379D01*
X105480500Y-89406379D01*
X175129500Y-89406379D01*
X175129500Y-89593620D01*
X175166025Y-89777243D01*
X175166027Y-89777251D01*
X175237676Y-89950228D01*
X175237682Y-89950239D01*
X175258601Y-89981545D01*
X175279480Y-90048222D01*
X175279500Y-90050437D01*
X175279500Y-91343351D01*
X175277117Y-91367542D01*
X175249500Y-91506380D01*
X175249500Y-91693620D01*
X175286025Y-91877243D01*
X175286027Y-91877251D01*
X175357676Y-92050228D01*
X175357681Y-92050237D01*
X175461697Y-92205907D01*
X175461700Y-92205911D01*
X175594088Y-92338299D01*
X175594092Y-92338302D01*
X175749762Y-92442318D01*
X175749768Y-92442321D01*
X175749769Y-92442322D01*
X175922749Y-92513973D01*
X176106379Y-92550499D01*
X176106383Y-92550500D01*
X176106384Y-92550500D01*
X176293617Y-92550500D01*
X176293618Y-92550499D01*
X176477251Y-92513973D01*
X176650231Y-92442322D01*
X176805908Y-92338302D01*
X176938302Y-92205908D01*
X177042322Y-92050231D01*
X177113973Y-91877251D01*
X177150500Y-91693616D01*
X177150500Y-91506384D01*
X177113973Y-91322749D01*
X177042322Y-91149769D01*
X177042321Y-91149768D01*
X177042318Y-91149762D01*
X176938302Y-90994092D01*
X176938299Y-90994088D01*
X176916819Y-90972608D01*
X176883334Y-90911285D01*
X176880500Y-90884927D01*
X176880500Y-90050437D01*
X176900185Y-89983398D01*
X176901399Y-89981545D01*
X176922317Y-89950239D01*
X176922318Y-89950236D01*
X176922322Y-89950231D01*
X176993973Y-89777251D01*
X177030500Y-89593616D01*
X177030500Y-89406384D01*
X176993973Y-89222749D01*
X176922322Y-89049769D01*
X176922321Y-89049768D01*
X176922318Y-89049762D01*
X176818302Y-88894092D01*
X176818299Y-88894088D01*
X176685911Y-88761700D01*
X176685907Y-88761697D01*
X176530237Y-88657681D01*
X176530228Y-88657676D01*
X176357251Y-88586027D01*
X176357243Y-88586025D01*
X176173620Y-88549500D01*
X176173616Y-88549500D01*
X175986384Y-88549500D01*
X175986379Y-88549500D01*
X175802756Y-88586025D01*
X175802748Y-88586027D01*
X175629771Y-88657676D01*
X175629762Y-88657681D01*
X175474092Y-88761697D01*
X175474088Y-88761700D01*
X175341700Y-88894088D01*
X175341697Y-88894092D01*
X175237681Y-89049762D01*
X175237676Y-89049771D01*
X175166027Y-89222748D01*
X175166025Y-89222756D01*
X175129500Y-89406379D01*
X105480500Y-89406379D01*
X105480500Y-83822135D01*
X125399500Y-83822135D01*
X125399500Y-86917870D01*
X125399501Y-86917876D01*
X125405908Y-86977483D01*
X125456202Y-87112328D01*
X125456206Y-87112335D01*
X125542452Y-87227544D01*
X125542455Y-87227547D01*
X125657664Y-87313793D01*
X125657671Y-87313797D01*
X125792517Y-87364091D01*
X125792516Y-87364091D01*
X125799444Y-87364835D01*
X125852127Y-87370500D01*
X128947872Y-87370499D01*
X129007483Y-87364091D01*
X129142331Y-87313796D01*
X129257546Y-87227546D01*
X129343796Y-87112331D01*
X129394091Y-86977483D01*
X129400500Y-86917873D01*
X129400500Y-86506379D01*
X186249500Y-86506379D01*
X186249500Y-86693620D01*
X186286025Y-86877243D01*
X186286027Y-86877251D01*
X186357676Y-87050228D01*
X186357681Y-87050237D01*
X186461697Y-87205907D01*
X186461700Y-87205911D01*
X186594088Y-87338299D01*
X186594092Y-87338302D01*
X186749762Y-87442318D01*
X186749768Y-87442321D01*
X186749769Y-87442322D01*
X186922749Y-87513973D01*
X187106379Y-87550499D01*
X187106383Y-87550500D01*
X187106384Y-87550500D01*
X187293617Y-87550500D01*
X187293618Y-87550499D01*
X187477251Y-87513973D01*
X187650231Y-87442322D01*
X187805908Y-87338302D01*
X187907392Y-87236817D01*
X187968713Y-87203334D01*
X187995072Y-87200500D01*
X189484928Y-87200500D01*
X189551967Y-87220185D01*
X189572604Y-87236814D01*
X189649583Y-87313793D01*
X189674093Y-87338303D01*
X189829762Y-87442318D01*
X189829768Y-87442321D01*
X189829769Y-87442322D01*
X190002749Y-87513973D01*
X190186379Y-87550499D01*
X190186383Y-87550500D01*
X190186384Y-87550500D01*
X190373617Y-87550500D01*
X190373618Y-87550499D01*
X190557251Y-87513973D01*
X190730231Y-87442322D01*
X190885908Y-87338302D01*
X191018302Y-87205908D01*
X191122322Y-87050231D01*
X191193973Y-86877251D01*
X191230500Y-86693616D01*
X191230500Y-86506384D01*
X191193973Y-86322749D01*
X191122322Y-86149769D01*
X191122321Y-86149768D01*
X191122318Y-86149762D01*
X191018302Y-85994092D01*
X191018299Y-85994088D01*
X190885911Y-85861700D01*
X190885907Y-85861697D01*
X190730237Y-85757681D01*
X190730228Y-85757676D01*
X190557251Y-85686027D01*
X190557243Y-85686025D01*
X190373620Y-85649500D01*
X190373616Y-85649500D01*
X190186384Y-85649500D01*
X190186379Y-85649500D01*
X190002756Y-85686025D01*
X190002748Y-85686027D01*
X189829771Y-85757676D01*
X189829762Y-85757681D01*
X189674093Y-85861696D01*
X189623351Y-85912438D01*
X189572607Y-85963182D01*
X189511287Y-85996666D01*
X189484928Y-85999500D01*
X187995072Y-85999500D01*
X187928033Y-85979815D01*
X187907395Y-85963185D01*
X187805908Y-85861698D01*
X187805907Y-85861697D01*
X187805906Y-85861696D01*
X187650237Y-85757681D01*
X187650228Y-85757676D01*
X187477251Y-85686027D01*
X187477243Y-85686025D01*
X187293620Y-85649500D01*
X187293616Y-85649500D01*
X187106384Y-85649500D01*
X187106379Y-85649500D01*
X186922756Y-85686025D01*
X186922748Y-85686027D01*
X186749771Y-85757676D01*
X186749762Y-85757681D01*
X186594092Y-85861697D01*
X186594088Y-85861700D01*
X186461700Y-85994088D01*
X186461697Y-85994092D01*
X186357681Y-86149762D01*
X186357676Y-86149771D01*
X186286027Y-86322748D01*
X186286025Y-86322756D01*
X186249500Y-86506379D01*
X129400500Y-86506379D01*
X129400499Y-85306379D01*
X163099500Y-85306379D01*
X163099500Y-85493620D01*
X163136025Y-85677243D01*
X163136027Y-85677251D01*
X163207676Y-85850228D01*
X163207681Y-85850237D01*
X163311697Y-86005907D01*
X163311700Y-86005911D01*
X163444088Y-86138299D01*
X163444092Y-86138302D01*
X163599762Y-86242318D01*
X163599768Y-86242321D01*
X163599769Y-86242322D01*
X163772749Y-86313973D01*
X163956379Y-86350499D01*
X163956383Y-86350500D01*
X163956384Y-86350500D01*
X164143617Y-86350500D01*
X164143618Y-86350499D01*
X164327251Y-86313973D01*
X164500231Y-86242322D01*
X164500236Y-86242318D01*
X164500239Y-86242317D01*
X164531545Y-86221399D01*
X164598222Y-86200520D01*
X164600437Y-86200500D01*
X167029563Y-86200500D01*
X167096602Y-86220185D01*
X167098455Y-86221399D01*
X167129760Y-86242317D01*
X167129768Y-86242321D01*
X167129769Y-86242322D01*
X167302749Y-86313973D01*
X167486379Y-86350499D01*
X167486383Y-86350500D01*
X167486384Y-86350500D01*
X167673617Y-86350500D01*
X167673618Y-86350499D01*
X167857251Y-86313973D01*
X168030231Y-86242322D01*
X168185908Y-86138302D01*
X168318302Y-86005908D01*
X168422322Y-85850231D01*
X168493973Y-85677251D01*
X168530500Y-85493616D01*
X168530500Y-85306384D01*
X168493973Y-85122749D01*
X168422322Y-84949769D01*
X168422321Y-84949768D01*
X168422318Y-84949762D01*
X168318302Y-84794092D01*
X168318299Y-84794088D01*
X168185911Y-84661700D01*
X168185907Y-84661697D01*
X168030237Y-84557681D01*
X168030228Y-84557676D01*
X167857251Y-84486027D01*
X167857243Y-84486025D01*
X167673620Y-84449500D01*
X167673616Y-84449500D01*
X167486384Y-84449500D01*
X167486379Y-84449500D01*
X167302756Y-84486025D01*
X167302748Y-84486027D01*
X167129771Y-84557676D01*
X167129760Y-84557682D01*
X167098455Y-84578601D01*
X167031778Y-84599480D01*
X167029563Y-84599500D01*
X164600437Y-84599500D01*
X164533398Y-84579815D01*
X164531545Y-84578601D01*
X164500239Y-84557682D01*
X164500228Y-84557676D01*
X164327251Y-84486027D01*
X164327243Y-84486025D01*
X164143620Y-84449500D01*
X164143616Y-84449500D01*
X163956384Y-84449500D01*
X163956379Y-84449500D01*
X163772756Y-84486025D01*
X163772748Y-84486027D01*
X163599771Y-84557676D01*
X163599762Y-84557681D01*
X163444092Y-84661697D01*
X163444088Y-84661700D01*
X163311700Y-84794088D01*
X163311697Y-84794092D01*
X163207681Y-84949762D01*
X163207676Y-84949771D01*
X163136027Y-85122748D01*
X163136025Y-85122756D01*
X163099500Y-85306379D01*
X129400499Y-85306379D01*
X129400499Y-83822128D01*
X129394091Y-83762517D01*
X129343796Y-83627669D01*
X129343795Y-83627668D01*
X129343793Y-83627664D01*
X129257547Y-83512455D01*
X129257544Y-83512452D01*
X129142335Y-83426206D01*
X129142328Y-83426202D01*
X129007482Y-83375908D01*
X129007483Y-83375908D01*
X128947883Y-83369501D01*
X128947881Y-83369500D01*
X128947873Y-83369500D01*
X128947864Y-83369500D01*
X125852129Y-83369500D01*
X125852123Y-83369501D01*
X125792516Y-83375908D01*
X125657671Y-83426202D01*
X125657664Y-83426206D01*
X125542455Y-83512452D01*
X125542452Y-83512455D01*
X125456206Y-83627664D01*
X125456202Y-83627671D01*
X125405908Y-83762517D01*
X125399501Y-83822116D01*
X125399501Y-83822123D01*
X125399500Y-83822135D01*
X105480500Y-83822135D01*
X105480500Y-76413766D01*
X193632000Y-76413766D01*
X193632000Y-76586233D01*
X193665643Y-76755366D01*
X193665646Y-76755378D01*
X193731638Y-76914698D01*
X193731645Y-76914711D01*
X193827454Y-77058098D01*
X193827457Y-77058102D01*
X193949397Y-77180042D01*
X193949401Y-77180045D01*
X194092788Y-77275854D01*
X194092801Y-77275861D01*
X194252121Y-77341853D01*
X194252126Y-77341855D01*
X194421266Y-77375499D01*
X194421269Y-77375500D01*
X194421271Y-77375500D01*
X194593731Y-77375500D01*
X194593732Y-77375499D01*
X194762874Y-77341855D01*
X194922205Y-77275858D01*
X195065599Y-77180045D01*
X195187545Y-77058099D01*
X195283358Y-76914705D01*
X195349355Y-76755374D01*
X195383000Y-76586229D01*
X195383000Y-76413771D01*
X195383000Y-76413768D01*
X195382999Y-76413766D01*
X195349356Y-76244633D01*
X195349355Y-76244626D01*
X195349353Y-76244621D01*
X195283361Y-76085301D01*
X195283354Y-76085288D01*
X195187545Y-75941901D01*
X195187542Y-75941897D01*
X195065602Y-75819957D01*
X195065598Y-75819954D01*
X194922211Y-75724145D01*
X194922198Y-75724138D01*
X194762878Y-75658146D01*
X194762866Y-75658143D01*
X194593732Y-75624500D01*
X194593729Y-75624500D01*
X194421271Y-75624500D01*
X194421268Y-75624500D01*
X194252133Y-75658143D01*
X194252121Y-75658146D01*
X194092801Y-75724138D01*
X194092788Y-75724145D01*
X193949401Y-75819954D01*
X193949397Y-75819957D01*
X193827457Y-75941897D01*
X193827454Y-75941901D01*
X193731645Y-76085288D01*
X193731638Y-76085301D01*
X193665646Y-76244621D01*
X193665643Y-76244633D01*
X193632000Y-76413766D01*
X105480500Y-76413766D01*
X105480500Y-71380148D01*
X151167000Y-71380148D01*
X151167000Y-71584851D01*
X151199022Y-71787034D01*
X151262281Y-71981723D01*
X151326191Y-72107153D01*
X151347902Y-72149762D01*
X151355215Y-72164113D01*
X151475528Y-72329713D01*
X151620286Y-72474471D01*
X151775249Y-72587056D01*
X151785890Y-72594787D01*
X151902107Y-72654003D01*
X151968276Y-72687718D01*
X151968278Y-72687718D01*
X151968281Y-72687720D01*
X152072637Y-72721627D01*
X152162965Y-72750977D01*
X152264057Y-72766988D01*
X152365148Y-72783000D01*
X152365149Y-72783000D01*
X155469851Y-72783000D01*
X155469852Y-72783000D01*
X155672034Y-72750977D01*
X155866719Y-72687720D01*
X156049110Y-72594787D01*
X156142090Y-72527232D01*
X156170793Y-72506379D01*
X163349500Y-72506379D01*
X163349500Y-72693620D01*
X163386025Y-72877243D01*
X163386027Y-72877251D01*
X163457676Y-73050228D01*
X163457681Y-73050237D01*
X163561697Y-73205907D01*
X163561700Y-73205911D01*
X163694088Y-73338299D01*
X163694092Y-73338302D01*
X163849762Y-73442318D01*
X163849768Y-73442321D01*
X163849769Y-73442322D01*
X164022749Y-73513973D01*
X164206379Y-73550499D01*
X164206383Y-73550500D01*
X164206384Y-73550500D01*
X164393617Y-73550500D01*
X164393618Y-73550499D01*
X164577251Y-73513973D01*
X164750231Y-73442322D01*
X164905908Y-73338302D01*
X165007392Y-73236817D01*
X165068713Y-73203334D01*
X165095072Y-73200500D01*
X165954928Y-73200500D01*
X166021967Y-73220185D01*
X166042604Y-73236814D01*
X166144089Y-73338299D01*
X166144093Y-73338303D01*
X166299762Y-73442318D01*
X166299768Y-73442321D01*
X166299769Y-73442322D01*
X166472749Y-73513973D01*
X166656379Y-73550499D01*
X166656383Y-73550500D01*
X166656384Y-73550500D01*
X166843617Y-73550500D01*
X166843618Y-73550499D01*
X167027251Y-73513973D01*
X167200231Y-73442322D01*
X167355908Y-73338302D01*
X167488302Y-73205908D01*
X167592322Y-73050231D01*
X167663973Y-72877251D01*
X167700500Y-72693616D01*
X167700500Y-72506384D01*
X167663973Y-72322749D01*
X167592322Y-72149769D01*
X167592321Y-72149768D01*
X167592318Y-72149762D01*
X167488302Y-71994092D01*
X167488299Y-71994088D01*
X167355911Y-71861700D01*
X167355907Y-71861697D01*
X167200237Y-71757681D01*
X167200228Y-71757676D01*
X167027251Y-71686027D01*
X167027243Y-71686025D01*
X166843620Y-71649500D01*
X166843616Y-71649500D01*
X166656384Y-71649500D01*
X166656379Y-71649500D01*
X166472756Y-71686025D01*
X166472748Y-71686027D01*
X166299771Y-71757676D01*
X166299762Y-71757681D01*
X166144093Y-71861696D01*
X166093351Y-71912438D01*
X166042607Y-71963182D01*
X165981287Y-71996666D01*
X165954928Y-71999500D01*
X165095072Y-71999500D01*
X165028033Y-71979815D01*
X165007395Y-71963185D01*
X164905908Y-71861698D01*
X164905907Y-71861697D01*
X164905906Y-71861696D01*
X164750237Y-71757681D01*
X164750228Y-71757676D01*
X164577251Y-71686027D01*
X164577243Y-71686025D01*
X164393620Y-71649500D01*
X164393616Y-71649500D01*
X164206384Y-71649500D01*
X164206379Y-71649500D01*
X164022756Y-71686025D01*
X164022748Y-71686027D01*
X163849771Y-71757676D01*
X163849762Y-71757681D01*
X163694092Y-71861697D01*
X163694088Y-71861700D01*
X163561700Y-71994088D01*
X163561697Y-71994092D01*
X163457681Y-72149762D01*
X163457676Y-72149771D01*
X163386027Y-72322748D01*
X163386025Y-72322756D01*
X163349500Y-72506379D01*
X156170793Y-72506379D01*
X156214713Y-72474471D01*
X156214715Y-72474468D01*
X156214719Y-72474466D01*
X156359466Y-72329719D01*
X156359468Y-72329715D01*
X156359471Y-72329713D01*
X156412232Y-72257090D01*
X156479787Y-72164110D01*
X156572720Y-71981719D01*
X156635977Y-71787034D01*
X156668000Y-71584852D01*
X156668000Y-71380148D01*
X156635977Y-71177966D01*
X156635896Y-71177718D01*
X156572718Y-70983276D01*
X156479787Y-70800890D01*
X156392366Y-70680564D01*
X156392365Y-70680561D01*
X156359471Y-70635287D01*
X156359467Y-70635282D01*
X156337951Y-70613766D01*
X193632000Y-70613766D01*
X193632000Y-70786233D01*
X193665643Y-70955366D01*
X193665646Y-70955378D01*
X193731638Y-71114698D01*
X193731645Y-71114711D01*
X193827454Y-71258098D01*
X193827457Y-71258102D01*
X193949397Y-71380042D01*
X193949401Y-71380045D01*
X194092788Y-71475854D01*
X194092801Y-71475861D01*
X194252121Y-71541853D01*
X194252126Y-71541855D01*
X194421266Y-71575499D01*
X194421269Y-71575500D01*
X194421271Y-71575500D01*
X194593731Y-71575500D01*
X194593732Y-71575499D01*
X194762874Y-71541855D01*
X194922205Y-71475858D01*
X195065599Y-71380045D01*
X195187545Y-71258099D01*
X195283358Y-71114705D01*
X195349355Y-70955374D01*
X195383000Y-70786229D01*
X195383000Y-70613771D01*
X195383000Y-70613768D01*
X195382999Y-70613766D01*
X195349355Y-70444626D01*
X195318532Y-70370213D01*
X195283361Y-70285301D01*
X195283354Y-70285288D01*
X195187545Y-70141901D01*
X195187542Y-70141897D01*
X195065602Y-70019957D01*
X195065598Y-70019954D01*
X194922211Y-69924145D01*
X194922198Y-69924138D01*
X194762878Y-69858146D01*
X194762866Y-69858143D01*
X194593732Y-69824500D01*
X194593729Y-69824500D01*
X194421271Y-69824500D01*
X194421268Y-69824500D01*
X194252133Y-69858143D01*
X194252121Y-69858146D01*
X194092801Y-69924138D01*
X194092788Y-69924145D01*
X193949401Y-70019954D01*
X193949397Y-70019957D01*
X193827457Y-70141897D01*
X193827454Y-70141901D01*
X193731645Y-70285288D01*
X193731638Y-70285301D01*
X193665646Y-70444621D01*
X193665643Y-70444633D01*
X193632000Y-70613766D01*
X156337951Y-70613766D01*
X156214713Y-70490528D01*
X156049113Y-70370215D01*
X156049112Y-70370214D01*
X156049110Y-70370213D01*
X155992153Y-70341191D01*
X155866723Y-70277281D01*
X155672034Y-70214022D01*
X155497495Y-70186378D01*
X155469852Y-70182000D01*
X152365148Y-70182000D01*
X152340829Y-70185851D01*
X152162965Y-70214022D01*
X151968276Y-70277281D01*
X151785886Y-70370215D01*
X151620286Y-70490528D01*
X151475528Y-70635286D01*
X151355215Y-70800886D01*
X151262281Y-70983276D01*
X151199022Y-71177965D01*
X151167000Y-71380148D01*
X105480500Y-71380148D01*
X105480500Y-67470148D01*
X148217000Y-67470148D01*
X148217000Y-70074851D01*
X148249022Y-70277034D01*
X148312281Y-70471723D01*
X148376191Y-70597153D01*
X148395622Y-70635287D01*
X148405215Y-70654113D01*
X148525528Y-70819713D01*
X148670286Y-70964471D01*
X148825249Y-71077056D01*
X148835890Y-71084787D01*
X148952107Y-71144003D01*
X149018276Y-71177718D01*
X149018278Y-71177718D01*
X149018281Y-71177720D01*
X149122637Y-71211627D01*
X149212965Y-71240977D01*
X149287631Y-71252803D01*
X149415148Y-71273000D01*
X149415149Y-71273000D01*
X149619851Y-71273000D01*
X149619852Y-71273000D01*
X149822034Y-71240977D01*
X150016719Y-71177720D01*
X150199110Y-71084787D01*
X150292090Y-71017232D01*
X150364713Y-70964471D01*
X150364715Y-70964468D01*
X150364719Y-70964466D01*
X150509466Y-70819719D01*
X150509468Y-70819715D01*
X150509471Y-70819713D01*
X150610569Y-70680561D01*
X150629787Y-70654110D01*
X150722720Y-70471719D01*
X150785977Y-70277034D01*
X150818000Y-70074852D01*
X150818000Y-67470148D01*
X150785977Y-67267966D01*
X150722720Y-67073281D01*
X150722718Y-67073278D01*
X150722718Y-67073276D01*
X150689003Y-67007107D01*
X150629787Y-66890890D01*
X150622056Y-66880249D01*
X150509471Y-66725286D01*
X150364713Y-66580528D01*
X150199113Y-66460215D01*
X150199112Y-66460214D01*
X150199110Y-66460213D01*
X150142153Y-66431191D01*
X150016723Y-66367281D01*
X149822034Y-66304022D01*
X149647495Y-66276378D01*
X149619852Y-66272000D01*
X149415148Y-66272000D01*
X149390829Y-66275851D01*
X149212965Y-66304022D01*
X149018276Y-66367281D01*
X148835886Y-66460215D01*
X148670286Y-66580528D01*
X148525528Y-66725286D01*
X148405215Y-66890886D01*
X148312281Y-67073276D01*
X148249022Y-67267965D01*
X148217000Y-67470148D01*
X105480500Y-67470148D01*
X105480500Y-64881995D01*
X106999500Y-64881995D01*
X106999500Y-65118004D01*
X106999501Y-65118020D01*
X107023723Y-65302010D01*
X107030307Y-65352014D01*
X107091394Y-65579993D01*
X107181714Y-65798045D01*
X107181719Y-65798056D01*
X107252677Y-65920957D01*
X107299727Y-66002450D01*
X107299729Y-66002453D01*
X107299730Y-66002454D01*
X107443406Y-66189697D01*
X107443412Y-66189704D01*
X107610295Y-66356587D01*
X107610301Y-66356592D01*
X107797550Y-66500273D01*
X107915350Y-66568285D01*
X108001943Y-66618280D01*
X108001948Y-66618282D01*
X108001951Y-66618284D01*
X108220007Y-66708606D01*
X108447986Y-66769693D01*
X108681989Y-66800500D01*
X108681996Y-66800500D01*
X108918004Y-66800500D01*
X108918011Y-66800500D01*
X109152014Y-66769693D01*
X109379993Y-66708606D01*
X109598049Y-66618284D01*
X109802450Y-66500273D01*
X109989699Y-66356592D01*
X110156592Y-66189699D01*
X110300273Y-66002450D01*
X110418284Y-65798049D01*
X110508606Y-65579993D01*
X110569693Y-65352014D01*
X110600500Y-65118011D01*
X110600500Y-64881989D01*
X110593918Y-64831995D01*
X194999500Y-64831995D01*
X194999500Y-65068004D01*
X194999501Y-65068020D01*
X195030306Y-65302010D01*
X195091394Y-65529993D01*
X195181714Y-65748045D01*
X195181719Y-65748056D01*
X195252677Y-65870957D01*
X195299727Y-65952450D01*
X195299729Y-65952453D01*
X195299730Y-65952454D01*
X195443406Y-66139697D01*
X195443412Y-66139704D01*
X195610295Y-66306587D01*
X195610302Y-66306593D01*
X195720306Y-66391001D01*
X195797550Y-66450273D01*
X195884146Y-66500269D01*
X196001943Y-66568280D01*
X196001948Y-66568282D01*
X196001951Y-66568284D01*
X196220007Y-66658606D01*
X196447986Y-66719693D01*
X196681989Y-66750500D01*
X196681996Y-66750500D01*
X196918004Y-66750500D01*
X196918011Y-66750500D01*
X197152014Y-66719693D01*
X197379993Y-66658606D01*
X197598049Y-66568284D01*
X197802450Y-66450273D01*
X197989699Y-66306592D01*
X198156592Y-66139699D01*
X198300273Y-65952450D01*
X198418284Y-65748049D01*
X198508606Y-65529993D01*
X198569693Y-65302014D01*
X198600500Y-65068011D01*
X198600500Y-64831989D01*
X198569693Y-64597986D01*
X198508606Y-64370007D01*
X198418284Y-64151951D01*
X198418282Y-64151948D01*
X198418280Y-64151943D01*
X198376118Y-64078918D01*
X198300273Y-63947550D01*
X198156592Y-63760301D01*
X198156587Y-63760295D01*
X197989704Y-63593412D01*
X197989697Y-63593406D01*
X197802454Y-63449730D01*
X197802453Y-63449729D01*
X197802450Y-63449727D01*
X197684652Y-63381716D01*
X197598056Y-63331719D01*
X197598045Y-63331714D01*
X197379993Y-63241394D01*
X197152010Y-63180306D01*
X196918020Y-63149501D01*
X196918017Y-63149500D01*
X196918011Y-63149500D01*
X196681989Y-63149500D01*
X196681983Y-63149500D01*
X196681979Y-63149501D01*
X196447989Y-63180306D01*
X196220006Y-63241394D01*
X196001954Y-63331714D01*
X196001943Y-63331719D01*
X195797545Y-63449730D01*
X195610302Y-63593406D01*
X195610295Y-63593412D01*
X195443412Y-63760295D01*
X195443406Y-63760302D01*
X195299730Y-63947545D01*
X195181719Y-64151943D01*
X195181714Y-64151954D01*
X195091394Y-64370006D01*
X195030306Y-64597989D01*
X194999501Y-64831979D01*
X194999500Y-64831995D01*
X110593918Y-64831995D01*
X110593917Y-64831989D01*
X110569693Y-64647989D01*
X110569693Y-64647986D01*
X110508606Y-64420007D01*
X110418284Y-64201951D01*
X110418282Y-64201948D01*
X110418280Y-64201943D01*
X110376118Y-64128918D01*
X110300273Y-63997550D01*
X110156592Y-63810301D01*
X110156587Y-63810295D01*
X109989704Y-63643412D01*
X109989697Y-63643406D01*
X109802454Y-63499730D01*
X109802453Y-63499729D01*
X109802450Y-63499727D01*
X109715853Y-63449730D01*
X109598056Y-63381719D01*
X109598045Y-63381714D01*
X109379993Y-63291394D01*
X109152010Y-63230306D01*
X108918020Y-63199501D01*
X108918017Y-63199500D01*
X108918011Y-63199500D01*
X108681989Y-63199500D01*
X108681983Y-63199500D01*
X108681979Y-63199501D01*
X108447989Y-63230306D01*
X108220006Y-63291394D01*
X108001954Y-63381714D01*
X108001943Y-63381719D01*
X107797545Y-63499730D01*
X107610302Y-63643406D01*
X107610295Y-63643412D01*
X107443412Y-63810295D01*
X107443406Y-63810302D01*
X107299730Y-63997545D01*
X107181719Y-64201943D01*
X107181714Y-64201954D01*
X107091394Y-64420006D01*
X107030306Y-64647989D01*
X106999501Y-64881979D01*
X106999500Y-64881995D01*
X105480500Y-64881995D01*
X105480500Y-61824500D01*
X105500185Y-61757461D01*
X105552989Y-61711706D01*
X105604500Y-61700500D01*
X199955500Y-61700500D01*
X200022539Y-61720185D01*
G37*
%TD.AperFunction*%
%TD*%
M02*
